<svg xmlns="http://www.w3.org/2000/svg" xmlns:xlink="http://www.w3.org/1999/xlink" width="101" height="101" viewBox="0 0 101 101">
  <defs>
    <clipPath id="clip-path">
      <rect id="Rectángulo_405308" data-name="Rectángulo 405308" width="75" height="75" transform="translate(647.711 4226)" fill="#fff" stroke="#707070" stroke-width="1"/>
    </clipPath>
    <clipPath id="clip-path-2">
      <path id="path2406" d="M0-75H75V0H0Z"/>
    </clipPath>
  </defs>
  <g id="Grupo_1107445" data-name="Grupo 1107445" transform="translate(-634.711 -4213)">
    <circle id="Elipse_11704" data-name="Elipse 11704" cx="50.5" cy="50.5" r="50.5" transform="translate(634.711 4213)" fill="#f5daaa"/>
    <g id="Enmascarar_grupo_1098833" data-name="Enmascarar grupo 1098833" clip-path="url(#clip-path)">
      <g id="g2400" transform="translate(647.711 4301)">
        <g id="g2402">
          <g id="g2404" clip-path="url(#clip-path-2)">
            <g id="g2410" transform="translate(36.11 -13.232)">
              <path id="path2412" d="M0,0H-27.733a4.853,4.853,0,0,1-4.853-4.853V-9.707H4.662Z" fill="#d3dcfb"/>
            </g>
            <g id="g2414" transform="translate(66.623 -52.061)">
              <path id="path2416" d="M0,0V33.975H-58.247A4.853,4.853,0,0,1-63.1,29.121V0l33.977-12.134Z" fill="#ebf5fc"/>
            </g>
            <g id="g2418" transform="translate(12.06 -42.354)">
              <path id="path2420" d="M0,0H-2.51A1.172,1.172,0,0,1-3.682-1.172v-2.51A1.172,1.172,0,0,1-2.51-4.853H0A1.172,1.172,0,0,1,1.172-3.682v2.51A1.172,1.172,0,0,1,0,0" fill="#5c4111"/>
            </g>
            <g id="g2422" transform="translate(21.767 -42.354)">
              <path id="path2424" d="M0,0H-2.51A1.172,1.172,0,0,1-3.682-1.172v-2.51A1.172,1.172,0,0,1-2.51-4.853H0A1.172,1.172,0,0,1,1.172-3.682v2.51A1.172,1.172,0,0,1,0,0" fill="#5c4111"/>
            </g>
            <g id="g2426" transform="translate(31.474 -42.354)">
              <path id="path2428" d="M0,0H-2.51A1.172,1.172,0,0,1-3.682-1.172v-2.51A1.172,1.172,0,0,1-2.51-4.853H0A1.172,1.172,0,0,1,1.172-3.682v2.51A1.172,1.172,0,0,1,0,0" fill="#5c4111"/>
            </g>
            <g id="g2430" transform="translate(41.181 -42.354)">
              <path id="path2432" d="M0,0H-2.51A1.172,1.172,0,0,1-3.682-1.172v-2.51A1.172,1.172,0,0,1-2.51-4.853H0A1.172,1.172,0,0,1,1.172-3.682v2.51A1.172,1.172,0,0,1,0,0" fill="#5c4111"/>
            </g>
            <g id="g2434" transform="translate(50.886 -42.354)">
              <path id="path2436" d="M0,0H-2.51A1.172,1.172,0,0,1-3.682-1.172v-2.51A1.172,1.172,0,0,1-2.51-4.853H0A1.172,1.172,0,0,1,1.172-3.682v2.51A1.172,1.172,0,0,1,0,0" fill="#5c4111"/>
            </g>
            <g id="g2438" transform="translate(60.593 -42.354)">
              <path id="path2440" d="M0,0H-2.51A1.172,1.172,0,0,1-3.682-1.172v-2.51A1.172,1.172,0,0,1-2.51-4.853H0A1.172,1.172,0,0,1,1.172-3.682v2.51A1.172,1.172,0,0,1,0,0" fill="#5c4111"/>
            </g>
            <g id="g2442" transform="translate(12.06 -32.646)">
              <path id="path2444" d="M0,0H-2.51A1.172,1.172,0,0,1-3.682-1.172v-2.51A1.172,1.172,0,0,1-2.51-4.853H0A1.172,1.172,0,0,1,1.172-3.682v2.51A1.172,1.172,0,0,1,0,0" fill="#5c4111"/>
            </g>
            <g id="g2446" transform="translate(21.767 -32.646)">
              <path id="path2448" d="M0,0H-2.51A1.172,1.172,0,0,1-3.682-1.172v-2.51A1.172,1.172,0,0,1-2.51-4.853H0A1.172,1.172,0,0,1,1.172-3.682v2.51A1.172,1.172,0,0,1,0,0" fill="#5c4111"/>
            </g>
            <g id="g2450" transform="translate(31.474 -32.646)">
              <path id="path2452" d="M0,0H-2.51A1.172,1.172,0,0,1-3.682-1.172v-2.51A1.172,1.172,0,0,1-2.51-4.853H0A1.172,1.172,0,0,1,1.172-3.682v2.51A1.172,1.172,0,0,1,0,0" fill="#5c4111"/>
            </g>
            <g id="g2454" transform="translate(42.353 -32.646)">
              <path id="path2456" d="M0,0V-3.64A1.213,1.213,0,0,0-1.213-4.853H-3.64A1.213,1.213,0,0,0-4.853-3.64v2.427A1.213,1.213,0,0,0-3.64,0Z" fill="#5c4111"/>
            </g>
            <g id="g2458" transform="translate(12.06 -22.939)">
              <path id="path2460" d="M0,0H-2.51A1.172,1.172,0,0,1-3.682-1.172v-2.51A1.172,1.172,0,0,1-2.51-4.853H0A1.172,1.172,0,0,1,1.172-3.682v2.51A1.172,1.172,0,0,1,0,0" fill="#5c4111"/>
            </g>
            <g id="g2462" transform="translate(21.767 -22.939)">
              <path id="path2464" d="M0,0H-2.51A1.172,1.172,0,0,1-3.682-1.172v-2.51A1.172,1.172,0,0,1-2.51-4.853H0A1.172,1.172,0,0,1,1.172-3.682v2.51A1.172,1.172,0,0,1,0,0" fill="#5c4111"/>
            </g>
            <g id="g2466" transform="translate(31.474 -22.939)">
              <path id="path2468" d="M0,0H-2.51A1.172,1.172,0,0,1-3.682-1.172v-2.51A1.172,1.172,0,0,1-2.51-4.853H0A1.172,1.172,0,0,1,1.172-3.682v2.51A1.172,1.172,0,0,1,0,0" fill="#5c4111"/>
            </g>
            <g id="g2470" transform="translate(60.593 -47.207)">
              <path id="path2472" d="M0,0H-2.51a1.169,1.169,0,0,0-.43.082A1.172,1.172,0,0,1-2.2,1.172v2.51a1.172,1.172,0,0,1-.742,1.09,1.166,1.166,0,0,0,.43.082H0A1.172,1.172,0,0,0,1.172,3.682V1.172A1.172,1.172,0,0,0,0,0" fill="#e5a32c"/>
            </g>
            <g id="g2474" transform="translate(50.886 -47.207)">
              <path id="path2476" d="M0,0H-2.51a1.169,1.169,0,0,0-.43.082A1.172,1.172,0,0,1-2.2,1.172v2.51a1.172,1.172,0,0,1-.742,1.09,1.166,1.166,0,0,0,.43.082H0A1.172,1.172,0,0,0,1.172,3.682V1.172A1.172,1.172,0,0,0,0,0" fill="#e5a32c"/>
            </g>
            <g id="g2478" transform="translate(41.181 -47.207)">
              <path id="path2480" d="M0,0H-2.51a1.169,1.169,0,0,0-.43.082A1.172,1.172,0,0,1-2.2,1.172v2.51a1.172,1.172,0,0,1-.742,1.09,1.166,1.166,0,0,0,.43.082H0A1.172,1.172,0,0,0,1.172,3.682V1.172A1.172,1.172,0,0,0,0,0" fill="#e5a32c"/>
            </g>
            <g id="g2482" transform="translate(31.474 -47.207)">
              <path id="path2484" d="M0,0H-2.51a1.169,1.169,0,0,0-.43.082A1.172,1.172,0,0,1-2.2,1.172v2.51a1.172,1.172,0,0,1-.742,1.09,1.166,1.166,0,0,0,.43.082H0A1.172,1.172,0,0,0,1.172,3.682V1.172A1.172,1.172,0,0,0,0,0" fill="#e5a32c"/>
            </g>
            <g id="g2486" transform="translate(21.767 -47.207)">
              <path id="path2488" d="M0,0H-2.51a1.169,1.169,0,0,0-.43.082A1.172,1.172,0,0,1-2.2,1.172v2.51a1.172,1.172,0,0,1-.742,1.09,1.166,1.166,0,0,0,.43.082H0A1.172,1.172,0,0,0,1.172,3.682V1.172A1.172,1.172,0,0,0,0,0" fill="#e5a32c"/>
            </g>
            <g id="g2490" transform="translate(12.06 -47.207)">
              <path id="path2492" d="M0,0H-2.51a1.169,1.169,0,0,0-.43.082A1.172,1.172,0,0,1-2.2,1.172v2.51a1.172,1.172,0,0,1-.742,1.09,1.166,1.166,0,0,0,.43.082H0A1.172,1.172,0,0,0,1.172,3.682V1.172A1.172,1.172,0,0,0,0,0" fill="#e5a32c"/>
            </g>
            <g id="g2494" transform="translate(12.06 -37.5)">
              <path id="path2496" d="M0,0H-2.51a1.169,1.169,0,0,0-.43.082A1.172,1.172,0,0,1-2.2,1.172v2.51a1.172,1.172,0,0,1-.742,1.09,1.166,1.166,0,0,0,.43.082H0A1.172,1.172,0,0,0,1.172,3.682V1.172A1.172,1.172,0,0,0,0,0" fill="#e5a32c"/>
            </g>
            <g id="g2498" transform="translate(12.06 -27.793)">
              <path id="path2500" d="M0,0H-2.51a1.169,1.169,0,0,0-.43.082A1.172,1.172,0,0,1-2.2,1.172v2.51a1.172,1.172,0,0,1-.742,1.09,1.166,1.166,0,0,0,.43.082H0A1.172,1.172,0,0,0,1.172,3.682V1.172A1.172,1.172,0,0,0,0,0" fill="#e5a32c"/>
            </g>
            <g id="g2502" transform="translate(21.767 -37.5)">
              <path id="path2504" d="M0,0H-2.51a1.169,1.169,0,0,0-.43.082A1.172,1.172,0,0,1-2.2,1.172v2.51a1.172,1.172,0,0,1-.742,1.09,1.166,1.166,0,0,0,.43.082H0A1.172,1.172,0,0,0,1.172,3.682V1.172A1.172,1.172,0,0,0,0,0" fill="#e5a32c"/>
            </g>
            <g id="g2506" transform="translate(21.767 -27.793)">
              <path id="path2508" d="M0,0H-2.51a1.169,1.169,0,0,0-.43.082A1.172,1.172,0,0,1-2.2,1.172v2.51a1.172,1.172,0,0,1-.742,1.09,1.166,1.166,0,0,0,.43.082H0A1.172,1.172,0,0,0,1.172,3.682V1.172A1.172,1.172,0,0,0,0,0" fill="#e5a32c"/>
            </g>
            <g id="g2510" transform="translate(31.474 -37.5)">
              <path id="path2512" d="M0,0H-2.51a1.169,1.169,0,0,0-.43.082A1.172,1.172,0,0,1-2.2,1.172v2.51a1.172,1.172,0,0,1-.742,1.09,1.166,1.166,0,0,0,.43.082H0A1.172,1.172,0,0,0,1.172,3.682V1.172A1.172,1.172,0,0,0,0,0" fill="#e5a32c"/>
            </g>
            <g id="g2514" transform="translate(42.353 -32.646)">
              <path id="path2516" d="M0,0V-3.682A1.172,1.172,0,0,0-1.172-4.853h-2.51a1.166,1.166,0,0,0-.43.082,1.172,1.172,0,0,1,.742,1.09v2.51a1.172,1.172,0,0,1-.742,1.09A1.169,1.169,0,0,0-3.682,0Z" fill="#e5a32c"/>
            </g>
            <g id="g2518" transform="translate(31.474 -27.793)">
              <path id="path2520" d="M0,0H-2.51a1.169,1.169,0,0,0-.43.082A1.172,1.172,0,0,1-2.2,1.172v2.51a1.172,1.172,0,0,1-.742,1.09,1.166,1.166,0,0,0,.43.082H0A1.172,1.172,0,0,0,1.172,3.682V1.172A1.172,1.172,0,0,0,0,0" fill="#e5a32c"/>
            </g>
            <g id="g2522" transform="translate(63.252 -53.465)">
              <path id="path2524" d="M0,0V35.379H3.371V1.4Z" fill="#d3dcfb"/>
            </g>
            <g id="g2526" transform="translate(66.623 -52.061)">
              <path id="path2528" d="M0,0V-12.134a4.853,4.853,0,0,0-4.853-4.853H-58.247A4.853,4.853,0,0,0-63.1-12.134V0Z" fill="#e36b24"/>
            </g>
            <g id="g2530" transform="translate(24.15 -64.801)">
              <path id="path2532" d="M0,0A3.033,3.033,0,0,1-3.033,3.033,3.033,3.033,0,0,1-6.067,0V-6.067A3.033,3.033,0,0,1-3.033-9.1,3.033,3.033,0,0,1,0-6.067Z" fill="#ebf5fc"/>
            </g>
            <g id="g2534" transform="translate(52.06 -64.801)">
              <path id="path2536" d="M0,0A3.033,3.033,0,0,1-3.033,3.033,3.033,3.033,0,0,1-6.067,0V-6.067A3.033,3.033,0,0,1-3.033-9.1,3.033,3.033,0,0,1,0-6.067Z" fill="#ebf5fc"/>
            </g>
            <g id="g2538" transform="translate(49.026 -73.901)">
              <path id="path2540" d="M0,0A3.018,3.018,0,0,0-1.683.51,3.03,3.03,0,0,1-.333,3.033V9.1a3.03,3.03,0,0,1-1.35,2.523A3.018,3.018,0,0,0,0,12.134,3.033,3.033,0,0,0,3.033,9.1V3.033A3.033,3.033,0,0,0,0,0" fill="#d3dcfb"/>
            </g>
            <g id="g2542" transform="translate(21.117 -73.901)">
              <path id="path2544" d="M0,0A3.019,3.019,0,0,0-1.683.51,3.03,3.03,0,0,1-.333,3.033V9.1a3.03,3.03,0,0,1-1.35,2.523A3.019,3.019,0,0,0,0,12.134,3.033,3.033,0,0,0,3.033,9.1V3.033A3.033,3.033,0,0,0,0,0" fill="#d3dcfb"/>
            </g>
            <g id="g2546" transform="translate(61.77 -69.048)">
              <path id="path2548" d="M0,0H-3.37A4.853,4.853,0,0,1,1.483,4.853V16.987h3.37V4.853A4.853,4.853,0,0,0,0,0" fill="#5b2b0e"/>
            </g>
            <g id="g2550" transform="translate(35.073 -19.299)">
              <path id="path2552" d="M0,0A18.2,18.2,0,0,1,18.2-18.2,18.2,18.2,0,0,1,36.4,0,18.2,18.2,0,0,1,18.2,18.2,18.2,18.2,0,0,1,0,0" fill="#93c123"/>
            </g>
            <g id="g2554" transform="translate(39.927 -19.299)">
              <path id="path2556" d="M0,0A13.347,13.347,0,0,1,13.347-13.347,13.347,13.347,0,0,1,26.694,0,13.347,13.347,0,0,1,13.347,13.347,13.347,13.347,0,0,1,0,0" fill="#ebf5fc"/>
            </g>
            <g id="g2558" transform="translate(53.274 -37.5)">
              <path id="path2560" d="M0,0C-.568,0-1.13.027-1.685.078A18.2,18.2,0,0,1,14.832,18.2,18.2,18.2,0,0,1-1.685,36.323c.555.051,1.117.078,1.685.078A18.2,18.2,0,0,0,18.2,18.2,18.2,18.2,0,0,0,0,0" fill="#33430c"/>
            </g>
            <g id="g2562" transform="translate(53.274 -32.646)">
              <path id="path2564" d="M0,0A13.5,13.5,0,0,0-1.683.105,13.35,13.35,0,0,1,9.98,13.347,13.349,13.349,0,0,1-1.683,26.589,13.468,13.468,0,0,0,0,26.694,13.347,13.347,0,0,0,13.347,13.347,13.347,13.347,0,0,0,0,0" fill="#d3dcfb"/>
            </g>
            <g id="g2566" transform="translate(55.701 -19.299)">
              <path id="path2568" d="M0,0A2.427,2.427,0,0,1-2.427,2.427,2.427,2.427,0,0,1-4.853,0,2.427,2.427,0,0,1-2.427-2.427,2.427,2.427,0,0,1,0,0" fill="#e5a32c"/>
            </g>
            <g id="g2570" transform="translate(66.623 -31.67)">
              <path id="path2572" d="M0,0V-32.524a4.853,4.853,0,0,0-4.853-4.853H-14.56" fill="none" stroke="#000" stroke-linecap="round" stroke-linejoin="round" stroke-miterlimit="10" stroke-width="2.197"/>
            </g>
            <g id="g2574" transform="translate(3.523 -42.583)">
              <path id="path2576" d="M0,0V19.644A4.853,4.853,0,0,0,4.853,24.5H31.6" fill="none" stroke="#000" stroke-linecap="round" stroke-linejoin="round" stroke-miterlimit="10" stroke-width="2.197"/>
            </g>
            <g id="g2578" transform="translate(18.084 -69.048)">
              <path id="path2580" d="M0,0H-9.707A4.853,4.853,0,0,0-14.56,4.853V22.07" fill="none" stroke="#000" stroke-linecap="round" stroke-linejoin="round" stroke-miterlimit="10" stroke-width="2.197"/>
            </g>
            <g id="g2582" transform="translate(45.993 -69.048)">
              <path id="path2584" d="M0,0H-21.842" fill="none" stroke="#000" stroke-linecap="round" stroke-linejoin="round" stroke-miterlimit="10" stroke-width="2.197"/>
            </g>
            <g id="g2586" transform="translate(11.034 -13.232)">
              <path id="path2588" d="M0,0H-2.658A4.853,4.853,0,0,1-7.511-4.853V-9.707" fill="none" stroke="#000" stroke-linecap="round" stroke-linejoin="round" stroke-miterlimit="10" stroke-width="2.197"/>
            </g>
            <g id="g2590" transform="translate(36.11 -13.232)">
              <path id="path2592" d="M0,0H-20.681" fill="none" stroke="#000" stroke-linecap="round" stroke-linejoin="round" stroke-miterlimit="10" stroke-width="2.197"/>
            </g>
            <g id="g2594" transform="translate(24.15 -64.801)">
              <path id="path2596" d="M0,0A3.033,3.033,0,0,1-3.033,3.033,3.033,3.033,0,0,1-6.067,0V-6.067A3.033,3.033,0,0,1-3.033-9.1,3.033,3.033,0,0,1,0-6.067Z" fill="none" stroke="#000" stroke-linecap="round" stroke-linejoin="round" stroke-miterlimit="10" stroke-width="2.197"/>
            </g>
            <g id="g2598" transform="translate(18.084 -64.194)">
              <path id="path2600" d="M0,0H-2.427" fill="none" stroke="#000" stroke-linecap="round" stroke-linejoin="round" stroke-miterlimit="10" stroke-width="2.197"/>
            </g>
            <g id="g2602" transform="translate(24.15 -64.194)">
              <path id="path2604" d="M0,0H2.427" fill="none" stroke="#000" stroke-linecap="round" stroke-linejoin="round" stroke-miterlimit="10" stroke-width="2.197"/>
            </g>
            <g id="g2606" transform="translate(3.523 -52.061)">
              <path id="path2608" d="M0,0H63.1" fill="none" stroke="#000" stroke-linecap="round" stroke-linejoin="round" stroke-miterlimit="10" stroke-width="2.197"/>
            </g>
            <g id="g2610" transform="translate(3.523 -56.914)">
              <path id="path2612" d="M0,0H63.1" fill="none" stroke="#000" stroke-linecap="round" stroke-linejoin="round" stroke-miterlimit="10" stroke-width="2.197"/>
            </g>
            <g id="g2614" transform="translate(52.06 -64.801)">
              <path id="path2616" d="M0,0A3.033,3.033,0,0,1-3.033,3.033,3.033,3.033,0,0,1-6.067,0V-6.067A3.033,3.033,0,0,1-3.033-9.1,3.033,3.033,0,0,1,0-6.067Z" fill="none" stroke="#000" stroke-linecap="round" stroke-linejoin="round" stroke-miterlimit="10" stroke-width="2.197"/>
            </g>
            <g id="g2618" transform="translate(45.993 -64.194)">
              <path id="path2620" d="M0,0H-2.427" fill="none" stroke="#000" stroke-linecap="round" stroke-linejoin="round" stroke-miterlimit="10" stroke-width="2.197"/>
            </g>
            <g id="g2622" transform="translate(52.06 -64.194)">
              <path id="path2624" d="M0,0H2.427" fill="none" stroke="#000" stroke-linecap="round" stroke-linejoin="round" stroke-miterlimit="10" stroke-width="2.197"/>
            </g>
            <g id="g2626" transform="translate(12.06 -42.354)">
              <path id="path2628" d="M0,0H-2.51A1.172,1.172,0,0,1-3.682-1.172v-2.51A1.172,1.172,0,0,1-2.51-4.853H0A1.172,1.172,0,0,1,1.172-3.682v2.51A1.172,1.172,0,0,1,0,0Z" fill="none" stroke="#000" stroke-linecap="round" stroke-linejoin="round" stroke-miterlimit="10" stroke-width="2.197"/>
            </g>
            <g id="g2630" transform="translate(21.767 -42.354)">
              <path id="path2632" d="M0,0H-2.51A1.172,1.172,0,0,1-3.682-1.172v-2.51A1.172,1.172,0,0,1-2.51-4.853H0A1.172,1.172,0,0,1,1.172-3.682v2.51A1.172,1.172,0,0,1,0,0Z" fill="none" stroke="#000" stroke-linecap="round" stroke-linejoin="round" stroke-miterlimit="10" stroke-width="2.197"/>
            </g>
            <g id="g2634" transform="translate(31.474 -42.354)">
              <path id="path2636" d="M0,0H-2.51A1.172,1.172,0,0,1-3.682-1.172v-2.51A1.172,1.172,0,0,1-2.51-4.853H0A1.172,1.172,0,0,1,1.172-3.682v2.51A1.172,1.172,0,0,1,0,0Z" fill="none" stroke="#000" stroke-linecap="round" stroke-linejoin="round" stroke-miterlimit="10" stroke-width="2.197"/>
            </g>
            <g id="g2638" transform="translate(41.181 -42.354)">
              <path id="path2640" d="M0,0H-2.51A1.172,1.172,0,0,1-3.682-1.172v-2.51A1.172,1.172,0,0,1-2.51-4.853H0A1.172,1.172,0,0,1,1.172-3.682v2.51A1.172,1.172,0,0,1,0,0Z" fill="none" stroke="#000" stroke-linecap="round" stroke-linejoin="round" stroke-miterlimit="10" stroke-width="2.197"/>
            </g>
            <g id="g2642" transform="translate(50.886 -42.354)">
              <path id="path2644" d="M0,0H-2.51A1.172,1.172,0,0,1-3.682-1.172v-2.51A1.172,1.172,0,0,1-2.51-4.853H0A1.172,1.172,0,0,1,1.172-3.682v2.51A1.172,1.172,0,0,1,0,0Z" fill="none" stroke="#000" stroke-linecap="round" stroke-linejoin="round" stroke-miterlimit="10" stroke-width="2.197"/>
            </g>
            <g id="g2646" transform="translate(60.593 -42.354)">
              <path id="path2648" d="M0,0H-2.51A1.172,1.172,0,0,1-3.682-1.172v-2.51A1.172,1.172,0,0,1-2.51-4.853H0A1.172,1.172,0,0,1,1.172-3.682v2.51A1.172,1.172,0,0,1,0,0Z" fill="none" stroke="#000" stroke-linecap="round" stroke-linejoin="round" stroke-miterlimit="10" stroke-width="2.197"/>
            </g>
            <g id="g2650" transform="translate(12.06 -32.646)">
              <path id="path2652" d="M0,0H-2.51A1.172,1.172,0,0,1-3.682-1.172v-2.51A1.172,1.172,0,0,1-2.51-4.853H0A1.172,1.172,0,0,1,1.172-3.682v2.51A1.172,1.172,0,0,1,0,0Z" fill="none" stroke="#000" stroke-linecap="round" stroke-linejoin="round" stroke-miterlimit="10" stroke-width="2.197"/>
            </g>
            <g id="g2654" transform="translate(21.767 -32.646)">
              <path id="path2656" d="M0,0H-2.51A1.172,1.172,0,0,1-3.682-1.172v-2.51A1.172,1.172,0,0,1-2.51-4.853H0A1.172,1.172,0,0,1,1.172-3.682v2.51A1.172,1.172,0,0,1,0,0Z" fill="none" stroke="#000" stroke-linecap="round" stroke-linejoin="round" stroke-miterlimit="10" stroke-width="2.197"/>
            </g>
            <g id="g2658" transform="translate(31.474 -32.646)">
              <path id="path2660" d="M0,0H-2.51A1.172,1.172,0,0,1-3.682-1.172v-2.51A1.172,1.172,0,0,1-2.51-4.853H0A1.172,1.172,0,0,1,1.172-3.682v2.51A1.172,1.172,0,0,1,0,0Z" fill="none" stroke="#000" stroke-linecap="round" stroke-linejoin="round" stroke-miterlimit="10" stroke-width="2.197"/>
            </g>
            <g id="g2662" transform="translate(40.9 -32.646)">
              <path id="path2664" d="M0,0H-2.187A1.213,1.213,0,0,1-3.4-1.213V-3.64A1.213,1.213,0,0,1-2.187-4.853H.24A1.213,1.213,0,0,1,1.453-3.64v2.427" fill="none" stroke="#000" stroke-linecap="round" stroke-linejoin="round" stroke-miterlimit="10" stroke-width="2.197"/>
            </g>
            <g id="g2666" transform="translate(12.06 -22.939)">
              <path id="path2668" d="M0,0H-2.51A1.172,1.172,0,0,1-3.682-1.172v-2.51A1.172,1.172,0,0,1-2.51-4.853H0A1.172,1.172,0,0,1,1.172-3.682v2.51A1.172,1.172,0,0,1,0,0Z" fill="none" stroke="#000" stroke-linecap="round" stroke-linejoin="round" stroke-miterlimit="10" stroke-width="2.197"/>
            </g>
            <g id="g2670" transform="translate(21.767 -22.939)">
              <path id="path2672" d="M0,0H-2.51A1.172,1.172,0,0,1-3.682-1.172v-2.51A1.172,1.172,0,0,1-2.51-4.853H0A1.172,1.172,0,0,1,1.172-3.682v2.51A1.172,1.172,0,0,1,0,0Z" fill="none" stroke="#000" stroke-linecap="round" stroke-linejoin="round" stroke-miterlimit="10" stroke-width="2.197"/>
            </g>
            <g id="g2674" transform="translate(31.474 -22.939)">
              <path id="path2676" d="M0,0H-2.51A1.172,1.172,0,0,1-3.682-1.172v-2.51A1.172,1.172,0,0,1-2.51-4.853H0A1.172,1.172,0,0,1,1.172-3.682v2.51A1.172,1.172,0,0,1,0,0Z" fill="none" stroke="#000" stroke-linecap="round" stroke-linejoin="round" stroke-miterlimit="10" stroke-width="2.197"/>
            </g>
            <g id="g2678" transform="translate(35.073 -19.299)">
              <path id="path2680" d="M0,0A18.2,18.2,0,0,1,18.2-18.2,18.2,18.2,0,0,1,36.4,0,18.2,18.2,0,0,1,18.2,18.2,18.2,18.2,0,0,1,0,0Z" fill="none" stroke="#000" stroke-linecap="round" stroke-linejoin="round" stroke-miterlimit="10" stroke-width="2.197"/>
            </g>
            <g id="g2682" transform="translate(39.927 -19.299)">
              <path id="path2684" d="M0,0A13.347,13.347,0,0,1,13.347-13.347,13.347,13.347,0,0,1,26.694,0,13.347,13.347,0,0,1,13.347,13.347,13.347,13.347,0,0,1,0,0Z" fill="none" stroke="#000" stroke-linecap="round" stroke-linejoin="round" stroke-miterlimit="10" stroke-width="2.197"/>
            </g>
            <g id="g2686" transform="translate(55.701 -19.299)">
              <path id="path2688" d="M0,0A2.427,2.427,0,0,1-2.427,2.427,2.427,2.427,0,0,1-4.853,0,2.427,2.427,0,0,1-2.427-2.427,2.427,2.427,0,0,1,0,0Z" fill="none" stroke="#000" stroke-linecap="round" stroke-linejoin="round" stroke-miterlimit="10" stroke-width="2.197"/>
            </g>
            <g id="g2690" transform="translate(53.274 -21.726)">
              <path id="path2692" d="M0,0V-6.067" fill="none" stroke="#000" stroke-linecap="round" stroke-linejoin="round" stroke-miterlimit="10" stroke-width="2.197"/>
            </g>
            <g id="g2694" transform="translate(55.701 -19.299)">
              <path id="path2696" d="M0,0H3.64" fill="none" stroke="#000" stroke-linecap="round" stroke-linejoin="round" stroke-miterlimit="10" stroke-width="2.197"/>
            </g>
          </g>
        </g>
      </g>
    </g>
  </g>
</svg>
