<svg xmlns="http://www.w3.org/2000/svg" xmlns:xlink="http://www.w3.org/1999/xlink" width="85.211" height="95.294" viewBox="0 0 85.211 95.294">
  <defs>
    <clipPath id="clip-path">
      <rect id="Rectángulo_405304" data-name="Rectángulo 405304" width="85.211" height="95.294" fill="none"/>
    </clipPath>
  </defs>
  <g id="Grupo_1107336" data-name="Grupo 1107336" transform="translate(-180 -1023.27)">
    <ellipse id="Elipse_11629" data-name="Elipse 11629" cx="31.984" cy="32.394" rx="31.984" ry="32.394" transform="translate(185.095 1040)" fill="#93c123"/>
    <g id="Grupo_1107335" data-name="Grupo 1107335" transform="translate(180 1023.267)">
      <rect id="Rectángulo_405298" data-name="Rectángulo 405298" width="3.804" height="26.401" transform="translate(30.31 68.891)" fill="#de7222"/>
      <rect id="Rectángulo_405299" data-name="Rectángulo 405299" width="3.804" height="26.401" transform="translate(80.391 68.891)" fill="#de7222"/>
      <g id="Grupo_1107334" data-name="Grupo 1107334" transform="translate(0 0.003)">
        <g id="Grupo_1107333" data-name="Grupo 1107333" transform="translate(0 0)" clip-path="url(#clip-path)">
          <path id="Trazado_999933" data-name="Trazado 999933" d="M463.087,723.874a11.251,11.251,0,1,0-10.952-11.247,11.1,11.1,0,0,0,10.952,11.247m0-3.732a7.518,7.518,0,1,1,7.318-7.515,7.418,7.418,0,0,1-7.318,7.515" transform="translate(-421.686 -654.145)" fill="#eedee3" fill-rule="evenodd"/>
          <rect id="Rectángulo_405300" data-name="Rectángulo 405300" width="34.668" height="10.265" transform="translate(41.776 57.861)" fill="#928487"/>
          <path id="Trazado_999934" data-name="Trazado 999934" d="M336.111,292.534c1.594.4,3.005,1.911,4.342,3.86a65.629,65.629,0,0,0,6.965,7.147,1.475,1.475,0,0,0,1.982.215c2.176-1.216,4.423-2.3,6.635-3.447l.9,3.662c-2.427,1.824-4.8,3.723-7.281,5.472a2.636,2.636,0,0,1-2.844.215,58.092,58.092,0,0,1-12.055-8.778l1.351-8.347" transform="translate(-312.215 -272.833)" fill="#de7222" fill-rule="evenodd"/>
          <path id="Trazado_999935" data-name="Trazado 999935" d="M56.3,1355.18c-.008.837-.06,1.674-.024,2.51.042.976.7,1.152,1.375,1.182,2.291.1,4.584.236,6.877.193.824-.016,1.022-.588.338-1.134a15.936,15.936,0,0,0-2.316-1.375c-.895-.493-1.08-.988-1.086-1.52l-5.163.145" transform="translate(-52.473 -1263.779)" fill="#625456" fill-rule="evenodd"/>
          <path id="Trazado_999936" data-name="Trazado 999936" d="M237.587,1355.18c-.008.837-.06,1.674-.024,2.51.042.976.7,1.152,1.375,1.182,2.291.1,4.584.236,6.877.193.824-.016,1.022-.588.338-1.134a20.9,20.9,0,0,0-2.751-1.375c-.895-.493-1.08-.988-1.086-1.52-1.721.048-3.008.1-4.729.145" transform="translate(-221.552 -1263.779)" fill="#625456" fill-rule="evenodd"/>
          <path id="Trazado_999937" data-name="Trazado 999937" d="M24.365,256.673a24.156,24.156,0,0,0-13.014-2.661c-2.112,1.3-2.892,3.3-3.667,5.79-2.254,7.234-5.733,12.71-7,18.238-1.215,5.318-.607,10.1.193,14.764a77.13,77.13,0,0,0,3.957,15.15,4.677,4.677,0,0,1,.048,3.233c-1.78,5.852-1.742,11.331-1.689,16.839,0,.4.379.717.917.724a39.169,39.169,0,0,0,5.018-.145c.526-.061.817-.653.917-1.254.961-5.8,1.756-11.619,2.7-17.418A17.2,17.2,0,0,0,12.7,304.1c-.611-3.521-1.134-7.06-1.5-10.615-.046-.45.457-.58.627-.145,1.71,4.378,3.117,8.868,4.632,13.317a10.115,10.115,0,0,1,.386,5.5c-1.314,5.949-1.23,10.561-1.351,15.536a.73.73,0,0,0,.82.82c1.464-.073,2.931-.106,4.391-.241.311-.029.447-.378.531-.868.839-4.91,1.622-9.832,2.606-14.716a20.174,20.174,0,0,0-.483-9.312c-1.865-6.939-3.613-13.91-5.5-20.844a2.459,2.459,0,0,1,.048-1.785c2.088-4.576,4.273-9.083,5.71-14.915a25.885,25.885,0,0,0,.742-9.154" transform="translate(0 -236.82)" fill="#b9b88f" fill-rule="evenodd"/>
          <path id="Trazado_999938" data-name="Trazado 999938" d="M1.105,728.041a59.882,59.882,0,0,0,.806,6.272q.621,3.624,1.373,6.759a4.348,4.348,0,0,0,3.771-1.538,3.9,3.9,0,0,0,1.159-3.708c-.5-2.4-.968-5.232-1.324-8.079-.057-.454-.265-.487-.6-.4a21.581,21.581,0,0,1-5.188.691" transform="translate(-1.031 -678.329)" fill="#d0d3a4" fill-rule="evenodd"/>
          <path id="Trazado_999939" data-name="Trazado 999939" d="M255.4,702.3c-.961-3.689-1.92-7.379-2.916-11.059-.266.082-.532.166-.793.261a.56.56,0,0,0-.358.692c.481,2.289.936,4.587,1.527,6.85.48,1.836,1.4,2.907,2.539,3.256" transform="translate(-234.392 -644.687)" fill="#d0d3a4" fill-rule="evenodd"/>
          <path id="Trazado_999940" data-name="Trazado 999940" d="M237.615,257.553a25.359,25.359,0,0,0-7.427-1.987,14.617,14.617,0,0,1,2.139,8.221c-.008.311.185.463.473.548a14.123,14.123,0,0,0,3.363.7c.217.008.364-.2.448-.448a19.212,19.212,0,0,0,1-7.031" transform="translate(-214.686 -238.355)" fill="#de7222" fill-rule="evenodd"/>
          <path id="Trazado_999941" data-name="Trazado 999941" d="M258.656,186.775l-1.414,4.894c1,1.514,2.2,2.792,5.007,2.2.262-.055.492-.182.443-.539a9.563,9.563,0,0,1,.276-3.564l-4.311-2.99" transform="translate(-239.918 -174.197)" fill="#ffc19e" fill-rule="evenodd"/>
          <path id="Trazado_999942" data-name="Trazado 999942" d="M263.3,186.775l-1.079,3.735c1.3.738,3.156.693,5.155.446.058-.393.139-.79.236-1.19l-4.311-2.99" transform="translate(-244.557 -174.197)" fill="#f0a77d" fill-rule="evenodd"/>
          <path id="Trazado_999943" data-name="Trazado 999943" d="M279.324,76.235c2.157.858,2.948,3.961,1.767,6.93s-3.888,4.679-6.045,3.821-2.948-3.961-1.767-6.93,3.888-4.679,6.045-3.821" transform="translate(-254.364 -70.895)" fill="#ffc19e" fill-rule="evenodd"/>
          <path id="Trazado_999944" data-name="Trazado 999944" d="M232.683,6.157c-.576-.561-.9-.318-.976.488-.119,1.318-1.862,3.048-1.953,3.3-.455,1.241.394,2.1.151,2.922-.449,1.521-1.051,2.4-2.589,1.32-1.293-.91-2.079-2.1-1.641-3.725A6.323,6.323,0,0,0,225.721,7a4.212,4.212,0,0,1,.355-3.592,3.069,3.069,0,0,1,2.173-1.242,3.339,3.339,0,0,1,2-1.862,3.346,3.346,0,0,1,2.838,0,15.79,15.79,0,0,0,3.9,1.375c1.857.535,2.388,1.376,2.572,2.173a3.85,3.85,0,0,1-1.064,3.725,2.091,2.091,0,0,0-.488.843c-.167.349-.4.381-.522-.022-.344-1.1-.566-1.147-1.032-1.027a3.634,3.634,0,0,1-3.767-1.212" transform="translate(-210.305 -0.004)" fill="#9a6e1a" fill-rule="evenodd"/>
          <path id="Trazado_999945" data-name="Trazado 999945" d="M229.932,413.411a30.1,30.1,0,0,0,5.688,1.321c.393.048.581.223.515.493-.169.689-.31,1.388-.537,2.06-.452,1.336-2.363,1.826-3.9,2.777l-1.769-6.651" transform="translate(-214.447 -385.57)" fill="#d0d3a4" fill-rule="evenodd"/>
          <path id="Trazado_999946" data-name="Trazado 999946" d="M129.472,253.7a3.439,3.439,0,0,1,2.615,2.641c1.764,5.457,1.9,10.757,3.226,16.034a1.479,1.479,0,0,0,1.518,1.091c3.649.111,7.3-.291,10.935-.189a.551.551,0,0,1,.455.341,5.914,5.914,0,0,1,.341,1.744c.015.248.045.64-.19.72a45.552,45.552,0,0,1-15.716,2.413,2.948,2.948,0,0,1-2.562-1.8,48.228,48.228,0,0,1-4.412-15.418c-.271-2.548.021-8.151,3.789-7.575" transform="translate(-117.149 -236.574)" fill="#de7222" fill-rule="evenodd"/>
          <rect id="Rectángulo_405301" data-name="Rectángulo 405301" width="5.96" height="9.365" transform="translate(53.595 34.107)" fill="#928487"/>
          <path id="Trazado_999947" data-name="Trazado 999947" d="M701.216,314.325H685.711c-3.684,0-7.367-.018-11.051,0-.443,0-.4.361-.189.8.5,1.025,1.006,2.044,1.51,3.066l3.632,10.9q.5,0,1,.01h8.432l.1-.01a3.37,3.37,0,0,0,2.972-3.3,19.125,19.125,0,0,0,0-2.311c-.014-.434.238-.728,1.132-.755h7.972a.709.709,0,0,0,.707-.708v-6.981a.709.709,0,0,0-.707-.708" transform="translate(-628.903 -293.149)" fill="#eedee3" fill-rule="evenodd"/>
          <path id="Trazado_999948" data-name="Trazado 999948" d="M701.216,314.325H685.711c-3.684,0-7.367-.018-11.051,0-.443,0-.4.361-.189.8.5,1.025,1.006,2.044,1.51,3.066l.534,1.6h25.41v-4.762a.709.709,0,0,0-.707-.708" transform="translate(-628.903 -293.149)" fill="#e0cdd2" fill-rule="evenodd"/>
          <path id="Trazado_999949" data-name="Trazado 999949" d="M646.643,357.741a6.51,6.51,0,1,0-6.51-6.51,6.523,6.523,0,0,0,6.51,6.51" transform="translate(-597.023 -321.505)" fill="#625456" fill-rule="evenodd"/>
          <path id="Trazado_999950" data-name="Trazado 999950" d="M688.425,396.506a3.493,3.493,0,1,0-3.493-3.493,3.5,3.5,0,0,0,3.493,3.493" transform="translate(-638.805 -363.287)" fill="#a69a9d" fill-rule="evenodd"/>
          <path id="Trazado_999951" data-name="Trazado 999951" d="M620.961,612.572h33.664a.638.638,0,0,1,.6.424c4.226,5.82,3.5,11.452.036,16.98a.637.637,0,0,1-.635.635H620.961a.637.637,0,0,1-.635-.635V613.207a.637.637,0,0,1,.635-.635" transform="translate(-578.549 -571.318)" fill="#e0cdd2" fill-rule="evenodd"/>
          <rect id="Rectángulo_405302" data-name="Rectángulo 405302" width="1.865" height="11.682" transform="translate(69.366 29.572)" fill="#625456"/>
          <path id="Trazado_999952" data-name="Trazado 999952" d="M664.8,652.516h2.75a.443.443,0,0,1,.442.442v11.3a.443.443,0,0,1-.442.442H664.8a.443.443,0,0,1-.442-.442v-11.3a.443.443,0,0,1,.442-.442" transform="translate(-619.613 -608.572)" fill="#eedee3" fill-rule="evenodd"/>
          <path id="Trazado_999953" data-name="Trazado 999953" d="M750.853,701.378h2.75a.443.443,0,0,1,.442.442v4.715a.443.443,0,0,1-.442.442h-2.75a.443.443,0,0,1-.442-.442V701.82a.443.443,0,0,1,.442-.442" transform="translate(-699.874 -654.143)" fill="#eedee3" fill-rule="evenodd"/>
          <path id="Trazado_999954" data-name="Trazado 999954" d="M831.074,652.516h2.75a.443.443,0,0,1,.442.442v11.3a.443.443,0,0,1-.442.442h-2.75a.443.443,0,0,1-.442-.442v-11.3a.443.443,0,0,1,.442-.442" transform="translate(-774.692 -608.572)" fill="#eedee3" fill-rule="evenodd"/>
          <path id="Trazado_999955" data-name="Trazado 999955" d="M917.13,701.378h2.75a.443.443,0,0,1,.442.442v4.715a.443.443,0,0,1-.442.442h-2.75a.443.443,0,0,1-.442-.442V701.82a.443.443,0,0,1,.442-.442" transform="translate(-854.953 -654.143)" fill="#eedee3" fill-rule="evenodd"/>
          <path id="Trazado_999956" data-name="Trazado 999956" d="M996.622,652.516h2.75a.443.443,0,0,1,.442.442v11.3a.443.443,0,0,1-.442.442h-2.75a.443.443,0,0,1-.442-.442v-11.3a.443.443,0,0,1,.442-.442" transform="translate(-929.091 -608.572)" fill="#eedee3" fill-rule="evenodd"/>
          <path id="Trazado_999957" data-name="Trazado 999957" d="M1082.677,701.378h2.75a.443.443,0,0,1,.442.442v4.715a.443.443,0,0,1-.442.442h-2.75a.443.443,0,0,1-.442-.442V701.82a.443.443,0,0,1,.442-.442" transform="translate(-1009.351 -654.143)" fill="#eedee3" fill-rule="evenodd"/>
          <path id="Trazado_999958" data-name="Trazado 999958" d="M427.383,982.193h55.434a.516.516,0,0,1,.514.514v3.7a.516.516,0,0,1-.514.514H427.383a.516.516,0,0,1-.514-.514v-3.7a.516.516,0,0,1,.514-.514" transform="translate(-398.121 -916.046)" fill="#de7222" fill-rule="evenodd"/>
          <rect id="Rectángulo_405303" data-name="Rectángulo 405303" width="4.74" height="0.213" transform="matrix(0.252, -0.968, 0.968, 0.252, 34.252, 32.043)" fill="#625456"/>
          <path id="Trazado_999959" data-name="Trazado 999959" d="M523.35,397.924l.376.1-.144.874-.224.178-.2-.052-.109-.264Z" transform="translate(-487.824 -371.125)" fill="#625456" fill-rule="evenodd"/>
          <path id="Trazado_999960" data-name="Trazado 999960" d="M478.626,477.305a.88.88,0,1,1-1.7-.443,32.677,32.677,0,0,1,1.471-3.9c.183-.417.43-.739.246-1.292a.072.072,0,0,1-.014-.058c.023-.088.28-.1.575-.02s.515.21.493.3a.072.072,0,0,1-.041.043h0c-.43.393-.371.795-.414,1.248a32.684,32.684,0,0,1-.615,4.122" transform="translate(-444.776 -439.785)" fill="#dd9a0f" fill-rule="evenodd"/>
          <path id="Trazado_999961" data-name="Trazado 999961" d="M461.381,526.27a26.771,26.771,0,0,1,3.012-1.695c.61-.176.764.813.72,1.076a7.852,7.852,0,0,0,.3,1.632c.1.417.161.827-1,.981s-2.678.176-2.678.176Z" transform="translate(-430.309 -489.228)" fill="#ffc19e" fill-rule="evenodd"/>
        </g>
      </g>
    </g>
  </g>
</svg>
