<svg xmlns="http://www.w3.org/2000/svg" xmlns:xlink="http://www.w3.org/1999/xlink" width="101" height="101" viewBox="0 0 101 101">
  <defs>
    <clipPath id="clip-path">
      <rect id="Rectángulo_405268" data-name="Rectángulo 405268" width="85" height="85" transform="translate(914.711 5316)" fill="#fff" stroke="#707070" stroke-width="1"/>
    </clipPath>
  </defs>
  <g id="Grupo_1107445" data-name="Grupo 1107445" transform="translate(-908 -5307.836)">
    <circle id="Elipse_11675" data-name="Elipse 11675" cx="50.5" cy="50.5" r="50.5" transform="translate(908 5307.836)" fill="#f5daaa"/>
    <g id="Enmascarar_grupo_1098810" data-name="Enmascarar grupo 1098810" clip-path="url(#clip-path)">
      <g id="proteccion" transform="translate(914.711 5316)">
        <g id="Grupo_1107296" data-name="Grupo 1107296">
          <g id="Grupo_1107290" data-name="Grupo 1107290">
            <g id="Grupo_1107289" data-name="Grupo 1107289">
              <path id="Trazado_999295" data-name="Trazado 999295" d="M71.439,44.46H6.95l0-7.833A32.244,32.244,0,1,1,71.435,36.6Z" fill="#e5a32c"/>
              <path id="Trazado_999296" data-name="Trazado 999296" d="M46.064,44.46,46.046,2.927a14.843,14.843,0,0,0-13.739.006l.017,41.527H46.064Z" fill="#ffe645"/>
              <path id="Trazado_999297" data-name="Trazado 999297" d="M46.046,2.927a14.842,14.842,0,0,0-10.184-1.3,14.834,14.834,0,0,1,3.544,1.3l.017,41.533h6.641Z" fill="#f5d60c"/>
              <g id="Grupo_1107288" data-name="Grupo 1107288">
                <path id="Trazado_999298" data-name="Trazado 999298" d="M5.154,36.628l0,7.832H20l-.014-33.437a1.256,1.256,0,0,0-2.036-.984A33.99,33.99,0,0,0,5.154,36.628Z" fill="#ffe645"/>
                <path id="Trazado_999299" data-name="Trazado 999299" d="M19.985,11.022a1.256,1.256,0,0,0-2.036-.984,34.335,34.335,0,0,0-4.6,4.454l.013,29.967H20Z" fill="#f5d60c"/>
                <path id="Trazado_999300" data-name="Trazado 999300" d="M58.376,11.006,58.39,44.46H73.232l0-7.86A33.99,33.99,0,0,0,60.411,10.021,1.256,1.256,0,0,0,58.376,11.006Z" fill="#ffe645"/>
                <path id="Trazado_999301" data-name="Trazado 999301" d="M73.229,36.6A33.989,33.989,0,0,0,60.411,10.021a1.256,1.256,0,0,0-2.035.986v3.465A33.885,33.885,0,0,1,66.588,36.6l0,7.86h6.641Z" fill="#f5d60c"/>
              </g>
            </g>
            <path id="Trazado_999302" data-name="Trazado 999302" d="M60.178,56.058l1.168-.617A25.36,25.36,0,0,1,73.186,52.5a4.036,4.036,0,0,0,4.032-4.175,4.081,4.081,0,0,0-4.141-3.867H5.312a4.1,4.1,0,0,0-4.137,3.9A4.036,4.036,0,0,0,5.21,52.531,25.362,25.362,0,0,1,17.052,55.46l1.168.616a25.363,25.363,0,0,0,11.842,2.929L48.338,59a25.363,25.363,0,0,0,11.84-2.939Z" fill="#ffe645"/>
            <path id="Trazado_999303" data-name="Trazado 999303" d="M77.217,48.327a4.081,4.081,0,0,0-4.141-3.867H66.436a4.081,4.081,0,0,1,4.141,3.867A4.036,4.036,0,0,1,66.545,52.5a25.359,25.359,0,0,0-11.84,2.939l-1.168.617A25.36,25.36,0,0,1,41.7,59L29.879,59c.061,0,.122,0,.184,0L48.338,59a25.36,25.36,0,0,0,11.84-2.939l1.168-.617A25.36,25.36,0,0,1,73.186,52.5,4.036,4.036,0,0,0,77.217,48.327Z" fill="#f5d60c"/>
          </g>
          <g id="Grupo_1107295" data-name="Grupo 1107295">
            <g id="Grupo_1107294" data-name="Grupo 1107294">
              <g id="Grupo_1107291" data-name="Grupo 1107291">
                <path id="Trazado_999304" data-name="Trazado 999304" d="M29.718,52.093a3.228,3.228,0,0,0-3.863,2.432l-2.233,9.817C21.562,73.4,43.078,85.709,46,72.867l.461-2.029a3.776,3.776,0,0,1,7.365,1.675l-.461,2.029c-2.934,12.9,21.813,11,23.862,1.991l2.233-9.817a3.228,3.228,0,0,0-2.432-3.863Z" fill="#9ef"/>
              </g>
              <g id="Grupo_1107292" data-name="Grupo 1107292">
                <path id="Trazado_999305" data-name="Trazado 999305" d="M77.026,62.852,29.718,52.093a3.223,3.223,0,0,0-2.966.836l43.634,9.923a3.228,3.228,0,0,1,2.432,3.863l-2.233,9.817c-.832,3.657-5.4,6.142-10.343,6.942,6.665,1.214,15.774-1.626,16.983-6.942l2.233-9.817A3.228,3.228,0,0,0,77.026,62.852Z" fill="#82e2f5"/>
              </g>
              <g id="Grupo_1107293" data-name="Grupo 1107293">
                <path id="Trazado_999306" data-name="Trazado 999306" d="M20.913,64.912l2.453.558,2.489-10.945L23.4,53.967a2.276,2.276,0,0,0-2.724,1.714L19.2,62.188A2.276,2.276,0,0,0,20.913,64.912Z" fill="#93c123"/>
                <path id="Trazado_999307" data-name="Trazado 999307" d="M81.911,67.273l-2.453-.558L76.969,77.66l2.453.558A2.276,2.276,0,0,0,82.145,76.5L83.625,70a2.276,2.276,0,0,0-1.714-2.724Z" fill="#93c123"/>
              </g>
            </g>
          </g>
        </g>
        <g id="Grupo_1107297" data-name="Grupo 1107297">
          <path id="Trazado_999308" data-name="Trazado 999308" d="M84.386,67.617a3.789,3.789,0,0,0-2.2-1.558l-1.41-.321a4.56,4.56,0,0,0-3.474-4.1L59.777,57.652c4.376-2.085,8.41-3.9,13.41-3.9,6.067,0,7.1-8.86,1.291-10.356l0-6.793A35.137,35.137,0,0,0,61.189,9.048,2.656,2.656,0,0,0,58.139,9,33.078,33.078,0,0,0,47.292,4.112V2.926a1.245,1.245,0,0,0-.669-1.1,16.1,16.1,0,0,0-14.891.006,1.245,1.245,0,0,0-.668,1.1V4.119a33.062,33.062,0,0,0-10.843,4.9,2.655,2.655,0,0,0-3.05.052,35.6,35.6,0,0,0-6.2,6.393,1.246,1.246,0,0,0,1.991,1.5,33.366,33.366,0,0,1,5.658-5.864,1.238,1.238,0,0,0,.12.321l.013,31.8H6.4l0-6.587A32.394,32.394,0,0,1,9.755,22.17a1.246,1.246,0,0,0-2.234-1.1A34.861,34.861,0,0,0,3.908,36.628l0,6.773c-5.8,1.566-4.759,10.374,1.309,10.374,5.117,0,9.205,1.96,13.7,4.031l-.934,4.105a3.633,3.633,0,0,0,2.652,4.214l1.654.376a12.51,12.51,0,0,0,3.926,7.086A21.68,21.68,0,0,0,36.263,79.3c5.685,1.293,9.778-1.009,10.95-6.158l.461-2.029c.724-3.185,5.661-2.063,4.936,1.123l-.461,2.029c-.86,3.783.485,6.159,1.765,7.487C55.934,83.847,59.465,85,63.487,85a22.622,22.622,0,0,0,4.2-.4,1.246,1.246,0,0,0-.463-2.447c-4.786.906-9.412.051-11.513-2.128a5.36,5.36,0,0,1-1.13-5.206l.461-2.029c1.435-6.307-8.358-8.54-9.793-2.227l-.461,2.029c-.6,2.644-2.472,5.532-7.969,4.282-6.13-1.394-13.041-7.587-11.979-12.255L27.069,54.8h0a1.985,1.985,0,0,1,2.373-1.493L76.75,64.066a2.02,2.02,0,0,1,1.493,2.373l-2.233,9.818a6.562,6.562,0,0,1-3.082,3.766,1.246,1.246,0,0,0,1.331,2.1,10.294,10.294,0,0,0,3.223-3.074l1.663.378a3.6,3.6,0,0,0,4.214-2.653l1.48-6.506a3.5,3.5,0,0,0-.454-2.656ZM59.634,10.993A32.659,32.659,0,0,1,71.984,36.6l0,6.615H59.635L59.619,11s.015-.011.015-.009Zm-2.5.339.013,31.882H47.308L47.293,6.684a30.632,30.632,0,0,1,9.838,4.648ZM44.8,3.7l.017,39.51H33.57L33.553,3.709A13.607,13.607,0,0,1,44.8,3.7ZM21.23,11.345a30.609,30.609,0,0,1,9.834-4.654l.015,36.524H21.243ZM21.189,63.7a1.031,1.031,0,0,1-.776-1.234l1.48-6.506a1.1,1.1,0,0,1,1.234-.777l1.238.282-1.937,8.517Zm3.9-10.624-1.412-.321a3.525,3.525,0,0,0-4.192,2.567c-4.6-2.243-9.025-4.034-14.265-4.034-3.634,0-3.546-5.579.092-5.581H73.077c3.614,0,3.757,5.551.108,5.552-6.213,0-12.219,2.666-17.685,5.422l-25.506-5.8a4.48,4.48,0,0,0-4.9,2.2ZM82.411,69.721l-1.48,6.507A1.032,1.032,0,0,1,79.7,77l-1.239-.282,1.549-6.812.388-1.705,1.239.282a1.03,1.03,0,0,1,.776,1.234Z"/>
          <path id="Trazado_999309" data-name="Trazado 999309" d="M30.473,62.779l5.018-3.158a1.246,1.246,0,0,0-1.326-2.107l-5.018,3.158C27.751,61.55,29.164,63.6,30.473,62.779Z"/>
          <path id="Trazado_999310" data-name="Trazado 999310" d="M30.33,69.177a1.24,1.24,0,0,0,.662-.192l12.123-7.631a1.246,1.246,0,0,0-1.327-2.107L29.666,66.878A1.263,1.263,0,0,0,30.33,69.177Z"/>
          <path id="Trazado_999311" data-name="Trazado 999311" d="M59.981,69.489,65,66.331a1.246,1.246,0,0,0-1.326-2.107l-5.018,3.158C57.258,68.261,58.672,70.314,59.981,69.489Z"/>
          <path id="Trazado_999312" data-name="Trazado 999312" d="M59.838,75.887A1.239,1.239,0,0,0,60.5,75.7l12.123-7.631A1.246,1.246,0,0,0,71.3,65.958L59.173,73.588a1.263,1.263,0,0,0,.664,2.3Z"/>
        </g>
      </g>
    </g>
  </g>
</svg>
