<svg xmlns="http://www.w3.org/2000/svg" xmlns:xlink="http://www.w3.org/1999/xlink" width="101" height="101" viewBox="0 0 101 101">
  <defs>
    <clipPath id="clip-path">
      <rect id="Rectángulo_405273" data-name="Rectángulo 405273" width="85" height="85" transform="translate(-8130 -6186)" fill="#fff" stroke="#707070" stroke-width="1"/>
    </clipPath>
  </defs>
  <g id="Grupo_1107448" data-name="Grupo 1107448" transform="translate(8138.711 6194.328)">
    <circle id="Elipse_11688" data-name="Elipse 11688" cx="50.5" cy="50.5" r="50.5" transform="translate(-8138.711 -6194.328)" fill="#f5daaa"/>
    <g id="Enmascarar_grupo_1098813" data-name="Enmascarar grupo 1098813" clip-path="url(#clip-path)">
      <g id="manual" transform="translate(-8130 -6186)">
        <g id="_20-manual" data-name="20-manual">
          <path id="Trazado_999355" data-name="Trazado 999355" d="M83.672,14.609V70.391A5.312,5.312,0,0,1,78.359,75.7H42.5V70.391H73.047V62.462q1.972-.04,3.984-.04V9.3h1.328A5.312,5.312,0,0,1,83.672,14.609Z" fill="#e36b24"/>
          <path id="Trazado_999356" data-name="Trazado 999356" d="M73.047,62.462c-11.687.279-22.193,1.966-30.547,7.929V11.953c9.3-6.641,21.25-7.969,34.531-7.969V62.422Q75.019,62.422,73.047,62.462Z" fill="#e1e4ed"/>
          <path id="Trazado_999357" data-name="Trazado 999357" d="M73.047,62.462v7.929H42.5C50.854,64.427,61.359,62.741,73.047,62.462Z" fill="#afb4c8"/>
          <path id="Trazado_999358" data-name="Trazado 999358" d="M42.5,70.391V75.7H6.641a5.312,5.312,0,0,1-5.312-5.312V14.609A5.313,5.313,0,0,1,6.641,9.3H7.969V62.422q2.012,0,3.984.04v7.929Z" fill="#e36b24"/>
          <path id="Trazado_999359" data-name="Trazado 999359" d="M11.953,62.462q-1.972-.04-3.984-.04V3.984C21.25,3.984,33.2,5.313,42.5,11.953V70.391C34.146,64.427,23.641,62.741,11.953,62.462Z" fill="#f6fafd"/>
          <path id="Trazado_999360" data-name="Trazado 999360" d="M42.5,70.391H11.953V62.462C23.641,62.741,34.146,64.427,42.5,70.391Z" fill="#afb4c8"/>
          <path id="Trazado_999361" data-name="Trazado 999361" d="M83.672,62.422v5.313h-4.29a11.64,11.64,0,0,1-1.541,3.692l3.041,3.041-3.759,3.759-3.041-3.041a11.64,11.64,0,0,1-3.692,1.541v4.29H65.078v-4.29a11.64,11.64,0,0,1-3.692-1.541l-3.041,3.041-3.759-3.759,3.041-3.041a11.64,11.64,0,0,1-1.541-3.692H51.8V62.422h4.29a11.64,11.64,0,0,1,1.541-3.692l-3.041-3.041,3.759-3.759,3.041,3.041a11.64,11.64,0,0,1,3.692-1.541v-4.29h5.313v4.29a11.639,11.639,0,0,1,3.692,1.541l3.041-3.041,3.759,3.759L77.841,58.73a11.639,11.639,0,0,1,1.541,3.692Zm-9.3,2.656a6.641,6.641,0,1,0-6.641,6.641A6.641,6.641,0,0,0,74.375,65.078Z" fill="#e5a32c"/>
          <path id="Trazado_999362" data-name="Trazado 999362" d="M14.551,51.8c9.041.4,15.45,1.594,20.785,3.878l1.047-2.441c-5.643-2.416-12.344-3.679-21.715-4.093Zm0-6.641c9.041.4,15.45,1.594,20.785,3.878l1.047-2.441c-5.643-2.416-12.344-3.679-21.715-4.093Zm0-6.641c9.041.4,15.45,1.594,20.785,3.878l1.047-2.441c-5.643-2.416-12.344-3.679-21.715-4.093Zm0-6.641c9.041.4,15.45,1.594,20.785,3.878l1.047-2.441c-5.643-2.416-12.344-3.679-21.715-4.093Zm0-6.641c9.041.4,15.45,1.594,20.785,3.878l1.047-2.441c-5.643-2.416-12.344-3.679-21.715-4.093Zm21.832-5.2c-5.643-2.415-12.344-3.678-21.715-4.092l-.117,2.656c9.041.4,15.45,1.594,20.785,3.878Zm13.281,29C55,46.75,61.409,45.555,70.449,45.156L70.332,42.5c-9.375.413-16.07,1.676-21.715,4.091Zm0-6.641C55,40.109,61.409,38.914,70.449,38.516l-.117-2.656c-9.375.413-16.07,1.676-21.715,4.091Zm0-6.641C55,33.469,61.409,32.273,70.449,31.875l-.117-2.656c-9.375.413-16.07,1.676-21.715,4.091Zm0-6.641C55,26.828,61.409,25.633,70.449,25.234l-.117-2.656c-9.375.413-16.07,1.676-21.715,4.091ZM70.332,15.938c-9.375.413-16.07,1.676-21.715,4.091l1.047,2.441C55,20.188,61.409,18.992,70.449,18.594Z"/>
          <path id="Trazado_999363" data-name="Trazado 999363" d="M78.359,7.969V3.984a1.328,1.328,0,0,0-1.328-1.328c-12.049,0-24.545.946-34.531,7.681C32.514,3.6,20.017,2.656,7.969,2.656A1.328,1.328,0,0,0,6.641,3.984V7.969A6.649,6.649,0,0,0,0,14.609V70.391a6.649,6.649,0,0,0,6.641,6.641H50.469V74.375H43.828V71.1a34.3,34.3,0,0,1,5.836-3.2l-1.047-2.441a37.187,37.187,0,0,0-4.789,2.511V12.662C52.9,6.469,64.429,5.388,75.7,5.313v42.5h2.656V10.625a3.984,3.984,0,0,1,3.984,3.984V51.8H85V14.609a6.649,6.649,0,0,0-6.641-6.641ZM13.281,63.832c8.6.276,17.169,1.413,24.5,5.23h-24.5ZM9.3,5.313c11.274.072,22.808,1.153,31.875,7.346V67.936C31.791,62.2,20.4,61.168,9.3,61.094ZM6.641,74.375a3.984,3.984,0,0,1-3.984-3.984V14.609a3.984,3.984,0,0,1,3.984-3.984v51.8A1.328,1.328,0,0,0,7.969,63.75q1.328,0,2.656.02v6.621a1.328,1.328,0,0,0,1.328,1.328H41.172v2.656Z"/>
          <path id="Trazado_999364" data-name="Trazado 999364" d="M83.672,61.094H80.4a13,13,0,0,0-.894-2.15l2.318-2.318a1.328,1.328,0,0,0,0-1.878l-3.756-3.756a1.328,1.328,0,0,0-1.878,0L73.869,53.31a13.093,13.093,0,0,0-2.15-.894V49.141a1.328,1.328,0,0,0-1.328-1.328H65.078a1.328,1.328,0,0,0-1.328,1.328v3.275a13.093,13.093,0,0,0-2.15.894l-2.318-2.318a1.328,1.328,0,0,0-1.878,0l-3.756,3.756a1.328,1.328,0,0,0,0,1.878l2.318,2.318a13,13,0,0,0-.894,2.15H51.8a1.328,1.328,0,0,0-1.328,1.328v5.313A1.328,1.328,0,0,0,51.8,69.063h3.275a13,13,0,0,0,.894,2.15L53.648,73.53a1.328,1.328,0,0,0,0,1.878L57.4,79.164a1.328,1.328,0,0,0,1.878,0L61.6,76.847a13,13,0,0,0,2.15.894v3.275a1.328,1.328,0,0,0,1.328,1.328h5.313a1.328,1.328,0,0,0,1.328-1.328V77.74a13,13,0,0,0,2.15-.894l2.318,2.318a1.328,1.328,0,0,0,1.878,0l3.756-3.756a1.328,1.328,0,0,0,0-1.878L79.5,71.213a13,13,0,0,0,.894-2.15h3.275A1.328,1.328,0,0,0,85,67.734V62.422A1.328,1.328,0,0,0,83.672,61.094Zm-1.328,5.313H79.382a1.328,1.328,0,0,0-1.295,1.033,10.577,10.577,0,0,1-1.364,3.286,1.328,1.328,0,0,0,.183,1.647l2.1,2.1-1.878,1.878-2.1-2.1a1.328,1.328,0,0,0-1.647-.183A10.577,10.577,0,0,1,70.1,75.438a1.328,1.328,0,0,0-1.033,1.288v2.962H66.406V76.726a1.328,1.328,0,0,0-1.033-1.295,10.577,10.577,0,0,1-3.286-1.364,1.328,1.328,0,0,0-1.647.183l-2.1,2.1-1.878-1.878,2.1-2.1a1.328,1.328,0,0,0,.183-1.647,10.577,10.577,0,0,1-1.364-3.286,1.328,1.328,0,0,0-1.295-1.033H53.125V63.75h2.962a1.328,1.328,0,0,0,1.295-1.033,10.577,10.577,0,0,1,1.364-3.286,1.328,1.328,0,0,0-.183-1.647l-2.1-2.1,1.878-1.878,2.1,2.1a1.328,1.328,0,0,0,1.646.185,10.609,10.609,0,0,1,3.287-1.365,1.328,1.328,0,0,0,1.033-1.295V50.469h2.656V53.43A1.328,1.328,0,0,0,70.1,54.725a10.609,10.609,0,0,1,3.287,1.365,1.328,1.328,0,0,0,1.646-.185l2.1-2.1L79,55.687l-2.1,2.1a1.328,1.328,0,0,0-.183,1.647,10.577,10.577,0,0,1,1.371,3.286,1.328,1.328,0,0,0,1.288,1.033h2.962Z"/>
          <path id="Trazado_999365" data-name="Trazado 999365" d="M67.734,57.109A7.969,7.969,0,1,0,75.7,65.078a7.969,7.969,0,0,0-7.969-7.969Zm0,13.281a5.313,5.313,0,1,1,5.313-5.312A5.312,5.312,0,0,1,67.734,70.391Z"/>
        </g>
      </g>
    </g>
  </g>
</svg>
