<svg xmlns="http://www.w3.org/2000/svg" xmlns:xlink="http://www.w3.org/1999/xlink" width="63" height="63" viewBox="0 0 63 63">
  <defs>
    <clipPath id="clip-path">
      <rect id="Rectángulo_404608" data-name="Rectángulo 404608" width="63" height="63" transform="translate(306.711 3413)" fill="#fff" stroke="#707070" stroke-width="1"/>
    </clipPath>
  </defs>
  <g id="Enmascarar_grupo_1098796" data-name="Enmascarar grupo 1098796" transform="translate(-306.711 -3413)" clip-path="url(#clip-path)">
    <g id="mensaje" transform="translate(306.713 3413)">
      <g id="Icons">
        <path id="Trazado_998475" data-name="Trazado 998475" d="M41.746,12.6h13.9a6.3,6.3,0,0,1,6.3,6.3V48.3a6.3,6.3,0,0,1-6.3,6.3H40.77a2.106,2.106,0,0,0-1.491.619l-6.3,6.111a2.073,2.073,0,0,1-2.961,0l-6.3-6.111a2.106,2.106,0,0,0-1.491-.619H7.35a6.3,6.3,0,0,1-6.3-6.3V18.9a6.3,6.3,0,0,1,6.3-6.3Z" fill="#e5a32c"/>
        <path id="Trazado_998476" data-name="Trazado 998476" d="M36.129,55.217l-6.205,6.019.094.091a2.073,2.073,0,0,0,2.961,0l6.3-6.111A2.106,2.106,0,0,1,40.77,54.6H37.62A2.106,2.106,0,0,0,36.129,55.217Z" fill="#fec108"/>
        <path id="Trazado_998477" data-name="Trazado 998477" d="M55.647,12.6H52.5a6.3,6.3,0,0,1,6.3,6.3V48.3a6.3,6.3,0,0,1-6.3,6.3h3.15a6.3,6.3,0,0,0,6.3-6.3V18.9a6.3,6.3,0,0,0-6.3-6.3Z" fill="#5c4111"/>
        <path id="Trazado_998478" data-name="Trazado 998478" d="M50.608,26.5,35.95,3.5a5.275,5.275,0,0,0-8.9,0l-14.657,23a5.3,5.3,0,0,0,4.452,8.15H46.156a5.3,5.3,0,0,0,4.452-8.15Z" fill="#e36b24"/>
        <path id="Trazado_998479" data-name="Trazado 998479" d="M50.608,26.5,35.95,3.5a5.26,5.26,0,0,0-6.027-2.2A5.2,5.2,0,0,1,32.8,3.5l14.657,23a5.3,5.3,0,0,1-4.452,8.149h3.15A5.3,5.3,0,0,0,50.608,26.5Z" fill="#c81e1e"/>
        <g id="Grupo_1105782" data-name="Grupo 1105782">
          <path id="Trazado_998480" data-name="Trazado 998480" d="M34.648,10.5c0,1.74-1.41,11.549-3.15,11.549s-3.15-9.81-3.15-11.549a3.15,3.15,0,0,1,6.3,0Z" fill="#ffdf00"/>
          <circle id="Elipse_11681" data-name="Elipse 11681" cx="2.1" cy="2.1" r="2.1" transform="translate(29.399 26.249)" fill="#ffdf00"/>
        </g>
      </g>
      <g id="Icons_copy" data-name="Icons copy">
        <path id="Trazado_998481" data-name="Trazado 998481" d="M55.647,11.549H42.328L36.836,2.931a6.326,6.326,0,0,0-10.676,0l-5.491,8.618H7.35A7.359,7.359,0,0,0,0,18.9V48.3a7.359,7.359,0,0,0,7.35,7.35H22.227a1.063,1.063,0,0,1,.76.323l6.283,6.095a3.121,3.121,0,0,0,4.439.016l6.311-6.119a1.05,1.05,0,0,1,.749-.315H55.647A7.359,7.359,0,0,0,63,48.3V18.9a7.359,7.359,0,0,0-7.35-7.35ZM27.929,4.059a4.224,4.224,0,0,1,7.131,0l14.657,23A4.248,4.248,0,0,1,46.156,33.6H16.841a4.248,4.248,0,0,1-3.57-6.536ZM60.9,48.3a5.256,5.256,0,0,1-5.25,5.25H40.77a3.125,3.125,0,0,0-2.222.916l-6.314,6.126a1.037,1.037,0,0,1-1.483-.016l-6.287-6.1a3.134,3.134,0,0,0-2.236-.927H7.35A5.256,5.256,0,0,1,2.1,48.3V18.9a5.256,5.256,0,0,1,5.25-5.25H19.332L11.5,25.934A6.349,6.349,0,0,0,16.841,35.7H46.156a6.349,6.349,0,0,0,5.338-9.765L43.665,13.649H55.647A5.256,5.256,0,0,1,60.9,18.9Z"/>
        <path id="Trazado_998482" data-name="Trazado 998482" d="M31.5,23.1c3.291,0,4.2-12.473,4.2-12.6a4.2,4.2,0,0,0-8.4,0C27.3,10.625,28.208,23.1,31.5,23.1Zm0-14.7a2.1,2.1,0,0,1,2.1,2.1c0,1.819-1.1,8.423-2.1,10.21-1-1.785-2.1-8.391-2.1-10.21a2.1,2.1,0,0,1,2.1-2.1Z"/>
        <path id="Trazado_998483" data-name="Trazado 998483" d="M31.5,25.2a3.15,3.15,0,1,0,3.15,3.15A3.15,3.15,0,0,0,31.5,25.2Zm0,4.2a1.05,1.05,0,1,1,1.05-1.05A1.05,1.05,0,0,1,31.5,29.4Z"/>
        <path id="Trazado_998484" data-name="Trazado 998484" d="M46.2,37.8H16.8a1.05,1.05,0,1,0,0,2.1H46.2a1.05,1.05,0,1,0,0-2.1Z"/>
        <path id="Trazado_998485" data-name="Trazado 998485" d="M16.8,45.148H27.3a1.05,1.05,0,1,0,0-2.1H16.8a1.05,1.05,0,1,0,0,2.1Z"/>
        <path id="Trazado_998486" data-name="Trazado 998486" d="M46.2,43.048H31.5a1.05,1.05,0,1,0,0,2.1H46.2a1.05,1.05,0,1,0,0-2.1Z"/>
        <path id="Trazado_998487" data-name="Trazado 998487" d="M46.2,48.3H16.8a1.05,1.05,0,0,0,0,2.1H46.2a1.05,1.05,0,0,0,0-2.1Z"/>
      </g>
    </g>
  </g>
</svg>
