<svg xmlns="http://www.w3.org/2000/svg" xmlns:xlink="http://www.w3.org/1999/xlink" width="101" height="101" viewBox="0 0 101 101">
  <defs>
    <clipPath id="clip-path">
      <rect id="Rectángulo_405287" data-name="Rectángulo 405287" width="78" height="78" transform="translate(-4852 -7180)" fill="#fff" stroke="#707070" stroke-width="1"/>
    </clipPath>
  </defs>
  <g id="Grupo_1107450" data-name="Grupo 1107450" transform="translate(4864.519 7191.4)">
    <circle id="Elipse_11695" data-name="Elipse 11695" cx="50.5" cy="50.5" r="50.5" transform="translate(-4864.519 -7191.4)" fill="#f5daaa"/>
    <g id="Enmascarar_grupo_1098822" data-name="Enmascarar grupo 1098822" clip-path="url(#clip-path)">
      <g id="Layer_x0020_1" transform="translate(-4852.021 -7180.002)">
        <path id="Trazado_999473" data-name="Trazado 999473" d="M48.8,18.176H38.221c-1.623,0-.038-3.275-9.063-7.789a.914.914,0,0,1-.505-.817V2.886A2.617,2.617,0,0,1,31.467,0H46.874a.915.915,0,0,1,.683.307L55.25,8.963c.409.46.231,2.476.231,3.492a.914.914,0,0,1-.764.9c-.048.008-5,.884-5,3.906a.913.913,0,0,1-.914.913ZM38.84,16.348h9.133c.6-3,4.1-4.222,5.68-4.628v-1.8L46.464,1.829H31.491c-.976.013-1.009.482-1.009,1.009V9.009c5.758,2.992,7.73,6.013,8.358,7.339Z" fill-rule="evenodd"/>
        <path id="Trazado_999474" data-name="Trazado 999474" d="M51.138,11.211a.912.912,0,0,1-.684-.307L45.1,4.876H32.614a.914.914,0,0,1,0-1.828H45.507a.914.914,0,0,1,.683.307L51.821,9.69a.915.915,0,0,1-.683,1.522Z" fill-rule="evenodd"/>
        <path id="Trazado_999475" data-name="Trazado 999475" d="M29.567,10.483H25.36a2.84,2.84,0,0,1-2.837-2.837V4.9A2.84,2.84,0,0,1,25.36,2.068h4.207a.914.914,0,0,1,.914.914V9.569a.914.914,0,0,1-.914.914ZM25.36,3.9c-1.385,0-1.009,1.976-1.009,3.751A1.01,1.01,0,0,0,25.36,8.655h3.293V3.9H25.36Z" fill-rule="evenodd"/>
        <path id="Trazado_999476" data-name="Trazado 999476" d="M48.8,25.118H38.221a.914.914,0,0,1-.914-.914V17.262a.914.914,0,0,1,.914-.914H48.8a.914.914,0,0,1,.914.914V24.2A.914.914,0,0,1,48.8,25.118ZM39.135,23.29h8.749V18.176H39.135Z" fill-rule="evenodd"/>
        <path id="Trazado_999477" data-name="Trazado 999477" d="M30.13,26.4c-3.858,0-2.645-1.749-2.184-1.964,5.317-2.474,4.577-12.121,4.543-12.53a.914.914,0,0,1,1.822-.152c.083,1,.588,8.762-3.366,12.765,3.468-.424,5.468-3.376,6.383-7.46a.914.914,0,0,1,1.784.4c-1.2,5.345-4.217,8.941-8.982,8.941Z" fill-rule="evenodd"/>
        <path id="Trazado_999478" data-name="Trazado 999478" d="M54.028,68.861H24.759a.915.915,0,0,1-.914-.914V54.013A22.662,22.662,0,0,1,24.68,47.5a.915.915,0,0,1,.876-.653H54.028a.915.915,0,0,1,.914.914V67.947a.914.914,0,0,1-.914.914ZM25.673,67.033H53.113V48.676H26.253a21.891,21.891,0,0,0-.58,5.337Z" fill-rule="evenodd"/>
        <path id="Trazado_999479" data-name="Trazado 999479" d="M49.049,52.866c-1.728,0-3.6.359-3.6-.914s1.872-.914,3.6-.914A.914.914,0,0,1,49.049,52.866Zm-5.674,0H29.121a.914.914,0,0,1,0-1.828H43.375A.914.914,0,0,1,43.375,52.866Z" fill-rule="evenodd"/>
        <path id="Trazado_999480" data-name="Trazado 999480" d="M49.049,56.8H39.777a.914.914,0,0,1,0-1.828h9.272A.914.914,0,0,1,49.049,56.8Zm-12.539,0H29.121a.914.914,0,0,1,0-1.828h7.39a.914.914,0,0,1,0,1.828Z" fill-rule="evenodd"/>
        <path id="Trazado_999481" data-name="Trazado 999481" d="M49.049,60.736H34.877a.914.914,0,0,1,0-1.828H49.049A.914.914,0,0,1,49.049,60.736Zm-17.659,0c-1.479,0-3.183.322-3.183-.914s1.7-.914,3.183-.914a.914.914,0,0,1,0,1.828Z" fill-rule="evenodd"/>
        <path id="Trazado_999482" data-name="Trazado 999482" d="M49.666,64.672c-1.66,0-3.484.349-3.484-.914s1.825-.914,3.484-.914A.914.914,0,0,1,49.666,64.672Zm-6.014,0H29.121a.914.914,0,0,1,0-1.828H43.652a.914.914,0,0,1,0,1.828Z" fill-rule="evenodd"/>
        <path id="Trazado_999483" data-name="Trazado 999483" d="M53.114,68.861H25.673v4.38a2.935,2.935,0,0,0,2.932,2.932H50.182a2.935,2.935,0,0,0,2.932-2.932v-4.38Z" fill="#daecff" fill-rule="evenodd"/>
        <path id="Trazado_999484" data-name="Trazado 999484" d="M26.8,46.848H53.114V39.771c-.114-.566-5.23-12.1-5.23-12.683v-1.97H39.146c.162,7.338.032,9.64-6.168,14.283C30.6,41.181,28.172,43,26.8,46.848Z" fill="#daecff" fill-rule="evenodd"/>
        <path id="Trazado_999485" data-name="Trazado 999485" d="M39.134,23.29h8.749V18.176H39.134Z" fill="#5b2b0e" fill-rule="evenodd"/>
        <path id="Trazado_999486" data-name="Trazado 999486" d="M38.839,16.347h9.134c.6-3,4.1-4.222,5.68-4.628v-1.8L46.464,1.829H31.491c-.976.013-1.009.482-1.009,1.009V9.009a29.9,29.9,0,0,1,3.349,2.011.829.829,0,0,1,.235.166,14.17,14.17,0,0,1,4.774,5.162Zm12.3-5.136a.912.912,0,0,1-.684-.307L45.1,4.876H32.614a.914.914,0,0,1,0-1.828H45.507a.914.914,0,0,1,.683.307L51.821,9.69a.915.915,0,0,1-.683,1.522Z" fill="#daecff" fill-rule="evenodd"/>
        <path id="Trazado_999487" data-name="Trazado 999487" d="M28.653,8.655V3.9H25.36c-1.385,0-1.009,1.976-1.009,3.751A1.01,1.01,0,0,0,25.36,8.655h3.293Z" fill="#5b2b0e" fill-rule="evenodd"/>
        <path id="Trazado_999488" data-name="Trazado 999488" d="M34.376,13.694c-.018,2.81-.5,7.855-3.431,10.827,3.383-.414,5.37-3.233,6.314-7.163a10.635,10.635,0,0,0-2.883-3.663Z" fill="#ccdced" fill-rule="evenodd"/>
        <path id="Trazado_999489" data-name="Trazado 999489" d="M36.51,56.8H29.121a.914.914,0,0,1,0-1.828h7.39a.914.914,0,0,1,0,1.828Zm6.865-3.935H29.121a.914.914,0,0,1,0-1.828H43.375A.914.914,0,0,1,43.375,52.866Zm9.739-4.19H26.253a21.891,21.891,0,0,0-.58,5.337v13.02H53.113ZM34.877,60.736a.914.914,0,0,1,0-1.828H49.049a.914.914,0,0,1,0,1.828Zm-3.487-1.828a.914.914,0,0,1,0,1.828c-1.479,0-3.183.322-3.183-.914s1.7-.914,3.183-.914ZM49.049,56.8H39.777a.914.914,0,0,1,0-1.828h9.272A.914.914,0,0,1,49.049,56.8Zm0-3.935c-1.728,0-3.6.359-3.6-.914s1.872-.914,3.6-.914A.914.914,0,0,1,49.049,52.866ZM29.121,62.843H43.652a.914.914,0,0,1,0,1.828H29.121a.914.914,0,0,1,0-1.828Zm20.545,1.828c-1.66,0-3.484.349-3.484-.914s1.825-.914,3.484-.914A.914.914,0,0,1,49.666,64.671Z" fill="#93c123" fill-rule="evenodd"/>
        <path id="Trazado_999490" data-name="Trazado 999490" d="M50.181,78H28.606a4.766,4.766,0,0,1-4.76-4.761V54.6c0-15.33,8.858-15.214,12.229-20.715,2.873-4.687-.143-10.6,2.146-10.6H48.8c1.514,0,.711,2.6.914,3.615.114.566,5.231,12.1,5.231,12.683V73.242A4.766,4.766,0,0,1,50.181,78ZM39.146,25.117c.162,7.338.032,9.64-6.168,14.283-3.591,2.689-7.3,5.469-7.3,15.2V73.241a2.935,2.935,0,0,0,2.932,2.932H50.182a2.935,2.935,0,0,0,2.932-2.932V39.771c-.114-.566-5.23-12.1-5.23-12.683v-1.97H39.146Z" fill-rule="evenodd"/>
      </g>
    </g>
  </g>
</svg>
