<svg xmlns="http://www.w3.org/2000/svg" xmlns:xlink="http://www.w3.org/1999/xlink" width="101" height="101" viewBox="0 0 101 101">
  <defs>
    <clipPath id="clip-path">
      <rect id="Rectángulo_405288" data-name="Rectángulo 405288" width="78" height="78" transform="translate(-4580 -7180)" fill="#fff" stroke="#707070" stroke-width="1"/>
    </clipPath>
  </defs>
  <g id="Grupo_1107451" data-name="Grupo 1107451" transform="translate(4591.519 7191.4)">
    <circle id="Elipse_11693" data-name="Elipse 11693" cx="50.5" cy="50.5" r="50.5" transform="translate(-4591.519 -7191.4)" fill="#f5daaa"/>
    <g id="Enmascarar_grupo_1098823" data-name="Enmascarar grupo 1098823" clip-path="url(#clip-path)">
      <g id="productos-quimicos" transform="translate(-4581.258 -7181.258)">
        <g id="Grupo_1107313" data-name="Grupo 1107313">
          <g id="Grupo_1107305" data-name="Grupo 1107305">
            <path id="Trazado_999491" data-name="Trazado 999491" d="M67.935,3.774v6.29h-15.1V3.774A1.262,1.262,0,0,1,54.1,2.516H66.677A1.262,1.262,0,0,1,67.935,3.774Z" fill="#5b2b0e"/>
          </g>
          <g id="Grupo_1107306" data-name="Grupo 1107306">
            <path id="Trazado_999492" data-name="Trazado 999492" d="M77.912,27.677H77.9a2.308,2.308,0,0,0-.226-.579L67.935,10.065h-15.1L51.2,12.92a7.459,7.459,0,0,1,1.635,4.693V72.968A5.031,5.031,0,0,1,47.806,78H72.968A5.031,5.031,0,0,0,78,72.968V28.344a2.368,2.368,0,0,0-.088-.667Z" fill="#f4c4a7"/>
          </g>
          <g id="Grupo_1107307" data-name="Grupo 1107307">
            <path id="Trazado_999493" data-name="Trazado 999493" d="M22.645,16.355v6.29H7.548v-6.29A1.262,1.262,0,0,1,8.806,15.1H21.387A1.262,1.262,0,0,1,22.645,16.355Z" fill="#e5a32c"/>
          </g>
          <g id="Grupo_1107308" data-name="Grupo 1107308">
            <path id="Trazado_999494" data-name="Trazado 999494" d="M51.2,12.92a7.556,7.556,0,0,0-5.913-2.856H34.408A7.544,7.544,0,0,0,27.4,14.807l-3.6,9-1.157-1.157H7.548L3.623,27.552A5.019,5.019,0,0,0,2.516,30.7V72.968A5.031,5.031,0,0,0,7.548,78H47.806a5.031,5.031,0,0,0,5.032-5.032V17.613A7.459,7.459,0,0,0,51.2,12.92ZM32.081,16.682A2.511,2.511,0,0,1,34.408,15.1H45.29a2.524,2.524,0,0,1,2.516,2.516V27.677H28.722a2.508,2.508,0,0,1-.969-.189Z" fill="#fdf6e9"/>
          </g>
          <g id="Grupo_1107309" data-name="Grupo 1107309">
            <path id="Trazado_999495" data-name="Trazado 999495" d="M52.839,35.226H72.968v32.71H52.839Z" fill="#e6e9ed"/>
          </g>
          <g id="Grupo_1107310" data-name="Grupo 1107310">
            <path id="Trazado_999496" data-name="Trazado 999496" d="M67.935,55.355a7.548,7.548,0,0,1-15.1,0c0-6.29,7.548-15.1,7.548-15.1S67.935,49.065,67.935,55.355Z" fill="#69d6f4"/>
          </g>
          <g id="Grupo_1107311" data-name="Grupo 1107311">
            <path id="Trazado_999497" data-name="Trazado 999497" d="M10.065,70.452V40.258H45.29V70.452Z" fill="#e6e9ed"/>
          </g>
          <g id="Grupo_1107312" data-name="Grupo 1107312">
            <path id="Trazado_999498" data-name="Trazado 999498" d="M39.994,61.784l-.78-1.56a8.273,8.273,0,0,0-1.157-1.749,8.632,8.632,0,0,0-5.4-3.019,9.375,9.375,0,0,0-1.334-.1A3.741,3.741,0,0,1,28.7,54.285,3.692,3.692,0,0,1,27.665,52.5l-.126-.541a8.5,8.5,0,0,0-1.245-2.768,8.667,8.667,0,0,0-6.165-3.812A6.762,6.762,0,0,0,19,45.29H17.613a2.516,2.516,0,1,0,0,5.032H19a4.173,4.173,0,0,1,1.132.164V50.5a3.716,3.716,0,0,1,2.441,2.415,2.168,2.168,0,0,1,.088.264l.126.541a8.583,8.583,0,0,0,1.875,3.6,8.751,8.751,0,0,0,5.573,2.994,8.047,8.047,0,0,0,1.107.075,3.778,3.778,0,0,1,2.39.855,3.644,3.644,0,0,1,.981,1.233l.78,1.547a2.494,2.494,0,0,0,2.252,1.4,2.445,2.445,0,0,0,1.12-.264A2.51,2.51,0,0,0,40.132,63.7a2.466,2.466,0,0,0-.138-1.912Z" fill="#93c123"/>
          </g>
        </g>
        <g id="Grupo_1107314" data-name="Grupo 1107314">
          <path id="Trazado_999499" data-name="Trazado 999499" d="M40.34,59.662A10.012,10.012,0,0,0,31.331,54.1a2.513,2.513,0,0,1-2.441-1.906l-.133-.536a10.055,10.055,0,0,0-9.765-7.623H17.613a3.774,3.774,0,0,0,0,7.548h1.379a2.513,2.513,0,0,1,2.441,1.906l.133.536a10.059,10.059,0,0,0,9.773,7.623,2.5,2.5,0,0,1,2.251,1.391l.777,1.555a3.774,3.774,0,1,0,6.751-3.377Zm-6.607.081a5.013,5.013,0,0,0-1.542-.535l1.16-2.32a7.467,7.467,0,0,1,2.7,1.376ZM30.7,56.56l-1.164,2.327a7.507,7.507,0,0,1-2.956-1.452l2.112-1.584a5.014,5.014,0,0,0,2.008.708Zm-6.693-3.148-.031-.126,2-2a7.528,7.528,0,0,1,.336.983l.133.536a5.015,5.015,0,0,0,.5,1.215l-2.028,1.521a7.575,7.575,0,0,1-.91-2.126Zm-7.653-5.606a1.26,1.26,0,0,1,1.258-1.258h1.258v2.516H17.613A1.26,1.26,0,0,1,16.355,47.806Zm5.032,1.864V46.945a7.518,7.518,0,0,1,3.237,2.137L22.836,50.87a5,5,0,0,0-1.449-1.2ZM38.936,63.3a1.233,1.233,0,0,1-.63.728,1.287,1.287,0,0,1-1.688-.562l-.777-1.554c-.067-.135-.148-.258-.226-.385l2.117-1.352c.125.2.254.4.361.613l.777,1.552a1.259,1.259,0,0,1,.067.96Z"/>
          <path id="Trazado_999500" data-name="Trazado 999500" d="M8.806,71.71H46.548V39H8.806Zm2.516-30.194h32.71V69.194H11.323Z"/>
          <path id="Trazado_999501" data-name="Trazado 999501" d="M13.839,64.161H23.9v2.516H13.839Z"/>
          <path id="Trazado_999502" data-name="Trazado 999502" d="M13.839,59.129h7.548v2.516H13.839Z"/>
          <path id="Trazado_999503" data-name="Trazado 999503" d="M78.76,26.473,69.194,9.73V3.774a2.519,2.519,0,0,0-2.516-2.516H54.1a2.519,2.519,0,0,0-2.516,2.516V9.73l-.647,1.131A8.764,8.764,0,0,0,45.29,8.806H34.413a8.766,8.766,0,0,0-8.177,5.535L23.9,20.174V16.355a2.519,2.519,0,0,0-2.516-2.516H8.806A2.519,2.519,0,0,0,6.29,16.355V22.2L2.637,26.77A6.314,6.314,0,0,0,1.258,30.7V72.968a6.3,6.3,0,0,0,6.29,6.29H72.968a6.3,6.3,0,0,0,6.29-6.29V28.345a3.766,3.766,0,0,0-.5-1.872Zm-2.928-.054H54.1V17.613a8.745,8.745,0,0,0-1.405-4.755l.877-1.535H67.206ZM54.1,61.507a8.8,8.8,0,0,0,15.1-6.152c0-6.679-7.531-15.542-7.852-15.916l-.955-1.115-.955,1.115A48.746,48.746,0,0,0,54.1,47.271V36.484H71.71V66.677H54.1Zm0-6.152c0-4.462,4.323-10.55,6.29-13.09,1.968,2.539,6.29,8.62,6.29,13.09a6.29,6.29,0,0,1-12.581,0ZM66.677,3.774V8.806H54.1V3.774ZM21.387,16.355v5.032H8.806V16.355ZM4.6,28.343,8.152,23.9H22.123l3.926,3.926a3.752,3.752,0,0,0,2.671,1.106H49.065V17.613a3.779,3.779,0,0,0-3.774-3.774H34.413a3.757,3.757,0,0,0-3.5,2.373l-3.691,9.227L25.282,23.5l3.29-8.226a6.263,6.263,0,0,1,5.841-3.954H45.29a6.3,6.3,0,0,1,6.29,6.29V31.452H3.774V30.7A3.788,3.788,0,0,1,4.6,28.343Zm24.935-1.924,3.71-9.273a1.251,1.251,0,0,1,1.167-.791H45.29a1.26,1.26,0,0,1,1.258,1.258v8.806ZM7.548,76.742a3.779,3.779,0,0,1-3.774-3.774v-39H51.581v39a3.779,3.779,0,0,1-3.774,3.774Zm65.419,0H52.806A6.225,6.225,0,0,0,54.1,72.968V69.194H74.226V33.968H54.1V28.935H76.742V72.968A3.779,3.779,0,0,1,72.968,76.742Z"/>
        </g>
      </g>
    </g>
  </g>
</svg>
