<svg xmlns="http://www.w3.org/2000/svg" xmlns:xlink="http://www.w3.org/1999/xlink" width="100" height="101" viewBox="0 0 100 101">
  <defs>
    <clipPath id="clip-path">
      <rect id="Rectángulo_405295" data-name="Rectángulo 405295" width="79" height="79" transform="translate(1263.711 6067)" fill="#fff" stroke="#707070" stroke-width="1"/>
    </clipPath>
  </defs>
  <g id="Grupo_1107448" data-name="Grupo 1107448" transform="translate(-1252.289 -6056.267)">
    <ellipse id="Elipse_11701" data-name="Elipse 11701" cx="50" cy="50.5" rx="50" ry="50.5" transform="translate(1252.289 6056.267)" fill="#93c123"/>
    <g id="Enmascarar_grupo_1098830" data-name="Enmascarar grupo 1098830" clip-path="url(#clip-path)">
      <g id="rompecabezas" transform="translate(1270.294 6067)">
        <path id="Trazado_999636" data-name="Trazado 999636" d="M56.616,52.665h2.633c2.908,0,5.266-2.948,5.266-6.583S62.158,39.5,59.249,39.5H56.616Zm0,0" fill="#ccac9b"/>
        <path id="Trazado_999637" data-name="Trazado 999637" d="M9.218,52.665H6.584c-2.908,0-5.266-2.948-5.266-6.583S3.676,39.5,6.584,39.5H9.218Zm0,0" fill="#ccac9b"/>
        <path id="Trazado_999638" data-name="Trazado 999638" d="M6.584,30.282H59.249V51.348a26.332,26.332,0,1,1-52.665,0Zm0,0" fill="#f5d7ca"/>
        <path id="Trazado_999639" data-name="Trazado 999639" d="M59.249,30.282c0-2.908-11.789-5.266-26.332-5.266S6.584,27.374,6.584,30.282s11.789,5.266,26.332,5.266S59.249,33.191,59.249,30.282Zm0,0" fill="#f5daaa"/>
        <g id="Grupo_1107330" data-name="Grupo 1107330">
          <path id="Trazado_999640" data-name="Trazado 999640" d="M30.284,60.565a1.316,1.316,0,0,1-1.277-1.635L31.64,48.4a1.317,1.317,0,1,1,2.554.637l-2.1,8.405,3.136-.79a1.317,1.317,0,0,1,.64,2.555L30.6,60.52a1.349,1.349,0,0,1-.32.044Zm0,0" fill="#a8887a"/>
          <path id="Trazado_999641" data-name="Trazado 999641" d="M21.067,52.665c-4.921,0-6.479-6.008-6.543-6.264a1.317,1.317,0,0,1,2.554-.642c.01.042,1.124,4.273,3.989,4.273s3.979-4.23,3.99-4.273a1.317,1.317,0,0,1,2.554.642c-.065.257-1.622,6.264-6.544,6.264Zm0,0" fill="#a8887a"/>
          <path id="Trazado_999642" data-name="Trazado 999642" d="M44.767,52.665c-4.921,0-6.479-6.008-6.543-6.264a1.317,1.317,0,0,1,2.554-.642c.01.042,1.124,4.273,3.989,4.273s3.979-4.23,3.99-4.273a1.317,1.317,0,0,1,2.554.642c-.065.257-1.622,6.264-6.544,6.264Zm0,0" fill="#a8887a"/>
        </g>
        <path id="Trazado_999643" data-name="Trazado 999643" d="M21.067,59.248a3.95,3.95,0,1,1-3.95-3.95A3.95,3.95,0,0,1,21.067,59.248Zm0,0" fill="#fdb5a6"/>
        <path id="Trazado_999644" data-name="Trazado 999644" d="M52.666,59.248a3.95,3.95,0,1,1-3.95-3.95A3.95,3.95,0,0,1,52.666,59.248Zm0,0" fill="#fdb5a6"/>
        <path id="Trazado_999645" data-name="Trazado 999645" d="M43.45,11.85V5.266H36.867a3.95,3.95,0,1,0-7.9,0H22.384V11.85a3.95,3.95,0,0,0,0,7.9v6.583h6.583a3.95,3.95,0,1,0,7.9,0H43.45V19.749a3.95,3.95,0,1,1,0-7.9Zm0,0" fill="#5b2b0e"/>
        <path id="Trazado_999646" data-name="Trazado 999646" d="M31.64,48.4,29.007,58.93a1.316,1.316,0,0,0,1.6,1.6l5.267-1.317a1.317,1.317,0,1,0-.638-2.554l-3.139.789L34.2,49.039a1.317,1.317,0,1,0-2.554-.637Zm0,0"/>
        <path id="Trazado_999647" data-name="Trazado 999647" d="M26.657,44.808a1.307,1.307,0,0,0-1.6.951c-.011.042-1.124,4.273-3.99,4.273s-3.979-4.23-3.989-4.273a1.317,1.317,0,0,0-2.554.642c.063.257,1.622,6.264,6.543,6.264s6.48-6.008,6.544-6.264a1.317,1.317,0,0,0-.955-1.593Zm0,0"/>
        <path id="Trazado_999648" data-name="Trazado 999648" d="M44.767,52.665c4.922,0,6.48-6.008,6.544-6.264a1.317,1.317,0,0,0-2.554-.642c-.011.042-1.124,4.273-3.99,4.273s-3.979-4.23-3.989-4.273a1.317,1.317,0,0,0-2.554.642c.063.257,1.622,6.264,6.543,6.264Zm0,0"/>
        <path id="Trazado_999649" data-name="Trazado 999649" d="M60.566,38.342V30.282c0-3.65-8.322-5.289-15.8-6.026V19.749a1.317,1.317,0,0,0-1.317-1.317,2.633,2.633,0,0,1,0-5.266,1.317,1.317,0,0,0,1.317-1.317V5.267A1.317,1.317,0,0,0,43.45,3.95H38.016a5.267,5.267,0,0,0-10.2,0H22.384a1.317,1.317,0,0,0-1.317,1.317V10.7a5.267,5.267,0,0,0,0,10.2v3.357c-7.477.737-15.8,2.377-15.8,6.026v8.059C2.267,39.076,0,42.264,0,46.082c0,3.868,2.33,7.089,5.4,7.768a27.635,27.635,0,0,0,55.045,0c3.057-.679,5.387-3.9,5.387-7.768,0-3.818-2.266-7.005-5.266-7.74ZM5.268,51.024a5.377,5.377,0,0,1-2.633-4.942,5.379,5.379,0,0,1,2.633-4.942ZM19.751,15.8a2.633,2.633,0,0,1,2.633-2.633A1.317,1.317,0,0,0,23.7,11.85V6.583h5.266a1.317,1.317,0,0,0,1.317-1.317,2.633,2.633,0,0,1,5.267,0,1.317,1.317,0,0,0,1.317,1.317h5.266V10.7a5.267,5.267,0,0,0,0,10.2v4.117H36.867a1.317,1.317,0,0,0-1.317,1.317,2.633,2.633,0,0,1-5.267,0,1.317,1.317,0,0,0-1.317-1.317H23.7V19.749a1.317,1.317,0,0,0-1.317-1.317A2.633,2.633,0,0,1,19.751,15.8ZM57.933,51.348a25.016,25.016,0,1,1-50.032,0V33.393c6.726,3.421,24.106,3.473,25.016,3.473s18.289-.051,25.016-3.473ZM32.917,34.232c-15.536,0-24.392-2.558-25.016-3.875v-.026c.337-.752,4.017-2.5,13.3-3.441a1.315,1.315,0,0,0,1.185.759h5.434a5.267,5.267,0,0,0,10.2,0H43.45a1.315,1.315,0,0,0,1.185-.759c9.338.942,13.01,2.7,13.31,3.329-.585,1.44-9.443,4.013-25.028,4.013ZM60.566,51.024V41.139A5.379,5.379,0,0,1,63.2,46.082a5.377,5.377,0,0,1-2.633,4.942Zm0,0"/>
      </g>
    </g>
  </g>
</svg>
