<svg xmlns="http://www.w3.org/2000/svg" xmlns:xlink="http://www.w3.org/1999/xlink" width="131" height="132" viewBox="0 0 131 132">
  <defs>
    <clipPath id="clip-path">
      <rect id="Rectángulo_405279" data-name="Rectángulo 405279" width="83" height="83" transform="translate(1168.711 3229)" fill="#fff" stroke="#707070" stroke-width="1"/>
    </clipPath>
    <clipPath id="clip-path-2">
      <path id="path4386" d="M0-83H83V0H0Z" fill="#5b2b0e"/>
    </clipPath>
  </defs>
  <g id="Grupo_1107449" data-name="Grupo 1107449" transform="translate(-1140.711 -3204)">
    <ellipse id="Elipse_11629" data-name="Elipse 11629" cx="65.5" cy="66" rx="65.5" ry="66" transform="translate(1140.711 3204)" fill="#f5daaa"/>
    <g id="Enmascarar_grupo_1098818" data-name="Enmascarar grupo 1098818" clip-path="url(#clip-path)">
      <g id="g4380" transform="translate(1168.711 3312)">
        <g id="g4382">
          <g id="g4384" clip-path="url(#clip-path-2)">
            <g id="g4390" transform="translate(63.88 -1.216)">
              <path id="path4392" d="M0,0H10.937a4.436,4.436,0,0,0,4.436-4.436V-25.042a1.944,1.944,0,0,0-.926-1.656l-6.538-4.02a1.946,1.946,0,0,0-1.019-.288H3.565a1.945,1.945,0,0,0-1.794,1.193L-4.285-15.357a1.945,1.945,0,0,0-.151.751v10.17A4.436,4.436,0,0,0,0,0" fill="#d4e6a7"/>
            </g>
            <g id="g4394" transform="translate(78.327 -27.915)">
              <path id="path4396" d="M0,0-6.538-4.02a1.944,1.944,0,0,0-1.018-.288h-3.067A1.944,1.944,0,0,1-9.6-4.02L-3.067,0a1.945,1.945,0,0,1,.926,1.657V22.263A4.436,4.436,0,0,1-6.576,26.7H-3.51A4.436,4.436,0,0,0,.926,22.263V1.657A1.945,1.945,0,0,0,0,0" fill="#93c123"/>
            </g>
            <g id="g4398" transform="translate(54.745 -11.49)">
              <path id="path4400" d="M0,0H11.075V-12.426A1.294,1.294,0,0,0,9.781-13.72H0Z" fill="#678d98"/>
            </g>
            <g id="g4402" transform="translate(54.745 -11.49)">
              <path id="path4404" d="M0,0H11.075V-12.426A1.294,1.294,0,0,0,9.781-13.72H0Z" fill="#5b2b0e"/>
            </g>
            <g id="g4406" transform="translate(64.525 -25.209)">
              <path id="path4408" d="M0,0H-3.187A1.294,1.294,0,0,1-1.893,1.294V13.72H1.294V1.294A1.294,1.294,0,0,0,0,0" fill="#2a0f2b"/>
            </g>
            <g id="g4410" transform="translate(71.498 -1.216)">
              <path id="path4412" d="M0,0H3.32A4.436,4.436,0,0,0,7.756-4.436V-21.054H5.1a1.945,1.945,0,0,0-1.75,1.1L.194-13.438A1.945,1.945,0,0,0,0-12.592Z" fill="#33430c"/>
            </g>
            <g id="g4414" transform="translate(76.595 -22.27)">
              <path id="path4416" d="M0,0A1.952,1.952,0,0,0-.408.043V16.619a4.436,4.436,0,0,1-4.436,4.436h3.067a4.436,4.436,0,0,0,4.436-4.436V0Z" fill="#93c123"/>
            </g>
            <g id="g4418" transform="translate(19.12 -1.216)">
              <path id="path4420" d="M0,0H-10.937a4.436,4.436,0,0,1-4.436-4.436V-25.042a1.944,1.944,0,0,1,.926-1.656l6.538-4.02a1.946,1.946,0,0,1,1.019-.288h3.326a1.945,1.945,0,0,1,1.794,1.193L4.285-15.357a1.945,1.945,0,0,1,.151.751v10.17A4.436,4.436,0,0,1,0,0" fill="#d4e6a7"/>
            </g>
            <g id="g4422" transform="translate(23.404 -16.573)">
              <path id="path4424" d="M0,0-6.056-14.456a1.945,1.945,0,0,0-1.794-1.193h-3.067a1.945,1.945,0,0,1,1.794,1.193L-3.067,0a1.944,1.944,0,0,1,.151.751v10.17a4.436,4.436,0,0,1-4.436,4.436h3.067A4.436,4.436,0,0,0,.151,10.921V.751A1.944,1.944,0,0,0,0,0" fill="#93c123"/>
            </g>
            <g id="g4426" transform="translate(28.255 -11.49)">
              <path id="path4428" d="M0,0H-11.075V-12.426A1.294,1.294,0,0,1-9.781-13.72H0Z" fill="#5b2b0e"/>
            </g>
            <g id="g4430" transform="translate(28.255 -25.209)">
              <path id="path4432" d="M0,0H-7.887V9.4a4.32,4.32,0,0,0,4.32,4.32H0Z" fill="#2a0f2b"/>
            </g>
            <g id="g4434" transform="translate(11.502 -1.216)">
              <path id="path4436" d="M0,0H-3.32A4.436,4.436,0,0,1-7.756-4.436V-21.054H-5.1a1.945,1.945,0,0,1,1.75,1.1l3.153,6.518A1.945,1.945,0,0,1,0-12.592Z" fill="#33430c"/>
            </g>
            <g id="g4438" transform="translate(11.308 -14.654)">
              <path id="path4440" d="M0,0-3.153-6.518A1.945,1.945,0,0,0-4.9-7.616H-7.562v.043A1.945,1.945,0,0,1-6.22-6.518L-3.067,0a1.945,1.945,0,0,1,.194.847V13.438H.194V.847A1.945,1.945,0,0,0,0,0" fill="#93c123"/>
            </g>
            <g id="g4442" transform="translate(48.714 -61.42)">
              <path id="path4444" d="M0,0H-14.428a6.653,6.653,0,0,0-5.922,3.621l-4.54,8.868a4.321,4.321,0,0,0-.269,1.5V45.611a4.319,4.319,0,0,0,4.32,4.32H6.411a4.32,4.32,0,0,0,4.32-4.32V13.99a4.321,4.321,0,0,0-.269-1.5L5.922,3.621A6.652,6.652,0,0,0,0,0" fill="#5b2b0e"/>
            </g>
            <g id="g4446" transform="translate(59.176 -48.931)">
              <path id="path4448" d="M0,0-4.54-8.868a6.653,6.653,0,0,0-5.922-3.621H-14A6.653,6.653,0,0,1-8.075-8.868L-3.536,0a4.317,4.317,0,0,1,.269,1.5V33.122a4.32,4.32,0,0,1-4.32,4.32H-4.05a4.32,4.32,0,0,0,4.319-4.32V1.5A4.321,4.321,0,0,0,0,0" fill="#2a0f2b"/>
            </g>
            <g id="g4450" transform="translate(34.516 -29.381)">
              <path id="path4452" d="M0,0-6.261,4.172-18.1-13.59a1,1,0,0,1,.279-1.391l4.591-3.059a1,1,0,0,1,1.391.279Z" fill="#5b2b0e"/>
            </g>
            <g id="g4454" transform="translate(22.679 -47.143)">
              <path id="path4456" d="M0,0A1,1,0,0,0-1.391-.279L-3.163.9l-.963.642a1.157,1.157,0,0,1,1.6.321l10.6,15.9L4.419,20.2l1.157,1.736,6.261-4.171Z" fill="#2a0f2b"/>
            </g>
            <g id="g4458" transform="translate(15.644 -51.295)">
              <path id="path4460" d="M0,0-.348.232A2.344,2.344,0,0,0-1,3.482L1.225,6.818,5.473,3.987,3.25.651A2.344,2.344,0,0,0,0,0" fill="#e5a32c"/>
            </g>
            <g id="g4462" transform="translate(48.484 -29.381)">
              <path id="path4464" d="M0,0,6.261,4.172,18.1-13.59a1,1,0,0,0-.279-1.391l-4.591-3.059a1,1,0,0,0-1.391.279Z" fill="#5b2b0e"/>
            </g>
            <g id="g4466" transform="translate(66.303 -44.363)">
              <path id="path4468" d="M0,0-4.591-3.059a1,1,0,0,0-1.393.279l-.6.9-.73,1.1a1.317,1.317,0,0,1,1.826-.366L-3.763,0a1,1,0,0,1,.279,1.391l-10.68,16.026,2.605,1.736L.277,1.391A1,1,0,0,0,0,0" fill="#2a0f2b"/>
            </g>
            <g id="g4470" transform="translate(67.356 -51.295)">
              <path id="path4472" d="M0,0,.348.232A2.344,2.344,0,0,1,1,3.482L-1.224,6.818-5.473,3.987-3.25.651A2.344,2.344,0,0,1,0,0" fill="#e5a32c"/>
            </g>
            <g id="g4474" transform="translate(50.675 -74.956)">
              <path id="path4476" d="M0,0H-18.349a1.958,1.958,0,0,1-1.958-1.958V-4.87a1.958,1.958,0,0,1,1.958-1.958H0A1.958,1.958,0,0,1,1.958-4.87v2.912A1.958,1.958,0,0,1,0,0" fill="#e5a32c"/>
            </g>
            <g id="g4478" transform="translate(50.675 -81.784)">
              <path id="path4480" d="M0,0H-3.373A1.958,1.958,0,0,1-1.415,1.958V4.87A1.958,1.958,0,0,1-3.373,6.828H0A1.958,1.958,0,0,0,1.958,4.87V1.958A1.958,1.958,0,0,0,0,0" fill="#fdf6e9"/>
            </g>
            <g id="g4482" transform="translate(46.841 -40.306)">
              <path id="path4484" d="M0,0H-10.683a4.319,4.319,0,0,0-4.05,2.819l-3.584,9.67a4.32,4.32,0,0,0-.269,1.5V31.832a4.319,4.319,0,0,0,4.32,4.319H3.584A4.319,4.319,0,0,0,7.9,31.832V13.99a4.32,4.32,0,0,0-.269-1.5L4.05,2.819A4.319,4.319,0,0,0,0,0" fill="#d4e6a7"/>
            </g>
            <g id="g4486" transform="translate(54.475 -27.817)">
              <path id="path4488" d="M0,0-3.584-9.67a4.32,4.32,0,0,0-4.05-2.819h-3.211A4.32,4.32,0,0,1-6.795-9.67L-3.211,0a4.32,4.32,0,0,1,.269,1.5V19.343a4.32,4.32,0,0,1-4.319,4.32H-4.05a4.32,4.32,0,0,0,4.32-4.32V1.5A4.32,4.32,0,0,0,0,0" fill="#93c123"/>
            </g>
            <g id="g4490" transform="translate(46.98 -9.844)">
              <path id="path4492" d="M0,0H-10.939a1.878,1.878,0,0,1-1.878-1.878V-12.817A1.878,1.878,0,0,1-10.939-14.7H0a1.878,1.878,0,0,1,1.878,1.878V-1.878A1.878,1.878,0,0,1,0,0" fill="#e5a32c"/>
            </g>
            <g id="g4494" transform="translate(46.98 -24.54)">
              <path id="path4496" d="M0,0H-3.392A1.878,1.878,0,0,1-1.514,1.878V12.817A1.878,1.878,0,0,1-3.392,14.7H0a1.878,1.878,0,0,0,1.878-1.878V1.878A1.878,1.878,0,0,0,0,0" fill="#5c4111"/>
            </g>
            <g id="g4498" transform="translate(46.841 -40.306)">
              <path id="path4500" d="M0,0H-10.683a4.319,4.319,0,0,0-4.05,2.819l-3.584,9.67a4.32,4.32,0,0,0-.269,1.5V31.832a4.319,4.319,0,0,0,4.32,4.319H3.584A4.319,4.319,0,0,0,7.9,31.832V13.99a4.32,4.32,0,0,0-.269-1.5L4.05,2.819A4.319,4.319,0,0,0,0,0Z" fill="none" stroke="#000" stroke-linecap="round" stroke-linejoin="round" stroke-miterlimit="10" stroke-width="2.432"/>
            </g>
            <g id="g4502" transform="translate(23.556 -32.261)">
              <path id="path4504" d="M0,0V16.452a4.319,4.319,0,0,0,4.319,4.319H4.7" fill="none" stroke="#000" stroke-linecap="round" stroke-linejoin="round" stroke-miterlimit="10" stroke-width="2.432"/>
            </g>
            <g id="g4506" transform="translate(59.444 -32.261)">
              <path id="path4508" d="M0,0V16.452a4.318,4.318,0,0,1-4.319,4.319H-4.7" fill="none" stroke="#000" stroke-linecap="round" stroke-linejoin="round" stroke-miterlimit="10" stroke-width="2.432"/>
            </g>
            <g id="g4510" transform="translate(40.676 -61.42)">
              <path id="path4512" d="M0,0H8.038A6.651,6.651,0,0,1,13.96,3.622L18.5,12.489a4.312,4.312,0,0,1,.269,1.5v1.6" fill="none" stroke="#000" stroke-linecap="round" stroke-linejoin="round" stroke-miterlimit="10" stroke-width="2.432"/>
            </g>
            <g id="g4514" transform="translate(23.556 -45.827)">
              <path id="path4516" d="M0,0V-1.6A4.312,4.312,0,0,1,.269-3.1l4.539-8.867a6.651,6.651,0,0,1,5.922-3.622h.637" fill="none" stroke="#000" stroke-linecap="round" stroke-linejoin="round" stroke-miterlimit="10" stroke-width="2.432"/>
            </g>
            <g id="g4518" transform="translate(46.98 -9.844)">
              <path id="path4520" d="M0,0H-10.939a1.878,1.878,0,0,1-1.878-1.878V-12.817A1.878,1.878,0,0,1-10.939-14.7H0a1.878,1.878,0,0,1,1.878,1.878V-1.878A1.878,1.878,0,0,1,0,0Z" fill="none" stroke="#000" stroke-linecap="round" stroke-linejoin="round" stroke-miterlimit="10" stroke-width="2.432"/>
            </g>
            <g id="g4522" transform="translate(42.082 -19.505)">
              <path id="path4524" d="M0,0H6.776" fill="none" stroke="#000" stroke-linecap="round" stroke-linejoin="round" stroke-miterlimit="10" stroke-width="2.432"/>
            </g>
            <g id="g4526" transform="translate(34.163 -19.505)">
              <path id="path4528" d="M0,0H2.146" fill="none" stroke="#000" stroke-linecap="round" stroke-linejoin="round" stroke-miterlimit="10" stroke-width="2.432"/>
            </g>
            <g id="g4530" transform="translate(34.163 -14.683)">
              <path id="path4532" d="M0,0H14.7" fill="none" stroke="#000" stroke-linecap="round" stroke-linejoin="round" stroke-miterlimit="10" stroke-width="2.432"/>
            </g>
            <g id="g4534" transform="translate(32.108 -37.488)">
              <path id="path4536" d="M0,0,4.2-11.4" fill="none" stroke="#000" stroke-linecap="round" stroke-linejoin="round" stroke-miterlimit="10" stroke-width="2.432"/>
            </g>
            <g id="g4538" transform="translate(50.892 -37.488)">
              <path id="path4540" d="M0,0-4.2-11.4" fill="none" stroke="#000" stroke-linecap="round" stroke-linejoin="round" stroke-miterlimit="10" stroke-width="2.432"/>
            </g>
            <g id="g4542" transform="translate(11.502 -1.216)">
              <path id="path4544" d="M0,0H-3.32A4.436,4.436,0,0,1-7.756-4.436V-21.054H-5.1a1.945,1.945,0,0,1,1.75,1.1l3.153,6.518A1.945,1.945,0,0,1,0-12.592Z" fill="none" stroke="#000" stroke-linecap="round" stroke-linejoin="round" stroke-miterlimit="10" stroke-width="2.432"/>
            </g>
            <g id="g4546" transform="translate(23.556 -11.49)">
              <path id="path4548" d="M0,0V5.839a4.437,4.437,0,0,1-4.437,4.435H-15.374A4.435,4.435,0,0,1-19.81,5.839V-14.768a1.948,1.948,0,0,1,.926-1.657l6.538-4.019a1.951,1.951,0,0,1,1.02-.289H-8a1.945,1.945,0,0,1,1.795,1.193l2.438,5.82" fill="none" stroke="#000" stroke-linecap="round" stroke-linejoin="round" stroke-miterlimit="10" stroke-width="2.432"/>
            </g>
            <g id="g4550" transform="translate(17.181 -14.922)">
              <path id="path4552" d="M0,0V8.017" fill="none" stroke="#000" stroke-linecap="round" stroke-linejoin="round" stroke-miterlimit="10" stroke-width="2.432"/>
            </g>
            <g id="g4554" transform="translate(23.556 -25.21)">
              <path id="path4556" d="M0,0H-5.082A1.294,1.294,0,0,0-6.376,1.294V13.719H4.7" fill="none" stroke="#000" stroke-linecap="round" stroke-linejoin="round" stroke-miterlimit="10" stroke-width="2.432"/>
            </g>
            <g id="g4558" transform="translate(79.254 -22.27)">
              <path id="path4560" d="M0,0H-2.658a1.945,1.945,0,0,0-1.75,1.1L-7.562,7.616a1.945,1.945,0,0,0-.194.847V21.054h3.32" fill="none" stroke="#000" stroke-linecap="round" stroke-linejoin="round" stroke-miterlimit="10" stroke-width="2.432"/>
            </g>
            <g id="g4562" transform="translate(79.254 -8.389)">
              <path id="path4564" d="M0,0V2.737A4.435,4.435,0,0,1-4.435,7.173H-15.373A4.437,4.437,0,0,1-19.81,2.736V-3.1" fill="none" stroke="#000" stroke-linecap="round" stroke-linejoin="round" stroke-miterlimit="10" stroke-width="2.432"/>
            </g>
            <g id="g4566" transform="translate(63.213 -25.21)">
              <path id="path4568" d="M0,0,2.438-5.82A1.945,1.945,0,0,1,4.233-7.013H7.558a1.951,1.951,0,0,1,1.02.289l6.538,4.019a1.948,1.948,0,0,1,.926,1.657V11.075" fill="none" stroke="#000" stroke-linecap="round" stroke-linejoin="round" stroke-miterlimit="10" stroke-width="2.432"/>
            </g>
            <g id="g4570" transform="translate(65.819 -14.922)">
              <path id="path4572" d="M0,0V8.017" fill="none" stroke="#000" stroke-linecap="round" stroke-linejoin="round" stroke-miterlimit="10" stroke-width="2.432"/>
            </g>
            <g id="g4574" transform="translate(59.444 -25.21)">
              <path id="path4576" d="M0,0H5.082A1.294,1.294,0,0,1,6.376,1.294V13.719H-4.7" fill="none" stroke="#000" stroke-linecap="round" stroke-linejoin="round" stroke-miterlimit="10" stroke-width="2.432"/>
            </g>
            <g id="g4578" transform="translate(28.256 -25.21)">
              <path id="path4580" d="M0,0-11.837-17.762a1,1,0,0,1,.279-1.391l4.591-3.059a1,1,0,0,1,1.391.279L2.783-9.389" fill="none" stroke="#000" stroke-linecap="round" stroke-linejoin="round" stroke-miterlimit="10" stroke-width="2.432"/>
            </g>
            <g id="g4582" transform="translate(15.644 -51.295)">
              <path id="path4584" d="M0,0-.348.232A2.344,2.344,0,0,0-1,3.482L1.225,6.818,5.473,3.987,3.25.651A2.344,2.344,0,0,0,0,0Z" fill="none" stroke="#000" stroke-linecap="round" stroke-linejoin="round" stroke-miterlimit="10" stroke-width="2.432"/>
            </g>
            <g id="g4586" transform="translate(51.961 -34.601)">
              <path id="path4588" d="M0,0,8.358-12.542a1,1,0,0,1,1.393-.279l4.591,3.059a1,1,0,0,1,.277,1.391L2.783,9.391" fill="none" stroke="#000" stroke-linecap="round" stroke-linejoin="round" stroke-miterlimit="10" stroke-width="2.432"/>
            </g>
            <g id="g4590" transform="translate(67.356 -51.295)">
              <path id="path4592" d="M0,0,.348.232A2.344,2.344,0,0,1,1,3.482L-1.224,6.818-5.473,3.987-3.25.651A2.344,2.344,0,0,1,0,0Z" fill="none" stroke="#000" stroke-linecap="round" stroke-linejoin="round" stroke-miterlimit="10" stroke-width="2.432"/>
            </g>
            <g id="g4594" transform="translate(58.374 -78.413)">
              <path id="path4596" d="M0,0A9.423,9.423,0,0,1,8.606,9.389V26.956" fill="none" stroke="#000" stroke-linecap="round" stroke-linejoin="round" stroke-miterlimit="10" stroke-width="2.432"/>
            </g>
            <g id="g4598" transform="translate(15.47 -51.18)">
              <path id="path4600" d="M0,0V-17.845a9.423,9.423,0,0,1,9.423-9.423H14.9" fill="none" stroke="#000" stroke-linecap="round" stroke-linejoin="round" stroke-miterlimit="10" stroke-width="2.432"/>
            </g>
            <g id="g4602" transform="translate(50.675 -74.956)">
              <path id="path4604" d="M0,0H-18.349a1.958,1.958,0,0,1-1.958-1.958V-4.87a1.958,1.958,0,0,1,1.958-1.958H0A1.958,1.958,0,0,1,1.958-4.87v2.912A1.958,1.958,0,0,1,0,0Z" fill="none" stroke="#000" stroke-linecap="round" stroke-linejoin="round" stroke-miterlimit="10" stroke-width="2.432"/>
            </g>
          </g>
        </g>
      </g>
    </g>
  </g>
</svg>
