<svg xmlns="http://www.w3.org/2000/svg" xmlns:xlink="http://www.w3.org/1999/xlink" width="66" height="66" viewBox="0 0 66 66">
  <defs>
    <clipPath id="clip-path">
      <rect id="Rectángulo_404635" data-name="Rectángulo 404635" width="66" height="66" transform="translate(408.711 3597)" fill="#fff" stroke="#707070" stroke-width="1"/>
    </clipPath>
  </defs>
  <g id="Enmascarar_grupo_1098802" data-name="Enmascarar grupo 1098802" transform="translate(-408.711 -3597)" clip-path="url(#clip-path)">
    <g id="bloc" transform="translate(408.711 3597)">
      <path id="Trazado_998576" data-name="Trazado 998576" d="M53.7,3.857,5.008,13.3,15.039,65.032l34.574-6.7L60.992,41.473Z" fill="#d4e6a7"/>
      <g id="Grupo_1105849" data-name="Grupo 1105849">
        <path id="Trazado_998577" data-name="Trazado 998577" d="M49.613,58.327,60.992,41.473,46.875,44.211Z" fill="#93c123"/>
        <path id="Trazado_998578" data-name="Trazado 998578" d="M14.265,11.5l4.6,10.131H29.2L31.268,8.206Z" fill="#93c123"/>
      </g>
      <path id="Trazado_998579" data-name="Trazado 998579" d="M31.269,21.634H18.87V.969l3.1,2.066,3.1-2.066,3.1,2.066,3.1-2.066Z" fill="#f5daaa"/>
      <path id="Trazado_998580" data-name="Trazado 998580" d="M61.873,41.875a.976.976,0,0,0,.071-.586L57.178,16.716a.969.969,0,0,0-1.9.369l4.581,23.622L46.691,43.26a.969.969,0,0,0-.767,1.135l2.553,13.166L15.806,63.9,6.143,14.065,17.9,11.785v9.849a.969.969,0,0,0,.969.969h12.4a.969.969,0,0,0,.969-.969V9L52.931,4.992l1.482,7.642a.969.969,0,0,0,1.9-.369L54.649,3.672a.978.978,0,0,0-1.135-.767L32.238,7.031V.969A.977.977,0,0,0,30.732.163L28.169,1.871,25.607.163a.968.968,0,0,0-1.075,0L21.969,1.871,19.407.163A.978.978,0,0,0,17.9.969V9.811L4.823,12.347a.979.979,0,0,0-.767,1.135L14.088,65.216a.978.978,0,0,0,1.135.767l34.573-6.7a.98.98,0,0,0,.618-.409L61.795,42.015A.96.96,0,0,0,61.873,41.875ZM19.838,2.779l1.594,1.063a.968.968,0,0,0,1.075,0l2.563-1.708,2.563,1.708a.968.968,0,0,0,1.075,0L30.3,2.779V20.665H19.838V2.779ZM58.881,42.869,50.118,55.847l-2.108-10.87Z"/>
    </g>
  </g>
</svg>
