<svg xmlns="http://www.w3.org/2000/svg" xmlns:xlink="http://www.w3.org/1999/xlink" width="101" height="101" viewBox="0 0 101 101">
  <defs>
    <clipPath id="clip-path">
      <rect id="Rectángulo_405284" data-name="Rectángulo 405284" width="78" height="78" transform="translate(647.711 4520)" fill="#fff" stroke="#707070" stroke-width="1"/>
    </clipPath>
  </defs>
  <g id="Grupo_1107447" data-name="Grupo 1107447" transform="translate(-635.192 -4508.6)">
    <circle id="Elipse_11690" data-name="Elipse 11690" cx="50.5" cy="50.5" r="50.5" transform="translate(635.192 4508.6)" fill="#f5daaa"/>
    <g id="Enmascarar_grupo_1098819" data-name="Enmascarar grupo 1098819" clip-path="url(#clip-path)">
      <g id="buscar" transform="translate(648.159 4520)">
        <path id="Trazado_999459" data-name="Trazado 999459" d="M60.2,14.3V1.3h-39A5.2,5.2,0,0,0,16,6.5V16.9A23.4,23.4,0,0,1,48.127,38.623,23.144,23.144,0,0,1,44.54,51.077L56.733,63.284a5.2,5.2,0,0,1-7.345,7.345L37.181,58.435A23.454,23.454,0,0,1,16,60.346V71.5a5.2,5.2,0,0,0,5.2,5.2H70.6a5.2,5.2,0,0,0,5.2-5.2V16.9h-13a2.6,2.6,0,0,1-2.6-2.6ZM70.6,68.9A2.6,2.6,0,0,1,68,71.5,2.6,2.6,0,0,0,70.6,68.9ZM48.5,24.7" fill="#f4c4a7"/>
        <path id="Trazado_999460" data-name="Trazado 999460" d="M60.2,14.3a2.6,2.6,0,0,0,2.6,2.6h13L60.2,1.3Zm0,0" fill="#e36b24"/>
        <path id="Trazado_999461" data-name="Trazado 999461" d="M37.181,58.435a23.4,23.4,0,1,0-12.454,3.588,23.3,23.3,0,0,0,12.454-3.588ZM16,54.6A18.2,18.2,0,1,1,40.73,47.268a17.916,17.916,0,0,1-7.358,7.358A18.251,18.251,0,0,1,16,54.6Zm0,0" fill="#ffcd00"/>
        <path id="Trazado_999462" data-name="Trazado 999462" d="M37.6,51.493a17.723,17.723,0,0,0,3.133-4.225,18.209,18.209,0,1,0-7.358,7.358A17.739,17.739,0,0,0,37.6,51.493ZM19.9,46.8" fill="#f5daaa"/>
        <path id="Trazado_999463" data-name="Trazado 999463" d="M37.181,58.435,49.388,70.629a5.2,5.2,0,0,0,7.345-7.345L44.539,51.077a23.3,23.3,0,0,1-7.358,7.358Zm0,0" fill="#5b2b0e"/>
        <g id="Grupo_1107304" data-name="Grupo 1107304">
          <path id="Trazado_999464" data-name="Trazado 999464" d="M77.088,16.818a1.247,1.247,0,0,0-.067-.334c-.014-.042-.025-.082-.043-.123a1.306,1.306,0,0,0-.26-.381L61.118.381a1.279,1.279,0,0,0-.382-.26C60.7.1,60.658.092,60.618.078A1.279,1.279,0,0,0,60.277.01c-.022,0-.046-.01-.073-.01h-39a6.508,6.508,0,0,0-6.5,6.5v9.568a24.651,24.651,0,0,0,0,45.11V71.5A6.508,6.508,0,0,0,21.2,78H70.6a6.507,6.507,0,0,0,6.5-6.5V16.9C77.1,16.871,77.09,16.847,77.088,16.818ZM72.666,15.6H62.8a1.3,1.3,0,0,1-1.3-1.3V4.438ZM2.627,38.623a22.071,22.071,0,0,1,22.1-22.1c.739,0,1.472.036,2.2.107A22.04,22.04,0,0,1,46.554,35.313a22.316,22.316,0,0,1,.272,3.31,22.1,22.1,0,0,1-44.2,0Zm37.2,19.528q.266-.2.527-.416A24.352,24.352,0,0,0,42.2,56.091,24.432,24.432,0,0,0,43.84,54.25c.142-.174.278-.351.416-.529.157-.206.328-.4.479-.61l11.083,11.1a3.87,3.87,0,0,1,0,5.5,3.96,3.96,0,0,1-5.5,0L39.216,58.63c.21-.152.406-.321.61-.479ZM70.6,75.4H21.2a3.9,3.9,0,0,1-3.9-3.9V62.193c.081.026.165.043.247.068.208.063.419.114.63.173.486.13.976.26,1.471.358.243.051.486.1.732.141.5.087.995.156,1.5.213.224.025.445.057.67.076.72.062,1.445.1,2.177.1A24.537,24.537,0,0,0,36.972,60.06L48.467,71.543a6.5,6.5,0,1,0,9.187-9.179l-11.489-11.5a24.531,24.531,0,0,0,3.263-12.245q0-1.235-.119-2.45a24.694,24.694,0,0,0-24.581-22.25c-.732,0-1.457.041-2.177.1-.225.02-.448.051-.671.077q-.75.084-1.492.213-.37.065-.738.141c-.489.1-.974.221-1.455.354-.216.059-.432.111-.65.175-.081.025-.163.042-.243.068V6.5a3.9,3.9,0,0,1,3.9-3.9H58.9V14.3a3.9,3.9,0,0,0,3.9,3.9H74.5V71.5a3.9,3.9,0,0,1-3.9,3.9Zm0,0"/>
          <path id="Trazado_999465" data-name="Trazado 999465" d="M53.7,9.1a1.3,1.3,0,0,0-1.3-1.3H23.8a1.3,1.3,0,0,0,0,2.6H52.4A1.3,1.3,0,0,0,53.7,9.1ZM68,31.2H52.4a1.3,1.3,0,1,0,0,2.6H68a1.3,1.3,0,1,0,0-2.6ZM68,39H52.4a1.3,1.3,0,1,0,0,2.6H68A1.3,1.3,0,1,0,68,39Zm1.3,9.1A1.3,1.3,0,0,0,68,46.8H51.1a1.3,1.3,0,0,0,0,2.6H68A1.3,1.3,0,0,0,69.3,48.1Zm0,7.8A1.3,1.3,0,0,0,68,54.6H56.3a1.3,1.3,0,0,0,0,2.6H68A1.3,1.3,0,0,0,69.3,55.9Zm-15.6-39a1.3,1.3,0,0,0-1.3-1.3H42a1.3,1.3,0,0,0,0,2.6H52.4A1.3,1.3,0,0,0,53.7,16.9Zm15.6,7.8A1.3,1.3,0,0,0,68,23.4H48.5a1.3,1.3,0,0,0,0,2.6H68A1.3,1.3,0,0,0,69.3,24.7ZM19.9,32.5H29a1.3,1.3,0,1,0,0-2.6H19.9a1.3,1.3,0,1,0,0,2.6ZM35.5,39a1.3,1.3,0,0,0-1.3-1.3H14.7a1.3,1.3,0,0,0,0,2.6H34.2A1.3,1.3,0,0,0,35.5,39ZM29,45.5H19.9a1.3,1.3,0,1,0,0,2.6H29a1.3,1.3,0,1,0,0-2.6Zm0,0"/>
          <path id="Trazado_999466" data-name="Trazado 999466" d="M33.981,55.77a19.065,19.065,0,0,0,7.584-7.356c.1-.18.215-.354.311-.536.05-.094.09-.191.138-.285.2-.38.39-.759.56-1.148s.3-.758.444-1.14c.04-.11.091-.218.13-.33a19.51,19.51,0,1,0-9.166,10.8ZM16.626,53.454a16.773,16.773,0,0,1-3.849-2.884,17.117,17.117,0,0,1-2.121-2.58q-.459-.687-.849-1.415a16.9,16.9,0,1,1,29.781.075v.011a16.613,16.613,0,0,1-6.827,6.824,16.851,16.851,0,0,1-16.133-.025ZM70.6,62.4a1.3,1.3,0,0,0-1.3,1.3v5.2A1.3,1.3,0,0,1,68,70.2H62.8a1.3,1.3,0,1,0,0,2.6H68a3.9,3.9,0,0,0,3.9-3.9V63.7A1.3,1.3,0,0,0,70.6,62.4Zm0,0"/>
        </g>
      </g>
    </g>
  </g>
</svg>
