<svg xmlns="http://www.w3.org/2000/svg" xmlns:xlink="http://www.w3.org/1999/xlink" width="101" height="101" viewBox="0 0 101 101">
  <defs>
    <clipPath id="clip-path">
      <rect id="Rectángulo_405285" data-name="Rectángulo 405285" width="78" height="78" transform="translate(919.711 4520)" fill="#fff" stroke="#707070" stroke-width="1"/>
    </clipPath>
  </defs>
  <g id="Grupo_1107448" data-name="Grupo 1107448" transform="translate(-908.192 -4508.6)">
    <circle id="Elipse_11691" data-name="Elipse 11691" cx="50.5" cy="50.5" r="50.5" transform="translate(908.192 4508.6)" fill="#f5daaa"/>
    <g id="Enmascarar_grupo_1098820" data-name="Enmascarar grupo 1098820" clip-path="url(#clip-path)">
      <g id="Layer_x0020_1" transform="translate(919.711 4520)">
        <path id="Trazado_999467" data-name="Trazado 999467" d="M15.751,20.874a1.47,1.47,0,0,1-1.47-1.47V7.623a1.448,1.448,0,0,0-2.9.011V19.4a1.47,1.47,0,0,1-2.94,0V11.1a1.448,1.448,0,1,0-2.9,0V40.442H25.963V34.19a1.468,1.468,0,0,1,.428-1.042l7.8-7.8a1.742,1.742,0,0,0,.516-1.239,1.717,1.717,0,0,0-.516-1.229,1.7,1.7,0,0,0-1.229-.516,1.742,1.742,0,0,0-1.239.516l-3.247,3.247a1.472,1.472,0,0,1-2.512-1.042V9.148a1.448,1.448,0,1,0-2.9,0V19.4a1.475,1.475,0,0,1-2.951,0V4.4a1.442,1.442,0,1,0-2.885,0V19.4A1.479,1.479,0,0,1,15.751,20.874ZM62.731,78H42.537a1.47,1.47,0,0,1-1.47-1.47v-7.4H36.943v7.4A1.472,1.472,0,0,1,35.463,78H15.269a1.466,1.466,0,0,1-1.152-.559L7.645,69.225a1.46,1.46,0,0,1-.318-.91V60.3a1.448,1.448,0,0,1,.395-1l5.309-5.7a1.5,1.5,0,0,1,1.075-.472H63.894a1.478,1.478,0,0,1,1.075.472l5.309,5.7a1.419,1.419,0,0,1,.395,1v8.018a1.518,1.518,0,0,1-.307.91l-6.472,8.216A1.5,1.5,0,0,1,62.731,78ZM44.007,75.049H62.018l5.715-7.239V65.846H63.411L58.75,70.508a1.47,1.47,0,0,1-2.073-2.084l5.09-5.09a1.468,1.468,0,0,1,1.042-.428h4.925V60.878l-4.475-4.8h-48.5l-4.486,4.8v2.029h4.925a1.468,1.468,0,0,1,1.042.428l5.1,5.09a1.47,1.47,0,0,1-1.042,2.512,1.46,1.46,0,0,1-1.042-.428l-4.662-4.662H10.267V67.81l5.715,7.239H33.993V67.656a1.47,1.47,0,0,1,1.47-1.47h7.075a1.47,1.47,0,0,1,1.47,1.47ZM43.7,61.766H34.3a1.47,1.47,0,1,1,0-2.94h9.4a1.47,1.47,0,1,1,0,2.94Zm5.4-20.051V34.793l-7.371-7.371A4.685,4.685,0,0,1,48.351,20.8l.746.746V9.148a4.4,4.4,0,0,1,4.388-4.388A4.454,4.454,0,0,1,54.932,5V4.4a4.393,4.393,0,0,1,8.7-.878,4.48,4.48,0,0,1,1.536-.274A4.412,4.412,0,0,1,69.51,6.965,4.441,4.441,0,0,1,71,6.7a4.4,4.4,0,0,1,4.388,4.4V41.715l2.117,7.81a1.479,1.479,0,0,1-1.426,1.865H48.406a1.479,1.479,0,0,1-1.415-1.865Zm2.94-1.272H72.45V11.1a1.448,1.448,0,0,0-2.9,0v8.3a1.47,1.47,0,0,1-2.94,0V7.634a1.448,1.448,0,1,0-2.9,0V19.4a1.47,1.47,0,0,1-2.94,0V4.4a1.448,1.448,0,1,0-2.9,0V19.4a1.475,1.475,0,0,1-2.951,0V9.148a1.448,1.448,0,0,0-2.9,0V25.1a1.446,1.446,0,0,1-.9,1.349,1.471,1.471,0,0,1-1.612-.318l-3.247-3.247a1.735,1.735,0,0,0-2.468,0,1.707,1.707,0,0,0-.5,1.229,1.732,1.732,0,0,0,.5,1.239l7.8,7.8a1.468,1.468,0,0,1,.428,1.042Zm-1.711,8H74.161L72.8,43.382H51.7ZM2.611,41.715V11.1A4.4,4.4,0,0,1,7,6.7a4.555,4.555,0,0,1,1.5.263,4.393,4.393,0,0,1,5.868-3.444,4.393,4.393,0,0,1,8.7.878V5a4.5,4.5,0,0,1,1.448-.241A4.4,4.4,0,0,1,28.9,9.148V21.543l.746-.746a4.685,4.685,0,0,1,6.625,6.625L28.9,34.793v6.921l2.084,7.722a1.331,1.331,0,0,1,.077.472,1.479,1.479,0,0,1-1.47,1.481H1.92A1.479,1.479,0,0,1,.494,49.525Zm1.229,6.724H27.675L26.3,43.382H5.21Z" fill-rule="evenodd"/>
        <path id="Trazado_999468" data-name="Trazado 999468" d="M15.751,20.874a1.47,1.47,0,0,1-1.47-1.47V7.623a1.448,1.448,0,0,0-2.9.011V19.4a1.47,1.47,0,0,1-2.94,0V11.1a1.448,1.448,0,1,0-2.9,0V40.442H25.963V34.19a1.468,1.468,0,0,1,.428-1.042l7.8-7.8a1.742,1.742,0,0,0,.516-1.239,1.717,1.717,0,0,0-.516-1.229,1.7,1.7,0,0,0-1.229-.516,1.742,1.742,0,0,0-1.239.516l-3.247,3.247a1.472,1.472,0,0,1-2.512-1.042V9.148a1.448,1.448,0,1,0-2.9,0V19.4a1.475,1.475,0,0,1-2.951,0V4.4a1.442,1.442,0,1,0-2.885,0V19.4A1.479,1.479,0,0,1,15.751,20.874Z" fill="#e5a32c" fill-rule="evenodd"/>
        <path id="Trazado_999469" data-name="Trazado 999469" d="M43.81,25.349l7.8,7.8a1.468,1.468,0,0,1,.428,1.042v6.252H72.45V11.1a1.448,1.448,0,0,0-2.9,0v8.3a1.47,1.47,0,0,1-2.94,0V7.634a1.448,1.448,0,1,0-2.9,0V19.4a1.47,1.47,0,0,1-2.94,0V4.4a1.448,1.448,0,1,0-2.9,0V19.4a1.475,1.475,0,0,1-2.951,0V9.148a1.448,1.448,0,0,0-2.9,0V25.1a1.446,1.446,0,0,1-.9,1.349,1.471,1.471,0,0,1-1.612-.318l-3.247-3.247a1.735,1.735,0,0,0-2.468,0,1.707,1.707,0,0,0-.5,1.229A1.732,1.732,0,0,0,43.81,25.349Z" fill="#e5a32c" fill-rule="evenodd"/>
        <path id="Trazado_999470" data-name="Trazado 999470" d="M72.8,43.382H51.7l-1.371,5.057H74.161Z" fill="#5c4111" fill-rule="evenodd"/>
        <path id="Trazado_999471" data-name="Trazado 999471" d="M27.675,48.439,26.3,43.382H5.21L3.839,48.439Z" fill="#5c4111" fill-rule="evenodd"/>
        <path id="Trazado_999472" data-name="Trazado 999472" d="M63.258,56.073h-48.5l-4.486,4.8v2.029h4.925a1.468,1.468,0,0,1,1.042.428l5.1,5.09a1.47,1.47,0,0,1-1.042,2.512,1.46,1.46,0,0,1-1.042-.428l-4.662-4.662H10.267V67.81l5.715,7.239H33.993V67.656a1.47,1.47,0,0,1,1.47-1.47h7.075a1.47,1.47,0,0,1,1.47,1.47v7.393H62.018l5.715-7.239V65.846H63.411L58.75,70.508a1.47,1.47,0,0,1-2.073-2.084l5.09-5.09a1.468,1.468,0,0,1,1.042-.428h4.925V60.878ZM43.7,61.766H34.3a1.47,1.47,0,1,1,0-2.94h9.4a1.47,1.47,0,1,1,0,2.94Z" fill="#d4e6a7" fill-rule="evenodd"/>
      </g>
    </g>
  </g>
</svg>
