<svg xmlns="http://www.w3.org/2000/svg" xmlns:xlink="http://www.w3.org/1999/xlink" width="101" height="101" viewBox="0 0 101 101">
  <defs>
    <clipPath id="clip-path">
      <rect id="Rectángulo_405286" data-name="Rectángulo 405286" width="78" height="78" transform="translate(1189.711 4520)" fill="#fff" stroke="#707070" stroke-width="1"/>
    </clipPath>
    <clipPath id="clip-path-2">
      <path id="path3654" d="M0-78H78V0H0Z"/>
    </clipPath>
  </defs>
  <g id="Grupo_1107449" data-name="Grupo 1107449" transform="translate(-1178.192 -4508.6)">
    <circle id="Elipse_11692" data-name="Elipse 11692" cx="50.5" cy="50.5" r="50.5" transform="translate(1178.192 4508.6)" fill="#f5daaa"/>
    <g id="Enmascarar_grupo_1098821" data-name="Enmascarar grupo 1098821" clip-path="url(#clip-path)">
      <g id="g3648" transform="translate(1189.711 4598)">
        <g id="g3650">
          <g id="g3652" clip-path="url(#clip-path-2)">
            <g id="g3658" transform="translate(76.477 -133.91)">
              <path id="path3660" d="M0,0V44.027H-6.094V0A3.046,3.046,0,0,1-3.047-3.047,3.046,3.046,0,0,1,0,0" fill="#ff7b79"/>
            </g>
            <g id="g3662" transform="translate(42.047 -89.883)">
              <path id="path3664" d="M0,0H-6.094V-44.027a3.046,3.046,0,0,1,3.047-3.047A3.046,3.046,0,0,1,0-44.027Z" fill="#ff7b79"/>
            </g>
          </g>
        </g>
        <path id="path3666" d="M7.617-21.579H70.383v-8.28H7.617Z" fill="#fff5f5"/>
        <g id="g3668">
          <g id="g3670" clip-path="url(#clip-path-2)">
            <g id="g3676" transform="translate(67.319 -76.236)">
              <path id="path3678" d="M0,0A3.045,3.045,0,0,1,3.822,1.283L8.751,9.817a3.048,3.048,0,0,1-.8,3.953l-17.442,13.2L-20.155,8.5,0,0" fill="#fff5f5"/>
            </g>
            <g id="g3680" transform="translate(70.383 -21.579)">
              <path id="path3682" d="M0,0V4.822A15.234,15.234,0,0,1-15.234,20.056h-32.3A15.234,15.234,0,0,1-62.766,4.822V0a10.191,10.191,0,0,0,8.531-.8,8.242,8.242,0,0,1,9.141,0,8.24,8.24,0,0,0,9.141,0,8.241,8.241,0,0,1,9.141,0,8.24,8.24,0,0,0,9.141,0,8.242,8.242,0,0,1,9.141,0A10.191,10.191,0,0,0,0,0" fill="#5b2b0e"/>
            </g>
            <g id="g3684" transform="translate(54.892 -29.859)">
              <path id="path3686" d="M0,0C-2-6.258-.465-13.79,2.936-19.4L.836-23.04A44.6,44.6,0,0,0-12.079,0a36.361,36.361,0,0,0-.734,6.692v0a8.081,8.081,0,0,1,1.491.786,8.24,8.24,0,0,0,9.141,0A8.223,8.223,0,0,1,2.389,6.1v0C.412,1.117.294.938,0,0" fill="#e36b24"/>
            </g>
            <g id="g3688" transform="translate(33.523 -29.859)">
              <path id="path3690" d="M0,0A45.723,45.723,0,0,0-11.266-16.139l-2.1,3.638A25.524,25.524,0,0,1-9.471,0a17.968,17.968,0,0,1-1.013,6.429v0a8.148,8.148,0,0,1,2.25,1.05,8.24,8.24,0,0,0,9.141,0A8.138,8.138,0,0,1,1.918,6.9,33.3,33.3,0,0,0,0,0" fill="#e5a32c"/>
            </g>
            <g id="g3692" transform="translate(30.822 -60.831)">
              <path id="path3694" d="M0,0-10.664,18.47l-17.442-13.2a3.048,3.048,0,0,1-.8-3.953l4.928-8.534A3.045,3.045,0,0,1-20.155-8.5L0,0" fill="#fff5f5"/>
            </g>
            <g id="g3696" transform="translate(57.828 -49.262)">
              <path id="path3698" d="M0,0-2.1-3.638l-8.565-14.834,5.658-2.387,5.66-2.387,5.658-2.387,3.179-1.341a3.045,3.045,0,0,1,3.822,1.283l4.928,8.534a3.048,3.048,0,0,1-.8,3.953Z" fill="none" stroke="#000" stroke-linecap="round" stroke-linejoin="round" stroke-miterlimit="10" stroke-width="3.047"/>
            </g>
            <g id="g3700" transform="translate(57.012 -62.865)">
              <path id="path3702" d="M0,0-4.189-7.256" fill="none" stroke="#000" stroke-linecap="round" stroke-linejoin="round" stroke-miterlimit="10" stroke-width="3.047"/>
            </g>
            <g id="g3704" transform="translate(62.289 -65.912)">
              <path id="path3706" d="M0,0-3.807-6.6" fill="none" stroke="#000" stroke-linecap="round" stroke-linejoin="round" stroke-miterlimit="10" stroke-width="3.047"/>
            </g>
            <g id="g3708" transform="translate(67.567 -68.958)">
              <path id="path3710" d="M0,0-3.428-5.937" fill="none" stroke="#000" stroke-linecap="round" stroke-linejoin="round" stroke-miterlimit="10" stroke-width="3.047"/>
            </g>
            <g id="g3712" transform="translate(49.394 -76.058)">
              <path id="path3714" d="M0,0-2.639,1.523A3.048,3.048,0,0,0-3.754,5.685L-2.23,8.324" fill="none" stroke="#000" stroke-linecap="round" stroke-linejoin="round" stroke-miterlimit="10" stroke-width="3.047"/>
            </g>
            <g id="g3716" transform="translate(57.828 -49.262)">
              <path id="path3718" d="M0,0C-3.4,5.612-4.941,13.144-2.936,19.4q.178.569.4,1.123L-.547,25.5" fill="none" stroke="#000" stroke-linecap="round" stroke-linejoin="round" stroke-miterlimit="10" stroke-width="3.047"/>
            </g>
            <g id="g3720" transform="translate(55.729 -52.9)">
              <path id="path3722" d="M0,0A44.6,44.6,0,0,0-12.916,23.04a36.361,36.361,0,0,0-.734,6.692" fill="none" stroke="#000" stroke-linecap="round" stroke-linejoin="round" stroke-miterlimit="10" stroke-width="3.047"/>
            </g>
            <g id="g3724" transform="translate(20.158 -42.361)">
              <path id="path3726" d="M0,0,2.1-3.638,10.664-18.47,5.006-20.857-.652-23.245l-5.66-2.387-3.179-1.342a3.045,3.045,0,0,0-3.822,1.284l-4.928,8.534a3.048,3.048,0,0,0,.8,3.953Z" fill="none" stroke="#000" stroke-linecap="round" stroke-linejoin="round" stroke-miterlimit="10" stroke-width="3.047"/>
            </g>
            <g id="g3728" transform="translate(20.975 -55.962)">
              <path id="path3730" d="M0,0,4.189-7.256" fill="none" stroke="#000" stroke-linecap="round" stroke-linejoin="round" stroke-miterlimit="10" stroke-width="3.047"/>
            </g>
            <g id="g3732" transform="translate(15.697 -59.009)">
              <path id="path3734" d="M0,0,3.809-6.6" fill="none" stroke="#000" stroke-linecap="round" stroke-linejoin="round" stroke-miterlimit="10" stroke-width="3.047"/>
            </g>
            <g id="g3736" transform="translate(10.419 -62.056)">
              <path id="path3738" d="M0,0,3.428-5.937" fill="none" stroke="#000" stroke-linecap="round" stroke-linejoin="round" stroke-miterlimit="10" stroke-width="3.047"/>
            </g>
            <g id="g3740" transform="translate(28.592 -69.155)">
              <path id="path3742" d="M0,0,2.639,1.523A3.048,3.048,0,0,1,3.754,5.685L2.23,8.324" fill="none" stroke="#000" stroke-linecap="round" stroke-linejoin="round" stroke-miterlimit="10" stroke-width="3.047"/>
            </g>
            <g id="g3744" transform="translate(20.158 -42.361)">
              <path id="path3746" d="M0,0A25.524,25.524,0,0,1,3.894,12.5,17.968,17.968,0,0,1,2.881,18.93" fill="none" stroke="#000" stroke-linecap="round" stroke-linejoin="round" stroke-miterlimit="10" stroke-width="3.047"/>
            </g>
            <g id="g3748" transform="translate(22.257 -45.999)">
              <path id="path3750" d="M0,0A45.723,45.723,0,0,1,11.266,16.139a33.3,33.3,0,0,1,1.918,6.9" fill="none" stroke="#000" stroke-linecap="round" stroke-linejoin="round" stroke-miterlimit="10" stroke-width="3.047"/>
            </g>
            <g id="g3752" transform="translate(7.617 -21.579)">
              <path id="path3754" d="M0,0A10.191,10.191,0,0,0,8.531-.8a8.236,8.236,0,0,1,6.891-1.05A8.148,8.148,0,0,1,17.672-.8a8.24,8.24,0,0,0,9.141,0,8.138,8.138,0,0,1,1.012-.576,8.237,8.237,0,0,1,6.638-.21A8.081,8.081,0,0,1,35.953-.8a8.24,8.24,0,0,0,9.141,0,8.242,8.242,0,0,1,9.141,0,10.191,10.191,0,0,0,8.531.8" fill="none" stroke="#000" stroke-linecap="round" stroke-linejoin="round" stroke-miterlimit="10" stroke-width="3.047"/>
            </g>
            <g id="g3756" transform="translate(70.383 -29.859)">
              <path id="path3758" d="M0,0H6.094V7.008A6.094,6.094,0,0,1,0,13.1" fill="none" stroke="#000" stroke-linecap="round" stroke-linejoin="round" stroke-miterlimit="10" stroke-width="3.047"/>
            </g>
            <g id="g3760" transform="translate(7.617 -29.859)">
              <path id="path3762" d="M0,0H-6.094V7.008A6.094,6.094,0,0,0,0,13.1" fill="none" stroke="#000" stroke-linecap="round" stroke-linejoin="round" stroke-miterlimit="10" stroke-width="3.047"/>
            </g>
            <g id="g3764" transform="translate(51.187 -13.711)">
              <path id="path3766" d="M0,0H12.188" fill="none" stroke="#000" stroke-linecap="round" stroke-linejoin="round" stroke-miterlimit="10" stroke-width="3.047"/>
            </g>
            <g id="g3768" transform="translate(45.094 -7.617)">
              <path id="path3770" d="M0,0H6.094" fill="none" stroke="#000" stroke-linecap="round" stroke-linejoin="round" stroke-miterlimit="10" stroke-width="3.047"/>
            </g>
            <g id="g3772" transform="translate(29.859 -10.664)">
              <path id="path3774" d="M0,0H9.141" fill="none" stroke="#000" stroke-linecap="round" stroke-linejoin="round" stroke-miterlimit="10" stroke-width="3.047"/>
            </g>
            <g id="g3776" transform="translate(17.672 -13.711)">
              <path id="path3778" d="M0,0H6.094" fill="none" stroke="#000" stroke-linecap="round" stroke-linejoin="round" stroke-miterlimit="10" stroke-width="3.047"/>
            </g>
            <g id="g3780" transform="translate(37.477 -1.523)">
              <path id="path3782" d="M0,0A1.524,1.524,0,0,0,1.523,1.523,1.524,1.524,0,0,0,3.047,0,1.523,1.523,0,0,0,0,0"/>
            </g>
            <g id="g3784" transform="translate(32.144 -1.523)">
              <path id="path3786" d="M0,0H-9.293A15.234,15.234,0,0,1-24.527-15.234v-13.1H38.238v13.1A15.234,15.234,0,0,1,23,0H13.711" fill="none" stroke="#000" stroke-linecap="round" stroke-linejoin="round" stroke-miterlimit="10" stroke-width="3.047"/>
            </g>
          </g>
        </g>
      </g>
    </g>
  </g>
</svg>
