<svg xmlns="http://www.w3.org/2000/svg" xmlns:xlink="http://www.w3.org/1999/xlink" width="101" height="101" viewBox="0 0 101 101">
  <defs>
    <clipPath id="clip-path">
      <rect id="Rect치ngulo_405289" data-name="Rect치ngulo 405289" width="78" height="78" transform="translate(-4310 -7180)" fill="#fff" stroke="#707070" stroke-width="1"/>
    </clipPath>
  </defs>
  <g id="Grupo_1107452" data-name="Grupo 1107452" transform="translate(4321.519 7191.4)">
    <circle id="Elipse_11694" data-name="Elipse 11694" cx="50.5" cy="50.5" r="50.5" transform="translate(-4321.519 -7191.4)" fill="#f5daaa"/>
    <g id="Enmascarar_grupo_1098824" data-name="Enmascarar grupo 1098824" clip-path="url(#clip-path)">
      <g id="capacitacion_1_" data-name="capacitacion (1)" transform="translate(-4311.258 -7181.258)">
        <path id="Trazado_999504" data-name="Trazado 999504" d="M2.516,2.516H78V51.581H2.516Z" fill="#5b2b0e"/>
        <path id="Trazado_999505" data-name="Trazado 999505" d="M49.175,59.714,35.226,55.355v-3.9a14.963,14.963,0,0,1-12.581,0v3.9L8.7,59.714a8.806,8.806,0,0,0-6.18,8.405V78H55.355V68.119a8.806,8.806,0,0,0-6.179-8.405Z" fill="#f4f9e8"/>
        <path id="Trazado_999506" data-name="Trazado 999506" d="M28.935,10.065a15.1,15.1,0,0,1,15.1,15.1v1.258H13.839V25.161a15.1,15.1,0,0,1,15.1-15.1Z" fill="#e36b24"/>
        <path id="Trazado_999507" data-name="Trazado 999507" d="M10.065,69.194H47.806V78H10.065Z" fill="#5c4111"/>
        <path id="Trazado_999508" data-name="Trazado 999508" d="M10.065,69.194V78H40.258a5.032,5.032,0,0,0,5.032-5.032V69.194Z" fill="#e5a32c"/>
        <g id="Grupo_1107315" data-name="Grupo 1107315">
          <path id="Trazado_999509" data-name="Trazado 999509" d="M28.935,52.839a15,15,0,0,1-6.287-1.382l0,3.9.038.15a6.445,6.445,0,0,0,12.505,0l.038-.15v-3.9a15,15,0,0,1-6.29,1.384Z" fill="#fddfb1"/>
          <path id="Trazado_999510" data-name="Trazado 999510" d="M13.839,31.452v6.29a15.1,15.1,0,1,0,30.194,0v-6.29Z" fill="#fddfb1"/>
          <path id="Trazado_999511" data-name="Trazado 999511" d="M13.839,37.742V35.226H11.952a3.145,3.145,0,0,0,0,6.29h2.382a15.118,15.118,0,0,1-.494-3.774Z" fill="#fddfb1"/>
          <path id="Trazado_999512" data-name="Trazado 999512" d="M45.919,35.226H44.032v2.516a15.118,15.118,0,0,1-.494,3.774h2.382a3.145,3.145,0,0,0,0-6.29Z" fill="#fddfb1"/>
        </g>
        <path id="Trazado_999513" data-name="Trazado 999513" d="M13.839,31.452v6.29a15.013,15.013,0,0,0,2.036,7.549H33.968A5.032,5.032,0,0,0,39,40.258V31.452Z" fill="#feecd0"/>
        <path id="Trazado_999514" data-name="Trazado 999514" d="M17.613,56.927,12.581,58.5V69.194h5.032Z" fill="#5c4111"/>
        <path id="Trazado_999515" data-name="Trazado 999515" d="M45.29,58.5l-5.032-1.573V69.194H45.29Z" fill="#5c4111"/>
        <path id="Trazado_999516" data-name="Trazado 999516" d="M11.323,26.419H46.548v5.032H11.323Z" fill="#474747"/>
        <path id="Trazado_999517" data-name="Trazado 999517" d="M25.161,7.548l1.258,18.871h5.032L32.71,7.548Z" fill="#eecc61"/>
        <rect id="Rect치ngulo_405290" data-name="Rect치ngulo 405290" width="16.355" height="6.29" rx="2.516" transform="translate(16.355 71.71)" fill="#fce79c"/>
        <path id="Trazado_999518" data-name="Trazado 999518" d="M11.323,28.935H41.516a2.516,2.516,0,0,0,2.516-2.516H11.323Z" fill="#686868"/>
        <path id="Trazado_999519" data-name="Trazado 999519" d="M52.839,10.065h5.032V15.1H52.839Z" fill="#93c123"/>
        <path id="Trazado_999520" data-name="Trazado 999520" d="M52.839,10.065v3.774H54.1a2.516,2.516,0,0,0,2.516-2.516V10.065Z" fill="#d4e6a7"/>
        <path id="Trazado_999521" data-name="Trazado 999521" d="M52.839,20.129h5.032v5.032H52.839Z" fill="#93c123"/>
        <path id="Trazado_999522" data-name="Trazado 999522" d="M52.839,20.129V23.9H54.1a2.516,2.516,0,0,0,2.516-2.516V20.129Z" fill="#d4e6a7"/>
        <path id="Trazado_999523" data-name="Trazado 999523" d="M52.839,30.194h5.032v5.032H52.839Z" fill="#93c123"/>
        <path id="Trazado_999524" data-name="Trazado 999524" d="M52.839,30.194v3.774H54.1a2.516,2.516,0,0,0,2.516-2.516V30.194Z" fill="#d4e6a7"/>
        <path id="Trazado_999525" data-name="Trazado 999525" d="M52.839,40.258h5.032V45.29H52.839Z" fill="#93c123"/>
        <path id="Trazado_999526" data-name="Trazado 999526" d="M52.839,40.258v3.774H54.1a2.516,2.516,0,0,0,2.516-2.516V40.258Z" fill="#d4e6a7"/>
        <path id="Trazado_999527" data-name="Trazado 999527" d="M49.55,58.514,36.484,54.43V52.236a16.428,16.428,0,0,0,8.006-9.462h1.429a4.4,4.4,0,0,0,0-8.806H45.29V32.71h1.258a1.258,1.258,0,0,0,1.258-1.258V26.419a1.258,1.258,0,0,0-1.258-1.258H45.29A16.337,16.337,0,0,0,33.842,9.568l.126-1.936A1.258,1.258,0,0,0,32.71,6.29H25.161A1.258,1.258,0,0,0,23.9,7.631l.126,1.936A16.337,16.337,0,0,0,12.581,25.161H11.323a1.258,1.258,0,0,0-1.258,1.258v5.032a1.258,1.258,0,0,0,1.258,1.258h1.258v1.258h-.629a4.4,4.4,0,0,0,0,8.806h1.429a16.428,16.428,0,0,0,8.006,9.462V54.43L8.321,58.514a10.019,10.019,0,0,0-7.063,9.605V78a1.258,1.258,0,0,0,1.258,1.258H55.355A1.258,1.258,0,0,0,56.613,78V68.119a10.019,10.019,0,0,0-7.063-9.605Zm-27.708-1.59a7.688,7.688,0,0,0,14.186,0l3.033.947H39V67.935H18.871V57.871h-.062ZM16.355,67.935H13.839V59.425l2.516-.786Zm30.194,2.516v6.29H11.323v-6.29Zm-5.032-2.516v-9.3l2.516.786v8.511Zm4.4-31.452a1.887,1.887,0,0,1,0,3.774h-.843a16.426,16.426,0,0,0,.214-2.516V36.484Zm-7.9-11.323,1.727-8.637a13.825,13.825,0,0,1,3.028,8.637Zm-.4-10.785L35.452,25.161H32.8l.867-13.006a13.786,13.786,0,0,1,3.953,2.22ZM31.365,8.806,30.275,25.161H27.6L26.506,8.806Zm-6.29,16.355H22.419L20.261,14.376a13.786,13.786,0,0,1,3.947-2.22Zm-6.95-8.637,1.727,8.637H15.1a13.826,13.826,0,0,1,3.029-8.638ZM12.581,27.677H45.29v2.516H12.581Zm-.629,12.581a1.887,1.887,0,0,1,0-3.774h.629v1.258a16.425,16.425,0,0,0,.214,2.516ZM15.1,37.742V32.71H42.774v5.032a13.839,13.839,0,1,1-27.677,0ZM28.935,54.1a16.279,16.279,0,0,0,5.032-.8v1.9a5.187,5.187,0,0,1-10.065,0V53.3A16.279,16.279,0,0,0,28.935,54.1ZM3.774,68.119a7.517,7.517,0,0,1,5.3-7.2l2.252-.7v7.725H10.065a1.258,1.258,0,0,0-1.258,1.258v7.548H3.774ZM54.1,76.742H49.064V69.194a1.258,1.258,0,0,0-1.258-1.258H46.548V60.211l2.252.7a7.517,7.517,0,0,1,5.3,7.2Z"/>
        <path id="Trazado_999528" data-name="Trazado 999528" d="M21.387,33.968H23.9V39H21.387Z"/>
        <path id="Trazado_999529" data-name="Trazado 999529" d="M33.968,33.968h2.516V39H33.968Z"/>
        <path id="Trazado_999530" data-name="Trazado 999530" d="M35.226,42.774H32.71a3.774,3.774,0,0,1-7.548,0H22.645a6.29,6.29,0,0,0,12.581,0Z"/>
        <path id="Trazado_999531" data-name="Trazado 999531" d="M78,1.258H2.516A1.258,1.258,0,0,0,1.258,2.516V51.581a1.258,1.258,0,0,0,1.258,1.258H16.355V50.323H3.774V3.774H76.742V50.323H41.516v2.516H78a1.258,1.258,0,0,0,1.258-1.258V2.516A1.258,1.258,0,0,0,78,1.258Z"/>
        <path id="Trazado_999532" data-name="Trazado 999532" d="M52.839,16.355h5.032A1.258,1.258,0,0,0,59.129,15.1V10.065a1.258,1.258,0,0,0-1.258-1.258H52.839a1.258,1.258,0,0,0-1.258,1.258V15.1A1.258,1.258,0,0,0,52.839,16.355ZM54.1,11.323h2.516v2.516H54.1Z"/>
        <path id="Trazado_999533" data-name="Trazado 999533" d="M51.581,25.161a1.258,1.258,0,0,0,1.258,1.258h5.032a1.258,1.258,0,0,0,1.258-1.258V20.129a1.258,1.258,0,0,0-1.258-1.258H52.839a1.258,1.258,0,0,0-1.258,1.258ZM54.1,21.387h2.516V23.9H54.1Z"/>
        <path id="Trazado_999534" data-name="Trazado 999534" d="M51.581,35.226a1.258,1.258,0,0,0,1.258,1.258h5.032a1.258,1.258,0,0,0,1.258-1.258V30.194a1.258,1.258,0,0,0-1.258-1.258H52.839a1.258,1.258,0,0,0-1.258,1.258ZM54.1,31.452h2.516v2.516H54.1Z"/>
        <path id="Trazado_999535" data-name="Trazado 999535" d="M51.581,45.29a1.258,1.258,0,0,0,1.258,1.258h5.032a1.258,1.258,0,0,0,1.258-1.258V40.258A1.258,1.258,0,0,0,57.871,39H52.839a1.258,1.258,0,0,0-1.258,1.258ZM54.1,41.516h2.516v2.516H54.1Z"/>
        <path id="Trazado_999536" data-name="Trazado 999536" d="M61.645,8.806H74.226v2.516H61.645Z"/>
        <path id="Trazado_999537" data-name="Trazado 999537" d="M61.645,13.839h7.548v2.516H61.645Z"/>
        <path id="Trazado_999538" data-name="Trazado 999538" d="M71.71,13.839h2.516v2.516H71.71Z"/>
        <path id="Trazado_999539" data-name="Trazado 999539" d="M61.645,18.871H74.226v2.516H61.645Z"/>
        <path id="Trazado_999540" data-name="Trazado 999540" d="M61.645,23.9h7.548v2.516H61.645Z"/>
        <path id="Trazado_999541" data-name="Trazado 999541" d="M71.71,23.9h2.516v2.516H71.71Z"/>
        <path id="Trazado_999542" data-name="Trazado 999542" d="M61.645,28.935H74.226v2.516H61.645Z"/>
        <path id="Trazado_999543" data-name="Trazado 999543" d="M61.645,33.968h7.548v2.516H61.645Z"/>
        <path id="Trazado_999544" data-name="Trazado 999544" d="M71.71,33.968h2.516v2.516H71.71Z"/>
        <path id="Trazado_999545" data-name="Trazado 999545" d="M61.645,39H74.226v2.516H61.645Z"/>
        <path id="Trazado_999546" data-name="Trazado 999546" d="M61.645,44.032h7.548v2.516H61.645Z"/>
        <path id="Trazado_999547" data-name="Trazado 999547" d="M71.71,44.032h2.516v2.516H71.71Z"/>
      </g>
    </g>
  </g>
</svg>
