<svg xmlns="http://www.w3.org/2000/svg" xmlns:xlink="http://www.w3.org/1999/xlink" width="131" height="132" viewBox="0 0 131 132">
  <defs>
    <clipPath id="clip-path">
      <rect id="Rectángulo_405277" data-name="Rectángulo 405277" width="83" height="83" transform="translate(336.711 3229)" fill="#fff" stroke="#707070" stroke-width="1"/>
    </clipPath>
  </defs>
  <g id="Grupo_1107447" data-name="Grupo 1107447" transform="translate(-312.711 -3204)">
    <ellipse id="Elipse_11629" data-name="Elipse 11629" cx="65.5" cy="66" rx="65.5" ry="66" transform="translate(312.711 3204)" fill="#f5daaa"/>
    <g id="Enmascarar_grupo_1098816" data-name="Enmascarar grupo 1098816" clip-path="url(#clip-path)">
      <g id="_10-safety_gloves" data-name="10-safety gloves" transform="translate(336.712 3229.003)">
        <path id="Trazado_999396" data-name="Trazado 999396" d="M24.64,63.337v5.395H18.156V58.357L12.281,47.581a15.481,15.481,0,0,1-1.906-7.457V25.936a3.89,3.89,0,0,1,3.89-3.89V35.222a20.787,20.787,0,0,0,3.488,11.5l3.4,5.109a20.787,20.787,0,0,1,3.488,11.5Z" fill="#e5a32c"/>
        <path id="Trazado_999397" data-name="Trazado 999397" d="M72.622,42.8v1.517a18.3,18.3,0,0,1-.61,4.669L70.9,53.17H41.5V42.8Z" fill="#6e6e6e"/>
        <path id="Trazado_999398" data-name="Trazado 999398" d="M64.841,36.311c0-1.3,1.3-2.594,3.89-2.594s3.89,1.3,3.89,2.594V42.8H41.5V36.311c0-1.3,1.3-2.594,3.89-2.594s3.89,1.3,3.89,2.594v-1.3c0-1.3,1.3-2.594,3.89-2.594s3.89,1.3,3.89,2.594v1.3c0-1.3,1.3-2.594,3.89-2.594S64.841,35.014,64.841,36.311Z" fill="#e5a32c"/>
        <path id="Trazado_999399" data-name="Trazado 999399" d="M72.622,29.827v6.484c0-1.3-1.3-2.594-3.89-2.594s-3.89,1.3-3.89,2.594V29.827c0-1.3,1.3-2.594,3.89-2.594S72.622,28.53,72.622,29.827Z" fill="#6e6e6e"/>
        <path id="Trazado_999400" data-name="Trazado 999400" d="M72.622,24.64v5.187c0-1.3-1.3-2.594-3.89-2.594s-3.89,1.3-3.89,2.594V24.64a3.89,3.89,0,0,1,7.781,0Z" fill="#e5a32c"/>
        <path id="Trazado_999401" data-name="Trazado 999401" d="M70.9,53.17,67.435,66.138H41.5L35.624,55.361A15.482,15.482,0,0,1,33.717,47.9V33.717a3.89,3.89,0,1,1,7.781,0V53.17Z" fill="#e5a32c"/>
        <path id="Trazado_999402" data-name="Trazado 999402" d="M67.435,76.513v2.594A2.6,2.6,0,0,1,64.841,81.7H44.092A2.6,2.6,0,0,1,41.5,79.106V76.513Z" fill="#6e6e6e"/>
        <path id="Trazado_999403" data-name="Trazado 999403" d="M64.841,79.106H44.092A2.6,2.6,0,0,1,41.5,76.513v2.594A2.6,2.6,0,0,0,44.092,81.7H64.841a2.6,2.6,0,0,0,2.594-2.594V76.513a2.6,2.6,0,0,1-2.594,2.594Z" fill="#595959"/>
        <path id="Trazado_999404" data-name="Trazado 999404" d="M67.435,66.138V76.513H41.5V66.138Z" fill="#ffe347"/>
        <path id="Trazado_999405" data-name="Trazado 999405" d="M64.841,29.827v6.484c0-1.3-1.3-2.594-3.89-2.594s-3.89,1.3-3.89,2.594V29.827c0-1.3,1.3-2.594,3.89-2.594S64.841,28.53,64.841,29.827Z" fill="#6e6e6e"/>
        <path id="Trazado_999406" data-name="Trazado 999406" d="M64.841,24.64v5.187c0-1.3-1.3-2.594-3.89-2.594s-3.89,1.3-3.89,2.594V20.749c0-1.3,1.3-2.594,3.89-2.594s3.89,1.3,3.89,2.594Z" fill="#e5a32c"/>
        <path id="Trazado_999407" data-name="Trazado 999407" d="M64.841,16.859v3.89c0-1.3-1.3-2.594-3.89-2.594s-3.89,1.3-3.89,2.594v-3.89a3.89,3.89,0,0,1,7.781,0Z" fill="#6e6e6e"/>
        <path id="Trazado_999408" data-name="Trazado 999408" d="M57.06,29.827v5.187c0-1.3-1.3-2.594-3.89-2.594s-3.89,1.3-3.89,2.594V28.53c0-1.3,1.3-2.594,3.89-2.594s3.89,1.3,3.89,2.594Z" fill="#6e6e6e"/>
        <path id="Trazado_999409" data-name="Trazado 999409" d="M57.06,20.749V28.53c0-1.3-1.3-2.594-3.89-2.594s-3.89,1.3-3.89,2.594V19.452c0-1.3,1.3-2.594,3.89-2.594s3.89,1.3,3.89,2.594Z" fill="#e5a32c"/>
        <path id="Trazado_999410" data-name="Trazado 999410" d="M57.06,16.859v2.594c0-1.3-1.3-2.594-3.89-2.594s-3.89,1.3-3.89,2.594V12.968a3.89,3.89,0,1,1,7.781,0Z" fill="#6e6e6e"/>
        <path id="Trazado_999411" data-name="Trazado 999411" d="M49.279,35.014v1.3c0-1.3-1.3-2.594-3.89-2.594s-3.89,1.3-3.89,2.594V29.827c0-1.3,1.3-2.594,3.89-2.594s3.89,1.3,3.89,2.594Z" fill="#6e6e6e"/>
        <path id="Trazado_999412" data-name="Trazado 999412" d="M49.279,28.53v1.3c0-1.3-1.3-2.594-3.89-2.594s-3.89,1.3-3.89,2.594V20.749c0-1.3,1.3-2.594,3.89-2.594s3.89,1.3,3.89,2.594Z" fill="#e5a32c"/>
        <path id="Trazado_999413" data-name="Trazado 999413" d="M49.279,19.452v1.3c0-1.3-1.3-2.594-3.89-2.594s-3.89,1.3-3.89,2.594v-3.89a3.89,3.89,0,1,1,7.781,0Z" fill="#6e6e6e"/>
        <path id="Trazado_999414" data-name="Trazado 999414" d="M41.5,68.732v5.187H20.749a2.6,2.6,0,0,1-2.594-2.594V68.732Z" fill="#595959"/>
        <path id="Trazado_999415" data-name="Trazado 999415" d="M33.717,9.078a3.89,3.89,0,1,1,7.781,0v24.64a3.89,3.89,0,1,0-7.781,0V47.9a15.481,15.481,0,0,0,1.906,7.457L41.5,66.138v2.594H24.64V63.337a20.787,20.787,0,0,0-3.488-11.5l-3.4-5.109a20.787,20.787,0,0,1-3.488-11.5V22.046a3.89,3.89,0,0,1,3.89,3.89V9.078a3.89,3.89,0,1,1,7.781,0V5.187a3.89,3.89,0,0,1,7.781,0Z" fill="#595959"/>
        <path id="Trazado_999416" data-name="Trazado 999416" d="M68.732,42.8H44.092v1.3a2.594,2.594,0,0,0,2.594,2.594H68.664a7.869,7.869,0,0,0,.067-1.019Z" fill="#848484"/>
        <path id="Trazado_999417" data-name="Trazado 999417" d="M68.664,46.686a7.749,7.749,0,0,1-.2.986L67,53.17h3.89l1.115-4.189a18.321,18.321,0,0,0,.456-2.3Z" fill="#848484"/>
        <path id="Trazado_999418" data-name="Trazado 999418" d="M68.732,45.666a7.869,7.869,0,0,1-.067,1.019h3.8a18.19,18.19,0,0,0,.157-2.373V42.8h-3.89Z" fill="#9c9c9c"/>
        <g id="Grupo_1107300" data-name="Grupo 1107300">
          <path id="Trazado_999419" data-name="Trazado 999419" d="M68.732,33.717V42.8h3.89V36.311C72.622,35.014,71.325,33.717,68.732,33.717Z" fill="#f5daaa"/>
          <path id="Trazado_999420" data-name="Trazado 999420" d="M60.951,33.717a2.594,2.594,0,0,0,2.594,2.594h1.3C64.841,35.014,63.544,33.717,60.951,33.717Z" fill="#f5daaa"/>
          <path id="Trazado_999421" data-name="Trazado 999421" d="M47.983,36.311h1.3c0-1.3-1.3-2.594-3.89-2.594A2.594,2.594,0,0,0,47.983,36.311Z" fill="#f5daaa"/>
          <path id="Trazado_999422" data-name="Trazado 999422" d="M53.17,32.421v1.3a2.594,2.594,0,0,0,2.594,2.594h1.3v-1.3C57.06,33.717,55.763,32.421,53.17,32.421Z" fill="#f5daaa"/>
        </g>
        <path id="Trazado_999423" data-name="Trazado 999423" d="M68.732,27.233v6.484c2.594,0,3.89,1.3,3.89,2.594V29.827C72.622,28.53,71.325,27.233,68.732,27.233Z" fill="#9c9c9c"/>
        <path id="Trazado_999424" data-name="Trazado 999424" d="M72.622,29.827V24.64a3.89,3.89,0,0,0-3.89-3.89v6.484C71.325,27.233,72.622,28.53,72.622,29.827Z" fill="#f5daaa"/>
        <path id="Trazado_999425" data-name="Trazado 999425" d="M63.544,66.138h3.89L70.9,53.17H67Z" fill="#f5daaa"/>
        <path id="Trazado_999426" data-name="Trazado 999426" d="M41.155,53.056l.344.114V33.717a3.89,3.89,0,0,0-3.89-3.89V48.134a5.187,5.187,0,0,0,3.547,4.922Z" fill="#ffbb05"/>
        <path id="Trazado_999427" data-name="Trazado 999427" d="M63.544,79.106h1.3a2.6,2.6,0,0,0,2.594-2.594h-3.89Z" fill="#9c9c9c"/>
        <path id="Trazado_999428" data-name="Trazado 999428" d="M64.841,79.106h-1.3V81.7h1.3a2.6,2.6,0,0,0,2.594-2.594V76.513a2.6,2.6,0,0,1-2.594,2.594Z" fill="#848484"/>
        <path id="Trazado_999429" data-name="Trazado 999429" d="M44.092,79.106A2.6,2.6,0,0,1,41.5,76.513v2.594A2.6,2.6,0,0,0,44.092,81.7H63.544V79.106Z" fill="#595959"/>
        <path id="Trazado_999430" data-name="Trazado 999430" d="M63.544,66.138h3.89V76.513h-3.89Z" fill="#f5daaa"/>
        <path id="Trazado_999431" data-name="Trazado 999431" d="M63.544,66.138H41.5V76.513H63.544Z" fill="#e5a32c"/>
        <path id="Trazado_999432" data-name="Trazado 999432" d="M64.841,36.311V29.827c0-1.3-1.3-2.594-3.89-2.594v6.484C63.544,33.717,64.841,35.014,64.841,36.311Z" fill="#9c9c9c"/>
        <path id="Trazado_999433" data-name="Trazado 999433" d="M60.951,18.156v9.078c2.594,0,3.89,1.3,3.89,2.594V20.749C64.841,19.452,63.544,18.156,60.951,18.156Z" fill="#f5daaa"/>
        <path id="Trazado_999434" data-name="Trazado 999434" d="M64.841,20.749v-3.89a3.89,3.89,0,0,0-3.89-3.89v5.187C63.544,18.156,64.841,19.452,64.841,20.749Z" fill="#9c9c9c"/>
        <path id="Trazado_999435" data-name="Trazado 999435" d="M57.06,35.014V28.53c0-1.3-1.3-2.594-3.89-2.594v6.484C55.763,32.421,57.06,33.717,57.06,35.014Z" fill="#9c9c9c"/>
        <path id="Trazado_999436" data-name="Trazado 999436" d="M57.06,28.53V19.452c0-1.3-1.3-2.594-3.89-2.594v9.078C55.763,25.936,57.06,27.233,57.06,28.53Z" fill="#f5daaa"/>
        <path id="Trazado_999437" data-name="Trazado 999437" d="M57.06,19.452V12.968a3.89,3.89,0,0,0-3.89-3.89v7.781C55.763,16.859,57.06,18.156,57.06,19.452Z" fill="#9c9c9c"/>
        <path id="Trazado_999438" data-name="Trazado 999438" d="M49.279,36.311V29.827c0-1.3-1.3-2.594-3.89-2.594v6.484C47.983,33.717,49.279,35.014,49.279,36.311Z" fill="#9c9c9c"/>
        <path id="Trazado_999439" data-name="Trazado 999439" d="M49.279,29.827V20.749c0-1.3-1.3-2.594-3.89-2.594v9.078C47.983,27.233,49.279,28.53,49.279,29.827Z" fill="#f5daaa"/>
        <path id="Trazado_999440" data-name="Trazado 999440" d="M49.279,20.749v-3.89a3.89,3.89,0,0,0-3.89-3.89v5.187C47.983,18.156,49.279,19.452,49.279,20.749Z" fill="#9c9c9c"/>
        <path id="Trazado_999441" data-name="Trazado 999441" d="M37.608,12.968a3.89,3.89,0,0,0-3.89,3.89V33.717a3.89,3.89,0,1,1,7.781,0V16.859A3.89,3.89,0,0,0,37.608,12.968Z" fill="#383838"/>
        <path id="Trazado_999442" data-name="Trazado 999442" d="M41.5,68.732V66.138L35.624,55.361A15.482,15.482,0,0,1,33.717,47.9V33.717a3.89,3.89,0,1,0-7.781,0V47.9a15.562,15.562,0,0,0,1.9,7.452l5.881,10.782v7.781H41.5Z" fill="#383838"/>
        <ellipse id="Elipse_11709" data-name="Elipse 11709" cx="2.129" cy="2.964" rx="2.129" ry="2.964" transform="translate(56.928 56.103) rotate(-45)" fill="#f6fafd"/>
        <ellipse id="Elipse_11710" data-name="Elipse 11710" cx="1.07" cy="1.489" rx="1.07" ry="1.489" transform="translate(60.013 61.602) rotate(-45)" fill="#f6fafd"/>
        <rect id="Rectángulo_405280" data-name="Rectángulo 405280" width="15.562" height="2.594" rx="1.297" transform="translate(41.498 66.138)" fill="#ffbb05"/>
        <rect id="Rectángulo_405281" data-name="Rectángulo 405281" width="5.187" height="2.594" rx="1.297" transform="translate(58.357 66.138)" fill="#ffbb05"/>
        <rect id="Rectángulo_405282" data-name="Rectángulo 405282" width="15.562" height="2.594" rx="1.297" transform="translate(45.389 42.795)" fill="#9c9c9c"/>
        <rect id="Rectángulo_405283" data-name="Rectángulo 405283" width="5.187" height="2.594" rx="1.297" transform="translate(62.248 42.795)" fill="#9c9c9c"/>
        <path id="Trazado_999443" data-name="Trazado 999443" d="M68.732,19.452a5.148,5.148,0,0,0-2.594.7v-3.29a5.187,5.187,0,0,0-7.813-4.473,5.187,5.187,0,0,0-10.31,0A5.187,5.187,0,0,0,40.2,16.859V29.227a5.187,5.187,0,0,0-7.781,4.491V47.9a16.926,16.926,0,0,0,2.058,8.074L40.2,66.469V79.106A3.89,3.89,0,0,0,44.092,83H64.841a3.89,3.89,0,0,0,3.89-3.89v-12.8l4.53-16.988a19.422,19.422,0,0,0,.657-5.012V24.64a5.187,5.187,0,0,0-5.187-5.187Zm0,2.594a2.594,2.594,0,0,1,2.594,2.594v1.783a7.16,7.16,0,0,0-5.187,0V24.64A2.594,2.594,0,0,1,68.732,22.046ZM63.544,32.907a7.16,7.16,0,0,0-5.187,0v-3.08c0-.629.908-1.3,2.594-1.3s2.594.668,2.594,1.3ZM42.8,29.827c0-.629.908-1.3,2.594-1.3s2.594.668,2.594,1.3v3.08a7.16,7.16,0,0,0-5.187,0Zm7.781-10.375c0-.629.908-1.3,2.594-1.3s2.594.668,2.594,1.3v5.674a7.16,7.16,0,0,0-5.187,0Zm12.968,6.97a7.16,7.16,0,0,0-5.187,0V20.749c0-.629.908-1.3,2.594-1.3s2.594.668,2.594,1.3ZM50.576,28.53c0-.629.908-1.3,2.594-1.3s2.594.668,2.594,1.3v3.08a7.16,7.16,0,0,0-5.187,0ZM60.951,14.265a2.594,2.594,0,0,1,2.594,2.594v.486a7.16,7.16,0,0,0-5.187,0v-.486A2.594,2.594,0,0,1,60.951,14.265Zm-7.781-3.89a2.594,2.594,0,0,1,2.594,2.594v3.08a7.16,7.16,0,0,0-5.187,0v-3.08A2.594,2.594,0,0,1,53.17,10.375Zm-7.781,3.89a2.594,2.594,0,0,1,2.594,2.594v.486a7.16,7.16,0,0,0-5.187,0v-.486A2.594,2.594,0,0,1,45.389,14.265Zm0,5.187c1.686,0,2.594.668,2.594,1.3v5.674a7.16,7.16,0,0,0-5.187,0V20.749C42.8,20.12,43.7,19.452,45.389,19.452ZM64.841,80.4H44.092a1.3,1.3,0,0,1-1.3-1.3v-1.3H66.138v1.3A1.3,1.3,0,0,1,64.841,80.4Zm6.484-38.9H45.389v2.594H71.325v.215a16.889,16.889,0,0,1-.568,4.343L69.9,51.873H45.389v2.594H69.205L66.439,64.841H63.544v2.594h2.594v7.781H42.8V67.435H55.763V64.841H42.269l-5.513-10.1A14.309,14.309,0,0,1,35.014,47.9V33.717a2.594,2.594,0,1,1,5.187,0V53.17a1.3,1.3,0,0,0,2.594,0V36.311c0-.629.908-1.3,2.594-1.3s2.594.668,2.594,1.3V38.9a1.3,1.3,0,1,0,2.594,0v-3.89c0-.629.908-1.3,2.594-1.3s2.594.668,2.594,1.3V38.9a1.3,1.3,0,1,0,2.594,0V36.311c0-.629.908-1.3,2.594-1.3s2.594.668,2.594,1.3V38.9a1.3,1.3,0,0,0,2.594,0V36.311c0-.629.908-1.3,2.594-1.3s2.594.668,2.594,1.3Zm0-8.591a7.16,7.16,0,0,0-5.187,0v-3.08c0-.629.908-1.3,2.594-1.3s2.594.668,2.594,1.3Z"/>
        <path id="Trazado_999444" data-name="Trazado 999444" d="M58.357,64.841h2.594v2.594H58.357Z"/>
        <path id="Trazado_999445" data-name="Trazado 999445" d="M19.452,9.078a2.594,2.594,0,1,1,5.187,0V25.936a1.3,1.3,0,0,0,2.594,0V5.187a2.594,2.594,0,0,1,5.187,0V25.936a1.3,1.3,0,0,0,2.594,0V9.078a2.594,2.594,0,1,1,5.187,0v1.3H42.8v-1.3a5.187,5.187,0,0,0-7.813-4.473,5.187,5.187,0,0,0-10.31,0,5.187,5.187,0,0,0-7.813,4.473v7.781h2.594Z"/>
        <path id="Trazado_999446" data-name="Trazado 999446" d="M25.936,64.841H23.343v2.594h-3.89V58.357a1.3,1.3,0,0,0-.158-.621L13.413,46.955a14.309,14.309,0,0,1-1.742-6.832V25.936a2.585,2.585,0,0,1,1.3-2.233V35.217a21.963,21.963,0,0,0,3.7,12.228l3.4,5.108a19.452,19.452,0,0,1,3.242,9.763l2.594-.13a22.075,22.075,0,0,0-3.673-11.065L18.83,46.006a19.381,19.381,0,0,1-3.268-10.79V23.7a2.585,2.585,0,0,1,1.3,2.233V37.608a1.3,1.3,0,1,0,2.594,0V19.452H16.859v1.993a5.187,5.187,0,0,0-7.781,4.491V40.124A16.926,16.926,0,0,0,11.136,48.2l5.723,10.49V71.325a3.89,3.89,0,0,0,3.89,3.89H37.608V72.622H20.749a1.3,1.3,0,0,1-1.3-1.3v-1.3H37.608V67.435H25.936Z"/>
      </g>
    </g>
  </g>
</svg>
