<svg xmlns="http://www.w3.org/2000/svg" xmlns:xlink="http://www.w3.org/1999/xlink" width="101" height="101" viewBox="0 0 101 101">
  <defs>
    <clipPath id="clip-path">
      <rect id="Rectángulo_405267" data-name="Rectángulo 405267" width="85" height="85" transform="translate(642.711 5316)" fill="#fff" stroke="#707070" stroke-width="1"/>
    </clipPath>
  </defs>
  <g id="Grupo_1107444" data-name="Grupo 1107444" transform="translate(-635 -5307.836)">
    <circle id="Elipse_11674" data-name="Elipse 11674" cx="50.5" cy="50.5" r="50.5" transform="translate(635 5307.836)" fill="#f5daaa"/>
    <g id="Enmascarar_grupo_1098809" data-name="Enmascarar grupo 1098809" clip-path="url(#clip-path)">
      <g id="atencion-al-cliente" transform="translate(642.711 5316)">
        <g id="Grupo_1107287" data-name="Grupo 1107287">
          <g id="Grupo_1107286" data-name="Grupo 1107286">
            <g id="filled_outline_33_">
              <path id="Trazado_999287" data-name="Trazado 999287" d="M80.614,66.455,63.722,49.563l-.708.708a3,3,0,0,1-4.248-4.248h0l.708-.708-4.248-4.248-14.16,14.16,4.248,4.248.708-.708a3,3,0,1,1,4.248,4.248l-.708.708L66.453,80.615a10.029,10.029,0,0,0,1.686,1.347l13.82-13.82A10.037,10.037,0,0,0,80.614,66.455Z" fill="#93c123"/>
              <path id="Trazado_999288" data-name="Trazado 999288" d="M81.96,68.141,68.14,81.962a10,10,0,0,0,13.82-13.82Z" fill="#dadddf"/>
              <path id="Trazado_999289" data-name="Trazado 999289" d="M18.41,12.747,16.993,7.083,7.082,1.419,1.417,7.083l5.664,9.912,5.664,1.416L45.314,50.979l5.664-5.664Z" fill="#cfd2d4"/>
              <path id="Trazado_999290" data-name="Trazado 999290" d="M83.067,13.226l-9.434,9.434-8.5-2.832-2.832-8.5L71.739,1.9A15.511,15.511,0,0,0,52.875,20.761L20.76,52.877A15.664,15.664,0,1,0,32.088,64.2L64.2,32.09A15.518,15.518,0,0,0,83.067,13.226ZM21.242,75.051h-8.5L8.5,67.971l4.248-7.08h8.5l4.248,7.08Z" fill="#dadddf"/>
              <path id="Trazado_999291" data-name="Trazado 999291" d="M83.546,73.535a9.991,9.991,0,0,0-1.586-5.394l-4.078,4.078V82.543A10,10,0,0,0,83.546,73.535Z" fill="#cfd2d4"/>
              <path id="Trazado_999292" data-name="Trazado 999292" d="M.188,7.791,5.852,17.7a1.412,1.412,0,0,0,.885.671L12.022,19.7,30.147,37.82l2-2L13.741,17.41a1.414,1.414,0,0,0-.657-.372L8.006,15.763,3.183,7.319,7.318,3.185l8.448,4.827L17.04,13.09a1.418,1.418,0,0,0,.372.658L35.821,32.156l2-2L19.7,12.029,18.377,6.747a1.412,1.412,0,0,0-.671-.886L7.794.2a1.416,1.416,0,0,0-1.7.228L.43,6.089A1.414,1.414,0,0,0,.188,7.791Z"/>
              <rect id="Rectángulo_405270" data-name="Rectángulo 405270" width="44.055" height="2.832" transform="translate(25.904 57.058) rotate(-45)"/>
              <path id="Trazado_999293" data-name="Trazado 999293" d="M22.455,60.162a1.416,1.416,0,0,0-1.213-.687h-8.5a1.416,1.416,0,0,0-1.214.687l-4.248,7.08a1.419,1.419,0,0,0,0,1.459l4.248,7.08a1.416,1.416,0,0,0,1.214.687h8.5a1.416,1.416,0,0,0,1.213-.687L26.7,68.7a1.419,1.419,0,0,0,0-1.459ZM20.44,73.635H13.547l-3.4-5.664,3.4-5.664H20.44l3.4,5.664Z"/>
              <path id="Trazado_999294" data-name="Trazado 999294" d="M67.97,33.987a16.935,16.935,0,0,0,16.471-21.1,1.416,1.416,0,0,0-2.375-.66l-8.815,8.809-6.994-2.331-2.332-6.992L72.74,2.9A1.417,1.417,0,0,0,72.076.522a16.939,16.939,0,0,0-21.1,16.472,16.637,16.637,0,0,0,.344,3.318L20.311,51.323a16.741,16.741,0,0,0-3.318-.344A16.992,16.992,0,1,0,33.986,67.971a16.637,16.637,0,0,0-.344-3.318l7.424-7.424,3.247,3.247a1.417,1.417,0,0,0,2,0l.708-.708a1.588,1.588,0,0,1,2.249,2.243l0,0-.708.708a1.417,1.417,0,0,0,0,2L65.452,81.616A11.429,11.429,0,0,0,81.688,65.527l-.074-.074L64.723,48.562a1.417,1.417,0,0,0-2,0l-.708.708a1.588,1.588,0,0,1-2.249-2.243l0,0,.708-.708a1.417,1.417,0,0,0,0-2l-3.247-3.247,7.424-7.424A16.743,16.743,0,0,0,67.97,33.987Zm5.564,48.144a8.58,8.58,0,0,1-3.012-.549L81.581,70.523a8.587,8.587,0,0,1-8.047,11.608Zm-16.042-36.8a4.419,4.419,0,0,0,6.23,6.222l15.891,15.9c.173.173.334.355.49.541L68,80.1c-.186-.156-.368-.317-.541-.49l-15.9-15.9a4.419,4.419,0,0,0-6.23-6.222l-2.266-2.266L55.226,43.069Zm5.718-14.242L31.087,63.2a1.415,1.415,0,0,0-.374,1.345,14.255,14.255,0,1,1-10.3-10.3,1.43,1.43,0,0,0,1.345-.374L53.876,21.761a1.419,1.419,0,0,0,.372-1.345A14.094,14.094,0,0,1,68.774,2.857L61.3,10.33a1.415,1.415,0,0,0-.343,1.449l2.832,8.5a1.413,1.413,0,0,0,.9.895L73.186,24a1.414,1.414,0,0,0,1.449-.341L82.1,16.191c.017.271.026.538.026.8a14.087,14.087,0,0,1-17.583,13.72,1.418,1.418,0,0,0-1.345.372Z"/>
              <rect id="Rectángulo_405271" data-name="Rectángulo 405271" width="2.832" height="20.025" transform="translate(57.054 59.061) rotate(-45)"/>
            </g>
          </g>
        </g>
      </g>
    </g>
  </g>
</svg>
