<svg xmlns="http://www.w3.org/2000/svg" xmlns:xlink="http://www.w3.org/1999/xlink" width="100" height="101" viewBox="0 0 100 101">
  <defs>
    <clipPath id="clip-path">
      <rect id="Rectángulo_405292" data-name="Rectángulo 405292" width="79" height="79" transform="translate(509.711 6067)" fill="#fff" stroke="#707070" stroke-width="1"/>
    </clipPath>
  </defs>
  <g id="Grupo_1107445" data-name="Grupo 1107445" transform="translate(-498 -6056.267)">
    <ellipse id="Elipse_11698" data-name="Elipse 11698" cx="50" cy="50.5" rx="50" ry="50.5" transform="translate(498 6056.267)" fill="#93c123"/>
    <g id="Enmascarar_grupo_1098828" data-name="Enmascarar grupo 1098828" clip-path="url(#clip-path)">
      <g id="ajustes" transform="translate(509.634 6066.923)">
        <g id="Grupo_1107327" data-name="Grupo 1107327">
          <path id="Trazado_999614" data-name="Trazado 999614" d="M3.092,66.311h8.967a1.285,1.285,0,0,1,1.281,1.281v8.967a1.285,1.285,0,0,1-1.281,1.281H3.092A1.285,1.285,0,0,1,1.81,76.559V67.592A1.285,1.285,0,0,1,3.092,66.311Z" fill="#e36b24" fill-rule="evenodd"/>
          <path id="Trazado_999615" data-name="Trazado 999615" d="M24.426,66.311h8.967a1.285,1.285,0,0,1,1.281,1.281v8.967a1.285,1.285,0,0,1-1.281,1.281H24.426a1.285,1.285,0,0,1-1.281-1.281V67.592A1.285,1.285,0,0,1,24.426,66.311Z" fill="#e5a32c" fill-rule="evenodd"/>
          <path id="Trazado_999616" data-name="Trazado 999616" d="M45.761,66.311h8.967a1.285,1.285,0,0,1,1.281,1.281v8.967a1.285,1.285,0,0,1-1.281,1.281H45.761a1.285,1.285,0,0,1-1.281-1.281V67.592A1.285,1.285,0,0,1,45.761,66.311Z" fill="#d4e6a7" fill-rule="evenodd"/>
          <path id="Trazado_999617" data-name="Trazado 999617" d="M67.1,66.311h8.967a1.285,1.285,0,0,1,1.281,1.281v8.967a1.285,1.285,0,0,1-1.281,1.281H67.1a1.285,1.285,0,0,1-1.281-1.281V67.592A1.285,1.285,0,0,1,67.1,66.311Z" fill="#5b2b0e" fill-rule="evenodd"/>
          <g id="Grupo_1107326" data-name="Grupo 1107326">
            <path id="Trazado_999618" data-name="Trazado 999618" d="M44.121,7.257a18.7,18.7,0,0,1,5.15,2.136l3.086-3.087a1.584,1.584,0,0,1,2.235,0L58.783,10.5a1.584,1.584,0,0,1,0,2.235L55.7,15.818a18.7,18.7,0,0,1,2.135,5.15h4.363a1.583,1.583,0,0,1,1.58,1.58v5.927a1.583,1.583,0,0,1-1.58,1.58H57.832A18.689,18.689,0,0,1,55.7,35.2l3.087,3.086a1.584,1.584,0,0,1,0,2.235l-4.191,4.191a1.583,1.583,0,0,1-2.235,0l-3.086-3.086a18.7,18.7,0,0,1-5.15,2.135v4.362a1.583,1.583,0,0,1-1.58,1.58H36.614a1.583,1.583,0,0,1-1.58-1.58V43.766a18.686,18.686,0,0,1-5.15-2.136L26.8,44.717a1.583,1.583,0,0,1-2.235,0l-4.191-4.191a1.583,1.583,0,0,1,0-2.235L23.458,35.2a18.7,18.7,0,0,1-2.135-5.15H16.96a1.583,1.583,0,0,1-1.58-1.58V22.548a1.583,1.583,0,0,1,1.58-1.58h4.363a18.7,18.7,0,0,1,2.136-5.15l-3.087-3.087a1.583,1.583,0,0,1,0-2.235l4.191-4.191a1.583,1.583,0,0,1,2.234,0l3.086,3.086a18.7,18.7,0,0,1,5.15-2.136V2.894a1.583,1.583,0,0,1,1.58-1.58h5.927a1.583,1.583,0,0,1,1.58,1.58Z" fill="#5b2b0e" fill-rule="evenodd"/>
            <circle id="Elipse_11715" data-name="Elipse 11715" cx="12.504" cy="12.504" r="12.504" transform="translate(27.073 13.007)" fill="#f4c4a7"/>
          </g>
        </g>
        <path id="Trazado_999619" data-name="Trazado 999619" d="M39.577,36.779A11.268,11.268,0,1,1,50.844,25.512,11.28,11.28,0,0,1,39.577,36.779ZM53.318,25.512A13.741,13.741,0,1,0,39.577,39.252,13.756,13.756,0,0,0,53.318,25.512ZM76.107,76.559a.048.048,0,0,1-.044.045H67.1a.048.048,0,0,1-.044-.045V67.592a.049.049,0,0,1,.044-.045h8.967a.049.049,0,0,1,.044.045ZM54.773,67.592v8.967a.049.049,0,0,1-.044.045H45.761a.049.049,0,0,1-.045-.045V67.592a.05.05,0,0,1,.045-.045h8.967A.049.049,0,0,1,54.773,67.592Zm-21.334,0v8.967a.049.049,0,0,1-.045.045H24.427a.049.049,0,0,1-.045-.045V67.592a.05.05,0,0,1,.045-.045h8.966A.05.05,0,0,1,33.438,67.592Zm-21.335,0v8.967a.049.049,0,0,1-.045.045H3.092a.049.049,0,0,1-.045-.045V67.592a.05.05,0,0,1,.045-.045h8.966A.05.05,0,0,1,12.1,67.592ZM36.271,48.128a.347.347,0,0,0,.343.343h5.928a.347.347,0,0,0,.343-.343V43.767a1.237,1.237,0,0,1,.938-1.2,17.443,17.443,0,0,0,4.81-1.994,1.237,1.237,0,0,1,1.513.184l3.086,3.086a.347.347,0,0,0,.485,0l4.191-4.191a.349.349,0,0,0,0-.486l-3.086-3.086a1.236,1.236,0,0,1-.186-1.512,17.409,17.409,0,0,0,1.994-4.809,1.239,1.239,0,0,1,1.2-.939h4.362a.348.348,0,0,0,.345-.343V22.548a.349.349,0,0,0-.345-.344H57.832a1.238,1.238,0,0,1-1.2-.939,17.4,17.4,0,0,0-1.994-4.809,1.236,1.236,0,0,1,.186-1.512l3.086-3.087a.349.349,0,0,0,0-.486L53.717,7.18a.346.346,0,0,0-.485,0l-3.086,3.086a1.236,1.236,0,0,1-1.513.185,17.441,17.441,0,0,0-4.81-1.995,1.236,1.236,0,0,1-.938-1.2V2.894a.348.348,0,0,0-.343-.344H36.613a.348.348,0,0,0-.343.344V7.256a1.238,1.238,0,0,1-.938,1.2,17.433,17.433,0,0,0-4.811,1.994,1.236,1.236,0,0,1-1.512-.184L25.923,7.18a.347.347,0,0,0-.486,0l-4.191,4.191a.349.349,0,0,0,0,.486l3.086,3.087a1.236,1.236,0,0,1,.186,1.512,17.391,17.391,0,0,0-1.994,4.809,1.237,1.237,0,0,1-1.2.939H16.961a.348.348,0,0,0-.344.344v5.927a.348.348,0,0,0,.344.343h4.362a1.238,1.238,0,0,1,1.2.939,17.394,17.394,0,0,0,1.994,4.809,1.236,1.236,0,0,1-.186,1.512l-3.086,3.087a.348.348,0,0,0,0,.485l4.191,4.191a.347.347,0,0,0,.486,0l3.086-3.086a1.24,1.24,0,0,1,1.514-.185,17.438,17.438,0,0,0,4.809,1.994,1.238,1.238,0,0,1,.938,1.2ZM76.063,65.074H72.816V58.01a1.237,1.237,0,0,0-1.237-1.237H40.814V50.945h1.727a2.821,2.821,0,0,0,2.817-2.817V44.71a19.967,19.967,0,0,0,3.7-1.537l2.42,2.418a2.82,2.82,0,0,0,3.984,0l4.191-4.19a2.822,2.822,0,0,0,0-3.984L57.237,35a19.789,19.789,0,0,0,1.536-3.706h3.421a2.821,2.821,0,0,0,2.818-2.816V22.548a2.82,2.82,0,0,0-2.818-2.816H58.776a19.946,19.946,0,0,0-1.539-3.706l2.421-2.42a2.821,2.821,0,0,0,0-3.983L55.467,5.432a2.82,2.82,0,0,0-3.984,0l-2.42,2.42a19.858,19.858,0,0,0-3.7-1.537V2.894A2.821,2.821,0,0,0,42.541.077H36.613A2.82,2.82,0,0,0,33.8,2.894V6.313A19.906,19.906,0,0,0,30.091,7.85L27.672,5.432a2.821,2.821,0,0,0-3.985,0L19.5,9.623a2.821,2.821,0,0,0,0,3.983l2.421,2.42a19.964,19.964,0,0,0-1.538,3.706H16.961a2.82,2.82,0,0,0-2.818,2.816v5.927a2.821,2.821,0,0,0,2.818,2.816h3.419A20.1,20.1,0,0,0,21.916,35L19.5,37.417a2.822,2.822,0,0,0,0,3.984l4.191,4.19a2.821,2.821,0,0,0,3.985,0l2.419-2.419A19.837,19.837,0,0,0,33.8,44.709v3.42a2.819,2.819,0,0,0,2.816,2.817H38.34v5.828H7.576A1.237,1.237,0,0,0,6.338,58.01v7.064H3.092A2.522,2.522,0,0,0,.574,67.592v8.967a2.522,2.522,0,0,0,2.519,2.518h8.966a2.522,2.522,0,0,0,2.519-2.518V67.592a2.522,2.522,0,0,0-2.519-2.518H8.812V59.247H27.674v5.827H24.427a2.522,2.522,0,0,0-2.519,2.518v8.967a2.522,2.522,0,0,0,2.519,2.518h8.966a2.522,2.522,0,0,0,2.519-2.518V67.592a2.522,2.522,0,0,0-2.519-2.518H30.147V59.247H49.008v5.827H45.761a2.521,2.521,0,0,0-2.518,2.518v8.967a2.521,2.521,0,0,0,2.518,2.518h8.967a2.522,2.522,0,0,0,2.518-2.518V67.592a2.522,2.522,0,0,0-2.518-2.518H51.482V59.247h18.86v5.827H67.1a2.522,2.522,0,0,0-2.518,2.518v8.967A2.522,2.522,0,0,0,67.1,79.077h8.967a2.522,2.522,0,0,0,2.518-2.518V67.592A2.522,2.522,0,0,0,76.063,65.074Z" fill-rule="evenodd"/>
      </g>
    </g>
  </g>
</svg>
