<svg xmlns="http://www.w3.org/2000/svg" xmlns:xlink="http://www.w3.org/1999/xlink" width="100" height="101" viewBox="0 0 100 101">
  <defs>
    <clipPath id="clip-path">
      <rect id="Rectángulo_405294" data-name="Rectángulo 405294" width="79" height="79" transform="translate(1010.711 6067)" fill="#fff" stroke="#707070" stroke-width="1"/>
    </clipPath>
  </defs>
  <g id="Grupo_1107447" data-name="Grupo 1107447" transform="translate(-1000.5 -6056.267)">
    <ellipse id="Elipse_11700" data-name="Elipse 11700" cx="50" cy="50.5" rx="50" ry="50.5" transform="translate(1000.5 6056.267)" fill="#93c123"/>
    <g id="Enmascarar_grupo_1098829" data-name="Enmascarar grupo 1098829" clip-path="url(#clip-path)">
      <g id="estandarizar" transform="translate(1010.711 6067)">
        <g id="Grupo_1107328" data-name="Grupo 1107328">
          <path id="Trazado_999620" data-name="Trazado 999620" d="M60.614,10.619H23.85L22.472,11l-1.511,1-1.2,1.487V73.945l.977,2.212,1.774,1.414.974.272H60.613a4.676,4.676,0,0,0,4.676-4.676V15.3A4.676,4.676,0,0,0,60.614,10.619Z" fill="#5b2b0e"/>
          <path id="Trazado_999621" data-name="Trazado 999621" d="M42.2,2h-.685L40.23,3.662,40,4.46V7.224h3.279l.954-.617V5.888A4.725,4.725,0,0,0,42.2,2Z" fill="#f4c4a7"/>
          <path id="Trazado_999622" data-name="Trazado 999622" d="M20.114,73.166V15.3a4.676,4.676,0,0,1,4.676-4.676h-6.4A4.676,4.676,0,0,0,13.71,15.3V73.166a4.676,4.676,0,0,0,4.676,4.676h6.4A4.676,4.676,0,0,1,20.114,73.166Z" fill="#2a0f2b"/>
          <path id="Trazado_999623" data-name="Trazado 999623" d="M58.539,19.718H26.3l-.765.428-.154.791V71.451l.373.63.64.362H58.539a1.351,1.351,0,0,0,1.351-1.351V21.069A1.351,1.351,0,0,0,58.539,19.718Z" fill="#fdf6e9"/>
          <path id="Trazado_999624" data-name="Trazado 999624" d="M25.514,71.091V21.069a1.351,1.351,0,0,1,1.351-1.351h-6.4a1.351,1.351,0,0,0-1.351,1.351V71.091a1.351,1.351,0,0,0,1.351,1.351h6.4A1.351,1.351,0,0,1,25.514,71.091Z" fill="#f5daaa"/>
          <path id="Trazado_999625" data-name="Trazado 999625" d="M40.17,5.888A4.725,4.725,0,0,1,42.2,2a4.708,4.708,0,0,0-2.7-.847h0a4.731,4.731,0,0,0-4.731,4.731v.719l.561.617h5.4l-.561-.617Z" fill="#e36b24"/>
          <path id="Trazado_999626" data-name="Trazado 999626" d="M46.644,6.607H38.583l-.771.193-.977,1.26v4.886l.492.643.559.617.6.289.524.135h7.635a2.7,2.7,0,0,0,2.69-2.69V9.3A2.7,2.7,0,0,0,46.644,6.607Z" fill="#f4c4a7"/>
          <path id="Trazado_999627" data-name="Trazado 999627" d="M36.88,11.941V9.3a2.7,2.7,0,0,1,2.69-2.69H32.356a2.7,2.7,0,0,0-2.69,2.69v2.644a2.7,2.7,0,0,0,2.69,2.69H39.57A2.7,2.7,0,0,1,36.88,11.941Z" fill="#e36b24"/>
        </g>
        <g id="Grupo_1107329" data-name="Grupo 1107329">
          <path id="Trazado_999628" data-name="Trazado 999628" d="M46.644,6.607H32.356a2.7,2.7,0,0,0-2.69,2.69v2.644a2.7,2.7,0,0,0,2.69,2.69H46.644a2.7,2.7,0,0,0,2.69-2.69V9.3A2.7,2.7,0,0,0,46.644,6.607Z" fill="none" stroke="#000" stroke-linecap="round" stroke-linejoin="round" stroke-miterlimit="10" stroke-width="2.314"/>
          <path id="Trazado_999629" data-name="Trazado 999629" d="M44.231,6.607V5.888A4.731,4.731,0,0,0,39.5,1.157h0a4.731,4.731,0,0,0-4.731,4.731v.719Z" fill="none" stroke="#000" stroke-linecap="round" stroke-linejoin="round" stroke-miterlimit="10" stroke-width="2.314"/>
          <path id="Trazado_999630" data-name="Trazado 999630" d="M32.827,14.785v5.6A4.487,4.487,0,0,0,37.3,24.862h4.4a4.487,4.487,0,0,0,4.474-4.474v-5.6" fill="none" stroke="#000" stroke-linecap="round" stroke-linejoin="round" stroke-miterlimit="10" stroke-width="2.314"/>
          <line id="Línea_4297" data-name="Línea 4297" x2="16.819" transform="translate(31.091 30.365)" fill="none" stroke="#000" stroke-linecap="round" stroke-linejoin="round" stroke-miterlimit="10" stroke-width="2.314"/>
          <line id="Línea_4298" data-name="Línea 4298" x2="16.819" transform="translate(35.758 37.494)" fill="none" stroke="#000" stroke-linecap="round" stroke-linejoin="round" stroke-miterlimit="10" stroke-width="2.314"/>
          <line id="Línea_4299" data-name="Línea 4299" x2="16.819" transform="translate(35.758 42.246)" fill="none" stroke="#000" stroke-linecap="round" stroke-linejoin="round" stroke-miterlimit="10" stroke-width="2.314"/>
          <path id="Trazado_999631" data-name="Trazado 999631" d="M25.1,38.467l2.264,2.264,2.891-2.891" fill="none" stroke="#000" stroke-linecap="round" stroke-linejoin="round" stroke-miterlimit="10" stroke-width="2.314"/>
          <line id="Línea_4300" data-name="Línea 4300" x2="16.819" transform="translate(35.758 48.434)" fill="none" stroke="#000" stroke-linecap="round" stroke-linejoin="round" stroke-miterlimit="10" stroke-width="2.314"/>
          <line id="Línea_4301" data-name="Línea 4301" x2="16.819" transform="translate(35.758 53.185)" fill="none" stroke="#000" stroke-linecap="round" stroke-linejoin="round" stroke-miterlimit="10" stroke-width="2.314"/>
          <path id="Trazado_999632" data-name="Trazado 999632" d="M25.1,49.406l2.264,2.264,2.891-2.891" fill="none" stroke="#000" stroke-linecap="round" stroke-linejoin="round" stroke-miterlimit="10" stroke-width="2.314"/>
          <line id="Línea_4302" data-name="Línea 4302" x2="16.819" transform="translate(35.758 59.373)" fill="none" stroke="#000" stroke-linecap="round" stroke-linejoin="round" stroke-miterlimit="10" stroke-width="2.314"/>
          <line id="Línea_4303" data-name="Línea 4303" x2="16.819" transform="translate(35.758 64.125)" fill="none" stroke="#000" stroke-linecap="round" stroke-linejoin="round" stroke-miterlimit="10" stroke-width="2.314"/>
          <path id="Trazado_999633" data-name="Trazado 999633" d="M25.1,60.346l2.264,2.264,2.891-2.891" fill="none" stroke="#000" stroke-linecap="round" stroke-linejoin="round" stroke-miterlimit="10" stroke-width="2.314"/>
          <path id="Trazado_999634" data-name="Trazado 999634" d="M42.2,72.442H58.538a1.351,1.351,0,0,0,1.351-1.351V21.069a1.351,1.351,0,0,0-1.351-1.351H20.462a1.351,1.351,0,0,0-1.351,1.351V71.091a1.351,1.351,0,0,0,1.351,1.351H36.8" fill="none" stroke="#000" stroke-linecap="round" stroke-linejoin="round" stroke-miterlimit="10" stroke-width="2.314"/>
          <path id="Trazado_999635" data-name="Trazado 999635" d="M65.29,42.246V15.3a4.676,4.676,0,0,0-4.676-4.676H49.334v1.322a2.7,2.7,0,0,1-2.69,2.69H32.356a2.7,2.7,0,0,1-2.69-2.69V10.619H18.387A4.676,4.676,0,0,0,13.71,15.3V73.166a4.676,4.676,0,0,0,4.676,4.676H60.613a4.676,4.676,0,0,0,4.676-4.676V47.646" fill="none" stroke="#000" stroke-linecap="round" stroke-linejoin="round" stroke-miterlimit="10" stroke-width="2.314"/>
        </g>
      </g>
    </g>
  </g>
</svg>
