<svg xmlns="http://www.w3.org/2000/svg" xmlns:xlink="http://www.w3.org/1999/xlink" width="101" height="101" viewBox="0 0 101 101">
  <defs>
    <clipPath id="clip-path">
      <rect id="Rectángulo_405310" data-name="Rectángulo 405310" width="75" height="75" transform="translate(1190.711 4226)" fill="#fff" stroke="#707070" stroke-width="1"/>
    </clipPath>
    <clipPath id="clip-path-2">
      <path id="path2229" d="M0-75H75V0H0Z"/>
    </clipPath>
  </defs>
  <g id="Grupo_1107446" data-name="Grupo 1107446" transform="translate(-907.711 -4213)">
    <circle id="Elipse_11705" data-name="Elipse 11705" cx="50.5" cy="50.5" r="50.5" transform="translate(907.711 4213)" fill="#f5daaa"/>
    <g id="Enmascarar_grupo_1098835" data-name="Enmascarar grupo 1098835" transform="translate(-266)" clip-path="url(#clip-path)">
      <g id="g2223" transform="translate(1190.711 4301)">
        <g id="g2225">
          <g id="g2227" clip-path="url(#clip-path-2)">
            <g id="g2233" transform="translate(4.98 -73.535)">
              <path id="path2235" d="M0,0H49.219a3.516,3.516,0,0,1,3.516,3.516V68.555a3.516,3.516,0,0,1-3.516,3.516H0a3.516,3.516,0,0,1-3.516-3.516V3.516A3.516,3.516,0,0,1,0,0" fill="#5c4111"/>
            </g>
            <g id="g2237" transform="translate(41.064 -67.676)">
              <path id="path2239" d="M0,0H10.791V60.352H-33.74V0h10.791" fill="#fff"/>
            </g>
            <g id="g2241" transform="translate(21.692 -62.988)">
              <path id="path2243" d="M0,0H15.8a3.113,3.113,0,0,0,3.113-3.113v-7.434H-3.113v7.434A3.113,3.113,0,0,0,0,0" fill="#ff6977"/>
            </g>
            <g id="g2245" transform="translate(57.715 -33.252)">
              <path id="path2247" d="M0,0V28.271a3.516,3.516,0,0,1-3.516,3.516H-52.734a3.516,3.516,0,0,1-3.516-3.516V-36.768a3.516,3.516,0,0,1,3.516-3.516H-3.516A3.516,3.516,0,0,1,0-36.768v25.231" fill="none" stroke="#000" stroke-linecap="round" stroke-linejoin="round" stroke-miterlimit="10" stroke-width="2.93"/>
            </g>
            <g id="g2249" transform="translate(21.692 -62.988)">
              <path id="path2251" d="M0,0H15.8a3.113,3.113,0,0,0,3.113-3.113v-7.434H-3.113v7.434A3.113,3.113,0,0,0,0,0" fill="#e5a32c"/>
            </g>
            <g id="g2253" transform="translate(21.692 -62.988)">
              <path id="path2255" d="M0,0H15.8a3.113,3.113,0,0,0,3.113-3.113v-7.434H-3.113v7.434A3.113,3.113,0,0,0,0,0Z" fill="none" stroke="#000" stroke-linecap="round" stroke-linejoin="round" stroke-miterlimit="10" stroke-width="2.93"/>
            </g>
            <g id="g2257" transform="translate(23.73 -7.324)">
              <path id="path2259" d="M0,0H-16.406V-60.352H-5.615" fill="none" stroke="#000" stroke-linecap="round" stroke-linejoin="round" stroke-miterlimit="10" stroke-width="2.93"/>
            </g>
            <g id="g2261" transform="translate(51.855 -29.443)">
              <path id="path2263" d="M0,0V22.119H-16.406" fill="none" stroke="#000" stroke-linecap="round" stroke-linejoin="round" stroke-miterlimit="10" stroke-width="2.93"/>
            </g>
            <g id="g2265" transform="translate(41.064 -67.676)">
              <path id="path2267" d="M0,0H10.791V28.532" fill="none" stroke="#000" stroke-linecap="round" stroke-linejoin="round" stroke-miterlimit="10" stroke-width="2.93"/>
            </g>
            <g id="g2269" transform="translate(29.59 -7.324)">
              <path id="path2271" d="M0,0H0" fill="none" stroke="#000" stroke-linecap="round" stroke-linejoin="round" stroke-miterlimit="10" stroke-width="2.93"/>
            </g>
            <g id="g2273" transform="translate(49.758 -36.832)">
              <path id="path2275" d="M0,0,17.163-17.163a3.874,3.874,0,0,1,5.479,0h0a3.874,3.874,0,0,1,0,5.479L5.479,5.479-4.4,9.876Z" fill="#e5a32c"/>
            </g>
            <g id="g2277" transform="translate(55.237 -31.353)">
              <path id="path2279" d="M0,0-5.479-5.479-9.876,4.4Z" fill="#98a1b3"/>
            </g>
            <g id="g2281" transform="translate(70.517 -46.633)">
              <path id="path2283" d="M0,0,1.883-1.883a3.874,3.874,0,0,0,0-5.479,3.874,3.874,0,0,0-5.479,0L-5.479-5.479Z" fill="#e36b24"/>
            </g>
            <g id="g2285" transform="translate(66.941 -43.057)">
              <path id="path2287" d="M0,0-11.7,11.7l-9.876,4.4,4.4-9.876L-.019-10.938a3.874,3.874,0,0,1,5.479,0h0a3.874,3.874,0,0,1,0,5.479L0,0" fill="none" stroke="#000" stroke-linecap="round" stroke-linejoin="round" stroke-miterlimit="10" stroke-width="2.93"/>
            </g>
            <g id="g2289" transform="translate(54.916 -31.674)">
              <path id="path2291" d="M0,0-5.027-5.027" fill="none" stroke="#000" stroke-linecap="round" stroke-linejoin="round" stroke-miterlimit="10" stroke-width="2.93"/>
            </g>
            <g id="g2293" transform="translate(70.517 -46.633)">
              <path id="path2295" d="M0,0-5.479-5.479" fill="none" stroke="#000" stroke-linecap="round" stroke-linejoin="round" stroke-miterlimit="10" stroke-width="2.93"/>
            </g>
            <path id="path2297" d="M23.73-46.582H14.355v-9.375H23.73Z" fill="#93c123"/>
            <path id="path2299" d="M23.73-30.469H14.355v-9.375H23.73Z" fill="#93c123"/>
            <path id="path2301" d="M23.73-14.355H14.355V-23.73H23.73Z" fill="#e36b24"/>
            <path id="path2303" d="M23.73-46.582H14.355v-9.375H23.73Z" fill="none" stroke="#000" stroke-linecap="round" stroke-linejoin="round" stroke-miterlimit="10" stroke-width="2.93"/>
            <path id="path2305" d="M23.73-30.469H14.355v-9.375H23.73Z" fill="none" stroke="#000" stroke-linecap="round" stroke-linejoin="round" stroke-miterlimit="10" stroke-width="2.93"/>
            <path id="path2307" d="M23.73-14.355H14.355V-23.73H23.73Z" fill="none" stroke="#000" stroke-linecap="round" stroke-linejoin="round" stroke-miterlimit="10" stroke-width="2.93"/>
            <g id="g2309" transform="translate(31.993 -51.222)">
              <path id="path2311" d="M0,0,3.259,3.259,9.872-3.354" fill="none" stroke="#000" stroke-linecap="round" stroke-linejoin="round" stroke-miterlimit="10" stroke-width="2.93"/>
            </g>
            <g id="g2313" transform="translate(31.993 -35.108)">
              <path id="path2315" d="M0,0,3.259,3.259,9.872-3.354" fill="none" stroke="#000" stroke-linecap="round" stroke-linejoin="round" stroke-miterlimit="10" stroke-width="2.93"/>
            </g>
            <g id="g2317" transform="translate(33.622 -15.736)">
              <path id="path2319" d="M0,0,6.613-6.613" fill="none" stroke="#000" stroke-linecap="round" stroke-linejoin="round" stroke-miterlimit="10" stroke-width="2.93"/>
            </g>
            <g id="g2321" transform="translate(33.622 -22.35)">
              <path id="path2323" d="M0,0,6.613,6.613" fill="none" stroke="#000" stroke-linecap="round" stroke-linejoin="round" stroke-miterlimit="10" stroke-width="2.93"/>
            </g>
          </g>
        </g>
      </g>
    </g>
  </g>
</svg>
