<svg xmlns="http://www.w3.org/2000/svg" xmlns:xlink="http://www.w3.org/1999/xlink" width="131" height="132" viewBox="0 0 131 132">
  <defs>
    <clipPath id="clip-path">
      <rect id="Rectángulo_405278" data-name="Rectángulo 405278" width="83" height="83" transform="translate(749.711 3229)" fill="#fff" stroke="#707070" stroke-width="1"/>
    </clipPath>
  </defs>
  <g id="Grupo_1107448" data-name="Grupo 1107448" transform="translate(-725.711 -3204)">
    <ellipse id="Elipse_11629" data-name="Elipse 11629" cx="65.5" cy="66" rx="65.5" ry="66" transform="translate(725.711 3204)" fill="#f5daaa"/>
    <g id="Enmascarar_grupo_1098817" data-name="Enmascarar grupo 1098817" clip-path="url(#clip-path)">
      <g id="auriculares" transform="translate(749.711 3229)">
        <path id="Trazado_999447" data-name="Trazado 999447" d="M58.123,81.783l8.694-2.623,7.3-24.014L68.348,48.13Z" fill="#544f56"/>
        <path id="Trazado_999448" data-name="Trazado 999448" d="M70.715,51.012,68.348,48.13,58.123,81.783l3.57-1.077Z" fill="#444145"/>
        <path id="Trazado_999449" data-name="Trazado 999449" d="M50.884,79.583l7.239,2.2L68.348,48.13l-7.239-2.2a5.027,5.027,0,0,0-6.271,3.348l-7.3,24.033a5.027,5.027,0,0,0,3.349,6.271Z" fill="#93c123"/>
        <path id="Trazado_999450" data-name="Trazado 999450" d="M54.127,79.583a5.027,5.027,0,0,1-3.348-6.271l7.3-24.033a5.019,5.019,0,0,1,3.195-3.3l-.167-.051a5.027,5.027,0,0,0-6.271,3.348l-7.3,24.033a5.027,5.027,0,0,0,3.348,6.271l7.239,2.2.274-.9Z" fill="#d4e6a7"/>
        <path id="Trazado_999451" data-name="Trazado 999451" d="M32.12,79.583l-7.239,2.2L14.657,48.13l7.239-2.2a5.027,5.027,0,0,1,6.271,3.348l7.3,24.033a5.027,5.027,0,0,1-3.349,6.271Z" fill="#93c123"/>
        <path id="Trazado_999452" data-name="Trazado 999452" d="M17.9,48.13l7.072-2.149a5,5,0,0,0-3.077-.051l-7.239,2.2L24.881,81.783l2.969-.9Z" fill="#d4e6a7"/>
        <path id="Trazado_999453" data-name="Trazado 999453" d="M24.881,81.783,16.188,79.16l-7.3-24.014,5.765-7.016Z" fill="#544f56"/>
        <path id="Trazado_999454" data-name="Trazado 999454" d="M19.431,79.16,12.513,56.392a2.433,2.433,0,0,1,.448-2.251l2.571-3.129-.876-2.882L8.892,55.146l7.3,24.014,8.694,2.623-.327-1.077Z" fill="#444145"/>
        <g id="Grupo_1107301" data-name="Grupo 1107301">
          <path id="Trazado_999455" data-name="Trazado 999455" d="M68.561,73.459l6.71-22.368A34.8,34.8,0,0,0,41.941,6.3h-.885a34.8,34.8,0,0,0-33.33,44.8l6.71,22.368a5.076,5.076,0,0,1-6.32-3.4L2.864,52.55A39.873,39.873,0,0,1,13.057,12.7a40.265,40.265,0,0,1,28.3-11.485h.274A40.265,40.265,0,0,1,69.94,12.7,39.873,39.873,0,0,1,80.133,52.55L74.881,70.056a5.076,5.076,0,0,1-6.32,3.4Z" fill="#d4e6a7"/>
        </g>
        <g id="Grupo_1107303" data-name="Grupo 1107303">
          <g id="Grupo_1107302" data-name="Grupo 1107302">
            <path id="Trazado_999456" data-name="Trazado 999456" d="M10.548,70.056,5.3,52.55A39.862,39.862,0,0,1,42.715,1.234c-.359-.009-.719-.015-1.079-.015h-.274A40.265,40.265,0,0,0,13.057,12.7,39.874,39.874,0,0,0,2.864,52.55L8.116,70.056a5.076,5.076,0,0,0,6.078,3.469,5.073,5.073,0,0,1-3.646-3.469Z" fill="#93c123"/>
            <path id="Trazado_999457" data-name="Trazado 999457" d="M70.993,73.459,77.7,51.092A34.8,34.8,0,0,0,44.373,6.3h-.885c-.259,0-.516,0-.774.01A34.8,34.8,0,0,1,75.271,51.092l-6.71,22.368a5.051,5.051,0,0,0,2.674.066c-.081-.02-.161-.042-.242-.066Z" fill="#93c123"/>
          </g>
        </g>
        <path id="Trazado_999458" data-name="Trazado 999458" d="M70.794,11.837A41.751,41.751,0,0,0,41.635,0C14.35-.277-6.171,26.661,1.7,52.9L6.951,70.406a6.361,6.361,0,0,0,6.658,4.45l1.415,4.658a1.216,1.216,0,0,0,.812.811l8.693,2.624a1.221,1.221,0,0,0,.705,0l7.238-2.2a6.3,6.3,0,0,0,4.159-7.788l-7.3-24.032a6.3,6.3,0,0,0-7.788-4.159l-7.239,2.2a1.239,1.239,0,0,0-.586.391L9.437,52.566C2.606,31.74,16.51,8.987,38.925,7.578a1.216,1.216,0,0,0-.153-2.428A36.015,36.015,0,0,0,6.56,51.441l6.3,21.017a3.886,3.886,0,0,1-3.584-2.751L4.029,52.2c-7.4-24.66,11.885-50.062,37.606-49.766,25.58,0,44.728,25.109,37.334,49.766L73.716,69.706a3.867,3.867,0,0,1-3.584,2.749l6.3-21.015C82.98,29.617,66.964,6.58,44.224,5.15a1.216,1.216,0,1,0-.153,2.428c22.428,1.41,36.3,24.17,29.49,44.982l-4.275-5.2a1.248,1.248,0,0,0-.586-.391l-7.239-2.2a6.3,6.3,0,0,0-7.788,4.159l-7.3,24.032a6.3,6.3,0,0,0,4.159,7.788l7.239,2.2a1.225,1.225,0,0,0,.705,0l8.693-2.624a1.217,1.217,0,0,0,.812-.811l1.414-4.655a6.3,6.3,0,0,0,6.651-4.453L81.3,52.9a41.413,41.413,0,0,0-10.5-41.063Zm-56.64,38.82,3.7,12.182a1.216,1.216,0,0,0,1.392.841,1.252,1.252,0,0,0,.126-.031,1.216,1.216,0,0,0,.81-1.517L16.175,48.94,22.25,47.1A3.809,3.809,0,0,1,27,49.633L28.117,53.3l-3.779,1.148a1.216,1.216,0,0,0-.81,1.517q.591,1.077,1.517.81l3.779-1.148,1.489,4.9-3.779,1.148a1.216,1.216,0,0,0-.81,1.517q.591,1.077,1.517.81l3.779-1.148,1.489,4.9-3.779,1.148a1.216,1.216,0,0,0-.81,1.517q.591,1.077,1.517.81l3.779-1.148,1.088,3.581a3.811,3.811,0,0,1-2.538,4.754l-6.075,1.847L21.724,67.2a1.216,1.216,0,0,0-1.517-.81q-1.077.588-.81,1.517l3.661,12.052-5.895-1.779L10.279,55.372ZM65.842,78.183l-5.895,1.779,5.881-19.357A1.216,1.216,0,0,0,63.5,59.9L57.313,80.266l-6.076-1.847A3.81,3.81,0,0,1,48.7,73.666l1.088-3.581,3.779,1.148q.927.266,1.517-.81a1.216,1.216,0,0,0-.81-1.517l-3.779-1.148,1.489-4.9L55.763,64q.927.266,1.517-.81a1.216,1.216,0,0,0-.81-1.517l-3.779-1.148,1.489-4.9,3.779,1.148q.927.266,1.517-.81a1.216,1.216,0,0,0-.81-1.517L54.888,53.3,56,49.633A3.809,3.809,0,0,1,60.755,47.1L66.83,48.94l-1.788,5.885a1.216,1.216,0,0,0,.81,1.517q1.241.06,1.517-.81l1.482-4.876,3.869,4.708Z"/>
      </g>
    </g>
  </g>
</svg>
