<svg xmlns="http://www.w3.org/2000/svg" xmlns:xlink="http://www.w3.org/1999/xlink" width="101" height="101" viewBox="0 0 101 101">
  <defs>
    <clipPath id="clip-path">
      <rect id="Rectángulo_405269" data-name="Rectángulo 405269" width="85" height="85" transform="translate(1186.711 5316)" fill="#fff" stroke="#707070" stroke-width="1"/>
    </clipPath>
  </defs>
  <g id="Grupo_1107446" data-name="Grupo 1107446" transform="translate(-1178 -5307.836)">
    <circle id="Elipse_11676" data-name="Elipse 11676" cx="50.5" cy="50.5" r="50.5" transform="translate(1178 5307.836)" fill="#f5daaa"/>
    <g id="Enmascarar_grupo_1098811" data-name="Enmascarar grupo 1098811" clip-path="url(#clip-path)">
      <g id="limpieza" transform="translate(1186.711 5316)">
        <g id="Grupo_1107298" data-name="Grupo 1107298">
          <path id="Trazado_999313" data-name="Trazado 999313" d="M38.869,35.865h7.238a.97.97,0,0,1,.965.97v8.094a.97.97,0,0,1-.965.969H38.869a.97.97,0,0,1-.965-.969V36.834a.97.97,0,0,1,.965-.97Z" fill="#407093" fill-rule="evenodd"/>
          <path id="Trazado_999314" data-name="Trazado 999314" d="M41.27,35.865h4.838a.97.97,0,0,1,.965.97v8.094a.97.97,0,0,1-.965.969H41.27a.974.974,0,0,0,.969-.969V36.834a.974.974,0,0,0-.969-.97Z" fill="#365e7d" fill-rule="evenodd"/>
          <path id="Trazado_999315" data-name="Trazado 999315" d="M56.446,83.758V57.235a13.958,13.958,0,1,0-27.916,0V83.758Z" fill="#d4e6a7" fill-rule="evenodd"/>
          <path id="Trazado_999316" data-name="Trazado 999316" d="M56.446,83.758V57.235A14,14,0,0,0,42.488,43.277a13.7,13.7,0,0,0-2.419.212A14.013,14.013,0,0,1,51.613,57.235V83.758Z" fill="#93c123" fill-rule="evenodd"/>
          <path id="Trazado_999317" data-name="Trazado 999317" d="M42.488,75.922c6.339,0,11.506-5.572,11.506-12.405s-5.167-12.41-11.506-12.41-11.511,5.572-11.511,12.41S36.149,75.922,42.488,75.922Z" fill="#f4f9e8" fill-rule="evenodd"/>
          <path id="Trazado_999318" data-name="Trazado 999318" d="M42.488,51.108c6.358,0,11.506,5.553,11.506,12.41s-5.149,12.41-11.506,12.41a10.84,10.84,0,0,1-2.419-.278c5.2-1.2,9.092-6.174,9.092-12.132A12.235,12.235,0,0,0,40.07,51.38a10.827,10.827,0,0,1,2.419-.273Z" fill="#d4e6a7" fill-rule="evenodd"/>
          <path id="Trazado_999319" data-name="Trazado 999319" d="M53.439,1.247A2.744,2.744,0,0,0,50.7,3.981c0,1.572,1.454,2.315,2.739,2.739l7.3,2.4a1.24,1.24,0,0,1,.918,1.266V19.1h8.1V12.349a.868.868,0,0,1,.965-.969H80.1a.844.844,0,0,0,.97-.965V9.134a2.293,2.293,0,0,0-.682-1.657L74.9,1.934a2.221,2.221,0,0,0-1.647-.687H53.439Z" fill="#cbe2ff" fill-rule="evenodd"/>
          <path id="Trazado_999320" data-name="Trazado 999320" d="M64.922,19.1h4.833V12.349a.868.868,0,0,1,.965-.969H65.887a.868.868,0,0,0-.965.969Zm10.344-7.723H80.1a.844.844,0,0,0,.97-.965V9.134a2.293,2.293,0,0,0-.682-1.657L74.9,1.934a2.221,2.221,0,0,0-1.647-.687H68.423a2.229,2.229,0,0,1,1.647.687l5.483,5.544a2.293,2.293,0,0,1,.682,1.657v1.28A.844.844,0,0,1,75.266,11.379Z" fill="#9dc6fb" fill-rule="evenodd"/>
          <path id="Trazado_999321" data-name="Trazado 999321" d="M59.8,18.292H71.609a.974.974,0,0,1,.969.97v6.847L65.35,27.436l-6.513-1.327V19.262a.97.97,0,0,1,.965-.97Z" fill="#407093" fill-rule="evenodd"/>
          <path id="Trazado_999322" data-name="Trazado 999322" d="M66.776,18.292h4.833a.974.974,0,0,1,.969.97v6.847H67.741V19.262a.97.97,0,0,0-.965-.97Z" fill="#365e7d" fill-rule="evenodd"/>
          <path id="Trazado_999323" data-name="Trazado 999323" d="M55.4,83.758H76.014a4.447,4.447,0,0,0,4.433-4.433V53.395c0-9.309-7.868-7.563-7.868-18.419V26.109H58.837v8.866c0,10.852-7.873,9.116-7.873,18.419v25.93A4.447,4.447,0,0,0,55.4,83.758Z" fill="#e5a32c" fill-rule="evenodd"/>
          <path id="Trazado_999324" data-name="Trazado 999324" d="M71.176,83.758h4.838a4.447,4.447,0,0,0,4.433-4.433V53.395c0-9.309-7.868-7.563-7.868-18.419V26.109H67.741v8.866c0,10.857,7.868,9.111,7.868,18.419v25.93A4.444,4.444,0,0,1,71.176,83.758Z" fill="#f5daaa" fill-rule="evenodd"/>
          <path id="Trazado_999325" data-name="Trazado 999325" d="M27.3,41.06V33.836a8.6,8.6,0,0,0-17.21,0V41.06Z" fill="#e9f5ff" fill-rule="evenodd"/>
          <path id="Trazado_999326" data-name="Trazado 999326" d="M27.3,41.06V33.836a8.631,8.631,0,0,0-8.607-8.6,8.523,8.523,0,0,0-2.414.348,8.637,8.637,0,0,1,6.184,8.254V41.06H27.3Z" fill="#cbe2ff" fill-rule="evenodd"/>
          <path id="Trazado_999327" data-name="Trazado 999327" d="M16.775,33.874H20.61a.97.97,0,0,1,.965.969v7.125a.97.97,0,0,1-.965.969H16.775a.974.974,0,0,1-.969-.969V34.843a.974.974,0,0,1,.969-.969Z" fill="#e59b6c" fill-rule="evenodd"/>
          <path id="Trazado_999328" data-name="Trazado 999328" d="M10.087,41.06H27.3v6.287H10.087Z" fill="#407093" fill-rule="evenodd"/>
          <path id="Trazado_999329" data-name="Trazado 999329" d="M22.46,41.06H27.3v6.287H22.46Z" fill="#365e7d" fill-rule="evenodd"/>
          <path id="Trazado_999330" data-name="Trazado 999330" d="M8.408,83.758h20.57a4.484,4.484,0,0,0,4.471-4.471V50.844a4.485,4.485,0,0,0-4.471-4.476H8.408a4.485,4.485,0,0,0-4.471,4.476V79.287a4.484,4.484,0,0,0,4.471,4.471Z" fill="#e36b24" fill-rule="evenodd"/>
          <path id="Trazado_999331" data-name="Trazado 999331" d="M24.144,83.758h4.833a4.484,4.484,0,0,0,4.471-4.471V50.844a4.485,4.485,0,0,0-4.471-4.476H24.144a4.488,4.488,0,0,1,4.471,4.476V79.287A4.487,4.487,0,0,1,24.144,83.758Z" fill="#5b2b0e" fill-rule="evenodd"/>
          <path id="Trazado_999332" data-name="Trazado 999332" d="M3.937,56.844H33.448V73.282H3.937Z" fill="#f5daaa" fill-rule="evenodd"/>
          <path id="Trazado_999333" data-name="Trazado 999333" d="M28.615,56.844h4.833V73.282H28.615Z" fill="#e5a32c" fill-rule="evenodd"/>
          <path id="Trazado_999334" data-name="Trazado 999334" d="M50.964,57.569H56.22c1.2,0,1.628.132,2.3-.814a8.448,8.448,0,0,1,14.382,0c.664.946,1.092.814,2.292.814h5.257V70.637H75.19c-1.2,0-1.628-.132-2.292.814a8.448,8.448,0,0,1-14.382,0c-.668-.946-1.092-.814-2.3-.814H50.964Z" fill="#739ad6" fill-rule="evenodd"/>
          <path id="Trazado_999335" data-name="Trazado 999335" d="M12.158,68.529A3.466,3.466,0,1,0,8.69,65.065,3.473,3.473,0,0,0,12.158,68.529Z" fill="#f4c4a7" fill-rule="evenodd"/>
          <path id="Trazado_999336" data-name="Trazado 999336" d="M75.609,57.569h4.838V70.637H75.609Z" fill="#5582be" fill-rule="evenodd"/>
        </g>
        <path id="Trazado_999337" data-name="Trazado 999337" d="M28.977,82.511a3.238,3.238,0,0,0,3.228-3.224V74.529H21.514a1.245,1.245,0,1,1,0-2.489H32.206V58.086H5.179V72.04H15.871a1.245,1.245,0,1,1,0,2.489H5.179v4.758a3.237,3.237,0,0,0,3.229,3.224ZM12.158,62.844a2.225,2.225,0,1,0,1.567.649A2.2,2.2,0,0,0,12.158,62.844ZM8.826,61.734a4.7,4.7,0,1,1-1.384,3.332,4.678,4.678,0,0,1,1.384-3.332Zm10.951,6.993a1.245,1.245,0,1,1,0-2.489H28.53a1.245,1.245,0,0,1,0,2.489Zm0-4.838a1.245,1.245,0,1,1,0-2.49H28.53a1.245,1.245,0,0,1,0,2.49Zm43.272,6.292a1.245,1.245,0,1,1,0-2.49h5.318a1.245,1.245,0,0,1,0,2.49Zm0-9.666a1.245,1.245,0,1,1,0-2.49h5.318a1.245,1.245,0,0,1,0,2.49Zm0,4.833a1.245,1.245,0,1,1,0-2.49h5.318a1.245,1.245,0,0,1,0,2.49ZM52.211,56.322H57.3a11.432,11.432,0,0,1,3.407-3.365,9.282,9.282,0,0,1,9.991,0,11.432,11.432,0,0,1,3.407,3.365H79.2V53.395c0-3.981-1.647-5.723-3.36-7.534-2.212-2.329-4.508-4.758-4.508-10.885V27.351H60.08v4.8a1.245,1.245,0,1,1-2.49,0V18.292a1.242,1.242,0,0,1,1.247-1.242h1.576V10.32l-3.28-1.078c-.3,3.073-1.591,9.567-7.181,13.393a1.243,1.243,0,0,1-1.4-2.052c5.163-3.534,6.024-9.835,6.165-12.137L53.053,7.9a6.848,6.848,0,0,1-2.259-1.167,3.448,3.448,0,0,1-1.337-2.753A3.986,3.986,0,0,1,53.439,0h7.417a1.245,1.245,0,0,1,0,2.49H53.439a1.487,1.487,0,0,0-1.054.442,1.463,1.463,0,0,0-.438,1.049,1.072,1.072,0,0,0,.433.847,4.576,4.576,0,0,0,1.44.711l8.221,2.7A1.243,1.243,0,0,1,62.9,9.421V17.05h5.6V11.379a1.245,1.245,0,0,1,1.247-1.242H79.821V8.673L73.708,2.49H66.494a1.245,1.245,0,0,1,0-2.49h7.732a1.238,1.238,0,0,1,.885.377l6.777,6.852a1.245,1.245,0,0,1,.424.937v3.214a1.245,1.245,0,0,1-1.242,1.247H71V17.05h1.576a1.241,1.241,0,0,1,1.242,1.242V34.975a11.447,11.447,0,0,0,3.816,9.172c2.066,2.184,4.052,4.283,4.052,9.247v25.93A5.688,5.688,0,0,1,76.014,85H8.408A5.728,5.728,0,0,1,2.69,79.287V50.844a5.728,5.728,0,0,1,5.718-5.718h.438V33.836a9.847,9.847,0,0,1,19.695,0v11.29h.438a5.674,5.674,0,0,1,3.186.974,15.242,15.242,0,0,1,4.494-2.9V35.865A1.245,1.245,0,0,1,37.9,34.622h3.337v-4.89H38.8a5.025,5.025,0,0,0-4.278,2.729,1.244,1.244,0,0,1-2.231-1.1c0-.009,2-4.122,6.508-4.122h7.469a1.247,1.247,0,0,1,0,2.494H43.731v4.89h3.341a1.245,1.245,0,0,1,1.247,1.242V43.2a15.3,15.3,0,0,1,4.047,2.5c.447-.541.927-1.045,1.407-1.553a11.294,11.294,0,0,0,3.628-6.56,1.241,1.241,0,0,1,2.452.391c-.64,4.028-2.489,5.981-4.282,7.873-1.713,1.812-3.36,3.553-3.36,7.539v2.927ZM79.2,71.884H74.108A11.427,11.427,0,0,1,70.7,75.249a9.282,9.282,0,0,1-9.991,0A11.429,11.429,0,0,1,57.3,71.884H52.211v7.44a3.2,3.2,0,0,0,3.181,3.186H76.014A3.2,3.2,0,0,0,79.2,79.325v-7.44ZM57.995,58.811H52.211V69.4h5.783a1.24,1.24,0,0,1,1.073.617,9.079,9.079,0,0,0,2.955,3.125,6.8,6.8,0,0,0,7.365,0,9.008,9.008,0,0,0,2.936-3.092,1.237,1.237,0,0,1,1.092-.649H79.2V58.811H73.416a1.245,1.245,0,0,1-1.073-.617,9.037,9.037,0,0,0-2.955-3.125,6.8,6.8,0,0,0-7.365,0,9.01,9.01,0,0,0-2.937,3.092A1.237,1.237,0,0,1,57.995,58.811ZM37.406,45.587a12.838,12.838,0,0,0-3.53,2.315,5.684,5.684,0,0,1,.819,2.941v1.868a12.733,12.733,0,0,1,2.2-1.468,11.974,11.974,0,0,1,10.744-.216A12.645,12.645,0,0,1,49.754,52.3a10.947,10.947,0,0,1,1.2-4.532,12.841,12.841,0,0,0-3.511-2.235,12.633,12.633,0,0,0-10.038.057ZM45.825,42.4v-5.29H39.147V42.4a15.046,15.046,0,0,1,3.341-.372A15.292,15.292,0,0,1,45.825,42.4Zm-30.02-9.77h5.77a1.242,1.242,0,0,1,1.247,1.242v5.939H26.05V33.836a7.358,7.358,0,0,0-14.716,0v5.977h3.228V33.874a1.241,1.241,0,0,1,1.243-1.242Zm4.527,2.489h-3.28v4.692h3.28Zm5.718,10V42.3H11.334v2.824H26.05ZM32.206,55.6V50.844a3.246,3.246,0,0,0-3.228-3.229H8.407a3.246,3.246,0,0,0-3.229,3.229V55.6Zm1.487,26.914H50.705a5.633,5.633,0,0,1-.984-3.186V74.76c-.221.165-.452.32-.682.47A12.244,12.244,0,0,1,45.6,76.755a1.242,1.242,0,0,1-.64-2.4A9.778,9.778,0,0,0,47.7,73.136a10.4,10.4,0,0,0,2.024-1.694V55.588a10.324,10.324,0,0,0-3.139-2.315,9.567,9.567,0,0,0-8.537.169,10.465,10.465,0,0,0-3.351,2.8V70.783a10.67,10.67,0,0,0,2.254,2.141,9.813,9.813,0,0,0,3.063,1.431,1.242,1.242,0,0,1-.64,2.4,12.2,12.2,0,0,1-3.84-1.8c-.287-.2-.57-.414-.838-.64v4.97a5.687,5.687,0,0,1-1,3.223ZM60.08,24.862H71.331V19.539H60.08Z"/>
      </g>
    </g>
  </g>
</svg>
