<svg xmlns="http://www.w3.org/2000/svg" xmlns:xlink="http://www.w3.org/1999/xlink" width="101" height="101" viewBox="0 0 101 101">
  <defs>
    <clipPath id="clip-path">
      <rect id="Rectángulo_405309" data-name="Rectángulo 405309" width="75" height="75" transform="translate(920.711 4226)" fill="#fff" stroke="#707070" stroke-width="1"/>
    </clipPath>
  </defs>
  <g id="Grupo_1107447" data-name="Grupo 1107447" transform="translate(-1177.711 -4213)">
    <circle id="Elipse_11706" data-name="Elipse 11706" cx="50.5" cy="50.5" r="50.5" transform="translate(1177.711 4213)" fill="#f5daaa"/>
    <g id="Enmascarar_grupo_1098834" data-name="Enmascarar grupo 1098834" transform="translate(270)" clip-path="url(#clip-path)">
      <g id="evaluacion_1_" data-name="evaluacion (1)" transform="translate(920.707 4226)">
        <g id="Grupo_1107435" data-name="Grupo 1107435">
          <g id="Grupo_1107430" data-name="Grupo 1107430">
            <path id="Trazado_1000022" data-name="Trazado 1000022" d="M57.121,7.376a3.264,3.264,0,0,1,3.258,3.257V70.571a3.264,3.264,0,0,1-3.258,3.257H6.956A3.264,3.264,0,0,1,3.7,70.571V10.633A3.264,3.264,0,0,1,6.956,7.376H57.121Z" fill="#5c4111" fill-rule="evenodd"/>
            <path id="Trazado_1000023" data-name="Trazado 1000023" d="M52.917,73.829h4.2a3.264,3.264,0,0,0,3.258-3.257V10.633a3.264,3.264,0,0,0-3.258-3.257h-4.2Z" fill="#5b2b0e" fill-rule="evenodd"/>
            <path id="Trazado_1000024" data-name="Trazado 1000024" d="M54.382,11.907H9.695A1.468,1.468,0,0,0,8.23,13.372v54.46A1.468,1.468,0,0,0,9.695,69.3H54.382a1.468,1.468,0,0,0,1.465-1.465V13.372a1.468,1.468,0,0,0-1.465-1.465Z" fill="#eceff1" fill-rule="evenodd"/>
            <path id="Trazado_1000025" data-name="Trazado 1000025" d="M52.917,69.3h1.465c.046,0,.092,0,.137-.006a1.468,1.468,0,0,0,1.328-1.458V13.372a1.468,1.468,0,0,0-1.328-1.458q-.068-.006-.137-.006H52.917Z" fill="#d1d1d6" fill-rule="evenodd"/>
            <path id="Trazado_1000026" data-name="Trazado 1000026" d="M20.962,5.407h4.643a1.438,1.438,0,0,0,1.345-.885,5.539,5.539,0,0,1,10.176,0,1.438,1.438,0,0,0,1.345.885h4.643A1.468,1.468,0,0,1,44.58,6.872v5.54a1.468,1.468,0,0,1-1.465,1.465H20.962A1.468,1.468,0,0,1,19.5,12.411V6.872a1.468,1.468,0,0,1,1.465-1.465Z" fill="#e5a32c" fill-rule="evenodd"/>
            <path id="Trazado_1000027" data-name="Trazado 1000027" d="M41.65,12.411H19.5a1.468,1.468,0,0,0,1.465,1.465H43.115a1.468,1.468,0,0,0,1.465-1.465V6.872a1.468,1.468,0,0,0-1.465-1.465v5.54a1.467,1.467,0,0,1-1.465,1.465Z" fill="#c48958" fill-rule="evenodd"/>
          </g>
          <g id="Grupo_1107431" data-name="Grupo 1107431">
            <path id="Trazado_1000028" data-name="Trazado 1000028" d="M17.372,21.165h5.684a1.881,1.881,0,0,1,1.876,1.876v5.684A1.881,1.881,0,0,1,23.057,30.6H17.372A1.881,1.881,0,0,1,15.5,28.725V23.041A1.881,1.881,0,0,1,17.372,21.165Z" fill="#e36b24" fill-rule="evenodd"/>
            <path id="Trazado_1000029" data-name="Trazado 1000029" d="M23.824,21.33a1.882,1.882,0,0,1,1.109,1.711v5.684A1.881,1.881,0,0,1,23.057,30.6H17.372a1.882,1.882,0,0,1-1.711-1.109,1.858,1.858,0,0,0,.767.165h5.684a1.881,1.881,0,0,0,1.876-1.876V22.1a1.861,1.861,0,0,0-.165-.767Z" fill="#e36b24" fill-rule="evenodd"/>
          </g>
          <g id="Grupo_1107432" data-name="Grupo 1107432">
            <path id="Trazado_1000030" data-name="Trazado 1000030" d="M17.372,37.108h5.684a1.881,1.881,0,0,1,1.876,1.876v5.684a1.881,1.881,0,0,1-1.876,1.876H17.372A1.881,1.881,0,0,1,15.5,44.669V38.984a1.881,1.881,0,0,1,1.876-1.876Z" fill="#93c123" fill-rule="evenodd"/>
            <path id="Trazado_1000031" data-name="Trazado 1000031" d="M23.824,37.273a1.882,1.882,0,0,1,1.109,1.711v5.684a1.881,1.881,0,0,1-1.876,1.876H17.372a1.882,1.882,0,0,1-1.711-1.109,1.858,1.858,0,0,0,.767.165h5.684a1.881,1.881,0,0,0,1.876-1.876V38.04a1.86,1.86,0,0,0-.165-.767Z" fill="#93c123" fill-rule="evenodd"/>
          </g>
          <g id="Grupo_1107433" data-name="Grupo 1107433">
            <path id="Trazado_1000032" data-name="Trazado 1000032" d="M17.372,53.052h5.684a1.881,1.881,0,0,1,1.876,1.876v5.684a1.881,1.881,0,0,1-1.876,1.876H17.372A1.881,1.881,0,0,1,15.5,60.612V54.928A1.881,1.881,0,0,1,17.372,53.052Z" fill="#e5a32c" fill-rule="evenodd"/>
            <path id="Trazado_1000033" data-name="Trazado 1000033" d="M23.824,53.217a1.882,1.882,0,0,1,1.109,1.711v5.684a1.881,1.881,0,0,1-1.876,1.876H17.372a1.882,1.882,0,0,1-1.711-1.109,1.858,1.858,0,0,0,.767.165h5.684a1.881,1.881,0,0,0,1.876-1.876V53.984A1.861,1.861,0,0,0,23.824,53.217Z" fill="#e5a32c" fill-rule="evenodd"/>
          </g>
          <g id="Grupo_1107434" data-name="Grupo 1107434">
            <path id="Trazado_1000034" data-name="Trazado 1000034" d="M48.268,43.444l16.051-27.8a3.166,3.166,0,0,1,4.316-1.156l1.095.632a3.166,3.166,0,0,1,1.157,4.316l-16.051,27.8L49.4,50.373a.755.755,0,0,1-1.132-.654Z" fill="#e5a32c" fill-rule="evenodd"/>
            <path id="Trazado_1000035" data-name="Trazado 1000035" d="M70.383,15.618a3.168,3.168,0,0,1,.5,3.815l-16.051,27.8-4.06,2.344Z" fill="#5c4111" fill-rule="evenodd"/>
            <path id="Trazado_1000036" data-name="Trazado 1000036" d="M48.268,49.72V43.444l6.567,3.792L49.4,50.373a.755.755,0,0,1-1.132-.654Z" fill="#e36b24" fill-rule="evenodd"/>
          </g>
        </g>
        <path id="Trazado_1000037" data-name="Trazado 1000037" d="M31.582,55.216a1.172,1.172,0,0,1,1.172-1.172h13.4a1.172,1.172,0,1,1,0,2.344h-13.4A1.172,1.172,0,0,1,31.582,55.216Zm0,5.108a1.172,1.172,0,0,1,1.172-1.172h6.7a1.172,1.172,0,0,1,0,2.344h-6.7a1.172,1.172,0,0,1-1.172-1.172Zm0-22.673a1.172,1.172,0,0,1,1.172-1.172h13.4a1.172,1.172,0,1,1,0,2.344h-13.4A1.172,1.172,0,0,1,31.582,37.651Zm0,5.109a1.172,1.172,0,0,1,1.172-1.172h6.7a1.172,1.172,0,0,1,0,2.344h-6.7a1.173,1.173,0,0,1-1.172-1.172Zm0-19.433a1.172,1.172,0,0,1,1.172-1.172h13.4a1.172,1.172,0,1,1,0,2.344h-13.4A1.172,1.172,0,0,1,31.582,23.328Zm0,5.109a1.172,1.172,0,0,1,1.172-1.172h6.7a1.172,1.172,0,0,1,0,2.344h-6.7a1.173,1.173,0,0,1-1.172-1.172ZM69.87,18.573,54.406,45.361l-1.254-.725,16.42-28.443A1.983,1.983,0,0,1,69.87,18.573Zm-10.663,52V41.732l-2.189,3.79V69.3a1.172,1.172,0,0,1-1.171,1.172H8.23A1.172,1.172,0,0,1,7.058,69.3V11.908A1.172,1.172,0,0,1,8.23,10.736h10.1V8.547H6.955a2.089,2.089,0,0,0-2.086,2.086V70.57a2.089,2.089,0,0,0,2.086,2.086H57.121a2.089,2.089,0,0,0,2.086-2.086ZM44.579,15.048H19.5a1.173,1.173,0,0,1-1.172-1.172v-.8H9.4V68.124H54.674V48.406l-5.822,3.362a1.172,1.172,0,0,1-1.758-1.015V43.169a1.157,1.157,0,0,1,.158-.586l7.421-12.855V13.08H45.751v.8a1.173,1.173,0,0,1-1.172,1.172ZM20.669,6.579h5.986a1.173,1.173,0,0,0,1.14-.9,4.366,4.366,0,0,1,8.487,0,1.171,1.171,0,0,0,1.14.9h5.987V12.7H20.669ZM57.12,8.547H45.751v2.188H55.846a1.172,1.172,0,0,1,1.171,1.172V25.667l2.189-3.788V10.633A2.089,2.089,0,0,0,57.12,8.547ZM49.438,45.2l3.053,1.762-3.053,1.762Zm15.9-29.246L49.867,42.74l1.254.724L67.541,15.021a1.983,1.983,0,0,0-2.2.931Zm4.983-2.126-1.1-.631A4.335,4.335,0,0,0,63.3,14.78L61.55,17.818V10.633A4.434,4.434,0,0,0,57.121,6.2H45.752v-.8A1.173,1.173,0,0,0,44.58,4.235h-6.3a6.714,6.714,0,0,0-12.478,0H19.5a1.172,1.172,0,0,0-1.172,1.172v.8H6.955a4.435,4.435,0,0,0-4.43,4.43V70.571A4.434,4.434,0,0,0,6.955,75H57.121a4.433,4.433,0,0,0,4.429-4.43v-32.9L71.9,19.745a4.338,4.338,0,0,0-1.583-5.918ZM33.5,5.711a1.465,1.465,0,1,0-1.465,1.465A1.467,1.467,0,0,0,33.5,5.711Zm-9.743,54.9a.713.713,0,0,1-.7.7H17.371a.713.713,0,0,1-.7-.7V54.927a.713.713,0,0,1,.7-.7h5.685a.713.713,0,0,1,.7.7v1.062l-1.745,1.583-1.97-1.97a1.172,1.172,0,1,0-1.659,1.657l2.762,2.76a1.169,1.169,0,0,0,1.616.04l1-.9v1.458Zm4.132-8.373a1.172,1.172,0,1,1,1.575,1.736L26.1,57.027v3.586a3.05,3.05,0,0,1-3.047,3.047H17.371a3.05,3.05,0,0,1-3.047-3.047V54.927a3.051,3.051,0,0,1,3.047-3.047h5.685A3.052,3.052,0,0,1,25.957,54Zm-4.132-7.57a.713.713,0,0,1-.7.7H17.371a.713.713,0,0,1-.7-.7V38.984a.713.713,0,0,1,.7-.7h5.685a.713.713,0,0,1,.7.7v1.062l-1.745,1.583-1.97-1.972a1.173,1.173,0,0,0-1.659,1.658l2.762,2.76a1.173,1.173,0,0,0,1.616.04l1-.905v1.459ZM27.892,36.3a1.172,1.172,0,1,1,1.575,1.736L26.1,41.083v3.586a3.05,3.05,0,0,1-3.047,3.047H17.371a3.05,3.05,0,0,1-3.047-3.047V38.984a3.052,3.052,0,0,1,3.047-3.048h5.685a3.053,3.053,0,0,1,2.9,2.117ZM23.76,23.041V24.1l-1.745,1.584-1.97-1.97a1.173,1.173,0,0,0-1.659,1.658l2.762,2.76a1.171,1.171,0,0,0,1.616.038l1-.9v1.458a.713.713,0,0,1-.7.7H17.371a.713.713,0,0,1-.7-.7V23.041a.713.713,0,0,1,.7-.7h5.685a.713.713,0,0,1,.7.7Zm-9.435,0a3.051,3.051,0,0,1,3.047-3.048h5.685a3.054,3.054,0,0,1,2.9,2.115l1.935-1.755a1.171,1.171,0,1,1,1.575,1.734L26.1,25.14v3.584a3.051,3.051,0,0,1-3.047,3.048H17.371a3.052,3.052,0,0,1-3.047-3.048Z" fill-rule="evenodd"/>
      </g>
    </g>
  </g>
</svg>
