<svg xmlns="http://www.w3.org/2000/svg" xmlns:xlink="http://www.w3.org/1999/xlink" width="101" height="101" viewBox="0 0 101 101">
  <defs>
    <clipPath id="clip-path">
      <rect id="Rectángulo_405311" data-name="Rectángulo 405311" width="75" height="75" transform="translate(-1125 -7474)" fill="#fff" stroke="#707070" stroke-width="1"/>
    </clipPath>
  </defs>
  <g id="Grupo_1107448" data-name="Grupo 1107448" transform="translate(1138 7487)">
    <circle id="Elipse_11707" data-name="Elipse 11707" cx="50.5" cy="50.5" r="50.5" transform="translate(-1138 -7487)" fill="#f5daaa"/>
    <g id="Enmascarar_grupo_1098836" data-name="Enmascarar grupo 1098836" clip-path="url(#clip-path)">
      <g id="inventario" transform="translate(-1125 -7474)">
        <path id="Trazado_1000038" data-name="Trazado 1000038" d="M4.489,5.648H54.54V73.9H4.489Z" fill="#5c4111"/>
        <path id="Trazado_1000039" data-name="Trazado 1000039" d="M9.111,10.2H49.99V69.351H9.111Z" fill="#f1f6f7"/>
        <path id="Trazado_1000040" data-name="Trazado 1000040" d="M62.526,71.623a2.275,2.275,0,0,1-2.275-2.275V64.8H64.8v4.55A2.275,2.275,0,0,1,62.526,71.623Z" fill="#ffe17d"/>
        <path id="Trazado_1000041" data-name="Trazado 1000041" d="M62.448,69.348V64.8h-2.2v4.55a2.276,2.276,0,0,0,3.374,1.993A2.274,2.274,0,0,1,62.448,69.348Z" fill="#ffd164"/>
        <path id="Trazado_1000042" data-name="Trazado 1000042" d="M59.091,23.847h6.87V49.987h-6.87Z" fill="#e5a32c"/>
        <path id="Trazado_1000043" data-name="Trazado 1000043" d="M59.091,23.847h2.93V49.987h-2.93Z" fill="#5c4111"/>
        <path id="Trazado_1000044" data-name="Trazado 1000044" d="M64.8,23.847h-4.55V21.572a2.275,2.275,0,1,1,4.55,0Z" fill="#607882"/>
        <path id="Trazado_1000045" data-name="Trazado 1000045" d="M63.625,19.579a2.276,2.276,0,0,0-3.374,1.993v2.275h2.2V21.571a2.275,2.275,0,0,1,1.176-1.993Z" fill="#526970"/>
        <path id="Trazado_1000046" data-name="Trazado 1000046" d="M59.09,49.987h6.871V64.8H59.09Z" fill="#93c123"/>
        <path id="Trazado_1000047" data-name="Trazado 1000047" d="M59.09,49.987h2.93V64.8H59.09Z" fill="#33430c"/>
        <path id="Trazado_1000048" data-name="Trazado 1000048" d="M4.489,5.648h2.93V73.9H4.489Z" fill="#5b2b0e"/>
        <path id="Trazado_1000049" data-name="Trazado 1000049" d="M9.111,10.2h2.93V69.351H9.111Z" fill="#d2e4e7"/>
        <path id="Trazado_1000050" data-name="Trazado 1000050" d="M22.689,19.3H36.34v13.65H22.689Z" fill="#5b2b0e"/>
        <g id="Grupo_1107436" data-name="Grupo 1107436">
          <path id="Trazado_1000051" data-name="Trazado 1000051" d="M27.24,19.3h4.55v4.55H27.24Z" fill="#e36b24"/>
          <circle id="Elipse_11716" data-name="Elipse 11716" cx="2.275" cy="2.275" r="2.275" transform="translate(15.864 42.05)" fill="#e36b24"/>
          <circle id="Elipse_11717" data-name="Elipse 11717" cx="2.275" cy="2.275" r="2.275" transform="translate(15.864 51.15)" fill="#e36b24"/>
          <circle id="Elipse_11718" data-name="Elipse 11718" cx="2.275" cy="2.275" r="2.275" transform="translate(15.864 60.251)" fill="#e36b24"/>
        </g>
        <path id="Trazado_1000052" data-name="Trazado 1000052" d="M36.34,5.649A4.55,4.55,0,0,0,31.79,1.1H27.24a4.55,4.55,0,0,0-4.55,4.55,4.55,4.55,0,0,0-4.55,4.55v2.275H40.89V10.2A4.55,4.55,0,0,0,36.34,5.649Z" fill="#e5a32c"/>
        <path id="Trazado_1000053" data-name="Trazado 1000053" d="M25.619,5.649a4.55,4.55,0,0,1,4.55-4.55H27.24a4.55,4.55,0,0,0-4.55,4.55,4.55,4.55,0,0,0-4.55,4.55v2.275h2.93V10.2A4.55,4.55,0,0,1,25.619,5.649Z" fill="#5c4111"/>
        <path id="Trazado_1000054" data-name="Trazado 1000054" d="M29.515,6.747a1.1,1.1,0,1,1,1.1-1.1A1.1,1.1,0,0,1,29.515,6.747Z"/>
        <g id="Grupo_1107437" data-name="Grupo 1107437">
          <path id="Trazado_1000055" data-name="Trazado 1000055" d="M54.541,4.55H37.331A5.658,5.658,0,0,0,31.79,0H27.24A5.659,5.659,0,0,0,21.7,4.55H4.488a1.1,1.1,0,0,0-1.1,1.1v24.9a1.1,1.1,0,0,0,2.2,0V6.747h12.63A5.59,5.59,0,0,0,17.147,9.1H9.111a1.1,1.1,0,0,0-1.1,1.1V69.35a1.1,1.1,0,0,0,1.1,1.1H49.991a1.1,1.1,0,0,0,1.1-1.1V10.2a1.1,1.1,0,0,0-1.1-1.1h-8.11a5.629,5.629,0,0,0-1.073-2.354H53.442V72.8H5.587V35.341a1.1,1.1,0,0,0-2.2,0V73.9a1.1,1.1,0,0,0,1.1,1.1H54.541a1.1,1.1,0,0,0,1.1-1.1V5.648a1.1,1.1,0,0,0-1.1-1.1Zm-14.75,6.826H31.909a1.1,1.1,0,0,0,0,2.2H40.89a1.1,1.1,0,0,0,1.1-1.1V11.3h6.9V68.251H10.21V11.3h6.831v1.176a1.1,1.1,0,0,0,1.1,1.1H27.12a1.1,1.1,0,0,0,0-2.2H19.238c-.061-2.636.84-4.629,3.451-4.629a1.1,1.1,0,0,0,1.1-1.1A3.456,3.456,0,0,1,27.24,2.2h4.55a3.455,3.455,0,0,1,3.451,3.451,1.147,1.147,0,0,0,1.1,1.1c2.563.284,3.491,1.944,3.451,4.629Z"/>
          <path id="Trazado_1000056" data-name="Trazado 1000056" d="M22.689,18.2a1.1,1.1,0,0,0-1.1,1.1v13.65a1.1,1.1,0,0,0,1.1,1.1H36.34a1.1,1.1,0,0,0,1.1-1.1V19.3a1.1,1.1,0,0,0-1.1-1.1Zm12.552,13.65H23.788V20.4h2.353v3.451a1.1,1.1,0,0,0,1.1,1.1h4.55a1.1,1.1,0,0,0,1.1-1.1V20.4h2.353V31.848ZM30.691,20.4v2.353H28.338V20.4Z"/>
          <path id="Trazado_1000057" data-name="Trazado 1000057" d="M18.139,40.951a3.374,3.374,0,1,0,3.374,3.374A3.377,3.377,0,0,0,18.139,40.951Zm0,4.55a1.176,1.176,0,1,1,1.176-1.176A1.178,1.178,0,0,1,18.139,45.5Z"/>
          <path id="Trazado_1000058" data-name="Trazado 1000058" d="M18.139,50.052a3.374,3.374,0,1,0,3.374,3.374A3.377,3.377,0,0,0,18.139,50.052Zm0,4.55a1.176,1.176,0,1,1,1.176-1.176A1.178,1.178,0,0,1,18.139,54.6Z"/>
          <path id="Trazado_1000059" data-name="Trazado 1000059" d="M18.139,59.152a3.374,3.374,0,1,0,3.374,3.374A3.377,3.377,0,0,0,18.139,59.152Zm0,4.55a1.176,1.176,0,1,1,1.176-1.176A1.178,1.178,0,0,1,18.139,63.7Z"/>
          <path id="Trazado_1000060" data-name="Trazado 1000060" d="M23.866,44.325a1.1,1.1,0,0,0,1.1,1.1h18.2a1.1,1.1,0,0,0,0-2.2h-18.2a1.1,1.1,0,0,0-1.1,1.1Z"/>
          <path id="Trazado_1000061" data-name="Trazado 1000061" d="M43.165,52.327h-18.2a1.1,1.1,0,1,0,0,2.2h18.2a1.1,1.1,0,0,0,0-2.2Z"/>
          <path id="Trazado_1000062" data-name="Trazado 1000062" d="M43.165,61.427h-18.2a1.1,1.1,0,1,0,0,2.2h18.2a1.1,1.1,0,0,0,0-2.2Z"/>
          <path id="Trazado_1000063" data-name="Trazado 1000063" d="M68.314,29.573H67.059V23.846a1.1,1.1,0,0,0-1.1-1.1H65.9V21.572a3.374,3.374,0,0,0-6.747,0v1.176H59.09a1.1,1.1,0,0,0-1.1,1.1V37.392a1.1,1.1,0,0,0,2.2,0V31.77h4.673V48.889H60.189v-6.71a1.1,1.1,0,0,0-2.2,0V64.8a1.1,1.1,0,0,0,1.1,1.1h.062v3.451a3.38,3.38,0,0,0,2.275,3.19V73.9a1.1,1.1,0,0,0,2.2,0V72.538a3.379,3.379,0,0,0,2.275-3.19V65.9h.062a1.1,1.1,0,0,0,1.1-1.1V31.77h1.255a1.1,1.1,0,0,1,1.1,1.1V44.322a1.1,1.1,0,0,0,2.2,0V32.869A3.3,3.3,0,0,0,68.314,29.573ZM64.863,63.7H60.189V51.086h4.674ZM63.7,69.348a1.176,1.176,0,0,1-2.353,0V65.9H63.7ZM61.35,21.572a1.176,1.176,0,1,1,2.353,0v1.176H61.35Zm-1.161,8V24.945h4.673v4.628Z"/>
        </g>
      </g>
    </g>
  </g>
</svg>
