<svg xmlns="http://www.w3.org/2000/svg" xmlns:xlink="http://www.w3.org/1999/xlink" width="101" height="101" viewBox="0 0 101 101">
  <defs>
    <clipPath id="clip-path">
      <rect id="Rectángulo_405272" data-name="Rectángulo 405272" width="85" height="85" transform="translate(-8401 -6186)" fill="#fff" stroke="#707070" stroke-width="1"/>
    </clipPath>
  </defs>
  <g id="Grupo_1107447" data-name="Grupo 1107447" transform="translate(8408.711 6194.328)">
    <circle id="Elipse_11687" data-name="Elipse 11687" cx="50.5" cy="50.5" r="50.5" transform="translate(-8408.711 -6194.328)" fill="#f5daaa"/>
    <g id="Enmascarar_grupo_1098812" data-name="Enmascarar grupo 1098812" clip-path="url(#clip-path)">
      <g id="soporte-tecnico" transform="translate(-8399.64 -6186)">
        <path id="Trazado_999338" data-name="Trazado 999338" d="M42.746,58.048l8.3-7.795-3.3-.612a3.928,3.928,0,0,1-2.735-3.787V38.626H29.6v7.229a3.928,3.928,0,0,1-2.735,3.787l-3.3.612,8.3,7.795a7.941,7.941,0,0,0,10.873,0Zm0,0" fill="#ffe7cf"/>
        <path id="Trazado_999339" data-name="Trazado 999339" d="M36.624,48.979a3.928,3.928,0,0,0,2.735,3.787l3.857,1.185,3,.837,4.828-4.535-3.3-.612a3.928,3.928,0,0,1-2.735-3.787V38.626H36.624Zm0,0" fill="#efd5bd"/>
        <path id="Trazado_999340" data-name="Trazado 999340" d="M53.225,20.579H52.209V15.87a13.89,13.89,0,0,0-4.7-10.554,15.257,15.257,0,0,0-20.391,0,13.888,13.888,0,0,0-4.7,10.554v4.709H21.4a2.7,2.7,0,0,0-2.7,2.7v2.988a2.7,2.7,0,0,0,2.7,2.7h1.02a13.86,13.86,0,0,0,4.7,10.238,15.257,15.257,0,0,0,20.391,0A13.861,13.861,0,0,0,52.2,28.96h1.02a2.7,2.7,0,0,0,2.7-2.7V23.275a2.7,2.7,0,0,0-2.7-2.7Zm0,0" fill="#ffe7cf"/>
        <path id="Trazado_999341" data-name="Trazado 999341" d="M53.225,20.579H52.209V15.87a13.89,13.89,0,0,0-4.7-10.554,15.12,15.12,0,0,0-14.371-3.3,16,16,0,0,1,6.02,3.3,13.89,13.89,0,0,1,4.7,10.554v3.516l0,9.574a13.864,13.864,0,0,1-4.7,10.238,16,16,0,0,1-6.02,3.3,15.118,15.118,0,0,0,14.371-3.3A13.861,13.861,0,0,0,52.2,28.96h1.02a2.7,2.7,0,0,0,2.7-2.7V23.275a2.7,2.7,0,0,0-2.7-2.7Zm0,0" fill="#efd5bd"/>
        <path id="Trazado_999342" data-name="Trazado 999342" d="M47.132,49.094s-6.367,9.05-9.822,9.05-9.822-9.05-9.822-9.05a1.572,1.572,0,0,0-1.362-.255L11.618,52.882a10.451,10.451,0,0,0-7.5,8.308L1.287,77.78A2.9,2.9,0,0,0,4.15,81.173H70.47a2.9,2.9,0,0,0,2.862-3.394L70.5,61.19A10.453,10.453,0,0,0,63,52.882L48.494,48.839a1.574,1.574,0,0,0-1.362.255Zm0,0" fill="#e36b24"/>
        <path id="Trazado_999343" data-name="Trazado 999343" d="M73.332,77.78,70.5,61.19A10.453,10.453,0,0,0,63,52.882L48.494,48.839a1.573,1.573,0,0,0-1.362.255,55.538,55.538,0,0,1-3.916,4.858l13.2,3.677a7.547,7.547,0,0,1,5.413,6l3,17.545H70.47a2.9,2.9,0,0,0,2.862-3.393Zm0,0" fill="#5b2b0e"/>
        <path id="Trazado_999344" data-name="Trazado 999344" d="M27.569,48.9l9.741,9.24-6.184,2.107a3.953,3.953,0,0,1-4.247-1.137l-7.384-8.427,7.187-2a.928.928,0,0,1,.888.22Zm0,0" fill="#baced8"/>
        <path id="Trazado_999345" data-name="Trazado 999345" d="M47.051,48.9l-9.741,9.24,6.184,2.107a3.953,3.953,0,0,0,4.247-1.137l7.384-8.427-7.187-2a.928.928,0,0,0-.888.22Zm0,0" fill="#baced8"/>
        <path id="Trazado_999346" data-name="Trazado 999346" d="M79.71,66.38h-.966a1.325,1.325,0,0,1-1.257-.911,11.575,11.575,0,0,0-.63-1.522,1.328,1.328,0,0,1,.243-1.535l.683-.682a1.323,1.323,0,0,0,0-1.871L75.73,57.8a1.324,1.324,0,0,0-1.871,0l-.683.683a1.327,1.327,0,0,1-1.534.244,11.56,11.56,0,0,0-1.522-.63,1.326,1.326,0,0,1-.911-1.257v-.966a1.323,1.323,0,0,0-1.323-1.323h-2.9a1.323,1.323,0,0,0-1.323,1.323v.966a1.326,1.326,0,0,1-.911,1.257,11.488,11.488,0,0,0-1.522.63,1.328,1.328,0,0,1-1.535-.244l-.682-.683a1.324,1.324,0,0,0-1.871,0l-2.054,2.054a1.324,1.324,0,0,0,0,1.871l.683.682a1.328,1.328,0,0,1,.244,1.535,11.487,11.487,0,0,0-.63,1.522,1.326,1.326,0,0,1-1.257.911h-.966A1.323,1.323,0,0,0,51.834,67.7v2.9a1.323,1.323,0,0,0,1.323,1.323h.966a1.326,1.326,0,0,1,1.257.911,11.559,11.559,0,0,0,.63,1.522,1.327,1.327,0,0,1-.244,1.534l-.683.683a1.324,1.324,0,0,0,0,1.871l2.054,2.054a1.323,1.323,0,0,0,1.871,0l.682-.683a1.328,1.328,0,0,1,1.535-.243,11.576,11.576,0,0,0,1.522.63,1.325,1.325,0,0,1,.911,1.256v.966a1.323,1.323,0,0,0,1.323,1.323h2.9a1.323,1.323,0,0,0,1.323-1.323v-.966a1.325,1.325,0,0,1,.911-1.256,11.65,11.65,0,0,0,1.522-.63,1.327,1.327,0,0,1,1.534.243l.683.683a1.323,1.323,0,0,0,1.871,0l2.054-2.054a1.323,1.323,0,0,0,0-1.871L77.1,75.9a1.327,1.327,0,0,1-.243-1.534,11.648,11.648,0,0,0,.63-1.522,1.325,1.325,0,0,1,1.257-.911h.966a1.323,1.323,0,0,0,1.323-1.323V67.7A1.323,1.323,0,0,0,79.71,66.38Zm-13.277,7.6a4.821,4.821,0,1,1,4.82-4.821A4.821,4.821,0,0,1,66.434,73.976Zm0,0" fill="#e1effb"/>
        <path id="Trazado_999347" data-name="Trazado 999347" d="M48.8,3.655,39.5,1.522a11,11,0,0,0-5.006.021L25.765,3.619a7.3,7.3,0,0,0-5.613,7.106v8.261H54.468V10.774A7.3,7.3,0,0,0,48.8,3.655Zm0,0" fill="#e36b24"/>
        <path id="Trazado_999348" data-name="Trazado 999348" d="M48.8,3.655,39.5,1.522a11,11,0,0,0-5.006.02l-1.6.382,7.546,1.731A7.3,7.3,0,0,1,46.1,10.774v8.212h8.364V10.774A7.3,7.3,0,0,0,48.8,3.655Zm0,0" fill="#5b2b0e"/>
        <path id="Trazado_999349" data-name="Trazado 999349" d="M50.384,23.128a43.845,43.845,0,0,0-26.148,0,2.778,2.778,0,0,1-3.492-1.941l-.592-2.2a47.876,47.876,0,0,1,34.316,0q-.3,1.1-.592,2.2a2.778,2.778,0,0,1-3.492,1.941Zm0,0" fill="#e36b24"/>
        <path id="Trazado_999350" data-name="Trazado 999350" d="M29.7,72.236H20.205a.711.711,0,0,1-.711-.711V68.256a.711.711,0,0,1,.711-.711H29.7a.711.711,0,0,1,.711.711v3.269A.711.711,0,0,1,29.7,72.236Zm0,0" fill="#ffb123"/>
        <path id="Trazado_999351" data-name="Trazado 999351" d="M79.71,66.38h-.966a1.325,1.325,0,0,1-1.257-.911,11.575,11.575,0,0,0-.63-1.522,1.327,1.327,0,0,1,.244-1.535l.682-.682a1.323,1.323,0,0,0,0-1.871L75.73,57.8a1.324,1.324,0,0,0-1.871,0l-.683.683a1.327,1.327,0,0,1-1.534.244,11.56,11.56,0,0,0-1.522-.63,1.326,1.326,0,0,1-.911-1.257v-.966a1.323,1.323,0,0,0-1.323-1.323h-2.9a1.323,1.323,0,0,0-1.307,1.115,14.605,14.605,0,0,1,0,26.969,1.323,1.323,0,0,0,1.307,1.115h2.9a1.323,1.323,0,0,0,1.323-1.323v-.966a1.325,1.325,0,0,1,.911-1.256,11.647,11.647,0,0,0,1.522-.63,1.327,1.327,0,0,1,1.534.243l.683.683a1.323,1.323,0,0,0,1.871,0l2.054-2.054a1.323,1.323,0,0,0,0-1.871L77.1,75.9a1.326,1.326,0,0,1-.244-1.534,11.648,11.648,0,0,0,.63-1.522,1.325,1.325,0,0,1,1.257-.911h.966a1.323,1.323,0,0,0,1.323-1.323V67.7A1.323,1.323,0,0,0,79.71,66.38Zm0,0" fill="#baced8"/>
        <path id="Trazado_999352" data-name="Trazado 999352" d="M79.71,65.134h-.966a.081.081,0,0,1-.075-.059,12.9,12.9,0,0,0-.7-1.685.083.083,0,0,1,.01-.1l.682-.682a2.569,2.569,0,0,0,0-3.632l-2.054-2.054a2.568,2.568,0,0,0-3.632,0l-.683.682a.081.081,0,0,1-.1.01,13,13,0,0,0-1.686-.7.081.081,0,0,1-.059-.075v-.966a2.571,2.571,0,0,0-2.568-2.568H66.82a11.635,11.635,0,0,0-3.483-1.628l-15.064-4.2a2.182,2.182,0,0,0-1.428.093,3.056,3.056,0,0,1-.584-1.722V41.683a18.6,18.6,0,0,0,2.056-1.541,15.017,15.017,0,0,0,5.06-9.94,3.947,3.947,0,0,0,3.789-3.939V23.276a3.916,3.916,0,0,0-1.691-3.24l.2-.726a1.237,1.237,0,0,0,.042-.348V13.327a1.245,1.245,0,1,0-2.49,0v3.895a48.914,48.914,0,0,0-31.826,0v-6.5a6.038,6.038,0,0,1,4.656-5.895l8.725-2.077a9.81,9.81,0,0,1,4.439-.018l9.3,2.133a6.043,6.043,0,0,1,4.074,3.213,1.245,1.245,0,1,0,2.23-1.108,8.523,8.523,0,0,0-5.748-4.533L39.773.308A12.3,12.3,0,0,0,34.2.331L25.477,2.408a8.521,8.521,0,0,0-6.57,8.318v8.236a1.227,1.227,0,0,0,.01.182.038.038,0,0,0,0,.008l0,.018c0,.006,0,.014,0,.02V19.2a1.338,1.338,0,0,0,.03.136l.19.7a3.916,3.916,0,0,0-1.691,3.24v2.988A3.947,3.947,0,0,0,21.243,30.2a15.017,15.017,0,0,0,5.06,9.94,18.755,18.755,0,0,0,2.056,1.541v4.17a3.056,3.056,0,0,1-.584,1.722,2.182,2.182,0,0,0-1.428-.093l-15.064,4.2a11.745,11.745,0,0,0-8.39,9.3l-.628,3.678A1.245,1.245,0,0,0,3.283,66.1a1.228,1.228,0,0,0,.211.018A1.246,1.246,0,0,0,4.72,65.078L5.348,61.4a9.247,9.247,0,0,1,6.6-7.318L19.074,52.1l6.868,7.838.043.048.011.012.038.041.006.007.043.046.01.011.037.039.008.008.044.045.01.009.038.037.01.01.045.043.006.007.04.036.013.012.045.042,0,0,.044.039.013.012.042.036.005,0,.047.04.014.011.038.03.012.01.047.037.013.01.036.028.016.012.047.035.012.009.038.027.016.012.049.034.008.006.042.029.018.012.038.025.014.01.046.03.02.013.034.021.018.012.047.029.019.012.033.019.021.012.046.027.022.013.03.017.024.013.036.019.031.017.032.016.026.014.027.014.043.021.027.014.029.014.026.012.038.018.034.016.031.014.019.008.033.015.012,0,.065.027.019.008.032.014.021.008.058.023.017.006.036.013.014.005.073.026.008,0,.038.013.014.005.121.039.01,0,.124.036.011,0c.042.012.085.023.128.034l.006,0,.042.01h.006l.086.019h0l.043.009h.006l.131.025.009,0,.13.021h.008l.133.019H29.2l.044.005h0l.091.009h0l.045,0h0l.135.01h.008l.13.006h.013l.127,0h.038c.149,0,.3-.006.448-.02h0l.1-.009c.094-.01.187-.022.281-.037h.008l.039-.006.01,0,.038-.006.012,0,.035-.006.016,0,.032-.006.017,0,.033-.007.016,0,.034-.007.01,0,.115-.027.02,0,.027-.007.023-.006.026-.007.023-.006.026-.007.025-.007.025-.007.025-.007.025-.007.027-.008.021-.006.029-.009.021-.006.032-.01.018-.006.05-.017L37.31,59.46l5.782,1.969.051.017.014,0,.034.012.019.006.031.01.02.006.029.009.022.006.027.008.024.006.025.007.026.007.023.006.026.006.025.006.025.006.019,0,.116.027.011,0,.034.007.016,0,.03.006.021,0,.028.006.022,0,.028.005.022,0,.029.005.019,0,.03.005.019,0,.032,0,.012,0,.119.017h.014l.031,0,.019,0,.029,0,.021,0,.029,0,.022,0,.028,0,.023,0,.027,0,.023,0,.027,0h.022l.027,0h.05l.038,0h.368l.055,0h.008l.064,0h.009l.056,0h.01l.128-.01h.008l.128-.014H45.4l.128-.018h.007l.061-.01h0l.066-.011h0l.063-.011h.006l.128-.026h.006l.126-.029.008,0,.126-.032.005,0,.06-.017h0l.063-.018h0l.059-.018.005,0,.125-.041.005,0,.122-.043.01,0,.119-.046.008,0,.054-.022.005,0,.06-.025.006,0,.053-.023.01,0,.057-.027.005,0,.051-.024.012-.006.111-.055.014-.007L47.2,61.1h0l.054-.029.013-.008.046-.025.008-.005.053-.03L47.4,61l.041-.024.014-.008.051-.031.012-.008.04-.025.016-.01.05-.032.007-.005.045-.03.014-.009.046-.032.005,0,.049-.034.016-.012.036-.027.014-.01.046-.034.016-.012.035-.027.014-.011.046-.036.015-.012.033-.027.017-.014.045-.038.011-.009.036-.031.017-.014.038-.034.011-.01.04-.037.016-.014.036-.033.01-.009.042-.041.016-.016.03-.03.015-.015.042-.042.012-.012.032-.034.014-.015.042-.044.006-.008.036-.04.012-.014.042-.047L55.545,52.1l7.122,1.985c.126.035.252.073.375.113a2.557,2.557,0,0,0-.63,1.683v.966a.081.081,0,0,1-.059.075,12.819,12.819,0,0,0-1.686.7.082.082,0,0,1-.1-.01l-.683-.682a2.571,2.571,0,0,0-3.632,0L54.2,58.979a2.571,2.571,0,0,0,0,3.632l.682.683a.082.082,0,0,1,.01.1,12.914,12.914,0,0,0-.7,1.685.08.08,0,0,1-.075.059h-.966A2.571,2.571,0,0,0,50.588,67.7v2.9a2.571,2.571,0,0,0,2.568,2.568h.966a.081.081,0,0,1,.075.06,12.855,12.855,0,0,0,.7,1.685.083.083,0,0,1-.01.1L54.2,75.7a2.572,2.572,0,0,0,0,3.632l.6.6H4.15a1.658,1.658,0,0,1-1.636-1.938L3.726,70.9a1.245,1.245,0,0,0-2.455-.42L.06,77.572a4.148,4.148,0,0,0,4.09,4.847H62.413v.013A2.571,2.571,0,0,0,64.981,85h2.9a2.571,2.571,0,0,0,2.568-2.568v-.966a.081.081,0,0,1,.059-.075,12.886,12.886,0,0,0,1.686-.7.082.082,0,0,1,.1.01l.682.682a2.568,2.568,0,0,0,3.632,0l2.053-2.054a2.568,2.568,0,0,0,0-3.632l-.683-.683a.082.082,0,0,1-.01-.1,12.818,12.818,0,0,0,.7-1.686.082.082,0,0,1,.076-.059h.966a2.571,2.571,0,0,0,2.568-2.568V67.7a2.571,2.571,0,0,0-2.568-2.568ZM37.31,17.052a47.31,47.31,0,0,1,15.659,2.716l-.3,1.1a1.528,1.528,0,0,1-.744.949,1.5,1.5,0,0,1-1.18.124,44.968,44.968,0,0,0-26.622-.078l-.257.078a1.508,1.508,0,0,1-1.18-.125,1.606,1.606,0,0,1-.226-.152l-.059-.05c-.019-.018-.038-.035-.056-.053a1.529,1.529,0,0,1-.4-.694l-.038-.143-.094-.35v0l-.161-.6A47.311,47.311,0,0,1,37.31,17.052Zm-9.383,21.2a12.62,12.62,0,0,1-4.267-9.322,1.245,1.245,0,0,0-1.244-1.218H21.4a1.453,1.453,0,0,1-1.451-1.451V23.276a1.435,1.435,0,0,1,.126-.586l.008.012.014.02c.005.008.01.017.016.025l.017.024.019.029.025.034.015.021.018.024.016.021.018.023.016.021.019.024.016.02.021.026.016.019.032.038.015.018.021.025.017.019.019.021.018.021.02.022.017.018.027.028.012.012.036.038.019.019.02.019.02.02.019.019.021.019.02.019.02.019.023.021.038.034.019.017.024.021a.209.209,0,0,1,.018.016l.023.019.02.016.023.019.018.015.026.02.017.013.051.039.016.012.027.02.018.012.027.02.018.012.029.02.016.011.03.021.009.006.077.05h0l.033.021.014.008.032.02.014.008.034.02.012.006c.027.016.054.032.082.047l.056.03h0l.054.029,0,0,.054.027h0l.113.054.006,0,.049.022.01,0,.049.021.007,0,.111.045.014.005.042.016.016.006.042.015.014,0,.054.019.013,0,.041.013.021.007.034.01.022.006.038.011.018.005.053.014.02.005.034.008.025.006.031.008.025.006.03.006.026.005.051.01.027.005.029.005.029.005.027,0,.028,0,.03,0,.038.005.038.005.03,0,.026,0,.031,0,.024,0,.032,0,.025,0,.058,0,.022,0,.032,0h.227a3.869,3.869,0,0,0,.387-.019h0c.049,0,.1-.01.147-.017h0l.047-.007.049-.008h0l.045-.008h.006l.045-.008h0l.047-.009h.006l.041-.008.008,0,.093-.021.008,0,.038-.01.01,0,.091-.024.011,0,.034-.01.012,0,.045-.014a42.425,42.425,0,0,1,21.753-.96l.415.092.2.045.316.075.362.088.237.06.395.1q.426.113.852.234.446.127.89.264a3.973,3.973,0,0,0,3.116-.325l.05-.028.017-.01.034-.02.018-.01.032-.019L53.3,23.9l.034-.021.014-.009.1-.063.013-.009.034-.023.016-.011.032-.023.015-.011.033-.024.014-.01.045-.034h0l.043-.034.012-.01.032-.025.015-.012.029-.025.015-.012.03-.025.014-.012c.029-.025.056-.05.084-.075l.013-.012.029-.027.014-.014.027-.026.014-.014.029-.028.011-.012.04-.04,0,0,.036-.038.012-.013.026-.029.013-.014.025-.029.012-.014.027-.032.01-.011.036-.043,0-.005.031-.038.011-.014.024-.031.011-.014L54.4,22.9l.011-.015.025-.034.008-.01.033-.046,0-.006.028-.04.009-.014c.008-.01.015-.021.022-.032l.005-.008a1.437,1.437,0,0,1,.126.586v2.988a1.453,1.453,0,0,1-1.451,1.451H52.2a1.245,1.245,0,0,0-1.244,1.219,12.619,12.619,0,0,1-4.267,9.321,15.816,15.816,0,0,1-2.247,1.621l-.06.032a14.156,14.156,0,0,1-6.945,1.949h-.025l-.107,0-.107,0h-.025a14.152,14.152,0,0,1-6.945-1.949l-.06-.033a15.837,15.837,0,0,1-2.246-1.621Zm2.8,20.817a2.7,2.7,0,0,1-2.909-.778l-6.08-6.939,5.108-1.424,8.116,7.7Zm-1.048-9.886a5.571,5.571,0,0,0,1.173-3.332V43.013a16.6,16.6,0,0,0,6.128,1.331h0l.095,0h.015l.084,0h.021l.1,0h.028l.1,0h.021l.084,0h.016l.095,0a16.61,16.61,0,0,0,6.129-1.331v2.842a5.57,5.57,0,0,0,1.172,3.332L37.31,56.428ZM46.8,58.294a2.7,2.7,0,0,1-2.909.778L39.661,57.63l8.117-7.7,5.107,1.424ZM79.788,70.608a.078.078,0,0,1-.078.078h-.966a2.569,2.569,0,0,0-2.438,1.763,10.29,10.29,0,0,1-.563,1.358,2.571,2.571,0,0,0,.477,2.972l.683.683a.078.078,0,0,1,0,.11l-2.054,2.054a.073.073,0,0,1-.055.023.072.072,0,0,1-.055-.023l-.682-.682a2.57,2.57,0,0,0-2.972-.477,10.351,10.351,0,0,1-1.359.563,2.568,2.568,0,0,0-1.763,2.438v.966a.078.078,0,0,1-.078.078h-2.9a.077.077,0,0,1-.078-.078v-.966a2.569,2.569,0,0,0-1.763-2.438,10.347,10.347,0,0,1-1.359-.562,2.572,2.572,0,0,0-2.972.477l-.683.683a.078.078,0,0,1-.11,0l-2.054-2.054a.078.078,0,0,1,0-.11l.683-.683a2.571,2.571,0,0,0,.477-2.973,10.318,10.318,0,0,1-.562-1.358,2.57,2.57,0,0,0-2.438-1.763h-.966a.078.078,0,0,1-.078-.078V67.7a.078.078,0,0,1,.078-.078h.966a2.568,2.568,0,0,0,2.438-1.762,10.441,10.441,0,0,1,.563-1.359,2.57,2.57,0,0,0-.477-2.972l-.682-.683a.078.078,0,0,1,0-.11l2.054-2.054a.077.077,0,0,1,.11,0l.683.682a2.57,2.57,0,0,0,2.972.477,10.3,10.3,0,0,1,1.359-.563A2.568,2.568,0,0,0,64.9,56.844v-.966a.078.078,0,0,1,.078-.078h2.9a.078.078,0,0,1,.078.078v.966a2.569,2.569,0,0,0,1.763,2.438,10.42,10.42,0,0,1,1.359.562,2.57,2.57,0,0,0,2.972-.477l.683-.683a.073.073,0,0,1,.054-.022.071.071,0,0,1,.055.023L76.9,60.739a.078.078,0,0,1,0,.11l-.682.683a2.57,2.57,0,0,0-.477,2.971,10.307,10.307,0,0,1,.563,1.359,2.57,2.57,0,0,0,2.438,1.762h.966a.078.078,0,0,1,.078.078v2.905Zm0,0"/>
        <path id="Trazado_999353" data-name="Trazado 999353" d="M66.433,63.089A6.066,6.066,0,1,0,72.5,69.155,6.073,6.073,0,0,0,66.433,63.089Zm0,9.642a3.576,3.576,0,1,1,3.576-3.576A3.58,3.58,0,0,1,66.433,72.731Zm0,0"/>
        <path id="Trazado_999354" data-name="Trazado 999354" d="M29.7,73.481a1.958,1.958,0,0,0,1.956-1.956V68.256A1.958,1.958,0,0,0,29.7,66.3H20.205a1.958,1.958,0,0,0-1.956,1.956v3.269a1.958,1.958,0,0,0,1.956,1.956Zm-8.96-4.691h8.426v2.2H20.739Zm0,0"/>
      </g>
    </g>
  </g>
</svg>
