<svg xmlns="http://www.w3.org/2000/svg" xmlns:xlink="http://www.w3.org/1999/xlink" width="131" height="132" viewBox="0 0 131 132">
  <defs>
    <clipPath id="clip-path">
      <rect id="Rectángulo_405306" data-name="Rectángulo 405306" width="105" height="105" transform="translate(993.711 3262)" fill="#fff" stroke="#707070" stroke-width="1"/>
    </clipPath>
  </defs>
  <g id="Grupo_1107445" data-name="Grupo 1107445" transform="translate(-980.711 -3248)">
    <ellipse id="Elipse_11629" data-name="Elipse 11629" cx="65.5" cy="66" rx="65.5" ry="66" transform="translate(980.711 3248)" fill="#f4c4a7"/>
    <g id="Enmascarar_grupo_1098832" data-name="Enmascarar grupo 1098832" clip-path="url(#clip-path)">
      <g id="raw-material" transform="translate(993.711 3262)">
        <g id="Grupo_1107394" data-name="Grupo 1107394" transform="translate(1 -1)">
          <g id="Grupo_1107355" data-name="Grupo 1107355">
            <path id="Trazado_999974" data-name="Trazado 999974" d="M95.791,81.481H67a2.043,2.043,0,0,1-2.043-2.043V50.65A2.043,2.043,0,0,1,67,48.608H95.791a2.043,2.043,0,0,1,2.043,2.043V79.438A2.043,2.043,0,0,1,95.791,81.481Z" fill="#e5a32c"/>
            <g id="Grupo_1107354" data-name="Grupo 1107354">
              <path id="Trazado_999975" data-name="Trazado 999975" d="M84.507,60.545H78.287a1.021,1.021,0,0,1-1.021-1.021V48.608h8.263V59.523A1.021,1.021,0,0,1,84.507,60.545Z" fill="#93c123"/>
            </g>
            <path id="Trazado_999976" data-name="Trazado 999976" d="M97.833,50.651V79.437A2.041,2.041,0,0,1,95.79,81.48H90.068a2.042,2.042,0,0,0,2.043-2.043V50.651a2.042,2.042,0,0,0-2.043-2.043H95.79A2.041,2.041,0,0,1,97.833,50.651Z" fill="#5c4111"/>
          </g>
          <g id="Grupo_1107356" data-name="Grupo 1107356">
            <path id="Trazado_999977" data-name="Trazado 999977" d="M95.791,48.608H67a2.043,2.043,0,0,1-2.043-2.043V17.777A2.043,2.043,0,0,1,67,15.735H95.791a2.043,2.043,0,0,1,2.043,2.043V46.565A2.043,2.043,0,0,1,95.791,48.608Z" fill="#e5a32c"/>
            <path id="Trazado_999978" data-name="Trazado 999978" d="M97.833,17.778V46.566a2.042,2.042,0,0,1-2.043,2.043H90.068a2.043,2.043,0,0,0,2.043-2.043V17.778a2.042,2.042,0,0,0-2.043-2.043H95.79A2.041,2.041,0,0,1,97.833,17.778Z" fill="#5c4111"/>
          </g>
          <g id="Grupo_1107392" data-name="Grupo 1107392">
            <g id="Grupo_1107390" data-name="Grupo 1107390">
              <g id="Grupo_1107357" data-name="Grupo 1107357">
                <path id="Trazado_999979" data-name="Trazado 999979" d="M87.127,79.468H68.068a1.33,1.33,0,0,1-1.33-1.33V68.722a1.33,1.33,0,0,1,1.33-1.33H87.127a1.33,1.33,0,0,1,1.33,1.33v9.416A1.33,1.33,0,0,1,87.127,79.468Z" fill="#d4e6a7"/>
                <path id="Trazado_999980" data-name="Trazado 999980" d="M88.457,68.722v9.415a1.329,1.329,0,0,1-1.33,1.33H80.985a1.33,1.33,0,0,0,1.33-1.33V68.722a1.331,1.331,0,0,0-1.33-1.33h6.142A1.33,1.33,0,0,1,88.457,68.722Z" fill="#33430c"/>
              </g>
              <g id="Grupo_1107389" data-name="Grupo 1107389">
                <g id="Grupo_1107361" data-name="Grupo 1107361">
                  <g id="Grupo_1107358" data-name="Grupo 1107358">
                    <path id="Trazado_999981" data-name="Trazado 999981" d="M78.494,67.392H59.435a1.33,1.33,0,0,1-1.33-1.33V56.646a1.33,1.33,0,0,1,1.33-1.33H78.494a1.33,1.33,0,0,1,1.33,1.33v9.416A1.33,1.33,0,0,1,78.494,67.392Z" fill="#d4e6a7"/>
                    <path id="Trazado_999982" data-name="Trazado 999982" d="M79.824,56.646v9.415a1.329,1.329,0,0,1-1.33,1.33H72.352a1.33,1.33,0,0,0,1.33-1.33V56.646a1.331,1.331,0,0,0-1.33-1.33h6.142A1.33,1.33,0,0,1,79.824,56.646Z" fill="#33430c"/>
                  </g>
                  <g id="Grupo_1107359" data-name="Grupo 1107359">
                    <path id="Trazado_999983" data-name="Trazado 999983" d="M80.412,91.544H61.353a1.33,1.33,0,0,1-1.33-1.33V80.8a1.33,1.33,0,0,1,1.33-1.33H80.412a1.33,1.33,0,0,1,1.33,1.33v9.416A1.33,1.33,0,0,1,80.412,91.544Z" fill="#d4e6a7"/>
                  </g>
                  <g id="Grupo_1107360" data-name="Grupo 1107360">
                    <path id="Trazado_999984" data-name="Trazado 999984" d="M102.132,91.544H83.072a1.33,1.33,0,0,1-1.33-1.33V80.8a1.33,1.33,0,0,1,1.33-1.33h19.059a1.33,1.33,0,0,1,1.33,1.33v9.416A1.33,1.33,0,0,1,102.132,91.544Z" fill="#d4e6a7"/>
                    <path id="Trazado_999985" data-name="Trazado 999985" d="M103.462,80.8v9.415a1.329,1.329,0,0,1-1.33,1.33H95.99a1.33,1.33,0,0,0,1.33-1.33V80.8a1.331,1.331,0,0,0-1.33-1.33h6.142A1.33,1.33,0,0,1,103.462,80.8Z" fill="#33430c"/>
                  </g>
                </g>
                <g id="Grupo_1107388" data-name="Grupo 1107388">
                  <g id="Grupo_1107377" data-name="Grupo 1107377">
                    <rect id="Rectángulo_405307" data-name="Rectángulo 405307" width="47.922" height="70.756" transform="translate(5.179 17.122)" fill="#e36b24"/>
                    <path id="Trazado_999986" data-name="Trazado 999986" d="M5.179,17.122v7.492H45.7V35.934H5.179v7.492H45.7V70.85H5.179v7.492H45.7v9.536h7.4V17.122Z" fill="#5b2b0e"/>
                    <g id="Grupo_1107376" data-name="Grupo 1107376">
                      <g id="Grupo_1107368" data-name="Grupo 1107368">
                        <g id="Grupo_1107364" data-name="Grupo 1107364">
                          <g id="Grupo_1107362" data-name="Grupo 1107362">
                            <path id="Trazado_999987" data-name="Trazado 999987" d="M55.789,18.975H2.49a.952.952,0,0,1-.952-.952V14.408a.952.952,0,0,1,.952-.952h53.3a.952.952,0,0,1,.952.952v3.615A.952.952,0,0,1,55.789,18.975Z" fill="#e36b24"/>
                          </g>
                          <g id="Grupo_1107363" data-name="Grupo 1107363">
                            <path id="Trazado_999988" data-name="Trazado 999988" d="M56.741,14.408v3.613a.952.952,0,0,1-.952.952H48.164a.95.95,0,0,0,.952-.952V14.408a.951.951,0,0,0-.952-.952h7.625A.953.953,0,0,1,56.741,14.408Z" fill="#5b2b0e"/>
                          </g>
                        </g>
                        <g id="Grupo_1107367" data-name="Grupo 1107367">
                          <g id="Grupo_1107365" data-name="Grupo 1107365">
                            <path id="Trazado_999989" data-name="Trazado 999989" d="M55.789,37.731H2.49a.952.952,0,0,1-.952-.952V33.163a.952.952,0,0,1,.952-.952h53.3a.952.952,0,0,1,.952.952v3.615A.952.952,0,0,1,55.789,37.731Z" fill="#e36b24"/>
                          </g>
                          <g id="Grupo_1107366" data-name="Grupo 1107366">
                            <path id="Trazado_999990" data-name="Trazado 999990" d="M56.741,33.164v3.613a.952.952,0,0,1-.952.952H48.164a.95.95,0,0,0,.952-.952V33.164a.951.951,0,0,0-.952-.952h7.625A.953.953,0,0,1,56.741,33.164Z" fill="#5b2b0e"/>
                          </g>
                        </g>
                      </g>
                      <g id="Grupo_1107375" data-name="Grupo 1107375">
                        <g id="Grupo_1107371" data-name="Grupo 1107371">
                          <g id="Grupo_1107369" data-name="Grupo 1107369">
                            <path id="Trazado_999991" data-name="Trazado 999991" d="M55.789,72.788H2.49a.952.952,0,0,1-.952-.952V68.221a.952.952,0,0,1,.952-.952h53.3a.952.952,0,0,1,.952.952v3.615A.952.952,0,0,1,55.789,72.788Z" fill="#e36b24"/>
                          </g>
                          <g id="Grupo_1107370" data-name="Grupo 1107370">
                            <path id="Trazado_999992" data-name="Trazado 999992" d="M56.741,68.221v3.613a.952.952,0,0,1-.952.952H48.164a.95.95,0,0,0,.952-.952V68.221a.951.951,0,0,0-.952-.952h7.625A.953.953,0,0,1,56.741,68.221Z" fill="#e8576b"/>
                          </g>
                        </g>
                        <g id="Grupo_1107374" data-name="Grupo 1107374">
                          <g id="Grupo_1107372" data-name="Grupo 1107372">
                            <path id="Trazado_999993" data-name="Trazado 999993" d="M55.789,91.544H2.49a.952.952,0,0,1-.952-.952V86.977a.952.952,0,0,1,.952-.952h53.3a.952.952,0,0,1,.952.952v3.615A.952.952,0,0,1,55.789,91.544Z" fill="#e36b24"/>
                          </g>
                          <g id="Grupo_1107373" data-name="Grupo 1107373">
                            <path id="Trazado_999994" data-name="Trazado 999994" d="M56.741,86.977v3.613a.952.952,0,0,1-.952.952H48.164a.95.95,0,0,0,.952-.952V86.977a.951.951,0,0,0-.952-.952h7.625A.952.952,0,0,1,56.741,86.977Z" fill="#e36b24"/>
                          </g>
                        </g>
                      </g>
                    </g>
                  </g>
                  <g id="Grupo_1107387" data-name="Grupo 1107387">
                    <g id="Grupo_1107380" data-name="Grupo 1107380">
                      <g id="Grupo_1107379" data-name="Grupo 1107379">
                        <g id="Grupo_1107378" data-name="Grupo 1107378">
                          <path id="Trazado_999995" data-name="Trazado 999995" d="M74.063,91.544A2.246,2.246,0,0,0,76.2,88.615c-3.1-9.679-13.74-40.023-25.537-40.023-11.652,0-22.02,30.382-25.022,40.041a2.246,2.246,0,0,0,2.146,2.911Z" fill="#5c4111"/>
                        </g>
                        <path id="Trazado_999996" data-name="Trazado 999996" d="M50.668,48.591a7.04,7.04,0,0,0-1.653.2c9.82,7.709,18.018,31.2,20.725,39.667a2.363,2.363,0,0,1-2.253,3.084h6.585A2.246,2.246,0,0,0,76.2,88.614C73.109,78.936,62.464,48.591,50.668,48.591Z" fill="#5b2b0e"/>
                      </g>
                    </g>
                    <g id="Grupo_1107383" data-name="Grupo 1107383">
                      <g id="Grupo_1107381" data-name="Grupo 1107381">
                        <path id="Trazado_999997" data-name="Trazado 999997" d="M49.487,91.544S41.015,71.907,31.431,71.907c-7.015,0-13.348,10.795-16.155,16.377a2.25,2.25,0,0,0,2.013,3.26Z" fill="#5c4111"/>
                      </g>
                      <g id="Grupo_1107382" data-name="Grupo 1107382">
                        <path id="Trazado_999998" data-name="Trazado 999998" d="M49.488,91.543H42s-7.318-16.965-15.6-16.965a6.214,6.214,0,0,0-1.479.182,10.337,10.337,0,0,1,6.5-2.854C41.014,71.907,49.488,91.543,49.488,91.543Z" fill="#5b2b0e"/>
                      </g>
                    </g>
                    <g id="Grupo_1107386" data-name="Grupo 1107386">
                      <g id="Grupo_1107384" data-name="Grupo 1107384">
                        <path id="Trazado_999999" data-name="Trazado 999999" d="M62.054,91.544s-6.8-13.17-14.5-13.17c-7.6,0-14.2,13.17-14.2,13.17Z" fill="#5b2b0e"/>
                      </g>
                      <g id="Grupo_1107385" data-name="Grupo 1107385">
                        <path id="Trazado_1000000" data-name="Trazado 1000000" d="M62.054,91.543H54.6S48.819,80.355,42.27,80.326a9.236,9.236,0,0,1,5.281-1.952C55.251,78.374,62.054,91.543,62.054,91.543Z" fill="#5c4111"/>
                      </g>
                    </g>
                  </g>
                </g>
              </g>
            </g>
            <g id="Grupo_1107391" data-name="Grupo 1107391">
              <path id="Trazado_1000001" data-name="Trazado 1000001" d="M18.222,46.435,14.13,53.571a1.021,1.021,0,0,0,.886,1.529H23.2a1.021,1.021,0,0,0,.886-1.529l-4.091-7.137A1.021,1.021,0,0,0,18.222,46.435Z" fill="#93c123"/>
            </g>
          </g>
          <g id="Grupo_1107393" data-name="Grupo 1107393">
            <path id="Trazado_1000002" data-name="Trazado 1000002" d="M84.507,27.672H78.287a1.021,1.021,0,0,1-1.021-1.021V15.735h8.263V26.65A1.021,1.021,0,0,1,84.507,27.672Z" fill="#93c123"/>
          </g>
        </g>
        <g id="Grupo_1107429" data-name="Grupo 1107429">
          <g id="Grupo_1107396" data-name="Grupo 1107396">
            <g id="Grupo_1107395" data-name="Grupo 1107395">
              <line id="Línea_4304" data-name="Línea 4304" y1="6.503" transform="translate(77.265 48.813)" fill="none" stroke="#000" stroke-linecap="round" stroke-linejoin="round" stroke-miterlimit="10" stroke-width="3.076"/>
              <path id="Trazado_1000003" data-name="Trazado 1000003" d="M85.528,48.813v10.71a1.021,1.021,0,0,1-1.021,1.021H80.029" fill="none" stroke="#000" stroke-linecap="round" stroke-linejoin="round" stroke-miterlimit="10" stroke-width="3.076"/>
            </g>
            <path id="Trazado_1000004" data-name="Trazado 1000004" d="M64.961,55.316V50.65A2.043,2.043,0,0,1,67,48.608H95.791a2.043,2.043,0,0,1,2.043,2.043V79.468" fill="none" stroke="#000" stroke-linecap="round" stroke-linejoin="round" stroke-miterlimit="10" stroke-width="3.076"/>
          </g>
          <g id="Grupo_1107397" data-name="Grupo 1107397">
            <path id="Trazado_1000005" data-name="Trazado 1000005" d="M95.791,48.608a2.043,2.043,0,0,0,2.043-2.043V17.777a2.043,2.043,0,0,0-2.043-2.043H67a2.043,2.043,0,0,0-2.043,2.043v6.5" fill="none" stroke="#000" stroke-linecap="round" stroke-linejoin="round" stroke-miterlimit="10" stroke-width="3.076"/>
            <path id="Trazado_1000006" data-name="Trazado 1000006" d="M64.961,31.075v15.49A2.043,2.043,0,0,0,67,48.608" fill="none" stroke="#000" stroke-linecap="round" stroke-linejoin="round" stroke-miterlimit="10" stroke-width="3.076"/>
          </g>
          <g id="Grupo_1107427" data-name="Grupo 1107427">
            <g id="Grupo_1107425" data-name="Grupo 1107425">
              <g id="Grupo_1107398" data-name="Grupo 1107398">
                <path id="Trazado_1000007" data-name="Trazado 1000007" d="M73.095,79.468H87.127a1.33,1.33,0,0,0,1.33-1.33V68.722a1.33,1.33,0,0,0-1.33-1.33H68.273" fill="none" stroke="#000" stroke-linecap="round" stroke-linejoin="round" stroke-miterlimit="10" stroke-width="3.076"/>
              </g>
              <g id="Grupo_1107424" data-name="Grupo 1107424">
                <g id="Grupo_1107402" data-name="Grupo 1107402">
                  <g id="Grupo_1107399" data-name="Grupo 1107399">
                    <path id="Trazado_1000008" data-name="Trazado 1000008" d="M60.975,55.316H78.494a1.33,1.33,0,0,1,1.33,1.33v9.416a1.33,1.33,0,0,1-1.33,1.33" fill="none" stroke="#000" stroke-linecap="round" stroke-linejoin="round" stroke-miterlimit="10" stroke-width="3.076"/>
                  </g>
                  <g id="Grupo_1107400" data-name="Grupo 1107400">
                    <path id="Trazado_1000009" data-name="Trazado 1000009" d="M80.412,79.468a1.33,1.33,0,0,1,1.33,1.33" fill="none" stroke="#000" stroke-linecap="round" stroke-linejoin="round" stroke-miterlimit="10" stroke-width="3.076"/>
                    <path id="Trazado_1000010" data-name="Trazado 1000010" d="M81.742,90.214a1.33,1.33,0,0,1-1.33,1.33H74.063" fill="none" stroke="#000" stroke-linecap="round" stroke-linejoin="round" stroke-miterlimit="10" stroke-width="3.076"/>
                  </g>
                  <g id="Grupo_1107401" data-name="Grupo 1107401">
                    <path id="Trazado_1000011" data-name="Trazado 1000011" d="M102.132,91.544H83.072a1.33,1.33,0,0,1-1.33-1.33V80.8a1.33,1.33,0,0,1,1.33-1.33h19.059a1.33,1.33,0,0,1,1.33,1.33v9.416A1.33,1.33,0,0,1,102.132,91.544Z" fill="none" stroke="#000" stroke-linecap="round" stroke-linejoin="round" stroke-miterlimit="10" stroke-width="3.076"/>
                  </g>
                </g>
                <g id="Grupo_1107423" data-name="Grupo 1107423">
                  <g id="Grupo_1107414" data-name="Grupo 1107414">
                    <line id="Línea_4305" data-name="Línea 4305" y1="11.281" transform="translate(53.101 37.73)" fill="none" stroke="#000" stroke-linecap="round" stroke-linejoin="round" stroke-miterlimit="10" stroke-width="3.076"/>
                    <line id="Línea_4306" data-name="Línea 4306" y2="13.236" transform="translate(53.101 18.975)" fill="none" stroke="#000" stroke-linecap="round" stroke-linejoin="round" stroke-miterlimit="10" stroke-width="3.076"/>
                    <line id="Línea_4307" data-name="Línea 4307" y1="13.236" transform="translate(5.178 18.975)" fill="none" stroke="#000" stroke-linecap="round" stroke-linejoin="round" stroke-miterlimit="10" stroke-width="3.076"/>
                    <line id="Línea_4308" data-name="Línea 4308" y1="29.539" transform="translate(5.178 37.73)" fill="none" stroke="#000" stroke-linecap="round" stroke-linejoin="round" stroke-miterlimit="10" stroke-width="3.076"/>
                    <line id="Línea_4309" data-name="Línea 4309" y1="13.031" transform="translate(5.178 72.993)" fill="none" stroke="#000" stroke-linecap="round" stroke-linejoin="round" stroke-miterlimit="10" stroke-width="3.076"/>
                    <g id="Grupo_1107413" data-name="Grupo 1107413">
                      <g id="Grupo_1107407" data-name="Grupo 1107407">
                        <g id="Grupo_1107404" data-name="Grupo 1107404">
                          <g id="Grupo_1107403" data-name="Grupo 1107403">
                            <path id="Trazado_1000012" data-name="Trazado 1000012" d="M55.789,18.975H2.49a.952.952,0,0,1-.952-.952V14.408a.952.952,0,0,1,.952-.952h53.3a.952.952,0,0,1,.952.952v3.615A.952.952,0,0,1,55.789,18.975Z" fill="none" stroke="#000" stroke-linecap="round" stroke-linejoin="round" stroke-miterlimit="10" stroke-width="3.076"/>
                          </g>
                        </g>
                        <g id="Grupo_1107406" data-name="Grupo 1107406">
                          <g id="Grupo_1107405" data-name="Grupo 1107405">
                            <path id="Trazado_1000013" data-name="Trazado 1000013" d="M55.789,37.731H2.49a.952.952,0,0,1-.952-.952V33.163a.952.952,0,0,1,.952-.952h53.3a.952.952,0,0,1,.952.952v3.615A.952.952,0,0,1,55.789,37.731Z" fill="none" stroke="#000" stroke-linecap="round" stroke-linejoin="round" stroke-miterlimit="10" stroke-width="3.076"/>
                          </g>
                        </g>
                      </g>
                      <g id="Grupo_1107412" data-name="Grupo 1107412">
                        <g id="Grupo_1107409" data-name="Grupo 1107409">
                          <g id="Grupo_1107408" data-name="Grupo 1107408">
                            <line id="Línea_4310" data-name="Línea 4310" x1="11.987" transform="translate(21.816 67.27)" fill="none" stroke="#000" stroke-linecap="round" stroke-linejoin="round" stroke-miterlimit="10" stroke-width="3.076"/>
                            <path id="Trazado_1000014" data-name="Trazado 1000014" d="M15.016,67.27H2.49a.952.952,0,0,0-.952.952v3.616a.952.952,0,0,0,.952.952H27.878" fill="none" stroke="#000" stroke-linecap="round" stroke-linejoin="round" stroke-miterlimit="10" stroke-width="3.076"/>
                          </g>
                        </g>
                        <g id="Grupo_1107411" data-name="Grupo 1107411">
                          <g id="Grupo_1107410" data-name="Grupo 1107410">
                            <path id="Trazado_1000015" data-name="Trazado 1000015" d="M17.288,91.545H2.49a.953.953,0,0,1-.952-.954V86.978a.953.953,0,0,1,.952-.954H16.464" fill="none" stroke="#000" stroke-linecap="round" stroke-linejoin="round" stroke-miterlimit="10" stroke-width="3.076"/>
                          </g>
                        </g>
                      </g>
                    </g>
                  </g>
                  <g id="Grupo_1107422" data-name="Grupo 1107422">
                    <g id="Grupo_1107417" data-name="Grupo 1107417">
                      <g id="Grupo_1107416" data-name="Grupo 1107416">
                        <g id="Grupo_1107415" data-name="Grupo 1107415">
                          <path id="Trazado_1000016" data-name="Trazado 1000016" d="M41.723,54.12c2.812-3.361,5.832-5.529,8.943-5.529,11.8,0,22.442,30.345,25.538,40.023a2.247,2.247,0,0,1-2.141,2.931H62.054" fill="none" stroke="#000" stroke-linecap="round" stroke-linejoin="round" stroke-miterlimit="10" stroke-width="3.076"/>
                          <path id="Trazado_1000017" data-name="Trazado 1000017" d="M37.829,59.675a98.511,98.511,0,0,0-6.1,12.239" fill="none" stroke="#000" stroke-linecap="round" stroke-linejoin="round" stroke-miterlimit="10" stroke-width="3.076"/>
                        </g>
                      </g>
                    </g>
                    <g id="Grupo_1107419" data-name="Grupo 1107419">
                      <g id="Grupo_1107418" data-name="Grupo 1107418">
                        <path id="Trazado_1000018" data-name="Trazado 1000018" d="M33.348,91.545H17.288a2.25,2.25,0,0,1-2.012-3.261c2.805-5.582,9.14-16.378,16.154-16.378,4.216,0,8.217,3.8,11.376,8.058" fill="none" stroke="#000" stroke-linecap="round" stroke-linejoin="round" stroke-miterlimit="10" stroke-width="3.076"/>
                      </g>
                    </g>
                    <g id="Grupo_1107421" data-name="Grupo 1107421">
                      <g id="Grupo_1107420" data-name="Grupo 1107420">
                        <path id="Trazado_1000019" data-name="Trazado 1000019" d="M62.054,91.544s-6.8-13.17-14.5-13.17c-7.6,0-14.2,13.17-14.2,13.17Z" fill="none" stroke="#000" stroke-linecap="round" stroke-linejoin="round" stroke-miterlimit="10" stroke-width="3.076"/>
                      </g>
                    </g>
                    <line id="XMLID_00000103958857048847906280000003963296448114490002_" y1="0.017" transform="translate(51.138 69.371)" fill="none" stroke="#000" stroke-linecap="round" stroke-linejoin="round" stroke-miterlimit="10" stroke-width="3.076"/>
                    <line id="XMLID_00000046316870717057668410000018416884127839395230_" y1="0.017" transform="translate(23.218 85.614)" fill="none" stroke="#000" stroke-linecap="round" stroke-linejoin="round" stroke-miterlimit="10" stroke-width="3.076"/>
                    <line id="XMLID_00000027565974827369419430000010670978324209706391_" y1="0.017" transform="translate(27.622 87.099)" fill="none" stroke="#000" stroke-linecap="round" stroke-linejoin="round" stroke-miterlimit="10" stroke-width="3.076"/>
                    <line id="XMLID_00000016054587412036028080000006135065197773268106_" y1="0.017" transform="translate(45.452 71.898)" fill="none" stroke="#000" stroke-linecap="round" stroke-linejoin="round" stroke-miterlimit="10" stroke-width="3.076"/>
                    <line id="XMLID_00000017476172028839686760000010423491448310466700_" y1="0.017" transform="translate(44.869 86.016)" fill="none" stroke="#000" stroke-linecap="round" stroke-linejoin="round" stroke-miterlimit="10" stroke-width="3.076"/>
                    <line id="XMLID_00000138543568310581734770000005274210811136182708_" y1="0.017" transform="translate(52.162 54.704)" fill="none" stroke="#000" stroke-linecap="round" stroke-linejoin="round" stroke-miterlimit="10" stroke-width="3.076"/>
                    <line id="XMLID_00000121258868322260843520000010976966499936277388_" y1="0.017" transform="translate(63.858 82.661)" fill="none" stroke="#000" stroke-linecap="round" stroke-linejoin="round" stroke-miterlimit="10" stroke-width="3.076"/>
                  </g>
                </g>
              </g>
            </g>
            <g id="Grupo_1107426" data-name="Grupo 1107426">
              <path id="Trazado_1000020" data-name="Trazado 1000020" d="M18.222,46.435,14.13,53.571a1.021,1.021,0,0,0,.886,1.529H23.2a1.021,1.021,0,0,0,.886-1.529l-4.091-7.137A1.021,1.021,0,0,0,18.222,46.435Z" fill="none" stroke="#000" stroke-linecap="round" stroke-linejoin="round" stroke-miterlimit="10" stroke-width="3.076"/>
              <line id="Línea_4311" data-name="Línea 4311" x2="10.228" transform="translate(13.994 60.941)" fill="none" stroke="#000" stroke-linecap="round" stroke-linejoin="round" stroke-miterlimit="10" stroke-width="3.076"/>
            </g>
          </g>
          <g id="Grupo_1107428" data-name="Grupo 1107428">
            <path id="Trazado_1000021" data-name="Trazado 1000021" d="M85.528,15.94V26.65a1.021,1.021,0,0,1-1.021,1.021H78.287a1.021,1.021,0,0,1-1.021-1.021V15.94" fill="none" stroke="#000" stroke-linecap="round" stroke-linejoin="round" stroke-miterlimit="10" stroke-width="3.076"/>
          </g>
          <line id="Línea_4312" data-name="Línea 4312" x2="2.558" transform="translate(71.073 42.087)" fill="none" stroke="#000" stroke-linecap="round" stroke-linejoin="round" stroke-miterlimit="10" stroke-width="3.076"/>
          <line id="Línea_4313" data-name="Línea 4313" x2="2.558" transform="translate(71.073 37.169)" fill="none" stroke="#000" stroke-linecap="round" stroke-linejoin="round" stroke-miterlimit="10" stroke-width="3.076"/>
        </g>
      </g>
    </g>
  </g>
</svg>
