<svg id="Grupo_1102778" data-name="Grupo 1102778" xmlns="http://www.w3.org/2000/svg" xmlns:xlink="http://www.w3.org/1999/xlink" width="13.703" height="16.973" viewBox="0 0 13.703 16.973">
  <defs>
    <clipPath id="clip-path">
      <rect id="Rectángulo_403588" data-name="Rectángulo 403588" width="13.703" height="16.973" fill="#93c123"/>
    </clipPath>
  </defs>
  <g id="Grupo_1102778-2" data-name="Grupo 1102778" clip-path="url(#clip-path)">
    <path id="Trazado_969188" data-name="Trazado 969188" d="M5.439,16.878c.217-1.379.4-2.737.648-4.084A46.524,46.524,0,0,1,8.72,3.755a1.613,1.613,0,0,0,.111-.361.556.556,0,0,0-.4-.682.584.584,0,0,0-.732.334c-.209.461-.389.936-.566,1.41a47.681,47.681,0,0,0-2.157,7.6c-.253,1.311-.414,2.639-.618,3.959-.03.193-.069.384-.111.618A5.907,5.907,0,0,1,.779,13.813,6.41,6.41,0,0,1,0,10.8,9.734,9.734,0,0,1,3.426,2.834,13.3,13.3,0,0,1,9.573.018a.79.79,0,0,1,.774.294,10.881,10.881,0,0,1,3.2,6,11.333,11.333,0,0,1-1.324,7.495,6.491,6.491,0,0,1-6.78,3.07" transform="translate(0 0)" fill="#93c123"/>
  </g>
</svg>
