<svg xmlns="http://www.w3.org/2000/svg" xmlns:xlink="http://www.w3.org/1999/xlink" width="83.516" height="84.587" viewBox="0 0 83.516 84.587">
  <defs>
    <clipPath id="clip-path">
      <rect id="Rect치ngulo_405275" data-name="Rect치ngulo 405275" width="64.481" height="65.555" transform="translate(189.672 1202.741)" fill="#fff" stroke="#707070" stroke-width="1"/>
    </clipPath>
  </defs>
  <g id="Grupo_1107445" data-name="Grupo 1107445" transform="translate(-180 -1192.08)">
    <ellipse id="Elipse_11629" data-name="Elipse 11629" cx="41.758" cy="42.293" rx="41.758" ry="42.293" transform="translate(180 1192.08)" fill="#5b2b0e"/>
    <g id="Enmascarar_grupo_1098815" data-name="Enmascarar grupo 1098815" clip-path="url(#clip-path)">
      <g id="casco" transform="translate(189.134 1202.741)">
        <rect id="Rect치ngulo_405276" data-name="Rect치ngulo 405276" width="5.242" height="17.474" transform="translate(6.574 47.121)" fill="#e36b24"/>
        <path id="Trazado_999373" data-name="Trazado 999373" d="M39.668,64.595a5.686,5.686,0,0,0,3.747-1.409L57.879,50.519a3.392,3.392,0,0,0,.379-4.6,3.315,3.315,0,0,0-4.692-.441L44.1,53.4a3.284,3.284,0,0,0,.137-1.014,3.366,3.366,0,0,0-3.387-3.256h-8.53c-3.441,0-5.747-3.1-9.3-3.1a8.864,8.864,0,0,0-5.882,2.222,3.5,3.5,0,0,1-2.315.881h-3V62.21h4.447l6.321,1.9a11.44,11.44,0,0,0,3.3.485Z" fill="#ffcebf"/>
        <path id="Trazado_999374" data-name="Trazado 999374" d="M58.258,45.923a3.315,3.315,0,0,0-4.484-.6,3.322,3.322,0,0,1,.643.6,3.392,3.392,0,0,1-.379,4.6L39.574,63.186a5.686,5.686,0,0,1-3.747,1.409h3.841a5.686,5.686,0,0,0,3.747-1.409L57.879,50.519A3.392,3.392,0,0,0,58.258,45.923Z" fill="#ffb09e"/>
        <path id="Trazado_999375" data-name="Trazado 999375" d="M55.547,37.883H10.009a3.077,3.077,0,0,1-3.077-3.077h0a3.077,3.077,0,0,1,3.077-3.077H55.547a3.077,3.077,0,0,1,3.077,3.077h0A3.077,3.077,0,0,1,55.547,37.883Z" fill="#faa019"/>
        <path id="Trazado_999376" data-name="Trazado 999376" d="M55.547,31.729H51.706a3.077,3.077,0,0,1,3.077,3.077h0a3.077,3.077,0,0,1-3.077,3.077h3.841a3.077,3.077,0,0,0,3.077-3.077h0A3.077,3.077,0,0,0,55.547,31.729Z" fill="#f78f06"/>
        <path id="Trazado_999377" data-name="Trazado 999377" d="M54.931,31.729H10.624V28.651A22.154,22.154,0,0,1,32.778,6.5h0A22.154,22.154,0,0,1,54.931,28.651v3.078Z" fill="#ffcd05"/>
        <path id="Trazado_999378" data-name="Trazado 999378" d="M32.778,6.5h0q-.971,0-1.921.082A22.156,22.156,0,0,1,51.09,28.651v3.078h3.841V28.651A22.154,22.154,0,0,0,32.778,6.5Z" fill="#faa019"/>
        <path id="Trazado_999379" data-name="Trazado 999379" d="M30.047,55.8h10.86A3.453,3.453,0,0,0,44.1,53.4" fill="none" stroke="#000" stroke-linecap="round" stroke-linejoin="round" stroke-miterlimit="10" stroke-width="1.921"/>
        <path id="Trazado_999380" data-name="Trazado 999380" d="M39.668,64.595a5.686,5.686,0,0,0,3.747-1.409L57.879,50.519a3.392,3.392,0,0,0,.379-4.6,3.315,3.315,0,0,0-4.692-.441L44.1,53.4a3.284,3.284,0,0,0,.137-1.014,3.366,3.366,0,0,0-3.387-3.256h-8.53c-3.441,0-5.747-3.1-9.3-3.1a8.864,8.864,0,0,0-5.882,2.222,3.5,3.5,0,0,1-2.315.881h-3V62.21h4.447l6.321,1.9a11.44,11.44,0,0,0,3.3.485Z" fill="none" stroke="#000" stroke-linecap="round" stroke-linejoin="round" stroke-miterlimit="10" stroke-width="1.921"/>
        <path id="Trazado_999381" data-name="Trazado 999381" d="M6.574,57.895v6.7h5.243V47.122H6.574v6.588" fill="none" stroke="#000" stroke-linecap="round" stroke-linejoin="round" stroke-miterlimit="10" stroke-width="1.921"/>
        <path id="Trazado_999382" data-name="Trazado 999382" d="M23.311,8.617a22,22,0,0,1,4.367-1.529" fill="none" stroke="#000" stroke-linecap="round" stroke-linejoin="round" stroke-miterlimit="10" stroke-width="1.921"/>
        <path id="Trazado_999383" data-name="Trazado 999383" d="M54.4,23.81a22.172,22.172,0,0,1,.531,4.841v3.078H10.625V28.651A22.078,22.078,0,0,1,17.308,12.8" fill="none" stroke="#000" stroke-linecap="round" stroke-linejoin="round" stroke-miterlimit="10" stroke-width="1.921"/>
        <path id="Trazado_999384" data-name="Trazado 999384" d="M48.248,12.795l.195.192A22.16,22.16,0,0,1,53.1,19.83" fill="none" stroke="#000" stroke-linecap="round" stroke-linejoin="round" stroke-miterlimit="10" stroke-width="1.921"/>
        <path id="Trazado_999385" data-name="Trazado 999385" d="M37.879,7.088a21.991,21.991,0,0,1,4.366,1.529" fill="none" stroke="#000" stroke-linecap="round" stroke-linejoin="round" stroke-miterlimit="10" stroke-width="1.921"/>
        <path id="Trazado_999386" data-name="Trazado 999386" d="M34.87,37.882H55.547a3.077,3.077,0,0,0,3.077-3.077h0a3.077,3.077,0,0,0-3.077-3.077H10.009a3.077,3.077,0,0,0-3.077,3.077h0a3.077,3.077,0,0,0,3.077,3.077H30.686" fill="none" stroke="#000" stroke-linecap="round" stroke-linejoin="round" stroke-miterlimit="10" stroke-width="1.921"/>
        <path id="Trazado_999387" data-name="Trazado 999387" d="M36.47,26.806H29.086L27.634,6.485A5.157,5.157,0,0,1,32.778.96h0a5.157,5.157,0,0,1,5.144,5.525Z" fill="#e36b24"/>
        <path id="Trazado_999388" data-name="Trazado 999388" d="M32.778.96h0a5.144,5.144,0,0,0-1.921.369,5.16,5.16,0,0,1,3.224,5.156L32.629,26.806H36.47L37.923,6.485A5.157,5.157,0,0,0,32.778.96Z" fill="#f78f06"/>
        <path id="Trazado_999389" data-name="Trazado 999389" d="M36.47,26.806H29.086L27.634,6.485A5.157,5.157,0,0,1,32.778.96h0a5.157,5.157,0,0,1,5.144,5.525Z" fill="none" stroke="#000" stroke-linecap="round" stroke-linejoin="round" stroke-miterlimit="10" stroke-width="1.921"/>
        <path id="Trazado_999390" data-name="Trazado 999390" d="M23.547,26.806H19.854L16.883,10.459A3.359,3.359,0,0,1,20.188,6.5h0a3.359,3.359,0,0,1,3.359,3.359V26.806Z" fill="#faa019"/>
        <path id="Trazado_999391" data-name="Trazado 999391" d="M20.188,6.5h0a3.339,3.339,0,0,0-1.6.4,3.359,3.359,0,0,1,1.76,2.955V26.806h3.2V9.858A3.359,3.359,0,0,0,20.188,6.5Z" fill="#f78f06"/>
        <path id="Trazado_999392" data-name="Trazado 999392" d="M23.547,26.806H19.854L16.883,10.459A3.359,3.359,0,0,1,20.188,6.5h0a3.359,3.359,0,0,1,3.359,3.359V26.806Z" fill="none" stroke="#000" stroke-linecap="round" stroke-linejoin="round" stroke-miterlimit="10" stroke-width="1.921"/>
        <path id="Trazado_999393" data-name="Trazado 999393" d="M42.009,26.806H45.7l2.972-16.348A3.359,3.359,0,0,0,45.368,6.5h0a3.359,3.359,0,0,0-3.359,3.359V26.806Z" fill="#faa019"/>
        <path id="Trazado_999394" data-name="Trazado 999394" d="M45.368,6.5h0a3.344,3.344,0,0,0-1.6.4,3.36,3.36,0,0,1,1.7,3.556L42.5,26.806h3.2l2.972-16.348A3.36,3.36,0,0,0,45.368,6.5Z" fill="#f78f06"/>
        <path id="Trazado_999395" data-name="Trazado 999395" d="M42.009,26.806H45.7l2.972-16.348A3.359,3.359,0,0,0,45.368,6.5h0a3.359,3.359,0,0,0-3.359,3.359V26.806Z" fill="none" stroke="#000" stroke-linecap="round" stroke-linejoin="round" stroke-miterlimit="10" stroke-width="1.921"/>
      </g>
    </g>
  </g>
</svg>
