<svg xmlns="http://www.w3.org/2000/svg" xmlns:xlink="http://www.w3.org/1999/xlink" width="170.287" height="113.131" viewBox="0 0 170.287 113.131">
  <defs>
    <clipPath id="clip-path">
      <rect id="Rectángulo_405011" data-name="Rectángulo 405011" width="167" height="113.131" fill="none"/>
    </clipPath>
    <clipPath id="clip-path-3">
      <rect id="Rectángulo_404992" data-name="Rectángulo 404992" width="18.331" height="33.379" fill="none"/>
    </clipPath>
    <clipPath id="clip-path-4">
      <rect id="Rectángulo_404993" data-name="Rectángulo 404993" width="12.515" height="22.379" fill="none"/>
    </clipPath>
    <clipPath id="clip-path-5">
      <rect id="Rectángulo_404994" data-name="Rectángulo 404994" width="33.614" height="60.389" fill="none"/>
    </clipPath>
    <clipPath id="clip-path-6">
      <rect id="Rectángulo_404995" data-name="Rectángulo 404995" width="34.859" height="15.573" fill="none"/>
    </clipPath>
    <clipPath id="clip-path-7">
      <rect id="Rectángulo_404996" data-name="Rectángulo 404996" width="46.648" height="26.581" fill="none"/>
    </clipPath>
    <clipPath id="clip-path-8">
      <rect id="Rectángulo_404997" data-name="Rectángulo 404997" width="1.129" height="1.422" fill="none"/>
    </clipPath>
    <clipPath id="clip-path-10">
      <rect id="Rectángulo_404999" data-name="Rectángulo 404999" width="1.13" height="1.422" fill="none"/>
    </clipPath>
    <clipPath id="clip-path-14">
      <rect id="Rectángulo_405003" data-name="Rectángulo 405003" width="1.129" height="1.015" fill="none"/>
    </clipPath>
    <clipPath id="clip-path-16">
      <rect id="Rectángulo_405005" data-name="Rectángulo 405005" width="1.13" height="1.015" fill="none"/>
    </clipPath>
    <clipPath id="clip-path-20">
      <rect id="Rectángulo_405009" data-name="Rectángulo 405009" width="1.136" height="1.516" fill="none"/>
    </clipPath>
  </defs>
  <g id="Grupo_1106721" data-name="Grupo 1106721" transform="translate(-199.713 -481.869)">
    <ellipse id="Elipse_11629" data-name="Elipse 11629" cx="39" cy="39.5" rx="39" ry="39.5" transform="translate(199.713 493)" fill="#e36b24"/>
    <g id="Grupo_1106720" data-name="Grupo 1106720" transform="translate(203 481.869)">
      <g id="Grupo_1106719" data-name="Grupo 1106719" clip-path="url(#clip-path)">
        <path id="Trazado_998851" data-name="Trazado 998851" d="M870.822,568.9l-.2,49.405-17.944,10.036v-46.06l12.571-4.866Z" transform="translate(-781.745 -521.577)" fill="#a4c2d8"/>
        <path id="Trazado_998852" data-name="Trazado 998852" d="M467.561,744.857V700.522l32.036,2.433v46.06Z" transform="translate(-428.667 -642.249)" fill="#c5daed"/>
        <path id="Trazado_998853" data-name="Trazado 998853" d="M539.914,801.879l-22.653-2.549-.282-34.941,22.935,1.982Zm-22.344-2.827L539.6,801.53V766.658l-22.309-1.928Z" transform="translate(-473.974 -700.804)" fill="#a4c2d8"/>
        <path id="Trazado_998854" data-name="Trazado 998854" d="M574.462,963.557l-15.84-1.782-.2-14.862,16.038,1.894ZM558.93,961.5l15.22,1.712V949.084l-15.41-1.82Z" transform="translate(-511.972 -868.144)" fill="#a4c2d8"/>
        <path id="Trazado_998855" data-name="Trazado 998855" d="M572.225,821.829l22.373,1.955v3.7l-22.343-2.514Z" transform="translate(-524.625 -753.466)" fill="#a4c2d8"/>
        <path id="Trazado_998856" data-name="Trazado 998856" d="M573.9,870.512l22.233,2.444v3.7l-22.2-3Z" transform="translate(-526.164 -798.099)" fill="#a4c2d8"/>
        <path id="Trazado_998857" data-name="Trazado 998857" d="M467.561,648.007,499.6,650.44l12.571-4.866-31.731-2.332Z" transform="translate(-428.667 -589.734)" fill="#dfecfd"/>
        <path id="Trazado_998858" data-name="Trazado 998858" d="M659.645,549.906l-5.576,8.516-31.731-2.332,6.488-7.908Z" transform="translate(-570.569 -502.582)" fill="#dfecfd"/>
        <g id="Grupo_1106718" data-name="Grupo 1106718">
          <g id="Grupo_1106717" data-name="Grupo 1106717" clip-path="url(#clip-path)">
            <path id="Trazado_998859" data-name="Trazado 998859" d="M652.352,644.013h-.012l-31.731-2.332a.156.156,0,1,1,.023-.311l31.731,2.332a.156.156,0,0,1-.011.311" transform="translate(-568.852 -588.018)" fill="#a4c2d8"/>
            <path id="Trazado_998860" data-name="Trazado 998860" d="M672.671,559.115l-.354.535-.031.046-3.715,5.609-12.991-.954h-.014l-.781-.057,4.319-6.014Z" transform="translate(-600.317 -511.837)" fill="#566284"/>
            <path id="Trazado_998861" data-name="Trazado 998861" d="M681.079,566.064l-.031.046-3.715,5.609-12.991-.955,3.943-5.49Z" transform="translate(-609.079 -518.252)" fill="#707999"/>
            <path id="Trazado_998862" data-name="Trazado 998862" d="M680.9,566.618l-3.715,5.609-13-.956,3.91-5.443Z" transform="translate(-608.927 -518.759)" fill="#707999"/>
            <path id="Trazado_998863" data-name="Trazado 998863" d="M873.723,569.145l-.814,1.249-1.627-.1.82-1.245Z" transform="translate(-798.804 -521.709)" fill="#f2ab53"/>
            <path id="Trazado_998864" data-name="Trazado 998864" d="M859.461,589.508l1.629.106-.739,1.133-1.634-.11Z" transform="translate(-787.285 -540.47)" fill="#a4c2d8"/>
            <path id="Trazado_998865" data-name="Trazado 998865" d="M846.747,608.657l1.636.111-.748,1.148-1.641-.115Z" transform="translate(-775.62 -558.026)" fill="#a4c2d8"/>
            <path id="Trazado_998866" data-name="Trazado 998866" d="M832.883,628.047l1.644.117-.847,1.3-1.649-.121Z" transform="translate(-762.818 -575.803)" fill="#a4c2d8"/>
            <path id="Trazado_998867" data-name="Trazado 998867" d="M901.431,570.85l-.806,1.255L898.96,572l.812-1.25Z" transform="translate(-824.18 -523.27)" fill="#a4c2d8"/>
            <path id="Trazado_998868" data-name="Trazado 998868" d="M887.252,591.308l1.667.108-.732,1.139-1.672-.112Z" transform="translate(-812.77 -542.12)" fill="#a4c2d8"/>
            <path id="Trazado_998869" data-name="Trazado 998869" d="M874.66,610.549l1.674.114-.741,1.153-1.68-.118Z" transform="translate(-801.217 -559.76)" fill="#a4c2d8"/>
            <path id="Trazado_998870" data-name="Trazado 998870" d="M860.927,630.033l1.682.12-.839,1.306-1.688-.124Z" transform="translate(-788.537 -577.624)" fill="#a4c2d8"/>
            <path id="Trazado_998871" data-name="Trazado 998871" d="M929.638,572.585l-.8,1.261-1.679-.108.8-1.257Z" transform="translate(-850.036 -524.86)" fill="#a4c2d8"/>
            <path id="Trazado_998872" data-name="Trazado 998872" d="M915.571,593.141l1.682.109-.724,1.144-1.687-.113Z" transform="translate(-838.741 -543.801)" fill="#a4c2d8"/>
            <path id="Trazado_998873" data-name="Trazado 998873" d="M903.1,612.477l1.689.115-.733,1.159-1.694-.119Z" transform="translate(-827.302 -561.528)" fill="#a4c2d8"/>
            <path id="Trazado_998874" data-name="Trazado 998874" d="M889.506,632.057l1.7.121-.83,1.312-1.7-.125Z" transform="translate(-814.746 -579.48)" fill="#a4c2d8"/>
            <path id="Trazado_998875" data-name="Trazado 998875" d="M962.9,574.632l-.772,1.279-6.52-.418.8-1.263Z" transform="translate(-876.112 -526.464)" fill="#a4c2d8"/>
            <path id="Trazado_998876" data-name="Trazado 998876" d="M944.133,594.991l6.529.424-.7,1.161-6.55-.439Z" transform="translate(-864.934 -545.497)" fill="#a4c2d8"/>
            <path id="Trazado_998877" data-name="Trazado 998877" d="M931.793,614.421l6.558.446-.71,1.176-6.58-.462Z" transform="translate(-853.612 -563.311)" fill="#a4c2d8"/>
            <path id="Trazado_998878" data-name="Trazado 998878" d="M918.334,634.1l6.589.468-.8,1.332-6.612-.486Z" transform="translate(-841.183 -581.351)" fill="#a4c2d8"/>
            <path id="Trazado_998879" data-name="Trazado 998879" d="M571.584,666.183v1.082c0,.233.8.421,1.779.421s1.779-.189,1.779-.421v-1.082Z" transform="translate(-524.037 -610.767)" fill="#707999"/>
            <path id="Trazado_998880" data-name="Trazado 998880" d="M575.141,661.54c0,.233-.8.421-1.779.421s-1.779-.189-1.779-.421.8-.421,1.779-.421,1.779.189,1.779.421" transform="translate(-524.037 -606.124)" fill="#94b1dd"/>
            <path id="Trazado_998881" data-name="Trazado 998881" d="M642.1,670.684v1.082c0,.233.8.421,1.779.421s1.779-.189,1.779-.421v-1.082Z" transform="translate(-588.688 -614.893)" fill="#707999"/>
            <path id="Trazado_998882" data-name="Trazado 998882" d="M645.658,666.041c0,.233-.8.421-1.779.421s-1.779-.189-1.779-.421.8-.421,1.779-.421,1.779.189,1.779.421" transform="translate(-588.688 -610.251)" fill="#94b1dd"/>
            <path id="Trazado_998883" data-name="Trazado 998883" d="M712.618,675.185v1.082c0,.233.8.421,1.779.421s1.779-.189,1.779-.421v-1.082Z" transform="translate(-653.339 -619.02)" fill="#a34848"/>
            <path id="Trazado_998884" data-name="Trazado 998884" d="M716.175,670.542c0,.233-.8.421-1.779.421s-1.779-.189-1.779-.421.8-.421,1.779-.421,1.779.189,1.779.421" transform="translate(-653.339 -614.377)" fill="#e56559"/>
            <path id="Trazado_998885" data-name="Trazado 998885" d="M783.135,679.686v1.082c0,.233.8.421,1.779.421s1.778-.189,1.778-.421v-1.082Z" transform="translate(-717.99 -623.146)" fill="#707999"/>
            <path id="Trazado_998886" data-name="Trazado 998886" d="M786.693,675.043c0,.233-.8.421-1.778.421s-1.779-.189-1.779-.421.8-.421,1.779-.421,1.778.189,1.778.421" transform="translate(-717.991 -618.504)" fill="#94b1dd"/>
            <path id="Trazado_998887" data-name="Trazado 998887" d="M853.653,684.187v1.082c0,.233.8.421,1.779.421s1.778-.189,1.778-.421v-1.082Z" transform="translate(-782.642 -627.273)" fill="#e3c6c0"/>
            <path id="Trazado_998888" data-name="Trazado 998888" d="M857.21,679.544c0,.233-.8.421-1.778.421s-1.779-.189-1.779-.421.8-.421,1.779-.421,1.778.189,1.778.421" transform="translate(-782.642 -622.63)" fill="#ffe4df"/>
            <path id="Trazado_998889" data-name="Trazado 998889" d="M1099.492,989.711l-22.122-4.531V968.915l22.122,4.531Z" transform="translate(-987.749 -888.316)" fill="#889bba"/>
            <path id="Trazado_998890" data-name="Trazado 998890" d="M1343.528,906.459l48.142-12.089V878.1l-48.142,12.089Z" transform="translate(-1231.767 -805.059)" fill="#707999"/>
            <path id="Trazado_998891" data-name="Trazado 998891" d="M1229.767,222.287c.127-16.645-7.223-31.411-16.647-32.97a9.86,9.86,0,0,0-1.8-.132l-.006-.09L1159.2,194.49l5.181,66.708,50.827-10.293v-.022c8.195-1.466,14.449-13.46,14.564-28.6" transform="translate(-1062.769 -173.366)" fill="#889bba"/>
            <path id="Trazado_998892" data-name="Trazado 998892" d="M1002.724,288.137c0,18.514-8.26,32.551-18.449,31.352S965.827,302.31,965.827,283.8s8.26-32.551,18.449-31.352,18.449,17.179,18.449,35.693" transform="translate(-885.485 -231.379)" fill="#bec7e5"/>
            <g id="Grupo_1106665" data-name="Grupo 1106665" transform="translate(89.626 37.898)" opacity="0.5">
              <g id="Grupo_1106664" data-name="Grupo 1106664">
                <g id="Grupo_1106663" data-name="Grupo 1106663" clip-path="url(#clip-path-3)">
                  <path id="Trazado_998893" data-name="Trazado 998893" d="M1086.591,455.624c-5.063-.6-9.166,6.378-9.166,15.576s4.1,17.136,9.166,17.731,9.165-6.378,9.165-15.576-4.1-17.136-9.165-17.732m0,31.1c-4.391-.517-7.949-7.4-7.949-15.38s3.558-14.025,7.949-13.51,7.948,7.4,7.948,15.38-3.558,14.025-7.948,13.51" transform="translate(-1077.426 -455.589)" fill="#889bba"/>
                </g>
              </g>
            </g>
            <g id="Grupo_1106668" data-name="Grupo 1106668" transform="translate(92.533 43.398)" opacity="0.5">
              <g id="Grupo_1106667" data-name="Grupo 1106667">
                <g id="Grupo_1106666" data-name="Grupo 1106666" clip-path="url(#clip-path-4)">
                  <path id="Trazado_998894" data-name="Trazado 998894" d="M1119.031,544.085a3.577,3.577,0,0,1-.419-.025c-1.69-.2-3.267-1.559-4.441-3.83a17.845,17.845,0,0,1-1.788-8.041c0-4.038,1.22-7.631,3.184-9.377a3.924,3.924,0,0,1,3.1-1.081c1.689.2,3.266,1.559,4.44,3.83a17.847,17.847,0,0,1,1.788,8.041c0,4.038-1.22,7.631-3.184,9.378a4.022,4.022,0,0,1-2.683,1.105m-.79-21.881a3.491,3.491,0,0,0-2.343.98c-1.861,1.655-3.017,5.105-3.017,9,0,5.9,2.6,11,5.789,11.376a3.4,3.4,0,0,0,2.713-.958c1.861-1.655,3.017-5.105,3.017-9.005,0-5.9-2.6-11-5.788-11.376a3.169,3.169,0,0,0-.371-.022" transform="translate(-1112.383 -521.706)" fill="#889bba"/>
                </g>
              </g>
            </g>
            <g id="Grupo_1106671" data-name="Grupo 1106671" transform="translate(81.983 24.393)" opacity="0.5">
              <g id="Grupo_1106670" data-name="Grupo 1106670">
                <g id="Grupo_1106669" data-name="Grupo 1106669" clip-path="url(#clip-path-5)">
                  <path id="Trazado_998895" data-name="Trazado 998895" d="M1003.424,353.625a9.533,9.533,0,0,1-1.115-.066c-4.526-.532-8.759-4.191-11.918-10.3a48.255,48.255,0,0,1-4.832-21.744c0-10.911,3.289-20.613,8.583-25.321a10.48,10.48,0,0,1,8.284-2.891h0c4.525.532,8.757,4.191,11.916,10.3a48.259,48.259,0,0,1,4.832,21.744c0,10.911-3.289,20.614-8.583,25.322a10.745,10.745,0,0,1-7.167,2.955m-2.107-59.392a9.781,9.781,0,0,0-6.513,2.7c-5.088,4.524-8.248,13.941-8.248,24.576,0,16.1,7.119,30.027,15.87,31.056a9.51,9.51,0,0,0,7.5-2.645c5.088-4.524,8.248-13.942,8.248-24.577,0-16.1-7.118-30.027-15.867-31.056a8.486,8.486,0,0,0-.992-.058" transform="translate(-985.559 -293.237)" fill="#889bba"/>
                </g>
              </g>
            </g>
            <path id="Trazado_998896" data-name="Trazado 998896" d="M1059.061,278.035l4.164,1.646V267.008l-6.841,3.044V274.1a4.234,4.234,0,0,0,2.678,3.938" transform="translate(-968.508 -244.797)" fill="#aab2d2"/>
            <path id="Trazado_998897" data-name="Trazado 998897" d="M1101.873,327.918l-7.637-1.257-4.189-1.571,4.985-6.8Z" transform="translate(-999.372 -291.812)" fill="#aab2d2"/>
            <path id="Trazado_998898" data-name="Trazado 998898" d="M1152.649,292.723l4.164,1.646V281.7l-6.841,3.044v4.046a4.234,4.234,0,0,0,2.678,3.938" transform="translate(-1054.311 -258.263)" fill="#889bba"/>
            <path id="Trazado_998899" data-name="Trazado 998899" d="M1041.209,274.48l-9.85-1.111v-3.977l9.85,1.111Z" transform="translate(-945.566 -246.983)" fill="#889bba"/>
            <path id="Trazado_998900" data-name="Trazado 998900" d="M1149.971,252.034l8.347-3.151v-3.977l-8.347,3.151Z" transform="translate(-1054.311 -224.533)" fill="#707999"/>
            <path id="Trazado_998901" data-name="Trazado 998901" d="M934.459,53.579l21.991,1.452,10.581-4.357L946.284,49.43Z" transform="translate(-856.726 -45.318)" fill="#bec7e5"/>
            <path id="Trazado_998902" data-name="Trazado 998902" d="M998.951,57.026l-3.123,1.286-1.029.423-4.356,1.794-14.165-.935-.175-.012-3.345-.221,9.51-3.336Z" transform="translate(-891.841 -51.365)" fill="#707999"/>
            <path id="Trazado_998903" data-name="Trazado 998903" d="M1086.061,69.517a.412.412,0,0,1,.329-.39,1.2,1.2,0,0,1,.548.029.569.569,0,0,1,.766-.495c.118.054.23.154.359.133a.577.577,0,0,0,.158-.068.706.706,0,0,1,.746.082.558.558,0,0,0,.186.129.466.466,0,0,0,.268-.043,1.424,1.424,0,0,1,1.278.2,1.066,1.066,0,0,1,1.134.462c.02.037.042.079.082.088s.089-.028.125-.062a.894.894,0,0,1,.764-.227,2.113,2.113,0,0,1,1.2-.266c.125.024.243.075.368.1a2.787,2.787,0,0,0,.361.021,2.01,2.01,0,0,1,.758.186,1.065,1.065,0,0,1,.505.431.558.558,0,0,1-.048.631.883.883,0,0,1-.477.21,11.847,11.847,0,0,1-4.089.4c-.555-.076-1.1-.231-1.647-.337-.655-.125-1.323-.181-1.971-.336a3.329,3.329,0,0,1-1.7-.872" transform="translate(-995.716 -62.912)" fill="#cbc39b"/>
            <path id="Trazado_998904" data-name="Trazado 998904" d="M1032.693,77.064l-1.029.423-4.356,1.794-14.165-.935-.175-.012a4.016,4.016,0,0,1,2.392-1,1.248,1.248,0,0,0,.5-.069c.232-.109.349-.369.543-.537a1.5,1.5,0,0,1,1.052-.251,8.788,8.788,0,0,1,2.35.41,2.069,2.069,0,0,0,1.008.164c.412-.081.814-.439,1.2-.27.176.076.3.253.491.288.211.04.413-.115.627-.121.632-.016.9,1.17,1.5.972.161-.053.275-.2.433-.268.357-.146.771.192,1.132.059s.454-.63.807-.753c.31-.108.626.132.95.189a3.844,3.844,0,0,0,1.063-.139.752.752,0,0,1,.8.386.785.785,0,0,1,.733-.736,2.175,2.175,0,0,1,1.192.372c0-.34.509-.5.768-.275a.576.576,0,0,1,.182.3" transform="translate(-928.705 -70.117)" fill="#b3a980"/>
            <path id="Trazado_998905" data-name="Trazado 998905" d="M938.687,113.454l-4.228-14.144,21.991,1.452-2.766,14.292Z" transform="translate(-856.726 -91.048)" fill="#aab2d2"/>
            <path id="Trazado_998906" data-name="Trazado 998906" d="M1178.917,64.394l-3.8,14.914-9.543,3.734,2.766-14.292Z" transform="translate(-1068.612 -59.037)" fill="#889bba"/>
            <path id="Trazado_998907" data-name="Trazado 998907" d="M1695.428,258.95a9.906,9.906,0,0,1-1.159-.068.312.312,0,0,1,.073-.619,10.326,10.326,0,0,0,8.151-2.866c5.456-4.852,8.845-14.929,8.845-26.3,0-17.225-7.657-32.139-17.069-33.246a.312.312,0,0,1,.073-.619c4.739.557,9.18,4.407,12.5,10.839a51.1,51.1,0,0,1,5.115,23.025c0,11.543-3.469,21.8-9.054,26.764a11.216,11.216,0,0,1-7.479,3.088" transform="translate(-1553.079 -178.991)" fill="#707999"/>
            <path id="Trazado_998908" data-name="Trazado 998908" d="M1358.351,293.038a.333.333,0,0,1-.223-.58c5.784-5.2,9.377-15.934,9.377-28.014,0-18.386-8.173-34.3-18.219-35.487a.332.332,0,1,1,.078-.66c5.058.595,9.8,4.7,13.347,11.57,3.521,6.811,5.459,15.54,5.459,24.577,0,12.263-3.677,23.187-9.6,28.509a.331.331,0,0,1-.222.085" transform="translate(-1236.777 -209.304)" fill="#707999"/>
            <path id="Trazado_998909" data-name="Trazado 998909" d="M1495.564,303.246a.333.333,0,0,1-.045-.662l27.528-3.8a.333.333,0,0,1,.091.659l-27.528,3.8a.328.328,0,0,1-.046,0" transform="translate(-1370.852 -273.929)" fill="#707999"/>
            <path id="Trazado_998910" data-name="Trazado 998910" d="M1529.14,820.42a.333.333,0,0,1-.084-.654l27.982-7.289a.332.332,0,1,1,.168.643l-27.982,7.289a.333.333,0,0,1-.084.011" transform="translate(-1401.634 -744.881)" fill="#707999"/>
            <path id="Trazado_998911" data-name="Trazado 998911" d="M1564.393,484.893a.333.333,0,0,1-.059-.66l27.354-4.985a.333.333,0,1,1,.119.654l-27.354,4.985a.332.332,0,0,1-.06.005" transform="translate(-1433.954 -439.378)" fill="#707999"/>
            <path id="Trazado_998912" data-name="Trazado 998912" d="M1564.392,697.666a.333.333,0,0,1-.073-.657l27.773-6.241a.333.333,0,0,1,.146.649l-27.772,6.241a.333.333,0,0,1-.073.008" transform="translate(-1433.954 -633.299)" fill="#707999"/>
            <path id="Trazado_998913" data-name="Trazado 998913" d="M1374.023,275.48a1.23,1.23,0,1,1-1.187-.908,1.076,1.076,0,0,1,1.187.908" transform="translate(-1257.549 -251.732)" fill="#707999"/>
            <g id="Grupo_1106674" data-name="Grupo 1106674" transform="translate(119.808 79.053)" opacity="0.5">
              <g id="Grupo_1106673" data-name="Grupo 1106673">
                <g id="Grupo_1106672" data-name="Grupo 1106672" clip-path="url(#clip-path-6)">
                  <path id="Trazado_998914" data-name="Trazado 998914" d="M1475.114,954.019c0-.008-.006-.015-.009-.023v-3.077a.43.43,0,0,0,.009-.252.451.451,0,0,0-.534-.327l-33.917,7.93a.421.421,0,0,0-.309.524.452.452,0,0,0,.053.121l-.065,3.1a.412.412,0,0,0,0,.051l-.071,3.38a.454.454,0,0,0,.427.459h.009a.421.421,0,0,0,.292-.1l33.556-7.845a.445.445,0,0,0,.116.021.419.419,0,0,0,.425-.326.429.429,0,0,0,.02-.278c0-.008-.006-.015-.009-.023V954.27a.43.43,0,0,0,.009-.252m-.881-.245-33.007,7.717.052-2.461,32.955-7.7Zm-33.026,8.624,33.026-7.721v2.449l-33.078,7.734Z" transform="translate(-1440.27 -950.329)" fill="#889bba"/>
                </g>
              </g>
            </g>
            <path id="Trazado_998915" data-name="Trazado 998915" d="M1431.939,964.465a1.119,1.119,0,0,0-1.187-.946c-.656-.021-1.187.368-1.187.869a1.119,1.119,0,0,0,1.187.946c.656.021,1.187-.368,1.187-.869" transform="translate(-1310.647 -883.368)" fill="#707999"/>
            <path id="Trazado_998916" data-name="Trazado 998916" d="M1522.589,640.6a1.23,1.23,0,1,1-1.187-.908,1.076,1.076,0,0,1,1.187.908" transform="translate(-1393.756 -586.478)" fill="#707999"/>
            <path id="Trazado_998917" data-name="Trazado 998917" d="M1479.782,429.082a1.23,1.23,0,1,1-1.187-.908,1.076,1.076,0,0,1,1.187.908" transform="translate(-1354.51 -392.556)" fill="#707999"/>
            <path id="Trazado_998918" data-name="Trazado 998918" d="M1502.444,826.095a1.23,1.23,0,1,1-1.187-.908,1.076,1.076,0,0,1,1.187.908" transform="translate(-1375.287 -756.544)" fill="#707999"/>
            <path id="Trazado_998919" data-name="Trazado 998919" d="M1813.192,223.918a.968.968,0,1,1-.958-.835.9.9,0,0,1,.958.835" transform="translate(-1660.605 -204.526)" fill="#707999"/>
            <path id="Trazado_998920" data-name="Trazado 998920" d="M1859.955,857.5a.968.968,0,1,1-.958-.834.9.9,0,0,1,.958.834" transform="translate(-1703.478 -785.408)" fill="#707999"/>
            <path id="Trazado_998921" data-name="Trazado 998921" d="M1933.15,559.619a.968.968,0,1,1-.958-.835.9.9,0,0,1,.958.835" transform="translate(-1770.584 -512.302)" fill="#707999"/>
            <path id="Trazado_998922" data-name="Trazado 998922" d="M1898.586,365.143a.968.968,0,1,1-.958-.835.9.9,0,0,1,.958.835" transform="translate(-1738.895 -334.004)" fill="#707999"/>
            <path id="Trazado_998923" data-name="Trazado 998923" d="M1916.884,730.17a.968.968,0,1,1-.958-.835.9.9,0,0,1,.958.835" transform="translate(-1755.671 -668.666)" fill="#707999"/>
            <path id="Trazado_998924" data-name="Trazado 998924" d="M861.86,916.521a.545.545,0,0,1-.11.314c-1.151,1.641-11.224,2.925-23.478,2.925-13.027,0-23.588-1.451-23.588-3.24s10.561-3.24,23.588-3.24,23.588,1.451,23.588,3.24" transform="translate(-746.914 -837.31)" fill="#bec7e5"/>
            <path id="Trazado_998925" data-name="Trazado 998925" d="M879.6,924.13c0,1.384-9.432,2.51-21.19,2.547-.209,0-.418,0-.629,0s-.422,0-.631,0c-3.747-.013-7.258-.135-10.3-.341-2.143-.144-4.053-.331-5.652-.55-3.263-.446-5.234-1.024-5.234-1.657,0-1.407,9.769-2.549,21.819-2.549s21.819,1.142,21.819,2.549" transform="translate(-766.42 -844.92)" fill="#67556b"/>
            <path id="Trazado_998926" data-name="Trazado 998926" d="M862.408,952.539c-.012.78-.057,3.543-.214,7.135a134.247,134.247,0,0,1-1.814,18.406c-.537,2.652-1.215,4.71-2.071,5.621a1.169,1.169,0,0,1-.39.353,1.993,1.993,0,0,1-.668.33l-.095.024c-2.758,1.014-9.877,1.737-18.226,1.737-8.17,0-15.16-.693-18.041-1.672-.138-.029-.268-.057-.385-.088-1.336-.354-2.328-2.852-3.062-6.315a126.832,126.832,0,0,1-1.9-18.5c-.185-4.257-.2-7.34-.2-7.34,0,1.789,10.561,3.24,23.589,3.24,12.253,0,22.327-1.285,23.478-2.926" transform="translate(-747.517 -873.014)" fill="#a79eb5"/>
            <g id="Grupo_1106677" data-name="Grupo 1106677" transform="translate(68.028 86.55)" opacity="0.5">
              <g id="Grupo_1106676" data-name="Grupo 1106676">
                <g id="Grupo_1106675" data-name="Grupo 1106675" clip-path="url(#clip-path-7)">
                  <path id="Trazado_998927" data-name="Trazado 998927" d="M864.447,1040.569a134.236,134.236,0,0,1-1.814,18.406c-.537,2.652-1.215,4.71-2.071,5.621a1.168,1.168,0,0,1-.39.353,1.989,1.989,0,0,1-.668.33l-.095.024c-2.758,1.014-9.877,1.737-18.226,1.737-8.17,0-15.16-.693-18.041-1.672-.138-.029-.268-.057-.385-.089-1.336-.354-2.328-2.852-3.062-6.315a126.894,126.894,0,0,1-1.9-18.5c1.522,1.588,11.411,2.813,23.385,2.813,11.691,0,21.4-1.17,23.264-2.7" transform="translate(-817.799 -1040.459)" fill="#67556b"/>
                </g>
              </g>
            </g>
            <path id="Trazado_998928" data-name="Trazado 998928" d="M838.436,1081.063c-12.05,0-21.96-1.215-23.565-2.889a.249.249,0,0,1,.36-.345c1.289,1.345,10.321,2.736,23.2,2.736,11.335,0,21.268-1.138,23.106-2.646a.249.249,0,1,1,.316.385c-1.947,1.6-11.8,2.759-23.422,2.759" transform="translate(-747.023 -988.099)" fill="#a79eb5"/>
            <path id="Trazado_998929" data-name="Trazado 998929" d="M855.208,1234.745c-11.271,0-20.541-1.136-22.042-2.7a.233.233,0,1,1,.337-.323c1.206,1.258,9.654,2.559,21.706,2.559,10.6,0,19.895-1.064,21.613-2.475a.233.233,0,0,1,.3.36c-1.822,1.5-11.035,2.581-21.909,2.581" transform="translate(-763.8 -1129.194)" fill="#a79eb5"/>
            <path id="Trazado_998930" data-name="Trazado 998930" d="M883.536,1262.924c-.537,2.652-1.215,4.71-2.071,5.621a1.171,1.171,0,0,1-.39.353,1.988,1.988,0,0,1-.668.33l-.095.024c-2.758,1.014-9.877,1.737-18.226,1.737-8.17,0-15.16-.693-18.041-1.672-.138-.029-.268-.057-.385-.089-1.336-.354-2.328-2.852-3.062-6.315,3.574,1.745,11.935,2.9,21.488,2.9,9.519,0,17.8-.945,21.449-2.888" transform="translate(-770.673 -1157.858)" fill="#a79eb5"/>
            <path id="Trazado_998931" data-name="Trazado 998931" d="M939.082,939.385v1.321l-26.113,1.954c-2.143-.145-4.053-.331-5.652-.55V941.5Z" transform="translate(-831.842 -861.243)" fill="#42312f"/>
            <path id="Trazado_998932" data-name="Trazado 998932" d="M1091.932,935.932V939.3c-.209,0-.418,0-.629,0s-.422,0-.631,0v-3.365a.632.632,0,0,1,1.26,0" transform="translate(-999.945 -857.539)" fill="#42312f"/>
            <g id="Grupo_1106680" data-name="Grupo 1106680" transform="translate(71.132 85.108)" opacity="0.5">
              <g id="Grupo_1106679" data-name="Grupo 1106679">
                <g id="Grupo_1106678" data-name="Grupo 1106678" clip-path="url(#clip-path-8)">
                  <path id="Trazado_998933" data-name="Trazado 998933" d="M856.239,1023.834a.58.58,0,1,1-.565-.711.65.65,0,0,1,.565.711" transform="translate(-855.11 -1023.123)" fill="#67556b"/>
                </g>
              </g>
            </g>
            <g id="Grupo_1106683" data-name="Grupo 1106683" transform="translate(78.796 86.225)" opacity="0.5">
              <g id="Grupo_1106682" data-name="Grupo 1106682">
                <g id="Grupo_1106681" data-name="Grupo 1106681" clip-path="url(#clip-path-8)">
                  <path id="Trazado_998934" data-name="Trazado 998934" d="M948.375,1037.262a.58.58,0,1,1-.565-.711.651.651,0,0,1,.565.711" transform="translate(-947.246 -1036.551)" fill="#67556b"/>
                </g>
              </g>
            </g>
            <g id="Grupo_1106686" data-name="Grupo 1106686" transform="translate(87.128 86.639)" opacity="0.5">
              <g id="Grupo_1106685" data-name="Grupo 1106685">
                <g id="Grupo_1106684" data-name="Grupo 1106684" clip-path="url(#clip-path-10)">
                  <path id="Trazado_998935" data-name="Trazado 998935" d="M1048.532,1042.24a.58.58,0,1,1-.565-.711.651.651,0,0,1,.565.711" transform="translate(-1047.403 -1041.529)" fill="#67556b"/>
                </g>
              </g>
            </g>
            <g id="Grupo_1106689" data-name="Grupo 1106689" transform="translate(110.737 85.108)" opacity="0.5">
              <g id="Grupo_1106688" data-name="Grupo 1106688">
                <g id="Grupo_1106687" data-name="Grupo 1106687" clip-path="url(#clip-path-8)">
                  <path id="Trazado_998936" data-name="Trazado 998936" d="M1331.217,1023.834a.58.58,0,1,0,.565-.711.651.651,0,0,0-.565.711" transform="translate(-1331.217 -1023.123)" fill="#67556b"/>
                </g>
              </g>
            </g>
            <g id="Grupo_1106692" data-name="Grupo 1106692" transform="translate(103.073 86.225)" opacity="0.5">
              <g id="Grupo_1106691" data-name="Grupo 1106691">
                <g id="Grupo_1106690" data-name="Grupo 1106690" clip-path="url(#clip-path-8)">
                  <path id="Trazado_998937" data-name="Trazado 998937" d="M1239.08,1037.262a.58.58,0,1,0,.565-.711.65.65,0,0,0-.565.711" transform="translate(-1239.08 -1036.551)" fill="#67556b"/>
                </g>
              </g>
            </g>
            <g id="Grupo_1106695" data-name="Grupo 1106695" transform="translate(94.741 86.639)" opacity="0.5">
              <g id="Grupo_1106694" data-name="Grupo 1106694">
                <g id="Grupo_1106693" data-name="Grupo 1106693" clip-path="url(#clip-path-10)">
                  <path id="Trazado_998938" data-name="Trazado 998938" d="M1138.923,1042.24a.58.58,0,1,0,.565-.711.651.651,0,0,0-.565.711" transform="translate(-1138.923 -1041.529)" fill="#67556b"/>
                </g>
              </g>
            </g>
            <g id="Grupo_1106698" data-name="Grupo 1106698" transform="translate(71.132 108.441)" opacity="0.5">
              <g id="Grupo_1106697" data-name="Grupo 1106697">
                <g id="Grupo_1106696" data-name="Grupo 1106696" clip-path="url(#clip-path-14)">
                  <path id="Trazado_998939" data-name="Trazado 998939" d="M856.239,1304.125a.568.568,0,1,1-.565-.507.538.538,0,0,1,.565.507" transform="translate(-855.11 -1303.618)" fill="#67556b"/>
                </g>
              </g>
            </g>
            <g id="Grupo_1106701" data-name="Grupo 1106701" transform="translate(78.796 109.238)" opacity="0.5">
              <g id="Grupo_1106700" data-name="Grupo 1106700">
                <g id="Grupo_1106699" data-name="Grupo 1106699" clip-path="url(#clip-path-14)">
                  <path id="Trazado_998940" data-name="Trazado 998940" d="M948.375,1313.708a.568.568,0,1,1-.565-.507.538.538,0,0,1,.565.507" transform="translate(-947.246 -1313.201)" fill="#67556b"/>
                </g>
              </g>
            </g>
            <g id="Grupo_1106704" data-name="Grupo 1106704" transform="translate(87.128 109.534)" opacity="0.5">
              <g id="Grupo_1106703" data-name="Grupo 1106703">
                <g id="Grupo_1106702" data-name="Grupo 1106702" clip-path="url(#clip-path-16)">
                  <path id="Trazado_998941" data-name="Trazado 998941" d="M1048.532,1317.261a.568.568,0,1,1-.565-.507.538.538,0,0,1,.565.507" transform="translate(-1047.403 -1316.754)" fill="#67556b"/>
                </g>
              </g>
            </g>
            <g id="Grupo_1106707" data-name="Grupo 1106707" transform="translate(110.737 108.441)" opacity="0.5">
              <g id="Grupo_1106706" data-name="Grupo 1106706">
                <g id="Grupo_1106705" data-name="Grupo 1106705" clip-path="url(#clip-path-14)">
                  <path id="Trazado_998942" data-name="Trazado 998942" d="M1331.217,1304.125a.568.568,0,1,0,.565-.507.538.538,0,0,0-.565.507" transform="translate(-1331.217 -1303.618)" fill="#67556b"/>
                </g>
              </g>
            </g>
            <g id="Grupo_1106710" data-name="Grupo 1106710" transform="translate(103.073 109.238)" opacity="0.5">
              <g id="Grupo_1106709" data-name="Grupo 1106709">
                <g id="Grupo_1106708" data-name="Grupo 1106708" clip-path="url(#clip-path-14)">
                  <path id="Trazado_998943" data-name="Trazado 998943" d="M1239.08,1313.708a.568.568,0,1,0,.565-.507.538.538,0,0,0-.565.507" transform="translate(-1239.08 -1313.201)" fill="#67556b"/>
                </g>
              </g>
            </g>
            <g id="Grupo_1106713" data-name="Grupo 1106713" transform="translate(94.741 109.534)" opacity="0.5">
              <g id="Grupo_1106712" data-name="Grupo 1106712">
                <g id="Grupo_1106711" data-name="Grupo 1106711" clip-path="url(#clip-path-16)">
                  <path id="Trazado_998944" data-name="Trazado 998944" d="M1138.923,1317.261a.568.568,0,1,0,.565-.507.538.538,0,0,0-.565.507" transform="translate(-1138.923 -1316.754)" fill="#67556b"/>
                </g>
              </g>
            </g>
            <path id="Trazado_998945" data-name="Trazado 998945" d="M498.514,519.389a25.072,25.072,0,0,1,4.207-.206,8.472,8.472,0,0,1,2.327.535,18.062,18.062,0,0,1,1.839,2c.219.265-.113,1.854-.023,2.095s-.481.338-.605.047a5.491,5.491,0,0,1-.008-1.437l-.93-1.248a11.545,11.545,0,0,1,.833,1.767,8.992,8.992,0,0,1,.012,1.614c-.068.122-.492,0-.492,0a.679.679,0,0,1-.545-.117l-.426-.915.109.856a.523.523,0,0,1-.5.116c-.346-.065-1.111-1.4-1.111-1.4l-.621-.552s1.095,1.553.49,1.809c-.232.1-1.535-.824-2.653-1.047-1.4-.279-1.486-1.077-1.486-1.077s-.961-.126-.416-2.837" transform="translate(-456.892 -475.95)" fill="#ffa07c"/>
            <path id="Trazado_998946" data-name="Trazado 998946" d="M559.507,553.108a.156.156,0,0,1-.154-.136l-.173-1.372-1.122-1.028a.156.156,0,0,1,.21-.23l1.165,1.067a.156.156,0,0,1,.049.1l.18,1.429a.156.156,0,0,1-.135.174h-.02" transform="translate(-511.588 -504.524)" fill="#db7352"/>
            <path id="Trazado_998947" data-name="Trazado 998947" d="M567.039,545.332a.156.156,0,0,1-.154-.132l-.294-1.934-1.269-1.377a.156.156,0,0,1,.229-.211l1.3,1.412a.155.155,0,0,1,.039.082l.3,1.981a.156.156,0,0,1-.131.177l-.024,0" transform="translate(-518.258 -496.572)" fill="#db7352"/>
            <path id="Trazado_998948" data-name="Trazado 998948" d="M574.35,536.128a.156.156,0,0,1-.12-.057l-1.569-1.9a.156.156,0,0,1,.24-.2l1.569,1.9a.156.156,0,0,1-.12.255" transform="translate(-524.992 -489.499)" fill="#db7352"/>
            <path id="Trazado_998949" data-name="Trazado 998949" d="M250.824,1231.536a11.577,11.577,0,0,0-.066,2.305c.132.576,2.438,1.089,4.216,1.217a34.814,34.814,0,0,0,6.259.128c1.318-.256.988-1.025.659-1.281s-4.809-1.6-5.468-2.433-5.6.064-5.6.064" transform="translate(-229.857 -1128.708)" fill="#70453a"/>
            <path id="Trazado_998950" data-name="Trazado 998950" d="M20.69,1215.906s-.593,1.729-.329,2.241,1.845,1.153,2.635,1.6a13.452,13.452,0,0,0,5.2,1.025c1.779-.064,2.438,0,2.833-.576s-.461-.9-1.186-1.281-2.9-1.473-3.228-2.305-5.929-.7-5.929-.7" transform="translate(-18.605 -1114.755)" fill="#70453a"/>
            <path id="Trazado_998951" data-name="Trazado 998951" d="M45.6,561.113l-7.345,1.382s-3.119,21.8-3.356,23.181-7.108,22.336-7.187,23.411-.159,2.533-.159,3.224-1.1.691-2.605.844-5.923-1.3-5.687-1.841a24.145,24.145,0,0,0,.4-2.533c.158-.615,4.106-23.8,4.106-23.8s0-18.115.474-21.953a13.551,13.551,0,0,1,2.487-6.332s4.3,6.14,18.874,4.413" transform="translate(-17.654 -510.391)" fill="#9b655c"/>
            <path id="Trazado_998952" data-name="Trazado 998952" d="M208.98,599.7s.623,21.1.741,24.785-.948,23.242-.948,24.278.592,3.07.434,3.608-3.317.844-4.423.844-3.554-.23-3.791-.844a13.537,13.537,0,0,1,.079-3.224l-1.816-23.971-1.768-25.4Z" transform="translate(-181.061 -549.812)" fill="#9b655c"/>
            <path id="Trazado_998953" data-name="Trazado 998953" d="M34.412,205.532l-4.145,9.012-.9-.721-.207,6.962a.072.072,0,0,1-.007.016c-.094.163-1.241,1.569-12.938,1.569a25.117,25.117,0,0,1-6.709-.846,12.671,12.671,0,0,1-2.934-1.136l1.147-5.615a25.808,25.808,0,0,1-3.585-.274c-2.915-.358-4.468-2.762-4.073-6.326s3.917-15.226,7.26-18.746a13.117,13.117,0,0,1,3.953-2.263c.141-.059.281-.116.42-.171.5-.2.975-.379,1.384-.527.814-.294,1.373-.47,1.373-.47l1.168.031,6.159.166s.628.135,1.548.41q.289.087.614.193a22.379,22.379,0,0,1,2.211.847,10.236,10.236,0,0,1,3.351,2.224c.815.9,4.912,15.665,4.912,15.665" transform="translate(0 -170.523)" fill="#cec69e"/>
            <path id="Trazado_998954" data-name="Trazado 998954" d="M173.71,172.171a1.444,1.444,0,0,1,1.188-1.254l6.2,1.056a.951.951,0,0,1,.594,1.056s-.2,1.5-4.158.99c-3.1-.4-3.828-1.848-3.828-1.848" transform="translate(-159.26 -156.699)" fill="#b6ac82"/>
            <path id="Trazado_998955" data-name="Trazado 998955" d="M360.191,420.574s8.206,5.516,8.544,6.192.545,1.03.545,1.03.745.318.745.791-1.465,3.8-2.141,3.863a2.8,2.8,0,0,1-1.257-.186,3.794,3.794,0,0,1-1.757-.068c-.879-.27-8.869-2.3-9.477-3.243s4.055-8.921,4.8-8.381" transform="translate(-325.78 -385.564)" fill="#cec69e"/>
            <path id="Trazado_998956" data-name="Trazado 998956" d="M373.776,418.652a.156.156,0,0,1-.119-.256c.064-.075,1.58-1.835,3.353-1.125a.156.156,0,1,1-.116.289c-1.564-.625-2.986,1.021-3,1.037a.156.156,0,0,1-.119.055" transform="translate(-342.541 -382.406)" fill="#b3a980"/>
            <path id="Trazado_998957" data-name="Trazado 998957" d="M104.44,326.193a.159.159,0,0,1-.031,0,.156.156,0,0,1-.122-.184l1.923-9.517a.156.156,0,0,1,.305.062l-1.923,9.517a.156.156,0,0,1-.152.125" transform="translate(-95.61 -290.048)" fill="#b3a980"/>
            <path id="Trazado_998958" data-name="Trazado 998958" d="M489.335,510.595a.156.156,0,0,1-.108-.268,11.807,11.807,0,0,0,2.612-4.4.156.156,0,1,1,.3.091,11.911,11.911,0,0,1-2.694,4.535.155.155,0,0,1-.108.044" transform="translate(-448.487 -463.739)" fill="#b3a980"/>
            <path id="Trazado_998959" data-name="Trazado 998959" d="M188.831,112.662l-.838,4.846a6.1,6.1,0,0,0,3.234,1.584,4.978,4.978,0,0,0,2.9-.132l.066-2.706Z" transform="translate(-172.355 -103.29)" fill="#ffa07c"/>
            <path id="Trazado_998960" data-name="Trazado 998960" d="M186.449,6.407l-.132-1.54a1.15,1.15,0,0,1-.44-1.012c0-.748.968-1.716.968-1.716S187.593.29,188.429.246A2.663,2.663,0,0,1,189.881.6s1.32-.748,1.98-.572.484.572,1.32.7,1.408-.22,2.112.132a1.714,1.714,0,0,1,.792,1.276,3.513,3.513,0,0,1,.792,1.98c-.044.968-1.452,1.892-1.452,1.892l-6.512,1.452-1.892.132Z" transform="translate(-170.415 0)" fill="#70453a"/>
            <path id="Trazado_998961" data-name="Trazado 998961" d="M193.189,49.956a4.3,4.3,0,0,1-.419,1.126c-.726,1.122-1.386,2.376-2.508,2.376a6.363,6.363,0,0,1-3.828-1.98,8.885,8.885,0,0,1-.945-3.46c0-.006,0-.011,0-.017-1.32.132-1.3-2.464-.9-2.86s1.254.528,1.254.528c.119.04.243-.057.356-.231a2.949,2.949,0,0,0,.37-1.749,1.053,1.053,0,0,1,.66-1.386,4.761,4.761,0,0,0,.66.4c.4.2,1.584-.264,2.376-.066s.727-.33,1.717-.462.329.462.858,1.056,1.122.132,1.188.726a32.77,32.77,0,0,1-.835,6" transform="translate(-169.014 -38.646)" fill="#ffa07c"/>
            <path id="Trazado_998962" data-name="Trazado 998962" d="M205.746,85.16a4.3,4.3,0,0,1-.419,1.126c-.726,1.122-1.386,2.376-2.508,2.376a6.363,6.363,0,0,1-3.828-1.98,8.885,8.885,0,0,1-.945-3.46c0-.006,0-.011,0-.017a20.8,20.8,0,0,0,.352-2.332l.352-.323,0,.091c.027.585.208,3.8,1.008,4.081.614.215.719-.564,1.335-.77a6.611,6.611,0,0,1,2.141.058,2.245,2.245,0,0,0,.763.118s.939.007,1.173.242.176.506.374.7a.3.3,0,0,0,.2.084" transform="translate(-181.571 -73.85)" fill="#70453a"/>
            <path id="Trazado_998963" data-name="Trazado 998963" d="M232.617,83.322c.608.11.308,1.408-.176,1.276s-.308-1.364.176-1.276" transform="translate(-212.842 -76.387)" fill="#42312f"/>
            <path id="Trazado_998964" data-name="Trazado 998964" d="M256.9,82.25a1.559,1.559,0,0,1-.89-.3.156.156,0,1,1,.176-.257,1.144,1.144,0,0,0,1.048.188.536.536,0,0,0,.293-.2c0-.082-.02-.28-.042-.51-.04-.413-.09-.927-.09-1.287a4.768,4.768,0,0,1,.364-1.469.156.156,0,0,1,.287.121,4.547,4.547,0,0,0-.34,1.348c0,.346.051.873.088,1.257.025.254.044.455.044.547,0,.147-.128.3-.343.417a1.3,1.3,0,0,1-.6.141" transform="translate(-234.654 -71.809)" fill="#db7352"/>
            <path id="Trazado_998965" data-name="Trazado 998965" d="M225.527,68.073c-.049.3.792-.059,1.261,0s.909.352,1.144.088-.557-.7-1.115-.675-1.261.411-1.291.587" transform="translate(-206.765 -61.871)" fill="#70453a"/>
            <path id="Trazado_998966" data-name="Trazado 998966" d="M233.044,130.877a3.34,3.34,0,0,1-.57-.051,2.216,2.216,0,0,1-1.36-.765.156.156,0,0,1,.251-.185,1.94,1.94,0,0,0,1.163.643,2.879,2.879,0,0,0,1.062-.005,1.353,1.353,0,0,1,.465-.024.156.156,0,0,1-.056.306,1.129,1.129,0,0,0-.359.025,3.48,3.48,0,0,1-.595.056" transform="translate(-211.861 -119.014)" fill="#42312f"/>
            <path id="Trazado_998967" data-name="Trazado 998967" d="M230.181,127.742a.156.156,0,0,1-.156-.156.824.824,0,0,1,.324-.563.156.156,0,0,1,.192.246c-.053.042-.2.19-.2.317a.156.156,0,0,1-.156.156" transform="translate(-210.89 -116.427)" fill="#42312f"/>
            <path id="Trazado_998968" data-name="Trazado 998968" d="M280.645,90.684c.405.135.088,1.2-.352,1.115s0-1.232.352-1.115" transform="translate(-256.808 -83.133)" fill="#42312f"/>
            <path id="Trazado_998969" data-name="Trazado 998969" d="M282.316,77.117c.035.26.352.088.763.205s.381.323.645.205-.147-.557-.484-.631-.953,0-.924.22" transform="translate(-258.831 -70.475)" fill="#70453a"/>
            <path id="Trazado_998970" data-name="Trazado 998970" d="M109.749,245.457s-1.825,1.115-7.4,1.723c-3.4.371-14.429-1.318-14.429-1.318a60.529,60.529,0,0,1,.27-8.787c.474-3.582.274-7.033.641-10.366.235-2.13.441-3.691.441-3.691l-2.749-.586.36-1.352,3.064-.09,1.893-11.219a64.19,64.19,0,0,0,.586-9.1c0-5.406-1.893-8.245-1.893-8.245s.029-.03.066-.076c.141-.059.281-.116.42-.171.5-.2.975-.379,1.384-.527,2.771,1.946,3.041,7.4,3.041,7.4l9.71-.361a11.364,11.364,0,0,0-1.89-6.706c.674.22,1.933.684,2.7,1.029a9.847,9.847,0,0,1,1.757,5.508c.13,4.622.912,20.175.912,21.391,0,.3.216,6.109.3,8.212.264,6.392.811,17.336.811,17.336" transform="translate(-79.325 -175.709)" fill="#fcddb4"/>
            <path id="Trazado_998971" data-name="Trazado 998971" d="M178.461,636.465c-2.116,0-7.909-2.339-8.171-2.446a.156.156,0,0,1-.1-.144l-.035-8.315a.156.156,0,0,1,.177-.155,65.981,65.981,0,0,0,12.738.121.156.156,0,0,1,.029.31,66.835,66.835,0,0,1-12.632-.1l.034,8.032c.836.334,6.818,2.689,8.279,2.355s4.01-2.529,4.4-2.871l.121-6.013a.156.156,0,0,1,.312.006l-.122,6.081a.156.156,0,0,1-.052.113c-.119.106-2.94,2.609-4.59,2.987a1.786,1.786,0,0,1-.391.037" transform="translate(-156.003 -573.379)" fill="#d6b69b"/>
            <path id="Trazado_998972" data-name="Trazado 998972" d="M179.1,653.807c-4.231,0-9.2-.505-9.273-.512a.156.156,0,0,1,.032-.31c.092.009,9.217.936,13.205.272a.156.156,0,0,1,.051.307,26.169,26.169,0,0,1-4.016.243" transform="translate(-155.573 -598.666)" fill="#d6b69b"/>
            <path id="Trazado_998973" data-name="Trazado 998973" d="M156.033,283.119a.156.156,0,0,1-.013-.311l2.974-.259c.044-1.037-.119-3.649-.121-3.676a.156.156,0,1,1,.311-.019c.007.118.181,2.9.113,3.85a.156.156,0,0,1-.142.144l-3.109.27h-.014m3.109-.426h0Z" transform="translate(-142.911 -255.524)" fill="#d6b69b"/>
            <path id="Trazado_998974" data-name="Trazado 998974" d="M308.846,278.331a.156.156,0,0,1-.156-.153l-.068-3.65a.156.156,0,1,1,.311-.006l.065,3.488,2.407-.127a.156.156,0,0,1,.016.311l-2.568.135h-.008" transform="translate(-282.95 -251.546)" fill="#d6b69b"/>
            <path id="Trazado_998975" data-name="Trazado 998975" d="M167.468,293.2c1.074.342.541,2.118-.315,1.892s-.676-2.208.315-1.892" transform="translate(-152.746 -268.78)" fill="#d6b69b"/>
            <path id="Trazado_998976" data-name="Trazado 998976" d="M321.3,285.076c1.074.342.541,2.118-.315,1.892s-.676-2.208.315-1.892" transform="translate(-293.779 -261.331)" fill="#d6b69b"/>
            <path id="Trazado_998977" data-name="Trazado 998977" d="M168.19,372.289l-2.476,16.362a.444.444,0,0,0,.388.508l10.8,1.258a.444.444,0,0,0,.491-.378l2.368-16.362a.444.444,0,0,0-.388-.5l-10.69-1.258a.444.444,0,0,0-.491.375" transform="translate(-151.925 -340.974)" fill="#a34848"/>
            <path id="Trazado_998978" data-name="Trazado 998978" d="M164.94,368.43l-2.476,16.362a.444.444,0,0,0,.388.508l10.8,1.258a.444.444,0,0,0,.491-.378l2.368-16.362a.444.444,0,0,0-.388-.5l-10.69-1.258a.444.444,0,0,0-.491.375" transform="translate(-148.945 -337.436)" fill="#e56559"/>
            <path id="Trazado_998979" data-name="Trazado 998979" d="M225.077,362.436a.5.5,0,0,1-.057,0l-6.482-.76a.5.5,0,0,1-.442-.541l.189-1.267a.457.457,0,0,1,.17-.306.48.48,0,0,1,.356-.1l6.416.746a.5.5,0,0,1,.442.538l-.124,1.277a.458.458,0,0,1-.17.313.476.476,0,0,1-.3.1m-6.322-2.67a.168.168,0,0,0-.105.036.148.148,0,0,0-.055.1v.006l-.189,1.264a.186.186,0,0,0,.169.191l6.482.76a.17.17,0,0,0,.127-.035.149.149,0,0,0,.055-.1l.124-1.277a.187.187,0,0,0-.168-.2l-6.416-.746h-.021m-.315.119h0Z" transform="translate(-199.951 -329.553)" fill="#a34848"/>
            <path id="Trazado_998980" data-name="Trazado 998980" d="M235.749,467.26s2.656-1.005,3.188-1.068,2.774-.042,2.774-.042.388.92-.852.944a3.387,3.387,0,0,1,1.044.276,7.354,7.354,0,0,1,1.225,2.089c0,.188-.354.314-.354.314a3.962,3.962,0,0,1,.531,1.005c.03.283-.384.377-.384.377l.162.236s-.369.534-.679.377c0,0,.015.346-.221.408s-1.181-.487-1.181-.487l-1.535-.314a9,9,0,0,1-2.214.345,5.5,5.5,0,0,1-2.155-1.005c-.266-.22.03-3.423.649-3.455" transform="translate(-215.453 -427.37)" fill="#ffa67c"/>
            <path id="Trazado_998981" data-name="Trazado 998981" d="M283.646,473.475h-.02l-1.819-.226a.156.156,0,1,1,.038-.309l1.819.226a.156.156,0,0,1-.019.31" transform="translate(-258.24 -433.596)" fill="#dd7352"/>
            <path id="Trazado_998982" data-name="Trazado 998982" d="M290.6,485.672a.156.156,0,0,1-.126-.064c-.43-.586-1.085-1.452-1.2-1.541a14.347,14.347,0,0,0-1.981-.439.156.156,0,1,1,.054-.307,11.424,11.424,0,0,1,2.121.5c.184.147,1.076,1.359,1.253,1.6a.156.156,0,0,1-.125.248" transform="translate(-263.282 -443.114)" fill="#dd7352"/>
            <path id="Trazado_998983" data-name="Trazado 998983" d="M287.5,499.69a.156.156,0,0,1-.118-.054,17.087,17.087,0,0,0-1.764-1.855c-.193-.06-1.412-.288-1.865-.37a.156.156,0,1,1,.056-.307c.067.012,1.65.3,1.908.381a13.861,13.861,0,0,1,1.9,1.947.156.156,0,0,1-.118.258" transform="translate(-260.029 -455.75)" fill="#dd7352"/>
            <path id="Trazado_998984" data-name="Trazado 998984" d="M287.305,513.111a.156.156,0,0,1-.112-.048c-.634-.659-1.356-1.381-1.467-1.447a13.121,13.121,0,0,0-1.61-.233.156.156,0,1,1,.033-.31,11.015,11.015,0,0,1,1.724.269,21,21,0,0,1,1.544,1.506.156.156,0,0,1-.112.264" transform="translate(-260.354 -468.559)" fill="#dd7352"/>
            <path id="Trazado_998985" data-name="Trazado 998985" d="M68.738,437.87c1.393.423,4.3.333,6.914.129.665-.052,1.31-.111,1.907-.171l.157-.016c1.813-.185,3.148-.373,3.148-.373a3.452,3.452,0,0,0,1.654-.143c-.5-1.342.732-3.9.732-3.9a1.785,1.785,0,0,0-1.482-.435,7.048,7.048,0,0,0-1.024-.572c-.416-.2-.9-.395-1.413-.591a68.461,68.461,0,0,0-7.821-2.266,5.209,5.209,0,0,0-3.131.225Z" transform="translate(-62.69 -393.667)" fill="#cec69e"/>
            <path id="Trazado_998986" data-name="Trazado 998986" d="M70.133,436.592a11.813,11.813,0,0,1-3.158-.308.156.156,0,0,1,.091-.3c1.126.342,3.5.385,6.857.123.62-.049,1.26-.106,1.9-.171l.157-.016c1.79-.183,3.129-.37,3.143-.372l.02,0,.02,0a3.637,3.637,0,0,0,1.44-.087c-.345-1.272.528-3.305.742-3.774a1.738,1.738,0,0,0-1.275-.308l-.061.009-.051-.036a6.911,6.911,0,0,0-1-.559c-.386-.183-.858-.38-1.4-.586a68.811,68.811,0,0,0-7.8-2.259,5.086,5.086,0,0,0-3.025.211.156.156,0,1,1-.145-.276,5.3,5.3,0,0,1,3.241-.239,69.1,69.1,0,0,1,7.839,2.271c.552.209,1.031.41,1.425.6a7.485,7.485,0,0,1,1,.552,1.851,1.851,0,0,1,1.564.5l.061.077-.043.088c-.012.025-1.2,2.514-.726,3.778l.052.139-.137.059a3.575,3.575,0,0,1-1.714.157c-.175.024-1.458.2-3.133.371l-.158.016c-.645.065-1.288.122-1.91.171q-2.211.172-3.813.172" transform="translate(-60.972 -391.932)" fill="#b3a980"/>
            <path id="Trazado_998987" data-name="Trazado 998987" d="M214.526,475.29a.156.156,0,0,1-.15-.114,4.882,4.882,0,0,1,.942-4.629.156.156,0,0,1,.224.217,4.658,4.658,0,0,0-.865,4.329.156.156,0,0,1-.109.192.154.154,0,0,1-.042.006" transform="translate(-196.352 -431.361)" fill="#b3a980"/>
            <g id="Grupo_1106716" data-name="Grupo 1106716" transform="translate(17.631 8.277)" opacity="0.5">
              <g id="Grupo_1106715" data-name="Grupo 1106715">
                <g id="Grupo_1106714" data-name="Grupo 1106714" clip-path="url(#clip-path-20)">
                  <path id="Trazado_998988" data-name="Trazado 998988" d="M212.024,99.613c-.321.394.489,1.641.943,1.361s-.489-1.92-.943-1.361" transform="translate(-211.95 -99.498)" fill="#db7352"/>
                </g>
              </g>
            </g>
          </g>
        </g>
      </g>
    </g>
  </g>
</svg>
