<svg xmlns="http://www.w3.org/2000/svg" xmlns:xlink="http://www.w3.org/1999/xlink" width="63" height="63" viewBox="0 0 63 63">
  <defs>
    <clipPath id="clip-path">
      <rect id="Rectángulo_404646" data-name="Rectángulo 404646" width="63" height="63" transform="translate(705 5466.499)" fill="#e5a32c"/>
    </clipPath>
  </defs>
  <g id="Enmascarar_grupo_1098825" data-name="Enmascarar grupo 1098825" transform="translate(-705 -5466.499)" clip-path="url(#clip-path)">
    <g id="carro-de-limpieza" transform="translate(705 5466.499)">
      <g id="Grupo_1107316" data-name="Grupo 1107316">
        <path id="Trazado_999548" data-name="Trazado 999548" d="M25.062,16.606,27.3,2.618a1.947,1.947,0,0,1,3.869.3,1.812,1.812,0,0,1-.03.325L27.562,25.594H23.625Z" fill="#5c4111"/>
        <path id="Trazado_999549" data-name="Trazado 999549" d="M25.505,5.906v.089l-.443,10.612-1.437,8.987H20.672l.9-19.776a1.97,1.97,0,0,1,3.938.089Z" fill="#5b2b0e"/>
        <path id="Trazado_999550" data-name="Trazado 999550" d="M20.672,23.625v1.969H18.7v8.859a1.975,1.975,0,0,1-1.969,1.969H6.891a1.975,1.975,0,0,1-1.969-1.969V23.625a1.975,1.975,0,0,1,1.969-1.969H18.7A1.975,1.975,0,0,1,20.672,23.625Z" fill="#e5a32c"/>
        <path id="Trazado_999551" data-name="Trazado 999551" d="M29.531,25.594l-.984,16.734H7.442l-.551-5.906h9.844A1.975,1.975,0,0,0,18.7,34.453V25.594H29.531Z" fill="#ddd"/>
        <path id="Trazado_999552" data-name="Trazado 999552" d="M27.562,25.594H24.609l-.984,16.734h4.922l.984-16.734Z" fill="#ccc"/>
        <path id="Trazado_999553" data-name="Trazado 999553" d="M53.156,49.219h4.922v4.922H53.156a7.839,7.839,0,0,0-1.732-4.922Z" fill="#b3b3b3"/>
        <path id="Trazado_999554" data-name="Trazado 999554" d="M51.424,49.219a7.874,7.874,0,1,1-7.068-2.894,7.185,7.185,0,0,1,.925-.059,7.832,7.832,0,0,1,6.142,2.953Zm-3.189,4.922a2.953,2.953,0,1,0-2.953,2.953A2.949,2.949,0,0,0,48.234,54.141Z" fill="gray"/>
        <circle id="Elipse_11711" data-name="Elipse 11711" cx="2.953" cy="2.953" r="2.953" transform="translate(42.328 51.187)" fill="#b3b3b3"/>
        <path id="Trazado_999555" data-name="Trazado 999555" d="M14.766,46.266a7.875,7.875,0,1,1-7.875,7.875A7.873,7.873,0,0,1,14.766,46.266Zm2.953,7.875a2.953,2.953,0,1,0-2.953,2.953A2.949,2.949,0,0,0,17.719,54.141Z" fill="gray"/>
        <circle id="Elipse_11712" data-name="Elipse 11712" cx="2.953" cy="2.953" r="2.953" transform="translate(11.812 51.187)" fill="#b3b3b3"/>
        <path id="Trazado_999556" data-name="Trazado 999556" d="M40.359,42.328l4,4a7.864,7.864,0,0,0-6.95,7.816H22.641a7.875,7.875,0,0,0-15.75,0H.984V42.328H40.359Z" fill="#b3b3b3"/>
        <path id="Trazado_999557" data-name="Trazado 999557" d="M46.266,11.812h4.922V12.8h6.891L56.326,41.659a12.091,12.091,0,0,1-2.392,6.526l-.778,1.034H51.424a7.832,7.832,0,0,0-6.142-2.953,7.185,7.185,0,0,0-.925.059l-4-4V11.812Z" fill="#e36b24"/>
        <path id="Trazado_999558" data-name="Trazado 999558" d="M51.187,7.875v3.937H40.359V42.328H32.484L36.225,9.617a1.96,1.96,0,0,1,1.949-1.742Z" fill="#ddd"/>
        <path id="Trazado_999559" data-name="Trazado 999559" d="M62.016,6.891V12.8H51.187V6.891Z" fill="#93c123"/>
        <path id="Trazado_999560" data-name="Trazado 999560" d="M33.272,35.437l-.787,6.891h7.875V35.437Z" fill="#ccc"/>
        <path id="Trazado_999561" data-name="Trazado 999561" d="M40.359,31.5V42.328l4,4a7.185,7.185,0,0,1,.925-.059,7.832,7.832,0,0,1,6.142,2.953h1.732l.778-1.034a12.128,12.128,0,0,0,2.22-5.13C41.62,41.215,40.359,31.5,40.359,31.5Z" fill="#e06027"/>
        <path id="Trazado_999563" data-name="Trazado 999563" d="M20.672,25.594V23.625A1.975,1.975,0,0,0,18.7,21.656H6.891a1.975,1.975,0,0,0-1.969,1.969v1.969h15.75Z" fill="#f5daaa"/>
      </g>
      <g id="Grupo_1107317" data-name="Grupo 1107317">
        <circle id="Elipse_11714" data-name="Elipse 11714" cx="0.984" cy="0.984" r="0.984" transform="translate(45.281 24.609)" fill="#252525"/>
        <path id="Trazado_999564" data-name="Trazado 999564" d="M14.766,50.2A3.938,3.938,0,1,0,18.7,54.141,3.941,3.941,0,0,0,14.766,50.2Zm0,5.906a1.969,1.969,0,1,1,1.969-1.969A1.971,1.971,0,0,1,14.766,56.109Z" fill="#252525"/>
        <path id="Trazado_999565" data-name="Trazado 999565" d="M45.281,50.2a3.938,3.938,0,1,0,3.937,3.938A3.941,3.941,0,0,0,45.281,50.2Zm0,5.906a1.969,1.969,0,1,1,1.969-1.969A1.971,1.971,0,0,1,45.281,56.109Z" fill="#252525"/>
        <path id="Trazado_999566" data-name="Trazado 999566" d="M62.016,5.906H51.187a.984.984,0,0,0-.984.984H38.174a2.938,2.938,0,0,0-2.928,2.615l-3.64,31.839H29.59l.923-15.692a.986.986,0,0,0-.982-1.042h-.815L32.1,3.415a2.782,2.782,0,0,0,.045-.5,2.932,2.932,0,0,0-5.826-.451L22.785,24.609H21.7l.85-18.745a.986.986,0,0,1,.985-.942.984.984,0,0,0,0-1.969,2.952,2.952,0,0,0-2.952,2.82L19.9,20.929a2.929,2.929,0,0,0-1.194-.257H6.891a2.957,2.957,0,0,0-2.953,2.953V34.453a2.948,2.948,0,0,0,2.042,2.795l.382,4.1H.984A.984.984,0,0,0,0,42.328V54.141a.984.984,0,0,0,.984.984h4.98a8.856,8.856,0,0,0,17.6,0H36.48a8.856,8.856,0,0,0,17.6,0h4a.984.984,0,0,0,.984-.984V49.219a.984.984,0,0,0-.984-.984H55.1a13.017,13.017,0,0,0,2.213-6.516L59,13.781h3.011A.984.984,0,0,0,63,12.8V6.891a.984.984,0,0,0-.984-.984ZM37.2,9.724a.972.972,0,0,1,.971-.864H50.2v1.969H40.359a.984.984,0,0,0-.984.984V41.344H33.588ZM28.267,2.781a.963.963,0,0,1,1.914.133.9.9,0,0,1-.018.169l-3.44,21.526H24.779ZM5.906,23.625a.985.985,0,0,1,.984-.984H18.7a.985.985,0,0,1,.984.984v.984H18.7a.984.984,0,0,0-.984.984v8.859a.985.985,0,0,1-.984.984H15.75V33.469a.984.984,0,0,0-1.969,0v1.969H6.891a.985.985,0,0,1-.984-.984ZM7.971,37.406h8.763a2.957,2.957,0,0,0,2.953-2.953V26.578h8.8l-.868,14.766H8.339Zm-6,5.906H39.952l2.455,2.455a8.841,8.841,0,0,0-5.925,7.389H23.567a8.856,8.856,0,0,0-17.6,0h-4Zm12.8,17.719a6.891,6.891,0,1,1,6.891-6.891A6.9,6.9,0,0,1,14.766,61.031Zm30.516,0a6.888,6.888,0,0,1-.8-13.73,6.136,6.136,0,0,1,.8-.051,6.891,6.891,0,0,1,0,13.781Zm11.812-7.875H54.079a8.872,8.872,0,0,0-.873-2.953h3.888ZM55.344,41.6a11.083,11.083,0,0,1-2.2,5.992l-.483.641h-.8a8.786,8.786,0,0,0-6.582-2.953c-.188,0-.362.023-.542.034l-3.4-3.4V12.8h3.938v8.859a.984.984,0,1,0,1.969,0V12.8H50.2a.984.984,0,0,0,.984.984h5.845Zm5.688-29.789H52.172V7.875h8.859Z" fill="#252525"/>
        <path id="Trazado_999567" data-name="Trazado 999567" d="M50.2,17.694l-.345,13.781a.983.983,0,0,0,.96,1.009h.025a.984.984,0,0,0,.983-.96l.345-13.781a.984.984,0,1,0-1.968-.049Z" fill="#252525"/>
      </g>
    </g>
  </g>
</svg>
