<svg xmlns="http://www.w3.org/2000/svg" xmlns:xlink="http://www.w3.org/1999/xlink" width="131" height="132" viewBox="0 0 131 132">
  <defs>
    <clipPath id="clip-path">
      <rect id="Rectángulo_405305" data-name="Rectángulo 405305" width="105" height="105" transform="translate(482.711 3262)" fill="#fff" stroke="#707070" stroke-width="1"/>
    </clipPath>
  </defs>
  <g id="Grupo_1107444" data-name="Grupo 1107444" transform="translate(-469.711 -3248)">
    <ellipse id="Elipse_11629" data-name="Elipse 11629" cx="65.5" cy="66" rx="65.5" ry="66" transform="translate(469.711 3248)" fill="#e5a32c"/>
    <g id="Enmascarar_grupo_1098831" data-name="Enmascarar grupo 1098831" clip-path="url(#clip-path)">
      <g id="destornillador" transform="translate(474.441 3253.252)">
        <g id="Grupo_1107353" data-name="Grupo 1107353">
          <g id="Grupo_1107337" data-name="Grupo 1107337">
            <path id="Trazado_999962" data-name="Trazado 999962" d="M102.953,92.3H61.062V65.223h41.892" fill="#f5daaa"/>
          </g>
          <g id="Grupo_1107338" data-name="Grupo 1107338">
            <path id="Trazado_999963" data-name="Trazado 999963" d="M66.74,84.39l.027,4.094a10.142,10.142,0,0,1-10.08,10.2l-17.833.109-.97-45.8,9.307-.057a10.142,10.142,0,0,1,5.574,1.628l11.113,7.195a6.085,6.085,0,0,1,2.778,5.074l.023,4.071" fill="#f5daaa"/>
          </g>
          <g id="Grupo_1107344" data-name="Grupo 1107344">
            <path id="Trazado_999964" data-name="Trazado 999964" d="M38.918,63.227s-6.74,1.982-7.929,5.55v41.88a19.7,19.7,0,0,0,7.929,1.784,19.7,19.7,0,0,0,7.929-1.784V68.777c-1.189-3.568-7.929-5.55-7.929-5.55Z" fill="#93c123"/>
            <g id="Grupo_1107341" data-name="Grupo 1107341">
              <g id="Grupo_1107340" data-name="Grupo 1107340">
                <g id="Grupo_1107339" data-name="Grupo 1107339">
                  <path id="Trazado_999965" data-name="Trazado 999965" d="M36.3,22.424h5.226V68.3H36.3Z" fill="#a5a5a4"/>
                </g>
              </g>
            </g>
            <g id="Grupo_1107343" data-name="Grupo 1107343">
              <g id="Grupo_1107342" data-name="Grupo 1107342">
                <path id="Trazado_999966" data-name="Trazado 999966" d="M43.254,20.533l-2,4.556H36.7l-2.119-4.556V10.055h8.671Z" fill="#bdc3c7"/>
              </g>
            </g>
            <path id="Trazado_999967" data-name="Trazado 999967" d="M34.582,10.055h8.671v5.767H34.582Z" fill="#a5a5a4"/>
          </g>
          <g id="Grupo_1107349" data-name="Grupo 1107349">
            <g id="Grupo_1107345" data-name="Grupo 1107345">
              <path id="Trazado_999968" data-name="Trazado 999968" d="M25.7,59.267l17.226-.082a5.188,5.188,0,1,1,.061,10.377l-17.226.082a4.057,4.057,0,0,1-4.081-4.034l-.013-2.263a4.057,4.057,0,0,1,4.033-4.08Z" fill="#f5daaa"/>
            </g>
            <g id="Grupo_1107346" data-name="Grupo 1107346">
              <path id="Trazado_999969" data-name="Trazado 999969" d="M23.926,69.613l16.05-.082a5.188,5.188,0,1,1,.061,10.377l-16.05.082a4.057,4.057,0,0,1-4.081-4.034l-.013-2.263a4.057,4.057,0,0,1,4.033-4.079Z" fill="#f5daaa"/>
            </g>
            <g id="Grupo_1107347" data-name="Grupo 1107347">
              <path id="Trazado_999970" data-name="Trazado 999970" d="M23.989,79.957l15.238-.082a5.188,5.188,0,1,1,.061,10.377l-15.239.082A4.057,4.057,0,0,1,19.969,86.3l-.013-2.263a4.057,4.057,0,0,1,4.033-4.08Z" fill="#f5daaa"/>
            </g>
            <g id="Grupo_1107348" data-name="Grupo 1107348">
              <path id="Trazado_999971" data-name="Trazado 999971" d="M45.406,95.4a5.188,5.188,0,0,1-5.165,5.219l-12.072.058a4.057,4.057,0,0,1-4.081-4.034l-.013-2.263a4.057,4.057,0,0,1,4.033-4.08l12.085-.058A5.188,5.188,0,0,1,45.406,95.4Z" fill="#f5daaa"/>
            </g>
          </g>
          <g id="Grupo_1107352" data-name="Grupo 1107352">
            <g id="Grupo_1107351" data-name="Grupo 1107351">
              <g id="Grupo_1107350" data-name="Grupo 1107350">
                <path id="Trazado_999972" data-name="Trazado 999972" d="M46.877,52.933l-9.506.042a10.142,10.142,0,0,0-10.095,10.2l.08,7.029a5.906,5.906,0,1,0,11.811-.076l-.063-3.3a2.028,2.028,0,0,1,2.016-2.042l.893-.009a2.028,2.028,0,0,1,2.041,2.016l.013,2.149a12.171,12.171,0,0,0,12.245,12.1l4.26-.026" fill="#f5daaa"/>
              </g>
            </g>
          </g>
        </g>
        <path id="Trazado_999973" data-name="Trazado 999973" d="M67.348,63.917a7.373,7.373,0,0,0-2.76-3.257L53.475,53.465a21.751,21.751,0,0,0-4.553-1.743l-5.3-.176V24.738l1.613-3.68a1.307,1.307,0,0,0,.11-.524V10.055a1.307,1.307,0,0,0-1.307-1.307H35.366a1.307,1.307,0,0,0-1.307,1.307V20.534a1.306,1.306,0,0,0,.122.551l1.6,3.441V51.692a11.463,11.463,0,0,0-8.632,6.262l-1.459.007h0a5.37,5.37,0,0,0-5.332,5.394l.013,2.263A5.319,5.319,0,0,0,21.517,68.9a5.365,5.365,0,0,0-2.931,4.8l.013,2.263A5.225,5.225,0,0,0,20.47,80a5.348,5.348,0,0,0-1.821,4.047l.013,2.263a5.361,5.361,0,0,0,4.87,5.31,5.323,5.323,0,0,0-.763,2.772l.013,2.263a5.345,5.345,0,0,0,5.361,5.333l2.323-.011v8.683a1.306,1.306,0,0,0,.722,1.169,20.916,20.916,0,0,0,8.513,1.922,20.917,20.917,0,0,0,8.513-1.922,1.306,1.306,0,0,0,.722-1.169v-10.62l7.758-.047a11.46,11.46,0,0,0,10.192-6.382h36.067V91H67.806a11.439,11.439,0,0,0,.268-2.52l-.027-4.094-2.613.017.027,4.092a8.846,8.846,0,0,1-8.782,8.886l-7.742.047V80.1a13.378,13.378,0,0,0,7.3,2.146l4.344-.026-.016-2.613-4.328.026a10.864,10.864,0,0,1-10.862-10.8l-.013-2.149A3.429,3.429,0,0,0,42,63.377l-.888.009A3.371,3.371,0,0,0,37.8,66.76l.063,3.287a4.6,4.6,0,1,1-9.2.052l-.08-7.022a8.836,8.836,0,0,1,8.787-8.889l11.156.143a8.83,8.83,0,0,1,3.53,1.328l11.113,7.195a4.764,4.764,0,0,1,2.182,3.984l.023,4.071,2.613-.015s-.03-4.267-.034-4.365h35V63.917H67.348ZM25.7,60.574l.529,0a11.571,11.571,0,0,0-.265,2.528l.059,5.2-.742,0a2.792,2.792,0,0,1-2.3-2.7l-.013-2.263A2.754,2.754,0,0,1,25.7,60.574Zm-1.68,28.453a2.82,2.82,0,0,1-2.75-2.735l-.013-2.263A2.753,2.753,0,0,1,24,81.264l15.239-.082a3.88,3.88,0,0,1,.127,7.759Zm4.136,10.345a2.739,2.739,0,0,1-2.766-2.735l-.013-2.263a2.753,2.753,0,0,1,2.733-2.766L40.2,91.551h.017a3.882,3.882,0,0,1,.017,7.764ZM46.324,109.8a18.57,18.57,0,0,1-6.622,1.334A18.573,18.573,0,0,1,33.08,109.8v-7.839l2.278-.011v5.067h2.613v-5.079l2.276-.011a6.564,6.564,0,0,0,1.186-.114v5.2h2.613V100.68a6.178,6.178,0,0,0,2.278-3.026ZM45.91,77.433q.2.239.414.47V93.221A6.532,6.532,0,0,0,43.6,89.892a6.47,6.47,0,0,0,.021-9.618v-.157a6.289,6.289,0,0,0,2.288-2.684ZM41.133,66l.888-.009a.737.737,0,0,1,.726.717l.009,1.55s-2.219-.01-2.317-.017l-.029-1.515A.735.735,0,0,1,41.133,66ZM33.26,77.29h.045a7.207,7.207,0,0,0,7.123-6.428,3.91,3.91,0,0,1,2.936,1.925q.2.635.457,1.247a3.823,3.823,0,0,1,.065.588A3.956,3.956,0,0,1,40.03,78.6s-16.249.061-16.35.067a2.792,2.792,0,0,1-2.468-2.72L21.2,73.685a2.753,2.753,0,0,1,2.733-2.766l2.165-.011A7.211,7.211,0,0,0,33.26,77.29ZM38.4,51.57V26.4h2.613V51.558Zm2.792-27.786H38.319l-1.646-3.539V17.128h6.058V20.26Zm-4.514-9.268V11.362h6.058v3.154Z"/>
      </g>
    </g>
  </g>
</svg>
